G04 #@! TF.GenerationSoftware,KiCad,Pcbnew,5.1.10-88a1d61d58~88~ubuntu18.04.1*
G04 #@! TF.CreationDate,2021-10-23T19:38:23+09:00*
G04 #@! TF.ProjectId,CameraJigSTM32F446RE_Head,43616d65-7261-44a6-9967-53544d333246,rev?*
G04 #@! TF.SameCoordinates,Original*
G04 #@! TF.FileFunction,Legend,Bot*
G04 #@! TF.FilePolarity,Positive*
%FSLAX46Y46*%
G04 Gerber Fmt 4.6, Leading zero omitted, Abs format (unit mm)*
G04 Created by KiCad (PCBNEW 5.1.10-88a1d61d58~88~ubuntu18.04.1) date 2021-10-23 19:38:23*
%MOMM*%
%LPD*%
G01*
G04 APERTURE LIST*
%ADD10C,0.150000*%
%ADD11C,0.120000*%
G04 APERTURE END LIST*
D10*
X79905238Y-92412380D02*
X80476666Y-92412380D01*
X80190952Y-92412380D02*
X80190952Y-91412380D01*
X80286190Y-91555238D01*
X80381428Y-91650476D01*
X80476666Y-91698095D01*
X79286190Y-91412380D02*
X79190952Y-91412380D01*
X79095714Y-91460000D01*
X79048095Y-91507619D01*
X79000476Y-91602857D01*
X78952857Y-91793333D01*
X78952857Y-92031428D01*
X79000476Y-92221904D01*
X79048095Y-92317142D01*
X79095714Y-92364761D01*
X79190952Y-92412380D01*
X79286190Y-92412380D01*
X79381428Y-92364761D01*
X79429047Y-92317142D01*
X79476666Y-92221904D01*
X79524285Y-92031428D01*
X79524285Y-91793333D01*
X79476666Y-91602857D01*
X79429047Y-91507619D01*
X79381428Y-91460000D01*
X79286190Y-91412380D01*
X78524285Y-92412380D02*
X78524285Y-91412380D01*
X78429047Y-92031428D02*
X78143333Y-92412380D01*
X78143333Y-91745714D02*
X78524285Y-92126666D01*
X79495238Y-85872380D02*
X80066666Y-85872380D01*
X79780952Y-85872380D02*
X79780952Y-84872380D01*
X79876190Y-85015238D01*
X79971428Y-85110476D01*
X80066666Y-85158095D01*
X78876190Y-84872380D02*
X78780952Y-84872380D01*
X78685714Y-84920000D01*
X78638095Y-84967619D01*
X78590476Y-85062857D01*
X78542857Y-85253333D01*
X78542857Y-85491428D01*
X78590476Y-85681904D01*
X78638095Y-85777142D01*
X78685714Y-85824761D01*
X78780952Y-85872380D01*
X78876190Y-85872380D01*
X78971428Y-85824761D01*
X79019047Y-85777142D01*
X79066666Y-85681904D01*
X79114285Y-85491428D01*
X79114285Y-85253333D01*
X79066666Y-85062857D01*
X79019047Y-84967619D01*
X78971428Y-84920000D01*
X78876190Y-84872380D01*
X78114285Y-85872380D02*
X78114285Y-84872380D01*
X78019047Y-85491428D02*
X77733333Y-85872380D01*
X77733333Y-85205714D02*
X78114285Y-85586666D01*
X79625238Y-79922380D02*
X80196666Y-79922380D01*
X79910952Y-79922380D02*
X79910952Y-78922380D01*
X80006190Y-79065238D01*
X80101428Y-79160476D01*
X80196666Y-79208095D01*
X79006190Y-78922380D02*
X78910952Y-78922380D01*
X78815714Y-78970000D01*
X78768095Y-79017619D01*
X78720476Y-79112857D01*
X78672857Y-79303333D01*
X78672857Y-79541428D01*
X78720476Y-79731904D01*
X78768095Y-79827142D01*
X78815714Y-79874761D01*
X78910952Y-79922380D01*
X79006190Y-79922380D01*
X79101428Y-79874761D01*
X79149047Y-79827142D01*
X79196666Y-79731904D01*
X79244285Y-79541428D01*
X79244285Y-79303333D01*
X79196666Y-79112857D01*
X79149047Y-79017619D01*
X79101428Y-78970000D01*
X79006190Y-78922380D01*
X78244285Y-79922380D02*
X78244285Y-78922380D01*
X78149047Y-79541428D02*
X77863333Y-79922380D01*
X77863333Y-79255714D02*
X78244285Y-79636666D01*
X79625238Y-73332380D02*
X80196666Y-73332380D01*
X79910952Y-73332380D02*
X79910952Y-72332380D01*
X80006190Y-72475238D01*
X80101428Y-72570476D01*
X80196666Y-72618095D01*
X79006190Y-72332380D02*
X78910952Y-72332380D01*
X78815714Y-72380000D01*
X78768095Y-72427619D01*
X78720476Y-72522857D01*
X78672857Y-72713333D01*
X78672857Y-72951428D01*
X78720476Y-73141904D01*
X78768095Y-73237142D01*
X78815714Y-73284761D01*
X78910952Y-73332380D01*
X79006190Y-73332380D01*
X79101428Y-73284761D01*
X79149047Y-73237142D01*
X79196666Y-73141904D01*
X79244285Y-72951428D01*
X79244285Y-72713333D01*
X79196666Y-72522857D01*
X79149047Y-72427619D01*
X79101428Y-72380000D01*
X79006190Y-72332380D01*
X78244285Y-73332380D02*
X78244285Y-72332380D01*
X78149047Y-72951428D02*
X77863333Y-73332380D01*
X77863333Y-72665714D02*
X78244285Y-73046666D01*
X90065238Y-82452380D02*
X90636666Y-82452380D01*
X90350952Y-82452380D02*
X90350952Y-81452380D01*
X90446190Y-81595238D01*
X90541428Y-81690476D01*
X90636666Y-81738095D01*
X89446190Y-81452380D02*
X89350952Y-81452380D01*
X89255714Y-81500000D01*
X89208095Y-81547619D01*
X89160476Y-81642857D01*
X89112857Y-81833333D01*
X89112857Y-82071428D01*
X89160476Y-82261904D01*
X89208095Y-82357142D01*
X89255714Y-82404761D01*
X89350952Y-82452380D01*
X89446190Y-82452380D01*
X89541428Y-82404761D01*
X89589047Y-82357142D01*
X89636666Y-82261904D01*
X89684285Y-82071428D01*
X89684285Y-81833333D01*
X89636666Y-81642857D01*
X89589047Y-81547619D01*
X89541428Y-81500000D01*
X89446190Y-81452380D01*
X88684285Y-82452380D02*
X88684285Y-81452380D01*
X88589047Y-82071428D02*
X88303333Y-82452380D01*
X88303333Y-81785714D02*
X88684285Y-82166666D01*
X90105238Y-88072380D02*
X90676666Y-88072380D01*
X90390952Y-88072380D02*
X90390952Y-87072380D01*
X90486190Y-87215238D01*
X90581428Y-87310476D01*
X90676666Y-87358095D01*
X89486190Y-87072380D02*
X89390952Y-87072380D01*
X89295714Y-87120000D01*
X89248095Y-87167619D01*
X89200476Y-87262857D01*
X89152857Y-87453333D01*
X89152857Y-87691428D01*
X89200476Y-87881904D01*
X89248095Y-87977142D01*
X89295714Y-88024761D01*
X89390952Y-88072380D01*
X89486190Y-88072380D01*
X89581428Y-88024761D01*
X89629047Y-87977142D01*
X89676666Y-87881904D01*
X89724285Y-87691428D01*
X89724285Y-87453333D01*
X89676666Y-87262857D01*
X89629047Y-87167619D01*
X89581428Y-87120000D01*
X89486190Y-87072380D01*
X88724285Y-88072380D02*
X88724285Y-87072380D01*
X88629047Y-87691428D02*
X88343333Y-88072380D01*
X88343333Y-87405714D02*
X88724285Y-87786666D01*
X90015238Y-94252380D02*
X90586666Y-94252380D01*
X90300952Y-94252380D02*
X90300952Y-93252380D01*
X90396190Y-93395238D01*
X90491428Y-93490476D01*
X90586666Y-93538095D01*
X89396190Y-93252380D02*
X89300952Y-93252380D01*
X89205714Y-93300000D01*
X89158095Y-93347619D01*
X89110476Y-93442857D01*
X89062857Y-93633333D01*
X89062857Y-93871428D01*
X89110476Y-94061904D01*
X89158095Y-94157142D01*
X89205714Y-94204761D01*
X89300952Y-94252380D01*
X89396190Y-94252380D01*
X89491428Y-94204761D01*
X89539047Y-94157142D01*
X89586666Y-94061904D01*
X89634285Y-93871428D01*
X89634285Y-93633333D01*
X89586666Y-93442857D01*
X89539047Y-93347619D01*
X89491428Y-93300000D01*
X89396190Y-93252380D01*
X88634285Y-94252380D02*
X88634285Y-93252380D01*
X88539047Y-93871428D02*
X88253333Y-94252380D01*
X88253333Y-93585714D02*
X88634285Y-93966666D01*
X90115238Y-100072380D02*
X90686666Y-100072380D01*
X90400952Y-100072380D02*
X90400952Y-99072380D01*
X90496190Y-99215238D01*
X90591428Y-99310476D01*
X90686666Y-99358095D01*
X89496190Y-99072380D02*
X89400952Y-99072380D01*
X89305714Y-99120000D01*
X89258095Y-99167619D01*
X89210476Y-99262857D01*
X89162857Y-99453333D01*
X89162857Y-99691428D01*
X89210476Y-99881904D01*
X89258095Y-99977142D01*
X89305714Y-100024761D01*
X89400952Y-100072380D01*
X89496190Y-100072380D01*
X89591428Y-100024761D01*
X89639047Y-99977142D01*
X89686666Y-99881904D01*
X89734285Y-99691428D01*
X89734285Y-99453333D01*
X89686666Y-99262857D01*
X89639047Y-99167619D01*
X89591428Y-99120000D01*
X89496190Y-99072380D01*
X88734285Y-100072380D02*
X88734285Y-99072380D01*
X88639047Y-99691428D02*
X88353333Y-100072380D01*
X88353333Y-99405714D02*
X88734285Y-99786666D01*
X79575238Y-98042380D02*
X80146666Y-98042380D01*
X79860952Y-98042380D02*
X79860952Y-97042380D01*
X79956190Y-97185238D01*
X80051428Y-97280476D01*
X80146666Y-97328095D01*
X78956190Y-97042380D02*
X78860952Y-97042380D01*
X78765714Y-97090000D01*
X78718095Y-97137619D01*
X78670476Y-97232857D01*
X78622857Y-97423333D01*
X78622857Y-97661428D01*
X78670476Y-97851904D01*
X78718095Y-97947142D01*
X78765714Y-97994761D01*
X78860952Y-98042380D01*
X78956190Y-98042380D01*
X79051428Y-97994761D01*
X79099047Y-97947142D01*
X79146666Y-97851904D01*
X79194285Y-97661428D01*
X79194285Y-97423333D01*
X79146666Y-97232857D01*
X79099047Y-97137619D01*
X79051428Y-97090000D01*
X78956190Y-97042380D01*
X78194285Y-98042380D02*
X78194285Y-97042380D01*
X78099047Y-97661428D02*
X77813333Y-98042380D01*
X77813333Y-97375714D02*
X78194285Y-97756666D01*
X79575238Y-104302380D02*
X80146666Y-104302380D01*
X79860952Y-104302380D02*
X79860952Y-103302380D01*
X79956190Y-103445238D01*
X80051428Y-103540476D01*
X80146666Y-103588095D01*
X78956190Y-103302380D02*
X78860952Y-103302380D01*
X78765714Y-103350000D01*
X78718095Y-103397619D01*
X78670476Y-103492857D01*
X78622857Y-103683333D01*
X78622857Y-103921428D01*
X78670476Y-104111904D01*
X78718095Y-104207142D01*
X78765714Y-104254761D01*
X78860952Y-104302380D01*
X78956190Y-104302380D01*
X79051428Y-104254761D01*
X79099047Y-104207142D01*
X79146666Y-104111904D01*
X79194285Y-103921428D01*
X79194285Y-103683333D01*
X79146666Y-103492857D01*
X79099047Y-103397619D01*
X79051428Y-103350000D01*
X78956190Y-103302380D01*
X78194285Y-104302380D02*
X78194285Y-103302380D01*
X78099047Y-103921428D02*
X77813333Y-104302380D01*
X77813333Y-103635714D02*
X78194285Y-104016666D01*
X89985238Y-106542380D02*
X90556666Y-106542380D01*
X90270952Y-106542380D02*
X90270952Y-105542380D01*
X90366190Y-105685238D01*
X90461428Y-105780476D01*
X90556666Y-105828095D01*
X89366190Y-105542380D02*
X89270952Y-105542380D01*
X89175714Y-105590000D01*
X89128095Y-105637619D01*
X89080476Y-105732857D01*
X89032857Y-105923333D01*
X89032857Y-106161428D01*
X89080476Y-106351904D01*
X89128095Y-106447142D01*
X89175714Y-106494761D01*
X89270952Y-106542380D01*
X89366190Y-106542380D01*
X89461428Y-106494761D01*
X89509047Y-106447142D01*
X89556666Y-106351904D01*
X89604285Y-106161428D01*
X89604285Y-105923333D01*
X89556666Y-105732857D01*
X89509047Y-105637619D01*
X89461428Y-105590000D01*
X89366190Y-105542380D01*
X88604285Y-106542380D02*
X88604285Y-105542380D01*
X88509047Y-106161428D02*
X88223333Y-106542380D01*
X88223333Y-105875714D02*
X88604285Y-106256666D01*
X86899523Y-103878571D02*
X86756666Y-103926190D01*
X86709047Y-103973809D01*
X86661428Y-104069047D01*
X86661428Y-104211904D01*
X86709047Y-104307142D01*
X86756666Y-104354761D01*
X86851904Y-104402380D01*
X87232857Y-104402380D01*
X87232857Y-103402380D01*
X86899523Y-103402380D01*
X86804285Y-103450000D01*
X86756666Y-103497619D01*
X86709047Y-103592857D01*
X86709047Y-103688095D01*
X86756666Y-103783333D01*
X86804285Y-103830952D01*
X86899523Y-103878571D01*
X87232857Y-103878571D01*
X86280476Y-104354761D02*
X86137619Y-104402380D01*
X85899523Y-104402380D01*
X85804285Y-104354761D01*
X85756666Y-104307142D01*
X85709047Y-104211904D01*
X85709047Y-104116666D01*
X85756666Y-104021428D01*
X85804285Y-103973809D01*
X85899523Y-103926190D01*
X86090000Y-103878571D01*
X86185238Y-103830952D01*
X86232857Y-103783333D01*
X86280476Y-103688095D01*
X86280476Y-103592857D01*
X86232857Y-103497619D01*
X86185238Y-103450000D01*
X86090000Y-103402380D01*
X85851904Y-103402380D01*
X85709047Y-103450000D01*
X85328095Y-104354761D02*
X85185238Y-104402380D01*
X84947142Y-104402380D01*
X84851904Y-104354761D01*
X84804285Y-104307142D01*
X84756666Y-104211904D01*
X84756666Y-104116666D01*
X84804285Y-104021428D01*
X84851904Y-103973809D01*
X84947142Y-103926190D01*
X85137619Y-103878571D01*
X85232857Y-103830952D01*
X85280476Y-103783333D01*
X85328095Y-103688095D01*
X85328095Y-103592857D01*
X85280476Y-103497619D01*
X85232857Y-103450000D01*
X85137619Y-103402380D01*
X84899523Y-103402380D01*
X84756666Y-103450000D01*
X83804285Y-104402380D02*
X84375714Y-104402380D01*
X84090000Y-104402380D02*
X84090000Y-103402380D01*
X84185238Y-103545238D01*
X84280476Y-103640476D01*
X84375714Y-103688095D01*
X83470952Y-103402380D02*
X82851904Y-103402380D01*
X83185238Y-103783333D01*
X83042380Y-103783333D01*
X82947142Y-103830952D01*
X82899523Y-103878571D01*
X82851904Y-103973809D01*
X82851904Y-104211904D01*
X82899523Y-104307142D01*
X82947142Y-104354761D01*
X83042380Y-104402380D01*
X83328095Y-104402380D01*
X83423333Y-104354761D01*
X83470952Y-104307142D01*
X82280476Y-103830952D02*
X82375714Y-103783333D01*
X82423333Y-103735714D01*
X82470952Y-103640476D01*
X82470952Y-103592857D01*
X82423333Y-103497619D01*
X82375714Y-103450000D01*
X82280476Y-103402380D01*
X82090000Y-103402380D01*
X81994761Y-103450000D01*
X81947142Y-103497619D01*
X81899523Y-103592857D01*
X81899523Y-103640476D01*
X81947142Y-103735714D01*
X81994761Y-103783333D01*
X82090000Y-103830952D01*
X82280476Y-103830952D01*
X82375714Y-103878571D01*
X82423333Y-103926190D01*
X82470952Y-104021428D01*
X82470952Y-104211904D01*
X82423333Y-104307142D01*
X82375714Y-104354761D01*
X82280476Y-104402380D01*
X82090000Y-104402380D01*
X81994761Y-104354761D01*
X81947142Y-104307142D01*
X81899523Y-104211904D01*
X81899523Y-104021428D01*
X81947142Y-103926190D01*
X81994761Y-103878571D01*
X82090000Y-103830952D01*
X86709523Y-97428571D02*
X86566666Y-97476190D01*
X86519047Y-97523809D01*
X86471428Y-97619047D01*
X86471428Y-97761904D01*
X86519047Y-97857142D01*
X86566666Y-97904761D01*
X86661904Y-97952380D01*
X87042857Y-97952380D01*
X87042857Y-96952380D01*
X86709523Y-96952380D01*
X86614285Y-97000000D01*
X86566666Y-97047619D01*
X86519047Y-97142857D01*
X86519047Y-97238095D01*
X86566666Y-97333333D01*
X86614285Y-97380952D01*
X86709523Y-97428571D01*
X87042857Y-97428571D01*
X86090476Y-97904761D02*
X85947619Y-97952380D01*
X85709523Y-97952380D01*
X85614285Y-97904761D01*
X85566666Y-97857142D01*
X85519047Y-97761904D01*
X85519047Y-97666666D01*
X85566666Y-97571428D01*
X85614285Y-97523809D01*
X85709523Y-97476190D01*
X85900000Y-97428571D01*
X85995238Y-97380952D01*
X86042857Y-97333333D01*
X86090476Y-97238095D01*
X86090476Y-97142857D01*
X86042857Y-97047619D01*
X85995238Y-97000000D01*
X85900000Y-96952380D01*
X85661904Y-96952380D01*
X85519047Y-97000000D01*
X85138095Y-97904761D02*
X84995238Y-97952380D01*
X84757142Y-97952380D01*
X84661904Y-97904761D01*
X84614285Y-97857142D01*
X84566666Y-97761904D01*
X84566666Y-97666666D01*
X84614285Y-97571428D01*
X84661904Y-97523809D01*
X84757142Y-97476190D01*
X84947619Y-97428571D01*
X85042857Y-97380952D01*
X85090476Y-97333333D01*
X85138095Y-97238095D01*
X85138095Y-97142857D01*
X85090476Y-97047619D01*
X85042857Y-97000000D01*
X84947619Y-96952380D01*
X84709523Y-96952380D01*
X84566666Y-97000000D01*
X83614285Y-97952380D02*
X84185714Y-97952380D01*
X83900000Y-97952380D02*
X83900000Y-96952380D01*
X83995238Y-97095238D01*
X84090476Y-97190476D01*
X84185714Y-97238095D01*
X83280952Y-96952380D02*
X82661904Y-96952380D01*
X82995238Y-97333333D01*
X82852380Y-97333333D01*
X82757142Y-97380952D01*
X82709523Y-97428571D01*
X82661904Y-97523809D01*
X82661904Y-97761904D01*
X82709523Y-97857142D01*
X82757142Y-97904761D01*
X82852380Y-97952380D01*
X83138095Y-97952380D01*
X83233333Y-97904761D01*
X83280952Y-97857142D01*
X82090476Y-97380952D02*
X82185714Y-97333333D01*
X82233333Y-97285714D01*
X82280952Y-97190476D01*
X82280952Y-97142857D01*
X82233333Y-97047619D01*
X82185714Y-97000000D01*
X82090476Y-96952380D01*
X81900000Y-96952380D01*
X81804761Y-97000000D01*
X81757142Y-97047619D01*
X81709523Y-97142857D01*
X81709523Y-97190476D01*
X81757142Y-97285714D01*
X81804761Y-97333333D01*
X81900000Y-97380952D01*
X82090476Y-97380952D01*
X82185714Y-97428571D01*
X82233333Y-97476190D01*
X82280952Y-97571428D01*
X82280952Y-97761904D01*
X82233333Y-97857142D01*
X82185714Y-97904761D01*
X82090476Y-97952380D01*
X81900000Y-97952380D01*
X81804761Y-97904761D01*
X81757142Y-97857142D01*
X81709523Y-97761904D01*
X81709523Y-97571428D01*
X81757142Y-97476190D01*
X81804761Y-97428571D01*
X81900000Y-97380952D01*
X86669523Y-91528571D02*
X86526666Y-91576190D01*
X86479047Y-91623809D01*
X86431428Y-91719047D01*
X86431428Y-91861904D01*
X86479047Y-91957142D01*
X86526666Y-92004761D01*
X86621904Y-92052380D01*
X87002857Y-92052380D01*
X87002857Y-91052380D01*
X86669523Y-91052380D01*
X86574285Y-91100000D01*
X86526666Y-91147619D01*
X86479047Y-91242857D01*
X86479047Y-91338095D01*
X86526666Y-91433333D01*
X86574285Y-91480952D01*
X86669523Y-91528571D01*
X87002857Y-91528571D01*
X86050476Y-92004761D02*
X85907619Y-92052380D01*
X85669523Y-92052380D01*
X85574285Y-92004761D01*
X85526666Y-91957142D01*
X85479047Y-91861904D01*
X85479047Y-91766666D01*
X85526666Y-91671428D01*
X85574285Y-91623809D01*
X85669523Y-91576190D01*
X85860000Y-91528571D01*
X85955238Y-91480952D01*
X86002857Y-91433333D01*
X86050476Y-91338095D01*
X86050476Y-91242857D01*
X86002857Y-91147619D01*
X85955238Y-91100000D01*
X85860000Y-91052380D01*
X85621904Y-91052380D01*
X85479047Y-91100000D01*
X85098095Y-92004761D02*
X84955238Y-92052380D01*
X84717142Y-92052380D01*
X84621904Y-92004761D01*
X84574285Y-91957142D01*
X84526666Y-91861904D01*
X84526666Y-91766666D01*
X84574285Y-91671428D01*
X84621904Y-91623809D01*
X84717142Y-91576190D01*
X84907619Y-91528571D01*
X85002857Y-91480952D01*
X85050476Y-91433333D01*
X85098095Y-91338095D01*
X85098095Y-91242857D01*
X85050476Y-91147619D01*
X85002857Y-91100000D01*
X84907619Y-91052380D01*
X84669523Y-91052380D01*
X84526666Y-91100000D01*
X83574285Y-92052380D02*
X84145714Y-92052380D01*
X83860000Y-92052380D02*
X83860000Y-91052380D01*
X83955238Y-91195238D01*
X84050476Y-91290476D01*
X84145714Y-91338095D01*
X83240952Y-91052380D02*
X82621904Y-91052380D01*
X82955238Y-91433333D01*
X82812380Y-91433333D01*
X82717142Y-91480952D01*
X82669523Y-91528571D01*
X82621904Y-91623809D01*
X82621904Y-91861904D01*
X82669523Y-91957142D01*
X82717142Y-92004761D01*
X82812380Y-92052380D01*
X83098095Y-92052380D01*
X83193333Y-92004761D01*
X83240952Y-91957142D01*
X82050476Y-91480952D02*
X82145714Y-91433333D01*
X82193333Y-91385714D01*
X82240952Y-91290476D01*
X82240952Y-91242857D01*
X82193333Y-91147619D01*
X82145714Y-91100000D01*
X82050476Y-91052380D01*
X81860000Y-91052380D01*
X81764761Y-91100000D01*
X81717142Y-91147619D01*
X81669523Y-91242857D01*
X81669523Y-91290476D01*
X81717142Y-91385714D01*
X81764761Y-91433333D01*
X81860000Y-91480952D01*
X82050476Y-91480952D01*
X82145714Y-91528571D01*
X82193333Y-91576190D01*
X82240952Y-91671428D01*
X82240952Y-91861904D01*
X82193333Y-91957142D01*
X82145714Y-92004761D01*
X82050476Y-92052380D01*
X81860000Y-92052380D01*
X81764761Y-92004761D01*
X81717142Y-91957142D01*
X81669523Y-91861904D01*
X81669523Y-91671428D01*
X81717142Y-91576190D01*
X81764761Y-91528571D01*
X81860000Y-91480952D01*
X86669523Y-85338571D02*
X86526666Y-85386190D01*
X86479047Y-85433809D01*
X86431428Y-85529047D01*
X86431428Y-85671904D01*
X86479047Y-85767142D01*
X86526666Y-85814761D01*
X86621904Y-85862380D01*
X87002857Y-85862380D01*
X87002857Y-84862380D01*
X86669523Y-84862380D01*
X86574285Y-84910000D01*
X86526666Y-84957619D01*
X86479047Y-85052857D01*
X86479047Y-85148095D01*
X86526666Y-85243333D01*
X86574285Y-85290952D01*
X86669523Y-85338571D01*
X87002857Y-85338571D01*
X86050476Y-85814761D02*
X85907619Y-85862380D01*
X85669523Y-85862380D01*
X85574285Y-85814761D01*
X85526666Y-85767142D01*
X85479047Y-85671904D01*
X85479047Y-85576666D01*
X85526666Y-85481428D01*
X85574285Y-85433809D01*
X85669523Y-85386190D01*
X85860000Y-85338571D01*
X85955238Y-85290952D01*
X86002857Y-85243333D01*
X86050476Y-85148095D01*
X86050476Y-85052857D01*
X86002857Y-84957619D01*
X85955238Y-84910000D01*
X85860000Y-84862380D01*
X85621904Y-84862380D01*
X85479047Y-84910000D01*
X85098095Y-85814761D02*
X84955238Y-85862380D01*
X84717142Y-85862380D01*
X84621904Y-85814761D01*
X84574285Y-85767142D01*
X84526666Y-85671904D01*
X84526666Y-85576666D01*
X84574285Y-85481428D01*
X84621904Y-85433809D01*
X84717142Y-85386190D01*
X84907619Y-85338571D01*
X85002857Y-85290952D01*
X85050476Y-85243333D01*
X85098095Y-85148095D01*
X85098095Y-85052857D01*
X85050476Y-84957619D01*
X85002857Y-84910000D01*
X84907619Y-84862380D01*
X84669523Y-84862380D01*
X84526666Y-84910000D01*
X83574285Y-85862380D02*
X84145714Y-85862380D01*
X83860000Y-85862380D02*
X83860000Y-84862380D01*
X83955238Y-85005238D01*
X84050476Y-85100476D01*
X84145714Y-85148095D01*
X83240952Y-84862380D02*
X82621904Y-84862380D01*
X82955238Y-85243333D01*
X82812380Y-85243333D01*
X82717142Y-85290952D01*
X82669523Y-85338571D01*
X82621904Y-85433809D01*
X82621904Y-85671904D01*
X82669523Y-85767142D01*
X82717142Y-85814761D01*
X82812380Y-85862380D01*
X83098095Y-85862380D01*
X83193333Y-85814761D01*
X83240952Y-85767142D01*
X82050476Y-85290952D02*
X82145714Y-85243333D01*
X82193333Y-85195714D01*
X82240952Y-85100476D01*
X82240952Y-85052857D01*
X82193333Y-84957619D01*
X82145714Y-84910000D01*
X82050476Y-84862380D01*
X81860000Y-84862380D01*
X81764761Y-84910000D01*
X81717142Y-84957619D01*
X81669523Y-85052857D01*
X81669523Y-85100476D01*
X81717142Y-85195714D01*
X81764761Y-85243333D01*
X81860000Y-85290952D01*
X82050476Y-85290952D01*
X82145714Y-85338571D01*
X82193333Y-85386190D01*
X82240952Y-85481428D01*
X82240952Y-85671904D01*
X82193333Y-85767142D01*
X82145714Y-85814761D01*
X82050476Y-85862380D01*
X81860000Y-85862380D01*
X81764761Y-85814761D01*
X81717142Y-85767142D01*
X81669523Y-85671904D01*
X81669523Y-85481428D01*
X81717142Y-85386190D01*
X81764761Y-85338571D01*
X81860000Y-85290952D01*
X86539523Y-79208571D02*
X86396666Y-79256190D01*
X86349047Y-79303809D01*
X86301428Y-79399047D01*
X86301428Y-79541904D01*
X86349047Y-79637142D01*
X86396666Y-79684761D01*
X86491904Y-79732380D01*
X86872857Y-79732380D01*
X86872857Y-78732380D01*
X86539523Y-78732380D01*
X86444285Y-78780000D01*
X86396666Y-78827619D01*
X86349047Y-78922857D01*
X86349047Y-79018095D01*
X86396666Y-79113333D01*
X86444285Y-79160952D01*
X86539523Y-79208571D01*
X86872857Y-79208571D01*
X85920476Y-79684761D02*
X85777619Y-79732380D01*
X85539523Y-79732380D01*
X85444285Y-79684761D01*
X85396666Y-79637142D01*
X85349047Y-79541904D01*
X85349047Y-79446666D01*
X85396666Y-79351428D01*
X85444285Y-79303809D01*
X85539523Y-79256190D01*
X85730000Y-79208571D01*
X85825238Y-79160952D01*
X85872857Y-79113333D01*
X85920476Y-79018095D01*
X85920476Y-78922857D01*
X85872857Y-78827619D01*
X85825238Y-78780000D01*
X85730000Y-78732380D01*
X85491904Y-78732380D01*
X85349047Y-78780000D01*
X84968095Y-79684761D02*
X84825238Y-79732380D01*
X84587142Y-79732380D01*
X84491904Y-79684761D01*
X84444285Y-79637142D01*
X84396666Y-79541904D01*
X84396666Y-79446666D01*
X84444285Y-79351428D01*
X84491904Y-79303809D01*
X84587142Y-79256190D01*
X84777619Y-79208571D01*
X84872857Y-79160952D01*
X84920476Y-79113333D01*
X84968095Y-79018095D01*
X84968095Y-78922857D01*
X84920476Y-78827619D01*
X84872857Y-78780000D01*
X84777619Y-78732380D01*
X84539523Y-78732380D01*
X84396666Y-78780000D01*
X83444285Y-79732380D02*
X84015714Y-79732380D01*
X83730000Y-79732380D02*
X83730000Y-78732380D01*
X83825238Y-78875238D01*
X83920476Y-78970476D01*
X84015714Y-79018095D01*
X83110952Y-78732380D02*
X82491904Y-78732380D01*
X82825238Y-79113333D01*
X82682380Y-79113333D01*
X82587142Y-79160952D01*
X82539523Y-79208571D01*
X82491904Y-79303809D01*
X82491904Y-79541904D01*
X82539523Y-79637142D01*
X82587142Y-79684761D01*
X82682380Y-79732380D01*
X82968095Y-79732380D01*
X83063333Y-79684761D01*
X83110952Y-79637142D01*
X81920476Y-79160952D02*
X82015714Y-79113333D01*
X82063333Y-79065714D01*
X82110952Y-78970476D01*
X82110952Y-78922857D01*
X82063333Y-78827619D01*
X82015714Y-78780000D01*
X81920476Y-78732380D01*
X81730000Y-78732380D01*
X81634761Y-78780000D01*
X81587142Y-78827619D01*
X81539523Y-78922857D01*
X81539523Y-78970476D01*
X81587142Y-79065714D01*
X81634761Y-79113333D01*
X81730000Y-79160952D01*
X81920476Y-79160952D01*
X82015714Y-79208571D01*
X82063333Y-79256190D01*
X82110952Y-79351428D01*
X82110952Y-79541904D01*
X82063333Y-79637142D01*
X82015714Y-79684761D01*
X81920476Y-79732380D01*
X81730000Y-79732380D01*
X81634761Y-79684761D01*
X81587142Y-79637142D01*
X81539523Y-79541904D01*
X81539523Y-79351428D01*
X81587142Y-79256190D01*
X81634761Y-79208571D01*
X81730000Y-79160952D01*
X86609523Y-72498571D02*
X86466666Y-72546190D01*
X86419047Y-72593809D01*
X86371428Y-72689047D01*
X86371428Y-72831904D01*
X86419047Y-72927142D01*
X86466666Y-72974761D01*
X86561904Y-73022380D01*
X86942857Y-73022380D01*
X86942857Y-72022380D01*
X86609523Y-72022380D01*
X86514285Y-72070000D01*
X86466666Y-72117619D01*
X86419047Y-72212857D01*
X86419047Y-72308095D01*
X86466666Y-72403333D01*
X86514285Y-72450952D01*
X86609523Y-72498571D01*
X86942857Y-72498571D01*
X85990476Y-72974761D02*
X85847619Y-73022380D01*
X85609523Y-73022380D01*
X85514285Y-72974761D01*
X85466666Y-72927142D01*
X85419047Y-72831904D01*
X85419047Y-72736666D01*
X85466666Y-72641428D01*
X85514285Y-72593809D01*
X85609523Y-72546190D01*
X85800000Y-72498571D01*
X85895238Y-72450952D01*
X85942857Y-72403333D01*
X85990476Y-72308095D01*
X85990476Y-72212857D01*
X85942857Y-72117619D01*
X85895238Y-72070000D01*
X85800000Y-72022380D01*
X85561904Y-72022380D01*
X85419047Y-72070000D01*
X85038095Y-72974761D02*
X84895238Y-73022380D01*
X84657142Y-73022380D01*
X84561904Y-72974761D01*
X84514285Y-72927142D01*
X84466666Y-72831904D01*
X84466666Y-72736666D01*
X84514285Y-72641428D01*
X84561904Y-72593809D01*
X84657142Y-72546190D01*
X84847619Y-72498571D01*
X84942857Y-72450952D01*
X84990476Y-72403333D01*
X85038095Y-72308095D01*
X85038095Y-72212857D01*
X84990476Y-72117619D01*
X84942857Y-72070000D01*
X84847619Y-72022380D01*
X84609523Y-72022380D01*
X84466666Y-72070000D01*
X83514285Y-73022380D02*
X84085714Y-73022380D01*
X83800000Y-73022380D02*
X83800000Y-72022380D01*
X83895238Y-72165238D01*
X83990476Y-72260476D01*
X84085714Y-72308095D01*
X83180952Y-72022380D02*
X82561904Y-72022380D01*
X82895238Y-72403333D01*
X82752380Y-72403333D01*
X82657142Y-72450952D01*
X82609523Y-72498571D01*
X82561904Y-72593809D01*
X82561904Y-72831904D01*
X82609523Y-72927142D01*
X82657142Y-72974761D01*
X82752380Y-73022380D01*
X83038095Y-73022380D01*
X83133333Y-72974761D01*
X83180952Y-72927142D01*
X81990476Y-72450952D02*
X82085714Y-72403333D01*
X82133333Y-72355714D01*
X82180952Y-72260476D01*
X82180952Y-72212857D01*
X82133333Y-72117619D01*
X82085714Y-72070000D01*
X81990476Y-72022380D01*
X81800000Y-72022380D01*
X81704761Y-72070000D01*
X81657142Y-72117619D01*
X81609523Y-72212857D01*
X81609523Y-72260476D01*
X81657142Y-72355714D01*
X81704761Y-72403333D01*
X81800000Y-72450952D01*
X81990476Y-72450952D01*
X82085714Y-72498571D01*
X82133333Y-72546190D01*
X82180952Y-72641428D01*
X82180952Y-72831904D01*
X82133333Y-72927142D01*
X82085714Y-72974761D01*
X81990476Y-73022380D01*
X81800000Y-73022380D01*
X81704761Y-72974761D01*
X81657142Y-72927142D01*
X81609523Y-72831904D01*
X81609523Y-72641428D01*
X81657142Y-72546190D01*
X81704761Y-72498571D01*
X81800000Y-72450952D01*
X90135238Y-75692380D02*
X90706666Y-75692380D01*
X90420952Y-75692380D02*
X90420952Y-74692380D01*
X90516190Y-74835238D01*
X90611428Y-74930476D01*
X90706666Y-74978095D01*
X89516190Y-74692380D02*
X89420952Y-74692380D01*
X89325714Y-74740000D01*
X89278095Y-74787619D01*
X89230476Y-74882857D01*
X89182857Y-75073333D01*
X89182857Y-75311428D01*
X89230476Y-75501904D01*
X89278095Y-75597142D01*
X89325714Y-75644761D01*
X89420952Y-75692380D01*
X89516190Y-75692380D01*
X89611428Y-75644761D01*
X89659047Y-75597142D01*
X89706666Y-75501904D01*
X89754285Y-75311428D01*
X89754285Y-75073333D01*
X89706666Y-74882857D01*
X89659047Y-74787619D01*
X89611428Y-74740000D01*
X89516190Y-74692380D01*
X88754285Y-75692380D02*
X88754285Y-74692380D01*
X88659047Y-75311428D02*
X88373333Y-75692380D01*
X88373333Y-75025714D02*
X88754285Y-75406666D01*
X127682380Y-77364761D02*
X127682380Y-76793333D01*
X127682380Y-77079047D02*
X126682380Y-77079047D01*
X126825238Y-76983809D01*
X126920476Y-76888571D01*
X126968095Y-76793333D01*
X127015714Y-78221904D02*
X127682380Y-78221904D01*
X127015714Y-77793333D02*
X127539523Y-77793333D01*
X127634761Y-77840952D01*
X127682380Y-77936190D01*
X127682380Y-78079047D01*
X127634761Y-78174285D01*
X127587142Y-78221904D01*
X127158571Y-79031428D02*
X127158571Y-78698095D01*
X127682380Y-78698095D02*
X126682380Y-78698095D01*
X126682380Y-79174285D01*
X122312380Y-77254761D02*
X122312380Y-76683333D01*
X122312380Y-76969047D02*
X121312380Y-76969047D01*
X121455238Y-76873809D01*
X121550476Y-76778571D01*
X121598095Y-76683333D01*
X121645714Y-78111904D02*
X122312380Y-78111904D01*
X121645714Y-77683333D02*
X122169523Y-77683333D01*
X122264761Y-77730952D01*
X122312380Y-77826190D01*
X122312380Y-77969047D01*
X122264761Y-78064285D01*
X122217142Y-78111904D01*
X121788571Y-78921428D02*
X121788571Y-78588095D01*
X122312380Y-78588095D02*
X121312380Y-78588095D01*
X121312380Y-79064285D01*
D11*
G04 #@! TO.C,C2*
X124208000Y-77577733D02*
X124208000Y-77870267D01*
X123188000Y-77577733D02*
X123188000Y-77870267D01*
G04 #@! TO.C,C3*
X128268000Y-78124267D02*
X128268000Y-77831733D01*
X129288000Y-78124267D02*
X129288000Y-77831733D01*
G04 #@! TO.C,Q2*
X85258000Y-84060000D02*
X82828000Y-84060000D01*
X85278000Y-84050000D02*
X85278000Y-83050000D01*
X85278000Y-81000000D02*
X83428000Y-81000000D01*
X85278000Y-82050000D02*
X85278000Y-81000000D01*
G04 #@! TO.C,Q3*
X85278000Y-93734000D02*
X85278000Y-92684000D01*
X85278000Y-92684000D02*
X83428000Y-92684000D01*
X85278000Y-95734000D02*
X85278000Y-94734000D01*
X85258000Y-95744000D02*
X82828000Y-95744000D01*
G04 #@! TO.C,Q4*
X85278000Y-75192000D02*
X85278000Y-74142000D01*
X85278000Y-74142000D02*
X83428000Y-74142000D01*
X85278000Y-77192000D02*
X85278000Y-76192000D01*
X85258000Y-77202000D02*
X82828000Y-77202000D01*
G04 #@! TO.C,Q5*
X85258000Y-89394000D02*
X82828000Y-89394000D01*
X85278000Y-89384000D02*
X85278000Y-88384000D01*
X85278000Y-86334000D02*
X83428000Y-86334000D01*
X85278000Y-87384000D02*
X85278000Y-86334000D01*
G04 #@! TO.C,Q9*
X85278000Y-99576000D02*
X85278000Y-98526000D01*
X85278000Y-98526000D02*
X83428000Y-98526000D01*
X85278000Y-101576000D02*
X85278000Y-100576000D01*
X85258000Y-101586000D02*
X82828000Y-101586000D01*
G04 #@! TO.C,Q11*
X85258000Y-108190000D02*
X82828000Y-108190000D01*
X85278000Y-108180000D02*
X85278000Y-107180000D01*
X85278000Y-105130000D02*
X83428000Y-105130000D01*
X85278000Y-106180000D02*
X85278000Y-105130000D01*
G04 #@! TO.C,R3*
X80532500Y-82961724D02*
X80532500Y-82452276D01*
X79487500Y-82961724D02*
X79487500Y-82452276D01*
G04 #@! TO.C,R4*
X80532500Y-94742724D02*
X80532500Y-94233276D01*
X79487500Y-94742724D02*
X79487500Y-94233276D01*
G04 #@! TO.C,R5*
X79487500Y-76097224D02*
X79487500Y-75587776D01*
X80532500Y-76097224D02*
X80532500Y-75587776D01*
G04 #@! TO.C,R6*
X79487500Y-88231724D02*
X79487500Y-87722276D01*
X80532500Y-88231724D02*
X80532500Y-87722276D01*
G04 #@! TO.C,R10*
X89153276Y-83297500D02*
X89662724Y-83297500D01*
X89153276Y-84342500D02*
X89662724Y-84342500D01*
G04 #@! TO.C,R11*
X89153276Y-94981500D02*
X89662724Y-94981500D01*
X89153276Y-96026500D02*
X89662724Y-96026500D01*
G04 #@! TO.C,R12*
X89153276Y-77484500D02*
X89662724Y-77484500D01*
X89153276Y-76439500D02*
X89662724Y-76439500D01*
G04 #@! TO.C,R13*
X89153276Y-89676500D02*
X89662724Y-89676500D01*
X89153276Y-88631500D02*
X89662724Y-88631500D01*
G04 #@! TO.C,R17*
X79487500Y-100584724D02*
X79487500Y-100075276D01*
X80532500Y-100584724D02*
X80532500Y-100075276D01*
G04 #@! TO.C,R19*
X79487500Y-106934724D02*
X79487500Y-106425276D01*
X80532500Y-106934724D02*
X80532500Y-106425276D01*
G04 #@! TO.C,R20*
X89153276Y-101868500D02*
X89662724Y-101868500D01*
X89153276Y-100823500D02*
X89662724Y-100823500D01*
G04 #@! TO.C,R22*
X89153276Y-108472500D02*
X89662724Y-108472500D01*
X89153276Y-107427500D02*
X89662724Y-107427500D01*
G04 #@! TD*
M02*
