G04 #@! TF.GenerationSoftware,KiCad,Pcbnew,5.1.10-88a1d61d58~88~ubuntu18.04.1*
G04 #@! TF.CreationDate,2021-10-23T19:38:23+09:00*
G04 #@! TF.ProjectId,CameraJigSTM32F446RE_Head,43616d65-7261-44a6-9967-53544d333246,rev?*
G04 #@! TF.SameCoordinates,Original*
G04 #@! TF.FileFunction,Paste,Top*
G04 #@! TF.FilePolarity,Positive*
%FSLAX46Y46*%
G04 Gerber Fmt 4.6, Leading zero omitted, Abs format (unit mm)*
G04 Created by KiCad (PCBNEW 5.1.10-88a1d61d58~88~ubuntu18.04.1) date 2021-10-23 19:38:23*
%MOMM*%
%LPD*%
G01*
G04 APERTURE LIST*
%ADD10R,2.000000X0.610000*%
%ADD11R,3.600000X2.680000*%
%ADD12R,2.000000X0.650000*%
%ADD13R,0.950000X1.170000*%
%ADD14R,0.500000X0.250000*%
G04 APERTURE END LIST*
G04 #@! TO.C,C1*
G36*
G01*
X123968500Y-69212000D02*
X124443500Y-69212000D01*
G75*
G02*
X124681000Y-69449500I0J-237500D01*
G01*
X124681000Y-70049500D01*
G75*
G02*
X124443500Y-70287000I-237500J0D01*
G01*
X123968500Y-70287000D01*
G75*
G02*
X123731000Y-70049500I0J237500D01*
G01*
X123731000Y-69449500D01*
G75*
G02*
X123968500Y-69212000I237500J0D01*
G01*
G37*
G36*
G01*
X123968500Y-70937000D02*
X124443500Y-70937000D01*
G75*
G02*
X124681000Y-71174500I0J-237500D01*
G01*
X124681000Y-71774500D01*
G75*
G02*
X124443500Y-72012000I-237500J0D01*
G01*
X123968500Y-72012000D01*
G75*
G02*
X123731000Y-71774500I0J237500D01*
G01*
X123731000Y-71174500D01*
G75*
G02*
X123968500Y-70937000I237500J0D01*
G01*
G37*
G04 #@! TD*
G04 #@! TO.C,C4*
G36*
G01*
X123968500Y-64132000D02*
X124443500Y-64132000D01*
G75*
G02*
X124681000Y-64369500I0J-237500D01*
G01*
X124681000Y-64969500D01*
G75*
G02*
X124443500Y-65207000I-237500J0D01*
G01*
X123968500Y-65207000D01*
G75*
G02*
X123731000Y-64969500I0J237500D01*
G01*
X123731000Y-64369500D01*
G75*
G02*
X123968500Y-64132000I237500J0D01*
G01*
G37*
G36*
G01*
X123968500Y-65857000D02*
X124443500Y-65857000D01*
G75*
G02*
X124681000Y-66094500I0J-237500D01*
G01*
X124681000Y-66694500D01*
G75*
G02*
X124443500Y-66932000I-237500J0D01*
G01*
X123968500Y-66932000D01*
G75*
G02*
X123731000Y-66694500I0J237500D01*
G01*
X123731000Y-66094500D01*
G75*
G02*
X123968500Y-65857000I237500J0D01*
G01*
G37*
G04 #@! TD*
D10*
G04 #@! TO.C,J2*
X135912000Y-91926000D03*
X135912000Y-92926000D03*
X135912000Y-93926000D03*
X135912000Y-94926000D03*
X135912000Y-95926000D03*
X135912000Y-96926000D03*
X135912000Y-97926000D03*
X135912000Y-98926000D03*
X135912000Y-99926000D03*
X135912000Y-100926000D03*
X135912000Y-101926000D03*
X135912000Y-102926000D03*
X135912000Y-103926000D03*
X135912000Y-104926000D03*
X135912000Y-105926000D03*
X135912000Y-106926000D03*
X135912000Y-107926000D03*
X135912000Y-108926000D03*
X135912000Y-109926000D03*
X135912000Y-110926000D03*
X135912000Y-111926000D03*
X135912000Y-112926000D03*
X135912000Y-113926000D03*
X135912000Y-114926000D03*
X135912000Y-115926000D03*
X135912000Y-116926000D03*
X135912000Y-117926000D03*
X135912000Y-118926000D03*
X135912000Y-119926000D03*
X135912000Y-120926000D03*
D11*
X133112000Y-88936000D03*
X133112000Y-123916000D03*
G04 #@! TD*
D12*
G04 #@! TO.C,Q6*
X82618000Y-98110000D03*
X82618000Y-100010000D03*
X86038000Y-99060000D03*
G04 #@! TD*
G04 #@! TO.C,Q7*
X82618000Y-81092000D03*
X82618000Y-82992000D03*
X86038000Y-82042000D03*
G04 #@! TD*
G04 #@! TO.C,Q8*
X86038000Y-93218000D03*
X82618000Y-94168000D03*
X82618000Y-92268000D03*
G04 #@! TD*
G04 #@! TO.C,Q10*
X86038000Y-87884000D03*
X82618000Y-88834000D03*
X82618000Y-86934000D03*
G04 #@! TD*
G04 #@! TO.C,R7*
G36*
G01*
X79518500Y-97914000D02*
X79993500Y-97914000D01*
G75*
G02*
X80231000Y-98151500I0J-237500D01*
G01*
X80231000Y-98651500D01*
G75*
G02*
X79993500Y-98889000I-237500J0D01*
G01*
X79518500Y-98889000D01*
G75*
G02*
X79281000Y-98651500I0J237500D01*
G01*
X79281000Y-98151500D01*
G75*
G02*
X79518500Y-97914000I237500J0D01*
G01*
G37*
G36*
G01*
X79518500Y-99739000D02*
X79993500Y-99739000D01*
G75*
G02*
X80231000Y-99976500I0J-237500D01*
G01*
X80231000Y-100476500D01*
G75*
G02*
X79993500Y-100714000I-237500J0D01*
G01*
X79518500Y-100714000D01*
G75*
G02*
X79281000Y-100476500I0J237500D01*
G01*
X79281000Y-99976500D01*
G75*
G02*
X79518500Y-99739000I237500J0D01*
G01*
G37*
G04 #@! TD*
G04 #@! TO.C,R8*
G36*
G01*
X79518500Y-82467000D02*
X79993500Y-82467000D01*
G75*
G02*
X80231000Y-82704500I0J-237500D01*
G01*
X80231000Y-83204500D01*
G75*
G02*
X79993500Y-83442000I-237500J0D01*
G01*
X79518500Y-83442000D01*
G75*
G02*
X79281000Y-83204500I0J237500D01*
G01*
X79281000Y-82704500D01*
G75*
G02*
X79518500Y-82467000I237500J0D01*
G01*
G37*
G36*
G01*
X79518500Y-80642000D02*
X79993500Y-80642000D01*
G75*
G02*
X80231000Y-80879500I0J-237500D01*
G01*
X80231000Y-81379500D01*
G75*
G02*
X79993500Y-81617000I-237500J0D01*
G01*
X79518500Y-81617000D01*
G75*
G02*
X79281000Y-81379500I0J237500D01*
G01*
X79281000Y-80879500D01*
G75*
G02*
X79518500Y-80642000I237500J0D01*
G01*
G37*
G04 #@! TD*
G04 #@! TO.C,R9*
G36*
G01*
X79518500Y-91818000D02*
X79993500Y-91818000D01*
G75*
G02*
X80231000Y-92055500I0J-237500D01*
G01*
X80231000Y-92555500D01*
G75*
G02*
X79993500Y-92793000I-237500J0D01*
G01*
X79518500Y-92793000D01*
G75*
G02*
X79281000Y-92555500I0J237500D01*
G01*
X79281000Y-92055500D01*
G75*
G02*
X79518500Y-91818000I237500J0D01*
G01*
G37*
G36*
G01*
X79518500Y-93643000D02*
X79993500Y-93643000D01*
G75*
G02*
X80231000Y-93880500I0J-237500D01*
G01*
X80231000Y-94380500D01*
G75*
G02*
X79993500Y-94618000I-237500J0D01*
G01*
X79518500Y-94618000D01*
G75*
G02*
X79281000Y-94380500I0J237500D01*
G01*
X79281000Y-93880500D01*
G75*
G02*
X79518500Y-93643000I237500J0D01*
G01*
G37*
G04 #@! TD*
G04 #@! TO.C,R14*
G36*
G01*
X90087000Y-98789500D02*
X90087000Y-98314500D01*
G75*
G02*
X90324500Y-98077000I237500J0D01*
G01*
X90824500Y-98077000D01*
G75*
G02*
X91062000Y-98314500I0J-237500D01*
G01*
X91062000Y-98789500D01*
G75*
G02*
X90824500Y-99027000I-237500J0D01*
G01*
X90324500Y-99027000D01*
G75*
G02*
X90087000Y-98789500I0J237500D01*
G01*
G37*
G36*
G01*
X88262000Y-98789500D02*
X88262000Y-98314500D01*
G75*
G02*
X88499500Y-98077000I237500J0D01*
G01*
X88999500Y-98077000D01*
G75*
G02*
X89237000Y-98314500I0J-237500D01*
G01*
X89237000Y-98789500D01*
G75*
G02*
X88999500Y-99027000I-237500J0D01*
G01*
X88499500Y-99027000D01*
G75*
G02*
X88262000Y-98789500I0J237500D01*
G01*
G37*
G04 #@! TD*
G04 #@! TO.C,R15*
G36*
G01*
X88262000Y-81263500D02*
X88262000Y-80788500D01*
G75*
G02*
X88499500Y-80551000I237500J0D01*
G01*
X88999500Y-80551000D01*
G75*
G02*
X89237000Y-80788500I0J-237500D01*
G01*
X89237000Y-81263500D01*
G75*
G02*
X88999500Y-81501000I-237500J0D01*
G01*
X88499500Y-81501000D01*
G75*
G02*
X88262000Y-81263500I0J237500D01*
G01*
G37*
G36*
G01*
X90087000Y-81263500D02*
X90087000Y-80788500D01*
G75*
G02*
X90324500Y-80551000I237500J0D01*
G01*
X90824500Y-80551000D01*
G75*
G02*
X91062000Y-80788500I0J-237500D01*
G01*
X91062000Y-81263500D01*
G75*
G02*
X90824500Y-81501000I-237500J0D01*
G01*
X90324500Y-81501000D01*
G75*
G02*
X90087000Y-81263500I0J237500D01*
G01*
G37*
G04 #@! TD*
G04 #@! TO.C,R16*
G36*
G01*
X88262000Y-92280500D02*
X88262000Y-91805500D01*
G75*
G02*
X88499500Y-91568000I237500J0D01*
G01*
X88999500Y-91568000D01*
G75*
G02*
X89237000Y-91805500I0J-237500D01*
G01*
X89237000Y-92280500D01*
G75*
G02*
X88999500Y-92518000I-237500J0D01*
G01*
X88499500Y-92518000D01*
G75*
G02*
X88262000Y-92280500I0J237500D01*
G01*
G37*
G36*
G01*
X90087000Y-92280500D02*
X90087000Y-91805500D01*
G75*
G02*
X90324500Y-91568000I237500J0D01*
G01*
X90824500Y-91568000D01*
G75*
G02*
X91062000Y-91805500I0J-237500D01*
G01*
X91062000Y-92280500D01*
G75*
G02*
X90824500Y-92518000I-237500J0D01*
G01*
X90324500Y-92518000D01*
G75*
G02*
X90087000Y-92280500I0J237500D01*
G01*
G37*
G04 #@! TD*
G04 #@! TO.C,R18*
G36*
G01*
X79518500Y-88309000D02*
X79993500Y-88309000D01*
G75*
G02*
X80231000Y-88546500I0J-237500D01*
G01*
X80231000Y-89046500D01*
G75*
G02*
X79993500Y-89284000I-237500J0D01*
G01*
X79518500Y-89284000D01*
G75*
G02*
X79281000Y-89046500I0J237500D01*
G01*
X79281000Y-88546500D01*
G75*
G02*
X79518500Y-88309000I237500J0D01*
G01*
G37*
G36*
G01*
X79518500Y-86484000D02*
X79993500Y-86484000D01*
G75*
G02*
X80231000Y-86721500I0J-237500D01*
G01*
X80231000Y-87221500D01*
G75*
G02*
X79993500Y-87459000I-237500J0D01*
G01*
X79518500Y-87459000D01*
G75*
G02*
X79281000Y-87221500I0J237500D01*
G01*
X79281000Y-86721500D01*
G75*
G02*
X79518500Y-86484000I237500J0D01*
G01*
G37*
G04 #@! TD*
G04 #@! TO.C,R21*
G36*
G01*
X90087000Y-87105500D02*
X90087000Y-86630500D01*
G75*
G02*
X90324500Y-86393000I237500J0D01*
G01*
X90824500Y-86393000D01*
G75*
G02*
X91062000Y-86630500I0J-237500D01*
G01*
X91062000Y-87105500D01*
G75*
G02*
X90824500Y-87343000I-237500J0D01*
G01*
X90324500Y-87343000D01*
G75*
G02*
X90087000Y-87105500I0J237500D01*
G01*
G37*
G36*
G01*
X88262000Y-87105500D02*
X88262000Y-86630500D01*
G75*
G02*
X88499500Y-86393000I237500J0D01*
G01*
X88999500Y-86393000D01*
G75*
G02*
X89237000Y-86630500I0J-237500D01*
G01*
X89237000Y-87105500D01*
G75*
G02*
X88999500Y-87343000I-237500J0D01*
G01*
X88499500Y-87343000D01*
G75*
G02*
X88262000Y-87105500I0J237500D01*
G01*
G37*
G04 #@! TD*
D13*
G04 #@! TO.C,U1*
X126492000Y-81357000D03*
X126492000Y-82727000D03*
D14*
X127442000Y-80792000D03*
X127442000Y-81292000D03*
X127442000Y-81792000D03*
X127442000Y-82292000D03*
X127442000Y-82792000D03*
X127442000Y-83292000D03*
X125542000Y-83292000D03*
X125542000Y-82792000D03*
X125542000Y-82292000D03*
X125542000Y-81792000D03*
X125542000Y-81292000D03*
X125542000Y-80792000D03*
G04 #@! TD*
D12*
G04 #@! TO.C,Q1*
X82618000Y-74742000D03*
X82618000Y-76642000D03*
X86038000Y-75692000D03*
G04 #@! TD*
G04 #@! TO.C,R1*
G36*
G01*
X79518500Y-74292000D02*
X79993500Y-74292000D01*
G75*
G02*
X80231000Y-74529500I0J-237500D01*
G01*
X80231000Y-75029500D01*
G75*
G02*
X79993500Y-75267000I-237500J0D01*
G01*
X79518500Y-75267000D01*
G75*
G02*
X79281000Y-75029500I0J237500D01*
G01*
X79281000Y-74529500D01*
G75*
G02*
X79518500Y-74292000I237500J0D01*
G01*
G37*
G36*
G01*
X79518500Y-76117000D02*
X79993500Y-76117000D01*
G75*
G02*
X80231000Y-76354500I0J-237500D01*
G01*
X80231000Y-76854500D01*
G75*
G02*
X79993500Y-77092000I-237500J0D01*
G01*
X79518500Y-77092000D01*
G75*
G02*
X79281000Y-76854500I0J237500D01*
G01*
X79281000Y-76354500D01*
G75*
G02*
X79518500Y-76117000I237500J0D01*
G01*
G37*
G04 #@! TD*
G04 #@! TO.C,R2*
G36*
G01*
X89237000Y-74438500D02*
X89237000Y-74913500D01*
G75*
G02*
X88999500Y-75151000I-237500J0D01*
G01*
X88499500Y-75151000D01*
G75*
G02*
X88262000Y-74913500I0J237500D01*
G01*
X88262000Y-74438500D01*
G75*
G02*
X88499500Y-74201000I237500J0D01*
G01*
X88999500Y-74201000D01*
G75*
G02*
X89237000Y-74438500I0J-237500D01*
G01*
G37*
G36*
G01*
X91062000Y-74438500D02*
X91062000Y-74913500D01*
G75*
G02*
X90824500Y-75151000I-237500J0D01*
G01*
X90324500Y-75151000D01*
G75*
G02*
X90087000Y-74913500I0J237500D01*
G01*
X90087000Y-74438500D01*
G75*
G02*
X90324500Y-74201000I237500J0D01*
G01*
X90824500Y-74201000D01*
G75*
G02*
X91062000Y-74438500I0J-237500D01*
G01*
G37*
G04 #@! TD*
M02*
