G04 #@! TF.GenerationSoftware,KiCad,Pcbnew,5.1.10-88a1d61d58~88~ubuntu18.04.1*
G04 #@! TF.CreationDate,2021-10-23T19:38:23+09:00*
G04 #@! TF.ProjectId,CameraJigSTM32F446RE_Head,43616d65-7261-44a6-9967-53544d333246,rev?*
G04 #@! TF.SameCoordinates,Original*
G04 #@! TF.FileFunction,Profile,NP*
%FSLAX46Y46*%
G04 Gerber Fmt 4.6, Leading zero omitted, Abs format (unit mm)*
G04 Created by KiCad (PCBNEW 5.1.10-88a1d61d58~88~ubuntu18.04.1) date 2021-10-23 19:38:23*
%MOMM*%
%LPD*%
G01*
G04 APERTURE LIST*
G04 #@! TA.AperFunction,Profile*
%ADD10C,0.050000*%
G04 #@! TD*
G04 APERTURE END LIST*
D10*
X107500000Y-95250000D02*
X107500000Y-75946000D01*
X105750000Y-75946000D02*
X105750000Y-95250000D01*
X105750000Y-111760000D02*
X105750000Y-99568000D01*
X107500000Y-99568000D02*
X107500000Y-111760000D01*
X105750000Y-118618000D02*
G75*
G02*
X107500000Y-118618000I875000J0D01*
G01*
X107500000Y-111760000D02*
G75*
G02*
X105750000Y-111760000I-875000J0D01*
G01*
X107500000Y-95250000D02*
G75*
G02*
X105750000Y-95250000I-875000J0D01*
G01*
X105750000Y-99568000D02*
G75*
G02*
X107500000Y-99568000I875000J0D01*
G01*
X107500000Y-70104000D02*
X107500000Y-64500000D01*
X105750000Y-64500000D02*
X105750000Y-70104000D01*
X105750000Y-75946000D02*
G75*
G02*
X107500000Y-75946000I875000J0D01*
G01*
X107500000Y-70104000D02*
G75*
G02*
X105750000Y-70104000I-875000J0D01*
G01*
X110000000Y-145500000D02*
G75*
G02*
X107500000Y-143000000I0J2500000D01*
G01*
X164000000Y-143000000D02*
G75*
G02*
X161500000Y-145500000I-2500000J0D01*
G01*
X161500000Y-145500000D02*
X110000000Y-145500000D01*
X107500000Y-64500000D02*
G75*
G02*
X110000000Y-62000000I2500000J0D01*
G01*
X161500000Y-62000000D02*
X110000000Y-62000000D01*
X107500000Y-118618000D02*
X107500000Y-143000000D01*
X103250000Y-62000000D02*
G75*
G02*
X105750000Y-64500000I0J-2500000D01*
G01*
X105750000Y-126750000D02*
G75*
G02*
X103250000Y-129250000I-2500000J0D01*
G01*
X105750000Y-118618000D02*
X105750000Y-126750000D01*
X67000000Y-129250000D02*
G75*
G02*
X64500000Y-126750000I0J2500000D01*
G01*
X103250000Y-129250000D02*
X67000000Y-129250000D01*
X161500000Y-62000000D02*
G75*
G02*
X164000000Y-64500000I0J-2500000D01*
G01*
X164000000Y-64500000D02*
X164000000Y-143000000D01*
X64500000Y-64500000D02*
G75*
G02*
X67000000Y-62000000I2500000J0D01*
G01*
X64500000Y-64500000D02*
X64500000Y-126750000D01*
X67000000Y-62000000D02*
X103250000Y-62000000D01*
M02*
