G04 #@! TF.GenerationSoftware,KiCad,Pcbnew,5.1.10-88a1d61d58~88~ubuntu18.04.1*
G04 #@! TF.CreationDate,2021-10-23T19:38:23+09:00*
G04 #@! TF.ProjectId,CameraJigSTM32F446RE_Head,43616d65-7261-44a6-9967-53544d333246,rev?*
G04 #@! TF.SameCoordinates,Original*
G04 #@! TF.FileFunction,Copper,L2,Bot*
G04 #@! TF.FilePolarity,Positive*
%FSLAX46Y46*%
G04 Gerber Fmt 4.6, Leading zero omitted, Abs format (unit mm)*
G04 Created by KiCad (PCBNEW 5.1.10-88a1d61d58~88~ubuntu18.04.1) date 2021-10-23 19:38:23*
%MOMM*%
%LPD*%
G01*
G04 APERTURE LIST*
G04 #@! TA.AperFunction,ComponentPad*
%ADD10R,1.700000X1.700000*%
G04 #@! TD*
G04 #@! TA.AperFunction,ComponentPad*
%ADD11O,1.700000X1.700000*%
G04 #@! TD*
G04 #@! TA.AperFunction,SMDPad,CuDef*
%ADD12R,2.000000X0.650000*%
G04 #@! TD*
G04 #@! TA.AperFunction,ViaPad*
%ADD13C,0.800000*%
G04 #@! TD*
G04 #@! TA.AperFunction,Conductor*
%ADD14C,0.250000*%
G04 #@! TD*
G04 #@! TA.AperFunction,Conductor*
%ADD15C,0.254000*%
G04 #@! TD*
G04 #@! TA.AperFunction,Conductor*
%ADD16C,0.100000*%
G04 #@! TD*
G04 APERTURE END LIST*
G04 #@! TO.P,C2,1*
G04 #@! TO.N,+5V*
G04 #@! TA.AperFunction,SMDPad,CuDef*
G36*
G01*
X123460500Y-76324000D02*
X123935500Y-76324000D01*
G75*
G02*
X124173000Y-76561500I0J-237500D01*
G01*
X124173000Y-77161500D01*
G75*
G02*
X123935500Y-77399000I-237500J0D01*
G01*
X123460500Y-77399000D01*
G75*
G02*
X123223000Y-77161500I0J237500D01*
G01*
X123223000Y-76561500D01*
G75*
G02*
X123460500Y-76324000I237500J0D01*
G01*
G37*
G04 #@! TD.AperFunction*
G04 #@! TO.P,C2,2*
G04 #@! TO.N,GND*
G04 #@! TA.AperFunction,SMDPad,CuDef*
G36*
G01*
X123460500Y-78049000D02*
X123935500Y-78049000D01*
G75*
G02*
X124173000Y-78286500I0J-237500D01*
G01*
X124173000Y-78886500D01*
G75*
G02*
X123935500Y-79124000I-237500J0D01*
G01*
X123460500Y-79124000D01*
G75*
G02*
X123223000Y-78886500I0J237500D01*
G01*
X123223000Y-78286500D01*
G75*
G02*
X123460500Y-78049000I237500J0D01*
G01*
G37*
G04 #@! TD.AperFunction*
G04 #@! TD*
G04 #@! TO.P,C3,1*
G04 #@! TO.N,GND*
G04 #@! TA.AperFunction,SMDPad,CuDef*
G36*
G01*
X129015500Y-79378000D02*
X128540500Y-79378000D01*
G75*
G02*
X128303000Y-79140500I0J237500D01*
G01*
X128303000Y-78540500D01*
G75*
G02*
X128540500Y-78303000I237500J0D01*
G01*
X129015500Y-78303000D01*
G75*
G02*
X129253000Y-78540500I0J-237500D01*
G01*
X129253000Y-79140500D01*
G75*
G02*
X129015500Y-79378000I-237500J0D01*
G01*
G37*
G04 #@! TD.AperFunction*
G04 #@! TO.P,C3,2*
G04 #@! TO.N,+3V3*
G04 #@! TA.AperFunction,SMDPad,CuDef*
G36*
G01*
X129015500Y-77653000D02*
X128540500Y-77653000D01*
G75*
G02*
X128303000Y-77415500I0J237500D01*
G01*
X128303000Y-76815500D01*
G75*
G02*
X128540500Y-76578000I237500J0D01*
G01*
X129015500Y-76578000D01*
G75*
G02*
X129253000Y-76815500I0J-237500D01*
G01*
X129253000Y-77415500D01*
G75*
G02*
X129015500Y-77653000I-237500J0D01*
G01*
G37*
G04 #@! TD.AperFunction*
G04 #@! TD*
D10*
G04 #@! TO.P,J1,1*
G04 #@! TO.N,+3V3*
X117094000Y-66802000D03*
D11*
G04 #@! TO.P,J1,2*
G04 #@! TO.N,VH*
X117094000Y-69342000D03*
G04 #@! TO.P,J1,3*
G04 #@! TO.N,VLOGIC*
X117094000Y-71882000D03*
G04 #@! TO.P,J1,4*
G04 #@! TO.N,+5V*
X117094000Y-74422000D03*
G04 #@! TO.P,J1,5*
G04 #@! TO.N,GND*
X117094000Y-76962000D03*
G04 #@! TO.P,J1,6*
G04 #@! TO.N,HPHE*
X117094000Y-79502000D03*
G04 #@! TO.P,J1,7*
G04 #@! TO.N,DI*
X117094000Y-82042000D03*
G04 #@! TO.P,J1,8*
G04 #@! TO.N,HCLK*
X117094000Y-84582000D03*
G04 #@! TO.P,J1,9*
G04 #@! TO.N,HSTB1*
X117094000Y-87122000D03*
G04 #@! TO.P,J1,10*
G04 #@! TO.N,HSTB2*
X117094000Y-89662000D03*
G04 #@! TO.P,J1,11*
G04 #@! TO.N,HSTB3*
X117094000Y-92202000D03*
G04 #@! TO.P,J1,12*
G04 #@! TO.N,HSTB4*
X117094000Y-94742000D03*
G04 #@! TO.P,J1,13*
G04 #@! TO.N,HSTB5*
X117094000Y-97282000D03*
G04 #@! TO.P,J1,14*
G04 #@! TO.N,HSTB6*
X117094000Y-99822000D03*
G04 #@! TO.P,J1,15*
G04 #@! TO.N,TM*
X117094000Y-102362000D03*
G04 #@! TO.P,J1,16*
G04 #@! TO.N,TM_*
X117094000Y-104902000D03*
G04 #@! TO.P,J1,17*
G04 #@! TO.N,HLAT*
X117094000Y-107442000D03*
G04 #@! TO.P,J1,18*
G04 #@! TO.N,HDO*
X117094000Y-109982000D03*
G04 #@! TO.P,J1,19*
G04 #@! TO.N,MTA_PHASE*
X117094000Y-112522000D03*
G04 #@! TO.P,J1,20*
G04 #@! TO.N,MTA_EN*
X117094000Y-115062000D03*
G04 #@! TO.P,J1,21*
G04 #@! TO.N,MTB_PHASE*
X117094000Y-117602000D03*
G04 #@! TO.P,J1,22*
G04 #@! TO.N,MTB_EN*
X117094000Y-120142000D03*
G04 #@! TD*
D10*
G04 #@! TO.P,J3,1*
G04 #@! TO.N,+3V3*
X73660000Y-66802000D03*
D11*
G04 #@! TO.P,J3,2*
G04 #@! TO.N,+5V*
X73660000Y-69342000D03*
G04 #@! TO.P,J3,3*
G04 #@! TO.N,VH*
X73660000Y-71882000D03*
G04 #@! TO.P,J3,4*
G04 #@! TO.N,VLOGIC*
X73660000Y-74422000D03*
G04 #@! TO.P,J3,5*
G04 #@! TO.N,GND*
X73660000Y-76962000D03*
G04 #@! TO.P,J3,6*
G04 #@! TO.N,PHE*
X73660000Y-79502000D03*
G04 #@! TO.P,J3,7*
G04 #@! TO.N,DI*
X73660000Y-82042000D03*
G04 #@! TO.P,J3,8*
G04 #@! TO.N,CLK*
X73660000Y-84582000D03*
G04 #@! TO.P,J3,9*
G04 #@! TO.N,STB1*
X73660000Y-87122000D03*
G04 #@! TO.P,J3,10*
G04 #@! TO.N,STB2*
X73660000Y-89662000D03*
G04 #@! TO.P,J3,11*
G04 #@! TO.N,STB3*
X73660000Y-92202000D03*
G04 #@! TO.P,J3,12*
G04 #@! TO.N,STB4*
X73660000Y-94742000D03*
G04 #@! TO.P,J3,13*
G04 #@! TO.N,STB5*
X73660000Y-97282000D03*
G04 #@! TO.P,J3,14*
G04 #@! TO.N,STB6*
X73660000Y-99822000D03*
G04 #@! TO.P,J3,15*
G04 #@! TO.N,TM*
X73660000Y-102362000D03*
G04 #@! TO.P,J3,16*
G04 #@! TO.N,TM_*
X73660000Y-104902000D03*
G04 #@! TO.P,J3,17*
G04 #@! TO.N,LAT*
X73660000Y-107442000D03*
G04 #@! TO.P,J3,18*
G04 #@! TO.N,DO*
X73660000Y-109982000D03*
G04 #@! TO.P,J3,19*
G04 #@! TO.N,MTA_PHASE*
X73660000Y-112522000D03*
G04 #@! TO.P,J3,20*
G04 #@! TO.N,MTA_EN*
X73660000Y-115062000D03*
G04 #@! TO.P,J3,21*
G04 #@! TO.N,MTB_PHASE*
X73660000Y-117602000D03*
G04 #@! TO.P,J3,22*
G04 #@! TO.N,MTB_EN*
X73660000Y-120142000D03*
G04 #@! TD*
G04 #@! TO.P,J4,22*
G04 #@! TO.N,MTB_EN*
X96774000Y-120142000D03*
G04 #@! TO.P,J4,21*
G04 #@! TO.N,MTB_PHASE*
X96774000Y-117602000D03*
G04 #@! TO.P,J4,20*
G04 #@! TO.N,MTA_EN*
X96774000Y-115062000D03*
G04 #@! TO.P,J4,19*
G04 #@! TO.N,MTA_PHASE*
X96774000Y-112522000D03*
G04 #@! TO.P,J4,18*
G04 #@! TO.N,HDO*
X96774000Y-109982000D03*
G04 #@! TO.P,J4,17*
G04 #@! TO.N,HLAT*
X96774000Y-107442000D03*
G04 #@! TO.P,J4,16*
G04 #@! TO.N,TM_*
X96774000Y-104902000D03*
G04 #@! TO.P,J4,15*
G04 #@! TO.N,TM*
X96774000Y-102362000D03*
G04 #@! TO.P,J4,14*
G04 #@! TO.N,HSTB6*
X96774000Y-99822000D03*
G04 #@! TO.P,J4,13*
G04 #@! TO.N,HSTB5*
X96774000Y-97282000D03*
G04 #@! TO.P,J4,12*
G04 #@! TO.N,HSTB4*
X96774000Y-94742000D03*
G04 #@! TO.P,J4,11*
G04 #@! TO.N,HSTB3*
X96774000Y-92202000D03*
G04 #@! TO.P,J4,10*
G04 #@! TO.N,HSTB2*
X96774000Y-89662000D03*
G04 #@! TO.P,J4,9*
G04 #@! TO.N,HSTB1*
X96774000Y-87122000D03*
G04 #@! TO.P,J4,8*
G04 #@! TO.N,HCLK*
X96774000Y-84582000D03*
G04 #@! TO.P,J4,7*
G04 #@! TO.N,HDI*
X96774000Y-82042000D03*
G04 #@! TO.P,J4,6*
G04 #@! TO.N,HPHE*
X96774000Y-79502000D03*
G04 #@! TO.P,J4,5*
G04 #@! TO.N,GND*
X96774000Y-76962000D03*
G04 #@! TO.P,J4,4*
G04 #@! TO.N,VLOGIC*
X96774000Y-74422000D03*
G04 #@! TO.P,J4,3*
G04 #@! TO.N,VH*
X96774000Y-71882000D03*
G04 #@! TO.P,J4,2*
G04 #@! TO.N,+5V*
X96774000Y-69342000D03*
D10*
G04 #@! TO.P,J4,1*
G04 #@! TO.N,+3V3*
X96774000Y-66802000D03*
G04 #@! TD*
D12*
G04 #@! TO.P,Q2,1*
G04 #@! TO.N,+3V3*
X82618000Y-83500000D03*
G04 #@! TO.P,Q2,2*
G04 #@! TO.N,STB4*
X82618000Y-81600000D03*
G04 #@! TO.P,Q2,3*
G04 #@! TO.N,HSTB4*
X86038000Y-82550000D03*
G04 #@! TD*
G04 #@! TO.P,Q3,3*
G04 #@! TO.N,HSTB6*
X86038000Y-94234000D03*
G04 #@! TO.P,Q3,2*
G04 #@! TO.N,STB6*
X82618000Y-93284000D03*
G04 #@! TO.P,Q3,1*
G04 #@! TO.N,+3V3*
X82618000Y-95184000D03*
G04 #@! TD*
G04 #@! TO.P,Q4,3*
G04 #@! TO.N,HSTB3*
X86038000Y-75692000D03*
G04 #@! TO.P,Q4,2*
G04 #@! TO.N,STB3*
X82618000Y-74742000D03*
G04 #@! TO.P,Q4,1*
G04 #@! TO.N,+3V3*
X82618000Y-76642000D03*
G04 #@! TD*
G04 #@! TO.P,Q5,1*
G04 #@! TO.N,+3V3*
X82618000Y-88834000D03*
G04 #@! TO.P,Q5,2*
G04 #@! TO.N,STB5*
X82618000Y-86934000D03*
G04 #@! TO.P,Q5,3*
G04 #@! TO.N,HSTB5*
X86038000Y-87884000D03*
G04 #@! TD*
G04 #@! TO.P,Q9,3*
G04 #@! TO.N,HLAT*
X86038000Y-100076000D03*
G04 #@! TO.P,Q9,2*
G04 #@! TO.N,LAT*
X82618000Y-99126000D03*
G04 #@! TO.P,Q9,1*
G04 #@! TO.N,+3V3*
X82618000Y-101026000D03*
G04 #@! TD*
G04 #@! TO.P,Q11,1*
G04 #@! TO.N,+3V3*
X82618000Y-107630000D03*
G04 #@! TO.P,Q11,2*
G04 #@! TO.N,DO*
X82618000Y-105730000D03*
G04 #@! TO.P,Q11,3*
G04 #@! TO.N,HDO*
X86038000Y-106680000D03*
G04 #@! TD*
G04 #@! TO.P,R3,2*
G04 #@! TO.N,STB4*
G04 #@! TA.AperFunction,SMDPad,CuDef*
G36*
G01*
X80247500Y-82282000D02*
X79772500Y-82282000D01*
G75*
G02*
X79535000Y-82044500I0J237500D01*
G01*
X79535000Y-81544500D01*
G75*
G02*
X79772500Y-81307000I237500J0D01*
G01*
X80247500Y-81307000D01*
G75*
G02*
X80485000Y-81544500I0J-237500D01*
G01*
X80485000Y-82044500D01*
G75*
G02*
X80247500Y-82282000I-237500J0D01*
G01*
G37*
G04 #@! TD.AperFunction*
G04 #@! TO.P,R3,1*
G04 #@! TO.N,+3V3*
G04 #@! TA.AperFunction,SMDPad,CuDef*
G36*
G01*
X80247500Y-84107000D02*
X79772500Y-84107000D01*
G75*
G02*
X79535000Y-83869500I0J237500D01*
G01*
X79535000Y-83369500D01*
G75*
G02*
X79772500Y-83132000I237500J0D01*
G01*
X80247500Y-83132000D01*
G75*
G02*
X80485000Y-83369500I0J-237500D01*
G01*
X80485000Y-83869500D01*
G75*
G02*
X80247500Y-84107000I-237500J0D01*
G01*
G37*
G04 #@! TD.AperFunction*
G04 #@! TD*
G04 #@! TO.P,R4,2*
G04 #@! TO.N,STB6*
G04 #@! TA.AperFunction,SMDPad,CuDef*
G36*
G01*
X80247500Y-94063000D02*
X79772500Y-94063000D01*
G75*
G02*
X79535000Y-93825500I0J237500D01*
G01*
X79535000Y-93325500D01*
G75*
G02*
X79772500Y-93088000I237500J0D01*
G01*
X80247500Y-93088000D01*
G75*
G02*
X80485000Y-93325500I0J-237500D01*
G01*
X80485000Y-93825500D01*
G75*
G02*
X80247500Y-94063000I-237500J0D01*
G01*
G37*
G04 #@! TD.AperFunction*
G04 #@! TO.P,R4,1*
G04 #@! TO.N,+3V3*
G04 #@! TA.AperFunction,SMDPad,CuDef*
G36*
G01*
X80247500Y-95888000D02*
X79772500Y-95888000D01*
G75*
G02*
X79535000Y-95650500I0J237500D01*
G01*
X79535000Y-95150500D01*
G75*
G02*
X79772500Y-94913000I237500J0D01*
G01*
X80247500Y-94913000D01*
G75*
G02*
X80485000Y-95150500I0J-237500D01*
G01*
X80485000Y-95650500D01*
G75*
G02*
X80247500Y-95888000I-237500J0D01*
G01*
G37*
G04 #@! TD.AperFunction*
G04 #@! TD*
G04 #@! TO.P,R5,1*
G04 #@! TO.N,+3V3*
G04 #@! TA.AperFunction,SMDPad,CuDef*
G36*
G01*
X80247500Y-77242500D02*
X79772500Y-77242500D01*
G75*
G02*
X79535000Y-77005000I0J237500D01*
G01*
X79535000Y-76505000D01*
G75*
G02*
X79772500Y-76267500I237500J0D01*
G01*
X80247500Y-76267500D01*
G75*
G02*
X80485000Y-76505000I0J-237500D01*
G01*
X80485000Y-77005000D01*
G75*
G02*
X80247500Y-77242500I-237500J0D01*
G01*
G37*
G04 #@! TD.AperFunction*
G04 #@! TO.P,R5,2*
G04 #@! TO.N,STB3*
G04 #@! TA.AperFunction,SMDPad,CuDef*
G36*
G01*
X80247500Y-75417500D02*
X79772500Y-75417500D01*
G75*
G02*
X79535000Y-75180000I0J237500D01*
G01*
X79535000Y-74680000D01*
G75*
G02*
X79772500Y-74442500I237500J0D01*
G01*
X80247500Y-74442500D01*
G75*
G02*
X80485000Y-74680000I0J-237500D01*
G01*
X80485000Y-75180000D01*
G75*
G02*
X80247500Y-75417500I-237500J0D01*
G01*
G37*
G04 #@! TD.AperFunction*
G04 #@! TD*
G04 #@! TO.P,R6,1*
G04 #@! TO.N,+3V3*
G04 #@! TA.AperFunction,SMDPad,CuDef*
G36*
G01*
X80247500Y-89377000D02*
X79772500Y-89377000D01*
G75*
G02*
X79535000Y-89139500I0J237500D01*
G01*
X79535000Y-88639500D01*
G75*
G02*
X79772500Y-88402000I237500J0D01*
G01*
X80247500Y-88402000D01*
G75*
G02*
X80485000Y-88639500I0J-237500D01*
G01*
X80485000Y-89139500D01*
G75*
G02*
X80247500Y-89377000I-237500J0D01*
G01*
G37*
G04 #@! TD.AperFunction*
G04 #@! TO.P,R6,2*
G04 #@! TO.N,STB5*
G04 #@! TA.AperFunction,SMDPad,CuDef*
G36*
G01*
X80247500Y-87552000D02*
X79772500Y-87552000D01*
G75*
G02*
X79535000Y-87314500I0J237500D01*
G01*
X79535000Y-86814500D01*
G75*
G02*
X79772500Y-86577000I237500J0D01*
G01*
X80247500Y-86577000D01*
G75*
G02*
X80485000Y-86814500I0J-237500D01*
G01*
X80485000Y-87314500D01*
G75*
G02*
X80247500Y-87552000I-237500J0D01*
G01*
G37*
G04 #@! TD.AperFunction*
G04 #@! TD*
G04 #@! TO.P,R10,1*
G04 #@! TO.N,VLOGIC*
G04 #@! TA.AperFunction,SMDPad,CuDef*
G36*
G01*
X88008000Y-84057500D02*
X88008000Y-83582500D01*
G75*
G02*
X88245500Y-83345000I237500J0D01*
G01*
X88745500Y-83345000D01*
G75*
G02*
X88983000Y-83582500I0J-237500D01*
G01*
X88983000Y-84057500D01*
G75*
G02*
X88745500Y-84295000I-237500J0D01*
G01*
X88245500Y-84295000D01*
G75*
G02*
X88008000Y-84057500I0J237500D01*
G01*
G37*
G04 #@! TD.AperFunction*
G04 #@! TO.P,R10,2*
G04 #@! TO.N,HSTB4*
G04 #@! TA.AperFunction,SMDPad,CuDef*
G36*
G01*
X89833000Y-84057500D02*
X89833000Y-83582500D01*
G75*
G02*
X90070500Y-83345000I237500J0D01*
G01*
X90570500Y-83345000D01*
G75*
G02*
X90808000Y-83582500I0J-237500D01*
G01*
X90808000Y-84057500D01*
G75*
G02*
X90570500Y-84295000I-237500J0D01*
G01*
X90070500Y-84295000D01*
G75*
G02*
X89833000Y-84057500I0J237500D01*
G01*
G37*
G04 #@! TD.AperFunction*
G04 #@! TD*
G04 #@! TO.P,R11,1*
G04 #@! TO.N,VLOGIC*
G04 #@! TA.AperFunction,SMDPad,CuDef*
G36*
G01*
X88008000Y-95741500D02*
X88008000Y-95266500D01*
G75*
G02*
X88245500Y-95029000I237500J0D01*
G01*
X88745500Y-95029000D01*
G75*
G02*
X88983000Y-95266500I0J-237500D01*
G01*
X88983000Y-95741500D01*
G75*
G02*
X88745500Y-95979000I-237500J0D01*
G01*
X88245500Y-95979000D01*
G75*
G02*
X88008000Y-95741500I0J237500D01*
G01*
G37*
G04 #@! TD.AperFunction*
G04 #@! TO.P,R11,2*
G04 #@! TO.N,HSTB6*
G04 #@! TA.AperFunction,SMDPad,CuDef*
G36*
G01*
X89833000Y-95741500D02*
X89833000Y-95266500D01*
G75*
G02*
X90070500Y-95029000I237500J0D01*
G01*
X90570500Y-95029000D01*
G75*
G02*
X90808000Y-95266500I0J-237500D01*
G01*
X90808000Y-95741500D01*
G75*
G02*
X90570500Y-95979000I-237500J0D01*
G01*
X90070500Y-95979000D01*
G75*
G02*
X89833000Y-95741500I0J237500D01*
G01*
G37*
G04 #@! TD.AperFunction*
G04 #@! TD*
G04 #@! TO.P,R12,2*
G04 #@! TO.N,HSTB3*
G04 #@! TA.AperFunction,SMDPad,CuDef*
G36*
G01*
X89833000Y-77199500D02*
X89833000Y-76724500D01*
G75*
G02*
X90070500Y-76487000I237500J0D01*
G01*
X90570500Y-76487000D01*
G75*
G02*
X90808000Y-76724500I0J-237500D01*
G01*
X90808000Y-77199500D01*
G75*
G02*
X90570500Y-77437000I-237500J0D01*
G01*
X90070500Y-77437000D01*
G75*
G02*
X89833000Y-77199500I0J237500D01*
G01*
G37*
G04 #@! TD.AperFunction*
G04 #@! TO.P,R12,1*
G04 #@! TO.N,VLOGIC*
G04 #@! TA.AperFunction,SMDPad,CuDef*
G36*
G01*
X88008000Y-77199500D02*
X88008000Y-76724500D01*
G75*
G02*
X88245500Y-76487000I237500J0D01*
G01*
X88745500Y-76487000D01*
G75*
G02*
X88983000Y-76724500I0J-237500D01*
G01*
X88983000Y-77199500D01*
G75*
G02*
X88745500Y-77437000I-237500J0D01*
G01*
X88245500Y-77437000D01*
G75*
G02*
X88008000Y-77199500I0J237500D01*
G01*
G37*
G04 #@! TD.AperFunction*
G04 #@! TD*
G04 #@! TO.P,R13,2*
G04 #@! TO.N,HSTB5*
G04 #@! TA.AperFunction,SMDPad,CuDef*
G36*
G01*
X89833000Y-89391500D02*
X89833000Y-88916500D01*
G75*
G02*
X90070500Y-88679000I237500J0D01*
G01*
X90570500Y-88679000D01*
G75*
G02*
X90808000Y-88916500I0J-237500D01*
G01*
X90808000Y-89391500D01*
G75*
G02*
X90570500Y-89629000I-237500J0D01*
G01*
X90070500Y-89629000D01*
G75*
G02*
X89833000Y-89391500I0J237500D01*
G01*
G37*
G04 #@! TD.AperFunction*
G04 #@! TO.P,R13,1*
G04 #@! TO.N,VLOGIC*
G04 #@! TA.AperFunction,SMDPad,CuDef*
G36*
G01*
X88008000Y-89391500D02*
X88008000Y-88916500D01*
G75*
G02*
X88245500Y-88679000I237500J0D01*
G01*
X88745500Y-88679000D01*
G75*
G02*
X88983000Y-88916500I0J-237500D01*
G01*
X88983000Y-89391500D01*
G75*
G02*
X88745500Y-89629000I-237500J0D01*
G01*
X88245500Y-89629000D01*
G75*
G02*
X88008000Y-89391500I0J237500D01*
G01*
G37*
G04 #@! TD.AperFunction*
G04 #@! TD*
G04 #@! TO.P,R17,1*
G04 #@! TO.N,+3V3*
G04 #@! TA.AperFunction,SMDPad,CuDef*
G36*
G01*
X80247500Y-101730000D02*
X79772500Y-101730000D01*
G75*
G02*
X79535000Y-101492500I0J237500D01*
G01*
X79535000Y-100992500D01*
G75*
G02*
X79772500Y-100755000I237500J0D01*
G01*
X80247500Y-100755000D01*
G75*
G02*
X80485000Y-100992500I0J-237500D01*
G01*
X80485000Y-101492500D01*
G75*
G02*
X80247500Y-101730000I-237500J0D01*
G01*
G37*
G04 #@! TD.AperFunction*
G04 #@! TO.P,R17,2*
G04 #@! TO.N,LAT*
G04 #@! TA.AperFunction,SMDPad,CuDef*
G36*
G01*
X80247500Y-99905000D02*
X79772500Y-99905000D01*
G75*
G02*
X79535000Y-99667500I0J237500D01*
G01*
X79535000Y-99167500D01*
G75*
G02*
X79772500Y-98930000I237500J0D01*
G01*
X80247500Y-98930000D01*
G75*
G02*
X80485000Y-99167500I0J-237500D01*
G01*
X80485000Y-99667500D01*
G75*
G02*
X80247500Y-99905000I-237500J0D01*
G01*
G37*
G04 #@! TD.AperFunction*
G04 #@! TD*
G04 #@! TO.P,R19,1*
G04 #@! TO.N,+3V3*
G04 #@! TA.AperFunction,SMDPad,CuDef*
G36*
G01*
X80247500Y-108080000D02*
X79772500Y-108080000D01*
G75*
G02*
X79535000Y-107842500I0J237500D01*
G01*
X79535000Y-107342500D01*
G75*
G02*
X79772500Y-107105000I237500J0D01*
G01*
X80247500Y-107105000D01*
G75*
G02*
X80485000Y-107342500I0J-237500D01*
G01*
X80485000Y-107842500D01*
G75*
G02*
X80247500Y-108080000I-237500J0D01*
G01*
G37*
G04 #@! TD.AperFunction*
G04 #@! TO.P,R19,2*
G04 #@! TO.N,DO*
G04 #@! TA.AperFunction,SMDPad,CuDef*
G36*
G01*
X80247500Y-106255000D02*
X79772500Y-106255000D01*
G75*
G02*
X79535000Y-106017500I0J237500D01*
G01*
X79535000Y-105517500D01*
G75*
G02*
X79772500Y-105280000I237500J0D01*
G01*
X80247500Y-105280000D01*
G75*
G02*
X80485000Y-105517500I0J-237500D01*
G01*
X80485000Y-106017500D01*
G75*
G02*
X80247500Y-106255000I-237500J0D01*
G01*
G37*
G04 #@! TD.AperFunction*
G04 #@! TD*
G04 #@! TO.P,R20,2*
G04 #@! TO.N,HLAT*
G04 #@! TA.AperFunction,SMDPad,CuDef*
G36*
G01*
X89833000Y-101583500D02*
X89833000Y-101108500D01*
G75*
G02*
X90070500Y-100871000I237500J0D01*
G01*
X90570500Y-100871000D01*
G75*
G02*
X90808000Y-101108500I0J-237500D01*
G01*
X90808000Y-101583500D01*
G75*
G02*
X90570500Y-101821000I-237500J0D01*
G01*
X90070500Y-101821000D01*
G75*
G02*
X89833000Y-101583500I0J237500D01*
G01*
G37*
G04 #@! TD.AperFunction*
G04 #@! TO.P,R20,1*
G04 #@! TO.N,VLOGIC*
G04 #@! TA.AperFunction,SMDPad,CuDef*
G36*
G01*
X88008000Y-101583500D02*
X88008000Y-101108500D01*
G75*
G02*
X88245500Y-100871000I237500J0D01*
G01*
X88745500Y-100871000D01*
G75*
G02*
X88983000Y-101108500I0J-237500D01*
G01*
X88983000Y-101583500D01*
G75*
G02*
X88745500Y-101821000I-237500J0D01*
G01*
X88245500Y-101821000D01*
G75*
G02*
X88008000Y-101583500I0J237500D01*
G01*
G37*
G04 #@! TD.AperFunction*
G04 #@! TD*
G04 #@! TO.P,R22,2*
G04 #@! TO.N,HDO*
G04 #@! TA.AperFunction,SMDPad,CuDef*
G36*
G01*
X89833000Y-108187500D02*
X89833000Y-107712500D01*
G75*
G02*
X90070500Y-107475000I237500J0D01*
G01*
X90570500Y-107475000D01*
G75*
G02*
X90808000Y-107712500I0J-237500D01*
G01*
X90808000Y-108187500D01*
G75*
G02*
X90570500Y-108425000I-237500J0D01*
G01*
X90070500Y-108425000D01*
G75*
G02*
X89833000Y-108187500I0J237500D01*
G01*
G37*
G04 #@! TD.AperFunction*
G04 #@! TO.P,R22,1*
G04 #@! TO.N,VLOGIC*
G04 #@! TA.AperFunction,SMDPad,CuDef*
G36*
G01*
X88008000Y-108187500D02*
X88008000Y-107712500D01*
G75*
G02*
X88245500Y-107475000I237500J0D01*
G01*
X88745500Y-107475000D01*
G75*
G02*
X88983000Y-107712500I0J-237500D01*
G01*
X88983000Y-108187500D01*
G75*
G02*
X88745500Y-108425000I-237500J0D01*
G01*
X88245500Y-108425000D01*
G75*
G02*
X88008000Y-108187500I0J237500D01*
G01*
G37*
G04 #@! TD.AperFunction*
G04 #@! TD*
D13*
G04 #@! TO.N,+5V*
X133131400Y-119876400D03*
G04 #@! TO.N,GND*
X129939400Y-78840500D03*
G04 #@! TO.N,+3V3*
X127667600Y-76502000D03*
X83943300Y-78822500D03*
G04 #@! TO.N,VH*
X134161700Y-95836000D03*
G04 #@! TO.N,VLOGIC*
X89207100Y-90819700D03*
X134271300Y-106836000D03*
X87649600Y-81024100D03*
G04 #@! TO.N,HCLK*
X118491500Y-109157100D03*
G04 #@! TO.N,HSTB4*
X118582500Y-107255400D03*
G04 #@! TO.N,HSTB5*
X128815600Y-108926000D03*
X128815600Y-104139300D03*
G04 #@! TO.N,HLAT*
X127176300Y-97400000D03*
G04 #@! TO.N,HDO*
X126023100Y-96459100D03*
G04 #@! TO.N,MTA_PHASE*
X128745800Y-81224600D03*
G04 #@! TO.N,MTA_EN*
X128779300Y-82292000D03*
G04 #@! TO.N,MTB_PHASE*
X128070900Y-84890700D03*
G04 #@! TO.N,MTB_EN*
X128212900Y-83803600D03*
G04 #@! TO.N,HDI*
X120086600Y-109650800D03*
G04 #@! TO.N,HPHE*
X119086300Y-109977000D03*
G04 #@! TD*
D14*
G04 #@! TO.N,+5V*
X133131400Y-119876400D02*
X129752100Y-116497100D01*
X129752100Y-116497100D02*
X129752100Y-81178600D01*
X129752100Y-81178600D02*
X128938200Y-80364700D01*
X128938200Y-80364700D02*
X127201200Y-80364700D01*
X127201200Y-80364700D02*
X123698000Y-76861500D01*
X96774000Y-69342000D02*
X97949300Y-69342000D01*
X117094000Y-74422000D02*
X115918700Y-74422000D01*
X115918700Y-74422000D02*
X114743400Y-73246700D01*
X114743400Y-73246700D02*
X101854000Y-73246700D01*
X101854000Y-73246700D02*
X97949300Y-69342000D01*
X123698000Y-76861500D02*
X121258500Y-74422000D01*
X121258500Y-74422000D02*
X117094000Y-74422000D01*
X96774000Y-69342000D02*
X73660000Y-69342000D01*
G04 #@! TO.N,GND*
X128778000Y-78840500D02*
X129939400Y-78840500D01*
X117094000Y-76962000D02*
X115918700Y-76962000D01*
X97975300Y-73960800D02*
X98130900Y-73805200D01*
X98130900Y-73805200D02*
X112761900Y-73805200D01*
X112761900Y-73805200D02*
X115918700Y-76962000D01*
X97975300Y-73960800D02*
X97256400Y-73241900D01*
X97256400Y-73241900D02*
X73149400Y-73241900D01*
X73149400Y-73241900D02*
X72484700Y-73906600D01*
X72484700Y-73906600D02*
X72484700Y-74978800D01*
X72484700Y-74978800D02*
X73292600Y-75786700D01*
X73292600Y-75786700D02*
X73660000Y-75786700D01*
X96774000Y-75786700D02*
X97141300Y-75786700D01*
X97141300Y-75786700D02*
X97975300Y-74952700D01*
X97975300Y-74952700D02*
X97975300Y-73960800D01*
X73660000Y-76962000D02*
X73660000Y-75786700D01*
X96774000Y-76962000D02*
X96774000Y-75786700D01*
X117094000Y-76962000D02*
X118269300Y-76962000D01*
X118269300Y-76962000D02*
X119893800Y-78586500D01*
X119893800Y-78586500D02*
X123698000Y-78586500D01*
G04 #@! TO.N,+3V3*
X83943300Y-101026000D02*
X83943300Y-98457300D01*
X83943300Y-98457300D02*
X84414600Y-97986000D01*
X84414600Y-97986000D02*
X84414600Y-89305300D01*
X84414600Y-89305300D02*
X83943300Y-88834000D01*
X83830700Y-101026000D02*
X83943300Y-101026000D01*
X82618000Y-101026000D02*
X83830700Y-101026000D01*
X82618000Y-107630000D02*
X83943300Y-107630000D01*
X83943300Y-107630000D02*
X83943300Y-101026000D01*
X82068000Y-107630000D02*
X82618000Y-107630000D01*
X82618000Y-88834000D02*
X83943300Y-88834000D01*
X83943300Y-83500000D02*
X83943300Y-88834000D01*
X83943300Y-78822500D02*
X83943300Y-83500000D01*
X117094000Y-66802000D02*
X118269300Y-66802000D01*
X118269300Y-66802000D02*
X118269300Y-67103700D01*
X118269300Y-67103700D02*
X127667600Y-76502000D01*
X128778000Y-77115500D02*
X128164500Y-76502000D01*
X128164500Y-76502000D02*
X127667600Y-76502000D01*
X80010000Y-95301900D02*
X81174800Y-95301900D01*
X81174800Y-95301900D02*
X81292700Y-95184000D01*
X80010000Y-88889500D02*
X79188400Y-89711100D01*
X79188400Y-89711100D02*
X79188400Y-94480300D01*
X79188400Y-94480300D02*
X80010000Y-95301900D01*
X80010000Y-95301900D02*
X80010000Y-95400500D01*
X82618000Y-95184000D02*
X81292700Y-95184000D01*
X80010000Y-88889500D02*
X81237200Y-88889500D01*
X81237200Y-88889500D02*
X81292700Y-88834000D01*
X83943300Y-78822500D02*
X83943300Y-78629900D01*
X83943300Y-78629900D02*
X81955400Y-76642000D01*
X82068000Y-88834000D02*
X82618000Y-88834000D01*
X82068000Y-88834000D02*
X81292700Y-88834000D01*
X82068000Y-107630000D02*
X81292700Y-107630000D01*
X82618000Y-83500000D02*
X83943300Y-83500000D01*
X81955400Y-76642000D02*
X81292700Y-76642000D01*
X82618000Y-76642000D02*
X81955400Y-76642000D01*
X80010000Y-101242500D02*
X81076200Y-101242500D01*
X81076200Y-101242500D02*
X81292700Y-101026000D01*
X82618000Y-83500000D02*
X81292700Y-83500000D01*
X80010000Y-83619500D02*
X81173200Y-83619500D01*
X81173200Y-83619500D02*
X81292700Y-83500000D01*
X80010000Y-76755000D02*
X81179700Y-76755000D01*
X81179700Y-76755000D02*
X81292700Y-76642000D01*
X82618000Y-101026000D02*
X81292700Y-101026000D01*
X80010000Y-107592500D02*
X81255200Y-107592500D01*
X81255200Y-107592500D02*
X81292700Y-107630000D01*
G04 #@! TO.N,VH*
X117094000Y-69342000D02*
X117094000Y-68166700D01*
X117094000Y-68166700D02*
X116286000Y-68166700D01*
X116286000Y-68166700D02*
X115870200Y-67750900D01*
X115870200Y-67750900D02*
X115870200Y-65820600D01*
X115870200Y-65820600D02*
X116095400Y-65595400D01*
X116095400Y-65595400D02*
X118620500Y-65595400D01*
X118620500Y-65595400D02*
X134161700Y-81136600D01*
X134161700Y-81136600D02*
X134161700Y-95836000D01*
X96774000Y-71882000D02*
X73660000Y-71882000D01*
G04 #@! TO.N,VLOGIC*
X117094000Y-71882000D02*
X120455200Y-71882000D01*
X120455200Y-71882000D02*
X128335600Y-79762400D01*
X128335600Y-79762400D02*
X128980400Y-79762400D01*
X128980400Y-79762400D02*
X133176300Y-83958300D01*
X133176300Y-83958300D02*
X133176300Y-105741100D01*
X133176300Y-105741100D02*
X133176400Y-105741100D01*
X133176400Y-105741100D02*
X134271300Y-106836000D01*
X88495500Y-101346000D02*
X85429700Y-101346000D01*
X85429700Y-101346000D02*
X84709100Y-100625400D01*
X84709100Y-100625400D02*
X84709100Y-99600000D01*
X84709100Y-99600000D02*
X84899900Y-99409200D01*
X84899900Y-99409200D02*
X89667200Y-99409200D01*
X89667200Y-99409200D02*
X91260100Y-101002100D01*
X91260100Y-101002100D02*
X97284500Y-101002100D01*
X97284500Y-101002100D02*
X97982400Y-100304200D01*
X97982400Y-100304200D02*
X97982400Y-99358700D01*
X97982400Y-99358700D02*
X97175700Y-98552000D01*
X97175700Y-98552000D02*
X93690400Y-98552000D01*
X93690400Y-98552000D02*
X91134300Y-95995900D01*
X91134300Y-95995900D02*
X91134300Y-92746900D01*
X91134300Y-92746900D02*
X89207100Y-90819700D01*
X88495500Y-95504000D02*
X89328300Y-96336800D01*
X89328300Y-96336800D02*
X90793400Y-96336800D01*
X90793400Y-96336800D02*
X91134300Y-95995900D01*
X88495500Y-107950000D02*
X88495500Y-101346000D01*
X89207100Y-90819700D02*
X89207100Y-89865600D01*
X89207100Y-89865600D02*
X88495500Y-89154000D01*
X87393800Y-78063700D02*
X87393800Y-80768300D01*
X88495500Y-76962000D02*
X87393800Y-78063700D01*
X84340500Y-74595000D02*
X84340500Y-75785600D01*
X84340500Y-75785600D02*
X86618600Y-78063700D01*
X86618600Y-78063700D02*
X87393800Y-78063700D01*
X84340500Y-74595000D02*
X83837100Y-74091600D01*
X83837100Y-74091600D02*
X75165700Y-74091600D01*
X75165700Y-74091600D02*
X74835300Y-74422000D01*
X96774000Y-74422000D02*
X84513500Y-74422000D01*
X84513500Y-74422000D02*
X84340500Y-74595000D01*
X87393800Y-80768300D02*
X86032700Y-80768300D01*
X86032700Y-80768300D02*
X84712600Y-82088400D01*
X84712600Y-82088400D02*
X84712600Y-88346500D01*
X84712600Y-88346500D02*
X84905100Y-88539000D01*
X84905100Y-88539000D02*
X88495500Y-88539000D01*
X87649600Y-81024100D02*
X87393800Y-80768300D01*
X88495500Y-88539000D02*
X88495500Y-89154000D01*
X88495500Y-83820000D02*
X88495500Y-88539000D01*
X73660000Y-74422000D02*
X74835300Y-74422000D01*
G04 #@! TO.N,HCLK*
X117094000Y-85757300D02*
X117461300Y-85757300D01*
X117461300Y-85757300D02*
X119310100Y-87606100D01*
X119310100Y-87606100D02*
X119310100Y-108338500D01*
X119310100Y-108338500D02*
X118491500Y-109157100D01*
X117094000Y-84582000D02*
X115918700Y-84582000D01*
X96774000Y-84582000D02*
X96774000Y-83406700D01*
X96774000Y-83406700D02*
X97403500Y-83406700D01*
X97403500Y-83406700D02*
X106104200Y-74706000D01*
X106104200Y-74706000D02*
X107218000Y-74706000D01*
X107218000Y-74706000D02*
X115918700Y-83406700D01*
X115918700Y-83406700D02*
X115918700Y-84582000D01*
X117094000Y-84582000D02*
X117094000Y-85757300D01*
G04 #@! TO.N,HSTB1*
X117094000Y-87122000D02*
X115918700Y-87122000D01*
X96774000Y-87122000D02*
X97949300Y-87122000D01*
X97949300Y-87122000D02*
X97949300Y-88297300D01*
X97949300Y-88297300D02*
X106109400Y-96457400D01*
X106109400Y-96457400D02*
X107170900Y-96457400D01*
X107170900Y-96457400D02*
X115918700Y-87709600D01*
X115918700Y-87709600D02*
X115918700Y-87122000D01*
G04 #@! TO.N,HSTB2*
X117094000Y-89662000D02*
X115918700Y-89662000D01*
X96774000Y-89662000D02*
X97949300Y-89662000D01*
X97949300Y-89662000D02*
X105217100Y-96929800D01*
X105217100Y-96929800D02*
X108650900Y-96929800D01*
X108650900Y-96929800D02*
X115918700Y-89662000D01*
G04 #@! TO.N,HSTB3*
X96774000Y-92202000D02*
X96774000Y-91026700D01*
X96774000Y-91026700D02*
X96406600Y-91026700D01*
X96406600Y-91026700D02*
X95598700Y-90218800D01*
X95598700Y-90218800D02*
X95598700Y-82240200D01*
X95598700Y-82240200D02*
X90320500Y-76962000D01*
X90320500Y-76962000D02*
X89050500Y-75692000D01*
X89050500Y-75692000D02*
X86038000Y-75692000D01*
G04 #@! TO.N,HSTB4*
X117094000Y-94742000D02*
X117094000Y-95917300D01*
X117094000Y-95917300D02*
X117461300Y-95917300D01*
X117461300Y-95917300D02*
X118582500Y-97038500D01*
X118582500Y-97038500D02*
X118582500Y-107255400D01*
X90320500Y-83820000D02*
X90320500Y-87480500D01*
X90320500Y-87480500D02*
X96406700Y-93566700D01*
X96406700Y-93566700D02*
X96774000Y-93566700D01*
X87363300Y-82550000D02*
X89209700Y-82550000D01*
X89209700Y-82550000D02*
X90320500Y-83660800D01*
X90320500Y-83660800D02*
X90320500Y-83820000D01*
X96774000Y-94742000D02*
X96774000Y-93566700D01*
X86038000Y-82550000D02*
X87363300Y-82550000D01*
G04 #@! TO.N,HSTB5*
X128815600Y-104139300D02*
X128815600Y-108926000D01*
X96774000Y-97282000D02*
X96774000Y-96106700D01*
X96774000Y-96106700D02*
X96406700Y-96106700D01*
X96406700Y-96106700D02*
X90320500Y-90020500D01*
X90320500Y-90020500D02*
X90320500Y-89154000D01*
X90320500Y-89154000D02*
X89309200Y-88142700D01*
X89309200Y-88142700D02*
X89309200Y-83286400D01*
X89309200Y-83286400D02*
X89023200Y-83000400D01*
X89023200Y-83000400D02*
X88014100Y-83000400D01*
X88014100Y-83000400D02*
X87363300Y-83651200D01*
X87363300Y-83651200D02*
X87363300Y-87884000D01*
X86038000Y-87884000D02*
X87363300Y-87884000D01*
G04 #@! TO.N,HSTB6*
X86038000Y-94234000D02*
X87363300Y-94234000D01*
X87659300Y-94685500D02*
X87363300Y-94389500D01*
X87363300Y-94389500D02*
X87363300Y-94234000D01*
X90320500Y-95504000D02*
X89502000Y-94685500D01*
X89502000Y-94685500D02*
X87659300Y-94685500D01*
X87659300Y-94685500D02*
X87659300Y-95951200D01*
X87659300Y-95951200D02*
X91530100Y-99822000D01*
X91530100Y-99822000D02*
X96774000Y-99822000D01*
G04 #@! TO.N,TM*
X117094000Y-102362000D02*
X115918700Y-102362000D01*
X96774000Y-102362000D02*
X97949300Y-102362000D01*
X97949300Y-102362000D02*
X102422600Y-97888700D01*
X102422600Y-97888700D02*
X111445400Y-97888700D01*
X111445400Y-97888700D02*
X115918700Y-102362000D01*
G04 #@! TO.N,TM_*
X97949300Y-104902000D02*
X104508900Y-98342400D01*
X104508900Y-98342400D02*
X109359100Y-98342400D01*
X109359100Y-98342400D02*
X115918700Y-104902000D01*
X117094000Y-104902000D02*
X115918700Y-104902000D01*
X96774000Y-104902000D02*
X97949300Y-104902000D01*
G04 #@! TO.N,HLAT*
X114863500Y-111962700D02*
X116618100Y-113717400D01*
X116618100Y-113717400D02*
X117710800Y-113717400D01*
X117710800Y-113717400D02*
X118717900Y-112710300D01*
X118717900Y-112710300D02*
X119202300Y-112710300D01*
X119202300Y-112710300D02*
X119641400Y-112271200D01*
X119641400Y-112271200D02*
X119880200Y-112271200D01*
X119880200Y-112271200D02*
X121712600Y-110438800D01*
X121712600Y-110438800D02*
X121712600Y-110199900D01*
X121712600Y-110199900D02*
X122230800Y-109681700D01*
X122230800Y-109681700D02*
X122230800Y-109162400D01*
X122230800Y-109162400D02*
X126021300Y-105371900D01*
X126021300Y-105371900D02*
X126021300Y-101738200D01*
X126021300Y-101738200D02*
X126471600Y-101287900D01*
X126471600Y-101287900D02*
X126471600Y-98104700D01*
X126471600Y-98104700D02*
X127176300Y-97400000D01*
X114863500Y-111962700D02*
X113854500Y-112971700D01*
X113854500Y-112971700D02*
X103479000Y-112971700D01*
X103479000Y-112971700D02*
X97949300Y-107442000D01*
X115918700Y-107442000D02*
X115918700Y-110907500D01*
X115918700Y-110907500D02*
X114863500Y-111962700D01*
X96774000Y-107442000D02*
X95598700Y-107442000D01*
X90320500Y-101346000D02*
X95598700Y-106624200D01*
X95598700Y-106624200D02*
X95598700Y-107442000D01*
X86038000Y-100076000D02*
X89050500Y-100076000D01*
X89050500Y-100076000D02*
X90320500Y-101346000D01*
X117094000Y-107442000D02*
X115918700Y-107442000D01*
X96774000Y-107442000D02*
X97949300Y-107442000D01*
G04 #@! TO.N,HDO*
X117094000Y-109982000D02*
X118269300Y-109982000D01*
X118269300Y-109982000D02*
X118269300Y-110203400D01*
X118269300Y-110203400D02*
X118773200Y-110707300D01*
X118773200Y-110707300D02*
X120074000Y-110707300D01*
X120074000Y-110707300D02*
X120811900Y-109969400D01*
X120811900Y-109969400D02*
X120811900Y-101670300D01*
X120811900Y-101670300D02*
X126023100Y-96459100D01*
X86038000Y-106680000D02*
X87363300Y-106680000D01*
X90320500Y-107950000D02*
X89512600Y-108757900D01*
X89512600Y-108757900D02*
X87974200Y-108757900D01*
X87974200Y-108757900D02*
X87363300Y-108147000D01*
X87363300Y-108147000D02*
X87363300Y-106680000D01*
X90320500Y-107950000D02*
X92352500Y-109982000D01*
X92352500Y-109982000D02*
X96774000Y-109982000D01*
G04 #@! TO.N,MTA_PHASE*
X118269300Y-112522000D02*
X119102100Y-111689200D01*
X119102100Y-111689200D02*
X119802800Y-111689200D01*
X119802800Y-111689200D02*
X121262300Y-110229700D01*
X121262300Y-110229700D02*
X121262300Y-102245600D01*
X121262300Y-102245600D02*
X121262400Y-102245600D01*
X121262400Y-102245600D02*
X126748400Y-96759600D01*
X126748400Y-96759600D02*
X126748400Y-83222000D01*
X126748400Y-83222000D02*
X128745800Y-81224600D01*
X117094000Y-112522000D02*
X118269300Y-112522000D01*
G04 #@! TO.N,MTA_EN*
X117094000Y-115062000D02*
X117737900Y-115062000D01*
X117737900Y-115062000D02*
X127189400Y-105610500D01*
X127189400Y-105610500D02*
X127189400Y-98412700D01*
X127189400Y-98412700D02*
X127901600Y-97700500D01*
X127901600Y-97700500D02*
X127901600Y-96751700D01*
X127901600Y-96751700D02*
X127345300Y-96195400D01*
X127345300Y-96195400D02*
X127345300Y-83621600D01*
X127345300Y-83621600D02*
X128674800Y-82292100D01*
X128674800Y-82292100D02*
X128779300Y-82292100D01*
X128779300Y-82292100D02*
X128779300Y-82292000D01*
G04 #@! TO.N,MTB_PHASE*
X117094000Y-116426700D02*
X117414300Y-116426700D01*
X117414300Y-116426700D02*
X127639800Y-106201200D01*
X127639800Y-106201200D02*
X127639800Y-98830200D01*
X127639800Y-98830200D02*
X128351900Y-98118100D01*
X128351900Y-98118100D02*
X128351900Y-85171700D01*
X128351900Y-85171700D02*
X128070900Y-84890700D01*
X117094000Y-117602000D02*
X117094000Y-116426700D01*
G04 #@! TO.N,MTB_EN*
X117094000Y-118966700D02*
X117461300Y-118966700D01*
X117461300Y-118966700D02*
X128090200Y-108337800D01*
X128090200Y-108337800D02*
X128090200Y-100116000D01*
X128090200Y-100116000D02*
X128802200Y-99404000D01*
X128802200Y-99404000D02*
X128802200Y-84392900D01*
X128802200Y-84392900D02*
X128212900Y-83803600D01*
X117094000Y-120142000D02*
X117094000Y-118966700D01*
G04 #@! TO.N,HDI*
X97949300Y-82042000D02*
X105735700Y-74255600D01*
X105735700Y-74255600D02*
X110757500Y-74255600D01*
X110757500Y-74255600D02*
X114733900Y-78232000D01*
X114733900Y-78232000D02*
X117522900Y-78232000D01*
X117522900Y-78232000D02*
X120265900Y-80975000D01*
X120265900Y-80975000D02*
X120265900Y-109471500D01*
X120265900Y-109471500D02*
X120086600Y-109650800D01*
X96774000Y-82042000D02*
X97949300Y-82042000D01*
G04 #@! TO.N,HPHE*
X117094000Y-80677300D02*
X117410100Y-80677300D01*
X117410100Y-80677300D02*
X119786200Y-83053400D01*
X119786200Y-83053400D02*
X119786200Y-108925500D01*
X119786200Y-108925500D02*
X119086300Y-109625400D01*
X119086300Y-109625400D02*
X119086300Y-109977000D01*
X117094000Y-79502000D02*
X117094000Y-80677300D01*
G04 #@! TO.N,STB3*
X73660000Y-92202000D02*
X73660000Y-91026700D01*
X80010000Y-74930000D02*
X74835300Y-80104700D01*
X74835300Y-80104700D02*
X74835300Y-90218800D01*
X74835300Y-90218800D02*
X74027400Y-91026700D01*
X74027400Y-91026700D02*
X73660000Y-91026700D01*
X81292700Y-74742000D02*
X81104700Y-74930000D01*
X81104700Y-74930000D02*
X80010000Y-74930000D01*
X82618000Y-74742000D02*
X81292700Y-74742000D01*
G04 #@! TO.N,STB4*
X73660000Y-94742000D02*
X73660000Y-93566700D01*
X80010000Y-81794500D02*
X76055000Y-85749500D01*
X76055000Y-85749500D02*
X76055000Y-91539000D01*
X76055000Y-91539000D02*
X74027300Y-93566700D01*
X74027300Y-93566700D02*
X73660000Y-93566700D01*
X81292700Y-81600000D02*
X81098200Y-81794500D01*
X81098200Y-81794500D02*
X80010000Y-81794500D01*
X82618000Y-81600000D02*
X81292700Y-81600000D01*
G04 #@! TO.N,STB5*
X80010000Y-87064500D02*
X81162200Y-87064500D01*
X81162200Y-87064500D02*
X81292700Y-86934000D01*
X73660000Y-96106700D02*
X74027300Y-96106700D01*
X74027300Y-96106700D02*
X77956900Y-92177100D01*
X77956900Y-92177100D02*
X77956900Y-89117600D01*
X77956900Y-89117600D02*
X80010000Y-87064500D01*
X82618000Y-86934000D02*
X81292700Y-86934000D01*
X73660000Y-97282000D02*
X73660000Y-96106700D01*
G04 #@! TO.N,STB6*
X82618000Y-93284000D02*
X81292700Y-93284000D01*
X80010000Y-93575500D02*
X81001200Y-93575500D01*
X81001200Y-93575500D02*
X81292700Y-93284000D01*
X73660000Y-99822000D02*
X74835300Y-99822000D01*
X82618000Y-93284000D02*
X83943300Y-93284000D01*
X83943300Y-93284000D02*
X83943300Y-95681400D01*
X83943300Y-95681400D02*
X81167300Y-98457400D01*
X81167300Y-98457400D02*
X76199900Y-98457400D01*
X76199900Y-98457400D02*
X74835300Y-99822000D01*
G04 #@! TO.N,LAT*
X73660000Y-107442000D02*
X73660000Y-106266700D01*
X80010000Y-99417500D02*
X74835300Y-104592200D01*
X74835300Y-104592200D02*
X74835300Y-105458800D01*
X74835300Y-105458800D02*
X74027400Y-106266700D01*
X74027400Y-106266700D02*
X73660000Y-106266700D01*
X81292700Y-99126000D02*
X81001200Y-99417500D01*
X81001200Y-99417500D02*
X80010000Y-99417500D01*
X82618000Y-99126000D02*
X81292700Y-99126000D01*
G04 #@! TO.N,DO*
X82618000Y-105730000D02*
X81292700Y-105730000D01*
X80010000Y-105767500D02*
X81255200Y-105767500D01*
X81255200Y-105767500D02*
X81292700Y-105730000D01*
X74835300Y-109982000D02*
X79049800Y-105767500D01*
X79049800Y-105767500D02*
X80010000Y-105767500D01*
X73660000Y-109982000D02*
X74835300Y-109982000D01*
G04 #@! TD*
D15*
G04 #@! TO.N,GND*
X103606775Y-62698147D02*
X103949967Y-62801763D01*
X104266489Y-62970062D01*
X104544299Y-63196637D01*
X104772806Y-63472856D01*
X104943310Y-63788197D01*
X105049319Y-64130656D01*
X105090000Y-64517713D01*
X105090001Y-70136419D01*
X105093235Y-70169255D01*
X105093235Y-70180623D01*
X105094198Y-70189788D01*
X105113234Y-70359494D01*
X105125667Y-70417983D01*
X105137290Y-70476686D01*
X105140016Y-70485489D01*
X105191652Y-70648265D01*
X105215204Y-70703215D01*
X105238011Y-70758550D01*
X105242394Y-70766656D01*
X105324663Y-70916303D01*
X105358458Y-70965658D01*
X105391562Y-71015485D01*
X105397436Y-71022585D01*
X105507205Y-71153403D01*
X105549935Y-71195247D01*
X105592094Y-71237702D01*
X105599236Y-71243526D01*
X105732322Y-71350531D01*
X105782392Y-71383296D01*
X105831970Y-71416737D01*
X105840102Y-71421060D01*
X105840106Y-71421063D01*
X105840110Y-71421065D01*
X105991444Y-71500180D01*
X106046869Y-71522573D01*
X106102053Y-71545771D01*
X106110875Y-71548434D01*
X106274697Y-71596649D01*
X106333437Y-71607854D01*
X106392050Y-71619886D01*
X106401221Y-71620784D01*
X106401226Y-71620785D01*
X106401232Y-71620785D01*
X106571289Y-71636263D01*
X106631109Y-71635845D01*
X106690929Y-71636263D01*
X106700101Y-71635363D01*
X106869935Y-71617512D01*
X106928505Y-71605489D01*
X106987288Y-71594276D01*
X106996110Y-71591612D01*
X107159243Y-71541114D01*
X107214361Y-71517944D01*
X107269850Y-71495526D01*
X107277986Y-71491199D01*
X107428204Y-71409977D01*
X107477813Y-71376516D01*
X107527854Y-71343770D01*
X107534995Y-71337946D01*
X107666575Y-71229092D01*
X107708694Y-71186677D01*
X107751463Y-71144796D01*
X107757336Y-71137696D01*
X107865268Y-71005359D01*
X107898350Y-70955566D01*
X107932168Y-70906177D01*
X107936551Y-70898070D01*
X108016723Y-70747289D01*
X108039517Y-70691985D01*
X108063084Y-70637001D01*
X108065809Y-70628198D01*
X108115167Y-70464715D01*
X108126781Y-70406059D01*
X108139223Y-70347524D01*
X108140186Y-70338359D01*
X108156850Y-70168404D01*
X108156850Y-70168402D01*
X108160000Y-70136419D01*
X108160000Y-65079872D01*
X108465000Y-65079872D01*
X108465000Y-65520128D01*
X108550890Y-65951925D01*
X108719369Y-66358669D01*
X108963962Y-66724729D01*
X109275271Y-67036038D01*
X109641331Y-67280631D01*
X110048075Y-67449110D01*
X110479872Y-67535000D01*
X110920128Y-67535000D01*
X111351925Y-67449110D01*
X111758669Y-67280631D01*
X112124729Y-67036038D01*
X112436038Y-66724729D01*
X112680631Y-66358669D01*
X112849110Y-65951925D01*
X112935000Y-65520128D01*
X112935000Y-65079872D01*
X112849110Y-64648075D01*
X112680631Y-64241331D01*
X112436038Y-63875271D01*
X112124729Y-63563962D01*
X111758669Y-63319369D01*
X111351925Y-63150890D01*
X110920128Y-63065000D01*
X110479872Y-63065000D01*
X110048075Y-63150890D01*
X109641331Y-63319369D01*
X109275271Y-63563962D01*
X108963962Y-63875271D01*
X108719369Y-64241331D01*
X108550890Y-64648075D01*
X108465000Y-65079872D01*
X108160000Y-65079872D01*
X108160000Y-64532279D01*
X108198147Y-64143225D01*
X108301763Y-63800033D01*
X108470062Y-63483511D01*
X108696637Y-63205701D01*
X108972856Y-62977194D01*
X109288197Y-62806690D01*
X109630656Y-62700681D01*
X110017712Y-62660000D01*
X161467721Y-62660000D01*
X161856775Y-62698147D01*
X162199967Y-62801763D01*
X162516489Y-62970062D01*
X162794299Y-63196637D01*
X163022806Y-63472856D01*
X163193310Y-63788197D01*
X163299319Y-64130656D01*
X163340000Y-64517712D01*
X163340001Y-142967711D01*
X163301853Y-143356776D01*
X163198238Y-143699964D01*
X163029939Y-144016489D01*
X162803365Y-144294296D01*
X162527146Y-144522805D01*
X162211803Y-144693310D01*
X161869344Y-144799319D01*
X161482288Y-144840000D01*
X110032279Y-144840000D01*
X109643224Y-144801853D01*
X109300036Y-144698238D01*
X108983511Y-144529939D01*
X108705704Y-144303365D01*
X108477195Y-144027146D01*
X108306690Y-143711803D01*
X108200681Y-143369344D01*
X108160000Y-142982288D01*
X108160000Y-141779872D01*
X108465000Y-141779872D01*
X108465000Y-142220128D01*
X108550890Y-142651925D01*
X108719369Y-143058669D01*
X108963962Y-143424729D01*
X109275271Y-143736038D01*
X109641331Y-143980631D01*
X110048075Y-144149110D01*
X110479872Y-144235000D01*
X110920128Y-144235000D01*
X111351925Y-144149110D01*
X111758669Y-143980631D01*
X112124729Y-143736038D01*
X112436038Y-143424729D01*
X112680631Y-143058669D01*
X112849110Y-142651925D01*
X112935000Y-142220128D01*
X112935000Y-141779872D01*
X158565000Y-141779872D01*
X158565000Y-142220128D01*
X158650890Y-142651925D01*
X158819369Y-143058669D01*
X159063962Y-143424729D01*
X159375271Y-143736038D01*
X159741331Y-143980631D01*
X160148075Y-144149110D01*
X160579872Y-144235000D01*
X161020128Y-144235000D01*
X161451925Y-144149110D01*
X161858669Y-143980631D01*
X162224729Y-143736038D01*
X162536038Y-143424729D01*
X162780631Y-143058669D01*
X162949110Y-142651925D01*
X163035000Y-142220128D01*
X163035000Y-141779872D01*
X162949110Y-141348075D01*
X162780631Y-140941331D01*
X162536038Y-140575271D01*
X162224729Y-140263962D01*
X161858669Y-140019369D01*
X161451925Y-139850890D01*
X161020128Y-139765000D01*
X160579872Y-139765000D01*
X160148075Y-139850890D01*
X159741331Y-140019369D01*
X159375271Y-140263962D01*
X159063962Y-140575271D01*
X158819369Y-140941331D01*
X158650890Y-141348075D01*
X158565000Y-141779872D01*
X112935000Y-141779872D01*
X112849110Y-141348075D01*
X112680631Y-140941331D01*
X112436038Y-140575271D01*
X112124729Y-140263962D01*
X111758669Y-140019369D01*
X111351925Y-139850890D01*
X110920128Y-139765000D01*
X110479872Y-139765000D01*
X110048075Y-139850890D01*
X109641331Y-140019369D01*
X109275271Y-140263962D01*
X108963962Y-140575271D01*
X108719369Y-140941331D01*
X108550890Y-141348075D01*
X108465000Y-141779872D01*
X108160000Y-141779872D01*
X108160000Y-135555117D01*
X143365000Y-135555117D01*
X143365000Y-135896883D01*
X143431675Y-136232081D01*
X143562463Y-136547831D01*
X143752337Y-136831998D01*
X143994002Y-137073663D01*
X144278169Y-137263537D01*
X144593919Y-137394325D01*
X144929117Y-137461000D01*
X145270883Y-137461000D01*
X145606081Y-137394325D01*
X145921831Y-137263537D01*
X146205998Y-137073663D01*
X146447663Y-136831998D01*
X146637537Y-136547831D01*
X146768325Y-136232081D01*
X146835000Y-135896883D01*
X146835000Y-135555117D01*
X146768325Y-135219919D01*
X146637537Y-134904169D01*
X146447663Y-134620002D01*
X146205998Y-134378337D01*
X145921831Y-134188463D01*
X145606081Y-134057675D01*
X145270883Y-133991000D01*
X144929117Y-133991000D01*
X144593919Y-134057675D01*
X144278169Y-134188463D01*
X143994002Y-134378337D01*
X143752337Y-134620002D01*
X143562463Y-134904169D01*
X143431675Y-135219919D01*
X143365000Y-135555117D01*
X108160000Y-135555117D01*
X108160000Y-118585581D01*
X108156765Y-118552735D01*
X108156765Y-118541376D01*
X108155802Y-118532212D01*
X108136766Y-118362506D01*
X108124332Y-118304009D01*
X108112710Y-118245315D01*
X108109984Y-118236512D01*
X108058348Y-118073735D01*
X108034796Y-118018785D01*
X108011989Y-117963450D01*
X108007606Y-117955344D01*
X107925337Y-117805697D01*
X107891549Y-117756350D01*
X107858439Y-117706516D01*
X107852564Y-117699415D01*
X107742795Y-117568597D01*
X107700065Y-117526753D01*
X107657905Y-117484297D01*
X107650764Y-117478473D01*
X107517677Y-117371469D01*
X107467625Y-117338716D01*
X107418030Y-117305263D01*
X107409898Y-117300940D01*
X107409894Y-117300937D01*
X107409890Y-117300935D01*
X107258556Y-117221820D01*
X107203098Y-117199414D01*
X107147947Y-117176230D01*
X107139125Y-117173566D01*
X106975303Y-117125351D01*
X106916563Y-117114146D01*
X106857950Y-117102114D01*
X106848779Y-117101216D01*
X106848774Y-117101215D01*
X106848768Y-117101215D01*
X106678711Y-117085738D01*
X106618929Y-117086155D01*
X106559071Y-117085737D01*
X106549900Y-117086637D01*
X106380065Y-117104488D01*
X106321501Y-117116510D01*
X106262712Y-117127724D01*
X106253890Y-117130388D01*
X106090757Y-117180886D01*
X106035577Y-117204081D01*
X105980150Y-117226475D01*
X105972014Y-117230801D01*
X105821796Y-117312023D01*
X105772234Y-117345454D01*
X105722146Y-117378230D01*
X105715005Y-117384054D01*
X105583425Y-117492907D01*
X105541286Y-117535341D01*
X105498537Y-117577204D01*
X105492664Y-117584304D01*
X105384732Y-117716641D01*
X105351638Y-117766452D01*
X105317832Y-117815824D01*
X105313449Y-117823930D01*
X105233277Y-117974711D01*
X105210488Y-118030003D01*
X105186916Y-118084999D01*
X105184191Y-118093802D01*
X105134833Y-118257284D01*
X105123216Y-118315955D01*
X105110777Y-118374476D01*
X105109814Y-118383641D01*
X105093150Y-118553596D01*
X105090000Y-118585582D01*
X105090001Y-126717711D01*
X105051853Y-127106776D01*
X104948238Y-127449964D01*
X104779939Y-127766489D01*
X104553365Y-128044296D01*
X104277146Y-128272805D01*
X103961803Y-128443310D01*
X103619344Y-128549319D01*
X103232288Y-128590000D01*
X67032279Y-128590000D01*
X66643224Y-128551853D01*
X66300036Y-128448238D01*
X65983511Y-128279939D01*
X65705704Y-128053365D01*
X65477195Y-127777146D01*
X65306690Y-127461803D01*
X65200681Y-127119344D01*
X65160000Y-126732288D01*
X65160000Y-125879872D01*
X65583000Y-125879872D01*
X65583000Y-126320128D01*
X65668890Y-126751925D01*
X65837369Y-127158669D01*
X66081962Y-127524729D01*
X66393271Y-127836038D01*
X66759331Y-128080631D01*
X67166075Y-128249110D01*
X67597872Y-128335000D01*
X68038128Y-128335000D01*
X68469925Y-128249110D01*
X68876669Y-128080631D01*
X69242729Y-127836038D01*
X69554038Y-127524729D01*
X69798631Y-127158669D01*
X69967110Y-126751925D01*
X70053000Y-126320128D01*
X70053000Y-125879872D01*
X70029927Y-125763872D01*
X99873000Y-125763872D01*
X99873000Y-126204128D01*
X99958890Y-126635925D01*
X100127369Y-127042669D01*
X100371962Y-127408729D01*
X100683271Y-127720038D01*
X101049331Y-127964631D01*
X101456075Y-128133110D01*
X101887872Y-128219000D01*
X102328128Y-128219000D01*
X102759925Y-128133110D01*
X103166669Y-127964631D01*
X103532729Y-127720038D01*
X103844038Y-127408729D01*
X104088631Y-127042669D01*
X104257110Y-126635925D01*
X104343000Y-126204128D01*
X104343000Y-125763872D01*
X104257110Y-125332075D01*
X104088631Y-124925331D01*
X103844038Y-124559271D01*
X103532729Y-124247962D01*
X103166669Y-124003369D01*
X102759925Y-123834890D01*
X102328128Y-123749000D01*
X101887872Y-123749000D01*
X101456075Y-123834890D01*
X101049331Y-124003369D01*
X100683271Y-124247962D01*
X100371962Y-124559271D01*
X100127369Y-124925331D01*
X99958890Y-125332075D01*
X99873000Y-125763872D01*
X70029927Y-125763872D01*
X69967110Y-125448075D01*
X69798631Y-125041331D01*
X69554038Y-124675271D01*
X69242729Y-124363962D01*
X68876669Y-124119369D01*
X68469925Y-123950890D01*
X68038128Y-123865000D01*
X67597872Y-123865000D01*
X67166075Y-123950890D01*
X66759331Y-124119369D01*
X66393271Y-124363962D01*
X66081962Y-124675271D01*
X65837369Y-125041331D01*
X65668890Y-125448075D01*
X65583000Y-125879872D01*
X65160000Y-125879872D01*
X65160000Y-64983872D01*
X65583000Y-64983872D01*
X65583000Y-65424128D01*
X65668890Y-65855925D01*
X65837369Y-66262669D01*
X66081962Y-66628729D01*
X66393271Y-66940038D01*
X66759331Y-67184631D01*
X67166075Y-67353110D01*
X67597872Y-67439000D01*
X68038128Y-67439000D01*
X68469925Y-67353110D01*
X68876669Y-67184631D01*
X69242729Y-66940038D01*
X69554038Y-66628729D01*
X69798631Y-66262669D01*
X69927314Y-65952000D01*
X72171928Y-65952000D01*
X72171928Y-67652000D01*
X72184188Y-67776482D01*
X72220498Y-67896180D01*
X72279463Y-68006494D01*
X72358815Y-68103185D01*
X72455506Y-68182537D01*
X72565820Y-68241502D01*
X72638380Y-68263513D01*
X72506525Y-68395368D01*
X72344010Y-68638589D01*
X72232068Y-68908842D01*
X72175000Y-69195740D01*
X72175000Y-69488260D01*
X72232068Y-69775158D01*
X72344010Y-70045411D01*
X72506525Y-70288632D01*
X72713368Y-70495475D01*
X72887760Y-70612000D01*
X72713368Y-70728525D01*
X72506525Y-70935368D01*
X72344010Y-71178589D01*
X72232068Y-71448842D01*
X72175000Y-71735740D01*
X72175000Y-72028260D01*
X72232068Y-72315158D01*
X72344010Y-72585411D01*
X72506525Y-72828632D01*
X72713368Y-73035475D01*
X72887760Y-73152000D01*
X72713368Y-73268525D01*
X72506525Y-73475368D01*
X72344010Y-73718589D01*
X72232068Y-73988842D01*
X72175000Y-74275740D01*
X72175000Y-74568260D01*
X72232068Y-74855158D01*
X72344010Y-75125411D01*
X72506525Y-75368632D01*
X72713368Y-75575475D01*
X72895534Y-75697195D01*
X72778645Y-75766822D01*
X72562412Y-75961731D01*
X72388359Y-76195080D01*
X72263175Y-76457901D01*
X72218524Y-76605110D01*
X72339845Y-76835000D01*
X73533000Y-76835000D01*
X73533000Y-76815000D01*
X73787000Y-76815000D01*
X73787000Y-76835000D01*
X74980155Y-76835000D01*
X75101476Y-76605110D01*
X75056825Y-76457901D01*
X74931641Y-76195080D01*
X74757588Y-75961731D01*
X74541355Y-75766822D01*
X74424466Y-75697195D01*
X74606632Y-75575475D01*
X74813475Y-75368632D01*
X74942796Y-75175089D01*
X74984286Y-75171003D01*
X75127547Y-75127546D01*
X75259576Y-75056974D01*
X75375301Y-74962001D01*
X75399104Y-74932997D01*
X75480501Y-74851600D01*
X78896928Y-74851600D01*
X78896928Y-74968270D01*
X75002532Y-78862667D01*
X74975990Y-78798589D01*
X74813475Y-78555368D01*
X74606632Y-78348525D01*
X74424466Y-78226805D01*
X74541355Y-78157178D01*
X74757588Y-77962269D01*
X74931641Y-77728920D01*
X75056825Y-77466099D01*
X75101476Y-77318890D01*
X74980155Y-77089000D01*
X73787000Y-77089000D01*
X73787000Y-77109000D01*
X73533000Y-77109000D01*
X73533000Y-77089000D01*
X72339845Y-77089000D01*
X72218524Y-77318890D01*
X72263175Y-77466099D01*
X72388359Y-77728920D01*
X72562412Y-77962269D01*
X72778645Y-78157178D01*
X72895534Y-78226805D01*
X72713368Y-78348525D01*
X72506525Y-78555368D01*
X72344010Y-78798589D01*
X72232068Y-79068842D01*
X72175000Y-79355740D01*
X72175000Y-79648260D01*
X72232068Y-79935158D01*
X72344010Y-80205411D01*
X72506525Y-80448632D01*
X72713368Y-80655475D01*
X72887760Y-80772000D01*
X72713368Y-80888525D01*
X72506525Y-81095368D01*
X72344010Y-81338589D01*
X72232068Y-81608842D01*
X72175000Y-81895740D01*
X72175000Y-82188260D01*
X72232068Y-82475158D01*
X72344010Y-82745411D01*
X72506525Y-82988632D01*
X72713368Y-83195475D01*
X72887760Y-83312000D01*
X72713368Y-83428525D01*
X72506525Y-83635368D01*
X72344010Y-83878589D01*
X72232068Y-84148842D01*
X72175000Y-84435740D01*
X72175000Y-84728260D01*
X72232068Y-85015158D01*
X72344010Y-85285411D01*
X72506525Y-85528632D01*
X72713368Y-85735475D01*
X72887760Y-85852000D01*
X72713368Y-85968525D01*
X72506525Y-86175368D01*
X72344010Y-86418589D01*
X72232068Y-86688842D01*
X72175000Y-86975740D01*
X72175000Y-87268260D01*
X72232068Y-87555158D01*
X72344010Y-87825411D01*
X72506525Y-88068632D01*
X72713368Y-88275475D01*
X72887760Y-88392000D01*
X72713368Y-88508525D01*
X72506525Y-88715368D01*
X72344010Y-88958589D01*
X72232068Y-89228842D01*
X72175000Y-89515740D01*
X72175000Y-89808260D01*
X72232068Y-90095158D01*
X72344010Y-90365411D01*
X72506525Y-90608632D01*
X72713368Y-90815475D01*
X72887760Y-90932000D01*
X72713368Y-91048525D01*
X72506525Y-91255368D01*
X72344010Y-91498589D01*
X72232068Y-91768842D01*
X72175000Y-92055740D01*
X72175000Y-92348260D01*
X72232068Y-92635158D01*
X72344010Y-92905411D01*
X72506525Y-93148632D01*
X72713368Y-93355475D01*
X72887760Y-93472000D01*
X72713368Y-93588525D01*
X72506525Y-93795368D01*
X72344010Y-94038589D01*
X72232068Y-94308842D01*
X72175000Y-94595740D01*
X72175000Y-94888260D01*
X72232068Y-95175158D01*
X72344010Y-95445411D01*
X72506525Y-95688632D01*
X72713368Y-95895475D01*
X72887760Y-96012000D01*
X72713368Y-96128525D01*
X72506525Y-96335368D01*
X72344010Y-96578589D01*
X72232068Y-96848842D01*
X72175000Y-97135740D01*
X72175000Y-97428260D01*
X72232068Y-97715158D01*
X72344010Y-97985411D01*
X72506525Y-98228632D01*
X72713368Y-98435475D01*
X72887760Y-98552000D01*
X72713368Y-98668525D01*
X72506525Y-98875368D01*
X72344010Y-99118589D01*
X72232068Y-99388842D01*
X72175000Y-99675740D01*
X72175000Y-99968260D01*
X72232068Y-100255158D01*
X72344010Y-100525411D01*
X72506525Y-100768632D01*
X72713368Y-100975475D01*
X72887760Y-101092000D01*
X72713368Y-101208525D01*
X72506525Y-101415368D01*
X72344010Y-101658589D01*
X72232068Y-101928842D01*
X72175000Y-102215740D01*
X72175000Y-102508260D01*
X72232068Y-102795158D01*
X72344010Y-103065411D01*
X72506525Y-103308632D01*
X72713368Y-103515475D01*
X72887760Y-103632000D01*
X72713368Y-103748525D01*
X72506525Y-103955368D01*
X72344010Y-104198589D01*
X72232068Y-104468842D01*
X72175000Y-104755740D01*
X72175000Y-105048260D01*
X72232068Y-105335158D01*
X72344010Y-105605411D01*
X72506525Y-105848632D01*
X72713368Y-106055475D01*
X72887760Y-106172000D01*
X72713368Y-106288525D01*
X72506525Y-106495368D01*
X72344010Y-106738589D01*
X72232068Y-107008842D01*
X72175000Y-107295740D01*
X72175000Y-107588260D01*
X72232068Y-107875158D01*
X72344010Y-108145411D01*
X72506525Y-108388632D01*
X72713368Y-108595475D01*
X72887760Y-108712000D01*
X72713368Y-108828525D01*
X72506525Y-109035368D01*
X72344010Y-109278589D01*
X72232068Y-109548842D01*
X72175000Y-109835740D01*
X72175000Y-110128260D01*
X72232068Y-110415158D01*
X72344010Y-110685411D01*
X72506525Y-110928632D01*
X72713368Y-111135475D01*
X72887760Y-111252000D01*
X72713368Y-111368525D01*
X72506525Y-111575368D01*
X72344010Y-111818589D01*
X72232068Y-112088842D01*
X72175000Y-112375740D01*
X72175000Y-112668260D01*
X72232068Y-112955158D01*
X72344010Y-113225411D01*
X72506525Y-113468632D01*
X72713368Y-113675475D01*
X72887760Y-113792000D01*
X72713368Y-113908525D01*
X72506525Y-114115368D01*
X72344010Y-114358589D01*
X72232068Y-114628842D01*
X72175000Y-114915740D01*
X72175000Y-115208260D01*
X72232068Y-115495158D01*
X72344010Y-115765411D01*
X72506525Y-116008632D01*
X72713368Y-116215475D01*
X72887760Y-116332000D01*
X72713368Y-116448525D01*
X72506525Y-116655368D01*
X72344010Y-116898589D01*
X72232068Y-117168842D01*
X72175000Y-117455740D01*
X72175000Y-117748260D01*
X72232068Y-118035158D01*
X72344010Y-118305411D01*
X72506525Y-118548632D01*
X72713368Y-118755475D01*
X72887760Y-118872000D01*
X72713368Y-118988525D01*
X72506525Y-119195368D01*
X72344010Y-119438589D01*
X72232068Y-119708842D01*
X72175000Y-119995740D01*
X72175000Y-120288260D01*
X72232068Y-120575158D01*
X72344010Y-120845411D01*
X72506525Y-121088632D01*
X72713368Y-121295475D01*
X72956589Y-121457990D01*
X73226842Y-121569932D01*
X73513740Y-121627000D01*
X73806260Y-121627000D01*
X74093158Y-121569932D01*
X74363411Y-121457990D01*
X74606632Y-121295475D01*
X74813475Y-121088632D01*
X74975990Y-120845411D01*
X75087932Y-120575158D01*
X75145000Y-120288260D01*
X75145000Y-119995740D01*
X75087932Y-119708842D01*
X74975990Y-119438589D01*
X74813475Y-119195368D01*
X74606632Y-118988525D01*
X74432240Y-118872000D01*
X74606632Y-118755475D01*
X74813475Y-118548632D01*
X74975990Y-118305411D01*
X75087932Y-118035158D01*
X75145000Y-117748260D01*
X75145000Y-117455740D01*
X75087932Y-117168842D01*
X74975990Y-116898589D01*
X74813475Y-116655368D01*
X74606632Y-116448525D01*
X74432240Y-116332000D01*
X74606632Y-116215475D01*
X74813475Y-116008632D01*
X74975990Y-115765411D01*
X75087932Y-115495158D01*
X75145000Y-115208260D01*
X75145000Y-114915740D01*
X75087932Y-114628842D01*
X74975990Y-114358589D01*
X74813475Y-114115368D01*
X74606632Y-113908525D01*
X74432240Y-113792000D01*
X74606632Y-113675475D01*
X74813475Y-113468632D01*
X74975990Y-113225411D01*
X75087932Y-112955158D01*
X75145000Y-112668260D01*
X75145000Y-112375740D01*
X75087932Y-112088842D01*
X74975990Y-111818589D01*
X74813475Y-111575368D01*
X74606632Y-111368525D01*
X74432240Y-111252000D01*
X74606632Y-111135475D01*
X74813475Y-110928632D01*
X74942796Y-110735089D01*
X74984286Y-110731003D01*
X75127547Y-110687546D01*
X75259576Y-110616974D01*
X75375301Y-110522001D01*
X75399104Y-110492997D01*
X79083134Y-106808968D01*
X79044488Y-106856058D01*
X78963577Y-107007433D01*
X78913752Y-107171684D01*
X78896928Y-107342500D01*
X78896928Y-107842500D01*
X78913752Y-108013316D01*
X78963577Y-108177567D01*
X79044488Y-108328942D01*
X79153377Y-108461623D01*
X79286058Y-108570512D01*
X79437433Y-108651423D01*
X79601684Y-108701248D01*
X79772500Y-108718072D01*
X80247500Y-108718072D01*
X80418316Y-108701248D01*
X80582567Y-108651423D01*
X80733942Y-108570512D01*
X80866623Y-108461623D01*
X80956178Y-108352500D01*
X81056344Y-108352500D01*
X81143714Y-108379003D01*
X81144577Y-108379088D01*
X81166815Y-108406185D01*
X81263506Y-108485537D01*
X81373820Y-108544502D01*
X81493518Y-108580812D01*
X81618000Y-108593072D01*
X83618000Y-108593072D01*
X83742482Y-108580812D01*
X83862180Y-108544502D01*
X83972494Y-108485537D01*
X84069185Y-108406185D01*
X84091423Y-108379088D01*
X84092286Y-108379003D01*
X84235547Y-108335546D01*
X84367576Y-108264974D01*
X84483301Y-108170001D01*
X84578274Y-108054276D01*
X84648846Y-107922247D01*
X84692303Y-107778986D01*
X84706977Y-107630000D01*
X84703300Y-107592667D01*
X84703300Y-107546117D01*
X84793820Y-107594502D01*
X84913518Y-107630812D01*
X85038000Y-107643072D01*
X86603300Y-107643072D01*
X86603300Y-108109677D01*
X86599624Y-108147000D01*
X86603300Y-108184322D01*
X86603300Y-108184332D01*
X86614297Y-108295985D01*
X86642401Y-108388632D01*
X86657754Y-108439246D01*
X86728326Y-108571276D01*
X86739568Y-108584974D01*
X86823299Y-108687001D01*
X86852302Y-108710803D01*
X87410400Y-109268902D01*
X87434199Y-109297901D01*
X87463197Y-109321699D01*
X87549923Y-109392874D01*
X87673631Y-109458998D01*
X87681953Y-109463446D01*
X87825214Y-109506903D01*
X87936867Y-109517900D01*
X87936876Y-109517900D01*
X87974199Y-109521576D01*
X88011522Y-109517900D01*
X89475278Y-109517900D01*
X89512600Y-109521576D01*
X89549922Y-109517900D01*
X89549933Y-109517900D01*
X89661586Y-109506903D01*
X89804847Y-109463446D01*
X89936876Y-109392874D01*
X90052601Y-109297901D01*
X90076403Y-109268898D01*
X90282229Y-109063072D01*
X90358771Y-109063072D01*
X91788701Y-110493003D01*
X91812499Y-110522001D01*
X91841497Y-110545799D01*
X91928223Y-110616974D01*
X92060253Y-110687546D01*
X92203514Y-110731003D01*
X92315167Y-110742000D01*
X92315177Y-110742000D01*
X92352500Y-110745676D01*
X92389823Y-110742000D01*
X95495822Y-110742000D01*
X95620525Y-110928632D01*
X95827368Y-111135475D01*
X96001760Y-111252000D01*
X95827368Y-111368525D01*
X95620525Y-111575368D01*
X95458010Y-111818589D01*
X95346068Y-112088842D01*
X95289000Y-112375740D01*
X95289000Y-112668260D01*
X95346068Y-112955158D01*
X95458010Y-113225411D01*
X95620525Y-113468632D01*
X95827368Y-113675475D01*
X96001760Y-113792000D01*
X95827368Y-113908525D01*
X95620525Y-114115368D01*
X95458010Y-114358589D01*
X95346068Y-114628842D01*
X95289000Y-114915740D01*
X95289000Y-115208260D01*
X95346068Y-115495158D01*
X95458010Y-115765411D01*
X95620525Y-116008632D01*
X95827368Y-116215475D01*
X96001760Y-116332000D01*
X95827368Y-116448525D01*
X95620525Y-116655368D01*
X95458010Y-116898589D01*
X95346068Y-117168842D01*
X95289000Y-117455740D01*
X95289000Y-117748260D01*
X95346068Y-118035158D01*
X95458010Y-118305411D01*
X95620525Y-118548632D01*
X95827368Y-118755475D01*
X96001760Y-118872000D01*
X95827368Y-118988525D01*
X95620525Y-119195368D01*
X95458010Y-119438589D01*
X95346068Y-119708842D01*
X95289000Y-119995740D01*
X95289000Y-120288260D01*
X95346068Y-120575158D01*
X95458010Y-120845411D01*
X95620525Y-121088632D01*
X95827368Y-121295475D01*
X96070589Y-121457990D01*
X96340842Y-121569932D01*
X96627740Y-121627000D01*
X96920260Y-121627000D01*
X97207158Y-121569932D01*
X97477411Y-121457990D01*
X97720632Y-121295475D01*
X97927475Y-121088632D01*
X98089990Y-120845411D01*
X98201932Y-120575158D01*
X98259000Y-120288260D01*
X98259000Y-119995740D01*
X98201932Y-119708842D01*
X98089990Y-119438589D01*
X97927475Y-119195368D01*
X97720632Y-118988525D01*
X97546240Y-118872000D01*
X97720632Y-118755475D01*
X97927475Y-118548632D01*
X98089990Y-118305411D01*
X98201932Y-118035158D01*
X98259000Y-117748260D01*
X98259000Y-117455740D01*
X98201932Y-117168842D01*
X98089990Y-116898589D01*
X97927475Y-116655368D01*
X97720632Y-116448525D01*
X97546240Y-116332000D01*
X97720632Y-116215475D01*
X97927475Y-116008632D01*
X98089990Y-115765411D01*
X98201932Y-115495158D01*
X98259000Y-115208260D01*
X98259000Y-114915740D01*
X98201932Y-114628842D01*
X98089990Y-114358589D01*
X97927475Y-114115368D01*
X97720632Y-113908525D01*
X97546240Y-113792000D01*
X97720632Y-113675475D01*
X97927475Y-113468632D01*
X98089990Y-113225411D01*
X98201932Y-112955158D01*
X98259000Y-112668260D01*
X98259000Y-112375740D01*
X98201932Y-112088842D01*
X98089990Y-111818589D01*
X97927475Y-111575368D01*
X97720632Y-111368525D01*
X97546240Y-111252000D01*
X97720632Y-111135475D01*
X97927475Y-110928632D01*
X98089990Y-110685411D01*
X98201932Y-110415158D01*
X98259000Y-110128260D01*
X98259000Y-109835740D01*
X98201932Y-109548842D01*
X98089990Y-109278589D01*
X97927475Y-109035368D01*
X97720632Y-108828525D01*
X97546240Y-108712000D01*
X97720632Y-108595475D01*
X97874303Y-108441804D01*
X102915201Y-113482703D01*
X102938999Y-113511701D01*
X103054724Y-113606674D01*
X103186753Y-113677246D01*
X103330014Y-113720703D01*
X103441667Y-113731700D01*
X103441675Y-113731700D01*
X103479000Y-113735376D01*
X103516325Y-113731700D01*
X113817178Y-113731700D01*
X113854500Y-113735376D01*
X113891822Y-113731700D01*
X113891833Y-113731700D01*
X114003486Y-113720703D01*
X114146747Y-113677246D01*
X114278776Y-113606674D01*
X114394501Y-113511701D01*
X114418303Y-113482698D01*
X114863485Y-113037517D01*
X115940899Y-114114994D01*
X115940525Y-114115368D01*
X115778010Y-114358589D01*
X115666068Y-114628842D01*
X115609000Y-114915740D01*
X115609000Y-115208260D01*
X115666068Y-115495158D01*
X115778010Y-115765411D01*
X115940525Y-116008632D01*
X116147368Y-116215475D01*
X116321760Y-116332000D01*
X116147368Y-116448525D01*
X115940525Y-116655368D01*
X115778010Y-116898589D01*
X115666068Y-117168842D01*
X115609000Y-117455740D01*
X115609000Y-117748260D01*
X115666068Y-118035158D01*
X115778010Y-118305411D01*
X115940525Y-118548632D01*
X116147368Y-118755475D01*
X116321760Y-118872000D01*
X116147368Y-118988525D01*
X115940525Y-119195368D01*
X115778010Y-119438589D01*
X115666068Y-119708842D01*
X115609000Y-119995740D01*
X115609000Y-120288260D01*
X115666068Y-120575158D01*
X115778010Y-120845411D01*
X115940525Y-121088632D01*
X116147368Y-121295475D01*
X116390589Y-121457990D01*
X116660842Y-121569932D01*
X116947740Y-121627000D01*
X117240260Y-121627000D01*
X117527158Y-121569932D01*
X117797411Y-121457990D01*
X118040632Y-121295475D01*
X118247475Y-121088632D01*
X118409990Y-120845411D01*
X118521932Y-120575158D01*
X118579000Y-120288260D01*
X118579000Y-119995740D01*
X118521932Y-119708842D01*
X118409990Y-119438589D01*
X118271491Y-119231310D01*
X127973758Y-109529044D01*
X128011663Y-109585774D01*
X128155826Y-109729937D01*
X128325344Y-109843205D01*
X128513702Y-109921226D01*
X128713661Y-109961000D01*
X128917539Y-109961000D01*
X128992100Y-109946169D01*
X128992100Y-116459778D01*
X128988424Y-116497100D01*
X128992100Y-116534422D01*
X128992100Y-116534432D01*
X129003097Y-116646085D01*
X129046554Y-116789346D01*
X129117126Y-116921376D01*
X129154324Y-116966701D01*
X129212099Y-117037101D01*
X129241103Y-117060904D01*
X132096400Y-119916202D01*
X132096400Y-119978339D01*
X132136174Y-120178298D01*
X132214195Y-120366656D01*
X132327463Y-120536174D01*
X132471626Y-120680337D01*
X132641144Y-120793605D01*
X132829502Y-120871626D01*
X133029461Y-120911400D01*
X133233339Y-120911400D01*
X133433298Y-120871626D01*
X133621656Y-120793605D01*
X133791174Y-120680337D01*
X133935337Y-120536174D01*
X134048605Y-120366656D01*
X134126626Y-120178298D01*
X134166400Y-119978339D01*
X134166400Y-119774461D01*
X134126626Y-119574502D01*
X134048605Y-119386144D01*
X133935337Y-119216626D01*
X133791174Y-119072463D01*
X133621656Y-118959195D01*
X133433298Y-118881174D01*
X133233339Y-118841400D01*
X133171202Y-118841400D01*
X130512100Y-116182299D01*
X130512100Y-82368901D01*
X132416300Y-84273102D01*
X132416301Y-105703757D01*
X132412623Y-105741100D01*
X132427297Y-105890086D01*
X132470754Y-106033347D01*
X132541326Y-106165376D01*
X132636299Y-106281101D01*
X132665860Y-106305361D01*
X133236300Y-106875802D01*
X133236300Y-106937939D01*
X133276074Y-107137898D01*
X133354095Y-107326256D01*
X133467363Y-107495774D01*
X133611526Y-107639937D01*
X133781044Y-107753205D01*
X133969402Y-107831226D01*
X134169361Y-107871000D01*
X134373239Y-107871000D01*
X134573198Y-107831226D01*
X134761556Y-107753205D01*
X134931074Y-107639937D01*
X135075237Y-107495774D01*
X135188505Y-107326256D01*
X135266526Y-107137898D01*
X135306300Y-106937939D01*
X135306300Y-106734061D01*
X135266526Y-106534102D01*
X135188505Y-106345744D01*
X135075237Y-106176226D01*
X134931074Y-106032063D01*
X134761556Y-105918795D01*
X134573198Y-105840774D01*
X134373239Y-105801000D01*
X134311102Y-105801000D01*
X133936300Y-105426199D01*
X133936300Y-96846442D01*
X134059761Y-96871000D01*
X134263639Y-96871000D01*
X134463598Y-96831226D01*
X134651956Y-96753205D01*
X134821474Y-96639937D01*
X134965637Y-96495774D01*
X135078905Y-96326256D01*
X135156926Y-96137898D01*
X135196700Y-95937939D01*
X135196700Y-95734061D01*
X135156926Y-95534102D01*
X135078905Y-95345744D01*
X134965637Y-95176226D01*
X134921700Y-95132289D01*
X134921700Y-81173923D01*
X134925376Y-81136600D01*
X134921700Y-81099277D01*
X134921700Y-81099267D01*
X134910703Y-80987614D01*
X134867246Y-80844353D01*
X134796674Y-80712324D01*
X134701701Y-80596599D01*
X134672704Y-80572802D01*
X127455019Y-73355117D01*
X131765000Y-73355117D01*
X131765000Y-73696883D01*
X131831675Y-74032081D01*
X131962463Y-74347831D01*
X132152337Y-74631998D01*
X132394002Y-74873663D01*
X132678169Y-75063537D01*
X132993919Y-75194325D01*
X133329117Y-75261000D01*
X133670883Y-75261000D01*
X134006081Y-75194325D01*
X134321831Y-75063537D01*
X134605998Y-74873663D01*
X134847663Y-74631998D01*
X135037537Y-74347831D01*
X135168325Y-74032081D01*
X135235000Y-73696883D01*
X135235000Y-73355117D01*
X135168325Y-73019919D01*
X135037537Y-72704169D01*
X134847663Y-72420002D01*
X134605998Y-72178337D01*
X134321831Y-71988463D01*
X134006081Y-71857675D01*
X133670883Y-71791000D01*
X133329117Y-71791000D01*
X132993919Y-71857675D01*
X132678169Y-71988463D01*
X132394002Y-72178337D01*
X132152337Y-72420002D01*
X131962463Y-72704169D01*
X131831675Y-73019919D01*
X131765000Y-73355117D01*
X127455019Y-73355117D01*
X119184304Y-65084403D01*
X119180586Y-65079872D01*
X158565000Y-65079872D01*
X158565000Y-65520128D01*
X158650890Y-65951925D01*
X158819369Y-66358669D01*
X159063962Y-66724729D01*
X159375271Y-67036038D01*
X159741331Y-67280631D01*
X160148075Y-67449110D01*
X160579872Y-67535000D01*
X161020128Y-67535000D01*
X161451925Y-67449110D01*
X161858669Y-67280631D01*
X162224729Y-67036038D01*
X162536038Y-66724729D01*
X162780631Y-66358669D01*
X162949110Y-65951925D01*
X163035000Y-65520128D01*
X163035000Y-65079872D01*
X162949110Y-64648075D01*
X162780631Y-64241331D01*
X162536038Y-63875271D01*
X162224729Y-63563962D01*
X161858669Y-63319369D01*
X161451925Y-63150890D01*
X161020128Y-63065000D01*
X160579872Y-63065000D01*
X160148075Y-63150890D01*
X159741331Y-63319369D01*
X159375271Y-63563962D01*
X159063962Y-63875271D01*
X158819369Y-64241331D01*
X158650890Y-64648075D01*
X158565000Y-65079872D01*
X119180586Y-65079872D01*
X119160501Y-65055399D01*
X119044776Y-64960426D01*
X118912747Y-64889854D01*
X118769486Y-64846397D01*
X118657833Y-64835400D01*
X118657822Y-64835400D01*
X118620500Y-64831724D01*
X118583178Y-64835400D01*
X116132723Y-64835400D01*
X116095400Y-64831724D01*
X116058077Y-64835400D01*
X116058067Y-64835400D01*
X115946414Y-64846397D01*
X115803153Y-64889854D01*
X115671124Y-64960426D01*
X115555399Y-65055399D01*
X115531596Y-65084403D01*
X115359198Y-65256801D01*
X115330200Y-65280599D01*
X115306402Y-65309597D01*
X115306401Y-65309598D01*
X115235226Y-65396324D01*
X115164654Y-65528354D01*
X115144317Y-65595400D01*
X115121198Y-65671614D01*
X115110201Y-65783267D01*
X115106524Y-65820600D01*
X115110201Y-65857932D01*
X115110200Y-67713577D01*
X115106524Y-67750900D01*
X115110200Y-67788222D01*
X115110200Y-67788232D01*
X115121197Y-67899885D01*
X115159456Y-68026010D01*
X115164654Y-68043146D01*
X115235226Y-68175176D01*
X115275071Y-68223726D01*
X115330199Y-68290901D01*
X115359203Y-68314704D01*
X115722196Y-68677697D01*
X115745999Y-68706701D01*
X115748834Y-68709027D01*
X115666068Y-68908842D01*
X115609000Y-69195740D01*
X115609000Y-69488260D01*
X115666068Y-69775158D01*
X115778010Y-70045411D01*
X115940525Y-70288632D01*
X116147368Y-70495475D01*
X116321760Y-70612000D01*
X116147368Y-70728525D01*
X115940525Y-70935368D01*
X115778010Y-71178589D01*
X115666068Y-71448842D01*
X115609000Y-71735740D01*
X115609000Y-72028260D01*
X115666068Y-72315158D01*
X115778010Y-72585411D01*
X115940525Y-72828632D01*
X116147368Y-73035475D01*
X116321760Y-73152000D01*
X116147368Y-73268525D01*
X115993697Y-73422196D01*
X115307204Y-72735703D01*
X115283401Y-72706699D01*
X115167676Y-72611726D01*
X115035647Y-72541154D01*
X114892386Y-72497697D01*
X114780733Y-72486700D01*
X114780722Y-72486700D01*
X114743400Y-72483024D01*
X114706078Y-72486700D01*
X102168802Y-72486700D01*
X98513104Y-68831003D01*
X98489301Y-68801999D01*
X98373576Y-68707026D01*
X98241547Y-68636454D01*
X98098286Y-68592997D01*
X98056796Y-68588911D01*
X97927475Y-68395368D01*
X97795620Y-68263513D01*
X97868180Y-68241502D01*
X97978494Y-68182537D01*
X98075185Y-68103185D01*
X98154537Y-68006494D01*
X98213502Y-67896180D01*
X98249812Y-67776482D01*
X98262072Y-67652000D01*
X98262072Y-65952000D01*
X98249812Y-65827518D01*
X98213502Y-65707820D01*
X98154537Y-65597506D01*
X98075185Y-65500815D01*
X97978494Y-65421463D01*
X97868180Y-65362498D01*
X97748482Y-65326188D01*
X97624000Y-65313928D01*
X95924000Y-65313928D01*
X95799518Y-65326188D01*
X95679820Y-65362498D01*
X95569506Y-65421463D01*
X95472815Y-65500815D01*
X95393463Y-65597506D01*
X95334498Y-65707820D01*
X95298188Y-65827518D01*
X95285928Y-65952000D01*
X95285928Y-67652000D01*
X95298188Y-67776482D01*
X95334498Y-67896180D01*
X95393463Y-68006494D01*
X95472815Y-68103185D01*
X95569506Y-68182537D01*
X95679820Y-68241502D01*
X95752380Y-68263513D01*
X95620525Y-68395368D01*
X95495822Y-68582000D01*
X74938178Y-68582000D01*
X74813475Y-68395368D01*
X74681620Y-68263513D01*
X74754180Y-68241502D01*
X74864494Y-68182537D01*
X74961185Y-68103185D01*
X75040537Y-68006494D01*
X75099502Y-67896180D01*
X75135812Y-67776482D01*
X75148072Y-67652000D01*
X75148072Y-65952000D01*
X75135812Y-65827518D01*
X75099502Y-65707820D01*
X75040537Y-65597506D01*
X74961185Y-65500815D01*
X74864494Y-65421463D01*
X74754180Y-65362498D01*
X74634482Y-65326188D01*
X74510000Y-65313928D01*
X72810000Y-65313928D01*
X72685518Y-65326188D01*
X72565820Y-65362498D01*
X72455506Y-65421463D01*
X72358815Y-65500815D01*
X72279463Y-65597506D01*
X72220498Y-65707820D01*
X72184188Y-65827518D01*
X72171928Y-65952000D01*
X69927314Y-65952000D01*
X69967110Y-65855925D01*
X70053000Y-65424128D01*
X70053000Y-64983872D01*
X100127000Y-64983872D01*
X100127000Y-65424128D01*
X100212890Y-65855925D01*
X100381369Y-66262669D01*
X100625962Y-66628729D01*
X100937271Y-66940038D01*
X101303331Y-67184631D01*
X101710075Y-67353110D01*
X102141872Y-67439000D01*
X102582128Y-67439000D01*
X103013925Y-67353110D01*
X103420669Y-67184631D01*
X103786729Y-66940038D01*
X104098038Y-66628729D01*
X104342631Y-66262669D01*
X104511110Y-65855925D01*
X104597000Y-65424128D01*
X104597000Y-64983872D01*
X104511110Y-64552075D01*
X104342631Y-64145331D01*
X104098038Y-63779271D01*
X103786729Y-63467962D01*
X103420669Y-63223369D01*
X103013925Y-63054890D01*
X102582128Y-62969000D01*
X102141872Y-62969000D01*
X101710075Y-63054890D01*
X101303331Y-63223369D01*
X100937271Y-63467962D01*
X100625962Y-63779271D01*
X100381369Y-64145331D01*
X100212890Y-64552075D01*
X100127000Y-64983872D01*
X70053000Y-64983872D01*
X69967110Y-64552075D01*
X69798631Y-64145331D01*
X69554038Y-63779271D01*
X69242729Y-63467962D01*
X68876669Y-63223369D01*
X68469925Y-63054890D01*
X68038128Y-62969000D01*
X67597872Y-62969000D01*
X67166075Y-63054890D01*
X66759331Y-63223369D01*
X66393271Y-63467962D01*
X66081962Y-63779271D01*
X65837369Y-64145331D01*
X65668890Y-64552075D01*
X65583000Y-64983872D01*
X65160000Y-64983872D01*
X65160000Y-64532279D01*
X65198147Y-64143225D01*
X65301763Y-63800033D01*
X65470062Y-63483511D01*
X65696637Y-63205701D01*
X65972856Y-62977194D01*
X66288197Y-62806690D01*
X66630656Y-62700681D01*
X67017712Y-62660000D01*
X103217721Y-62660000D01*
X103606775Y-62698147D01*
G04 #@! TA.AperFunction,Conductor*
D16*
G36*
X103606775Y-62698147D02*
G01*
X103949967Y-62801763D01*
X104266489Y-62970062D01*
X104544299Y-63196637D01*
X104772806Y-63472856D01*
X104943310Y-63788197D01*
X105049319Y-64130656D01*
X105090000Y-64517713D01*
X105090001Y-70136419D01*
X105093235Y-70169255D01*
X105093235Y-70180623D01*
X105094198Y-70189788D01*
X105113234Y-70359494D01*
X105125667Y-70417983D01*
X105137290Y-70476686D01*
X105140016Y-70485489D01*
X105191652Y-70648265D01*
X105215204Y-70703215D01*
X105238011Y-70758550D01*
X105242394Y-70766656D01*
X105324663Y-70916303D01*
X105358458Y-70965658D01*
X105391562Y-71015485D01*
X105397436Y-71022585D01*
X105507205Y-71153403D01*
X105549935Y-71195247D01*
X105592094Y-71237702D01*
X105599236Y-71243526D01*
X105732322Y-71350531D01*
X105782392Y-71383296D01*
X105831970Y-71416737D01*
X105840102Y-71421060D01*
X105840106Y-71421063D01*
X105840110Y-71421065D01*
X105991444Y-71500180D01*
X106046869Y-71522573D01*
X106102053Y-71545771D01*
X106110875Y-71548434D01*
X106274697Y-71596649D01*
X106333437Y-71607854D01*
X106392050Y-71619886D01*
X106401221Y-71620784D01*
X106401226Y-71620785D01*
X106401232Y-71620785D01*
X106571289Y-71636263D01*
X106631109Y-71635845D01*
X106690929Y-71636263D01*
X106700101Y-71635363D01*
X106869935Y-71617512D01*
X106928505Y-71605489D01*
X106987288Y-71594276D01*
X106996110Y-71591612D01*
X107159243Y-71541114D01*
X107214361Y-71517944D01*
X107269850Y-71495526D01*
X107277986Y-71491199D01*
X107428204Y-71409977D01*
X107477813Y-71376516D01*
X107527854Y-71343770D01*
X107534995Y-71337946D01*
X107666575Y-71229092D01*
X107708694Y-71186677D01*
X107751463Y-71144796D01*
X107757336Y-71137696D01*
X107865268Y-71005359D01*
X107898350Y-70955566D01*
X107932168Y-70906177D01*
X107936551Y-70898070D01*
X108016723Y-70747289D01*
X108039517Y-70691985D01*
X108063084Y-70637001D01*
X108065809Y-70628198D01*
X108115167Y-70464715D01*
X108126781Y-70406059D01*
X108139223Y-70347524D01*
X108140186Y-70338359D01*
X108156850Y-70168404D01*
X108156850Y-70168402D01*
X108160000Y-70136419D01*
X108160000Y-65079872D01*
X108465000Y-65079872D01*
X108465000Y-65520128D01*
X108550890Y-65951925D01*
X108719369Y-66358669D01*
X108963962Y-66724729D01*
X109275271Y-67036038D01*
X109641331Y-67280631D01*
X110048075Y-67449110D01*
X110479872Y-67535000D01*
X110920128Y-67535000D01*
X111351925Y-67449110D01*
X111758669Y-67280631D01*
X112124729Y-67036038D01*
X112436038Y-66724729D01*
X112680631Y-66358669D01*
X112849110Y-65951925D01*
X112935000Y-65520128D01*
X112935000Y-65079872D01*
X112849110Y-64648075D01*
X112680631Y-64241331D01*
X112436038Y-63875271D01*
X112124729Y-63563962D01*
X111758669Y-63319369D01*
X111351925Y-63150890D01*
X110920128Y-63065000D01*
X110479872Y-63065000D01*
X110048075Y-63150890D01*
X109641331Y-63319369D01*
X109275271Y-63563962D01*
X108963962Y-63875271D01*
X108719369Y-64241331D01*
X108550890Y-64648075D01*
X108465000Y-65079872D01*
X108160000Y-65079872D01*
X108160000Y-64532279D01*
X108198147Y-64143225D01*
X108301763Y-63800033D01*
X108470062Y-63483511D01*
X108696637Y-63205701D01*
X108972856Y-62977194D01*
X109288197Y-62806690D01*
X109630656Y-62700681D01*
X110017712Y-62660000D01*
X161467721Y-62660000D01*
X161856775Y-62698147D01*
X162199967Y-62801763D01*
X162516489Y-62970062D01*
X162794299Y-63196637D01*
X163022806Y-63472856D01*
X163193310Y-63788197D01*
X163299319Y-64130656D01*
X163340000Y-64517712D01*
X163340001Y-142967711D01*
X163301853Y-143356776D01*
X163198238Y-143699964D01*
X163029939Y-144016489D01*
X162803365Y-144294296D01*
X162527146Y-144522805D01*
X162211803Y-144693310D01*
X161869344Y-144799319D01*
X161482288Y-144840000D01*
X110032279Y-144840000D01*
X109643224Y-144801853D01*
X109300036Y-144698238D01*
X108983511Y-144529939D01*
X108705704Y-144303365D01*
X108477195Y-144027146D01*
X108306690Y-143711803D01*
X108200681Y-143369344D01*
X108160000Y-142982288D01*
X108160000Y-141779872D01*
X108465000Y-141779872D01*
X108465000Y-142220128D01*
X108550890Y-142651925D01*
X108719369Y-143058669D01*
X108963962Y-143424729D01*
X109275271Y-143736038D01*
X109641331Y-143980631D01*
X110048075Y-144149110D01*
X110479872Y-144235000D01*
X110920128Y-144235000D01*
X111351925Y-144149110D01*
X111758669Y-143980631D01*
X112124729Y-143736038D01*
X112436038Y-143424729D01*
X112680631Y-143058669D01*
X112849110Y-142651925D01*
X112935000Y-142220128D01*
X112935000Y-141779872D01*
X158565000Y-141779872D01*
X158565000Y-142220128D01*
X158650890Y-142651925D01*
X158819369Y-143058669D01*
X159063962Y-143424729D01*
X159375271Y-143736038D01*
X159741331Y-143980631D01*
X160148075Y-144149110D01*
X160579872Y-144235000D01*
X161020128Y-144235000D01*
X161451925Y-144149110D01*
X161858669Y-143980631D01*
X162224729Y-143736038D01*
X162536038Y-143424729D01*
X162780631Y-143058669D01*
X162949110Y-142651925D01*
X163035000Y-142220128D01*
X163035000Y-141779872D01*
X162949110Y-141348075D01*
X162780631Y-140941331D01*
X162536038Y-140575271D01*
X162224729Y-140263962D01*
X161858669Y-140019369D01*
X161451925Y-139850890D01*
X161020128Y-139765000D01*
X160579872Y-139765000D01*
X160148075Y-139850890D01*
X159741331Y-140019369D01*
X159375271Y-140263962D01*
X159063962Y-140575271D01*
X158819369Y-140941331D01*
X158650890Y-141348075D01*
X158565000Y-141779872D01*
X112935000Y-141779872D01*
X112849110Y-141348075D01*
X112680631Y-140941331D01*
X112436038Y-140575271D01*
X112124729Y-140263962D01*
X111758669Y-140019369D01*
X111351925Y-139850890D01*
X110920128Y-139765000D01*
X110479872Y-139765000D01*
X110048075Y-139850890D01*
X109641331Y-140019369D01*
X109275271Y-140263962D01*
X108963962Y-140575271D01*
X108719369Y-140941331D01*
X108550890Y-141348075D01*
X108465000Y-141779872D01*
X108160000Y-141779872D01*
X108160000Y-135555117D01*
X143365000Y-135555117D01*
X143365000Y-135896883D01*
X143431675Y-136232081D01*
X143562463Y-136547831D01*
X143752337Y-136831998D01*
X143994002Y-137073663D01*
X144278169Y-137263537D01*
X144593919Y-137394325D01*
X144929117Y-137461000D01*
X145270883Y-137461000D01*
X145606081Y-137394325D01*
X145921831Y-137263537D01*
X146205998Y-137073663D01*
X146447663Y-136831998D01*
X146637537Y-136547831D01*
X146768325Y-136232081D01*
X146835000Y-135896883D01*
X146835000Y-135555117D01*
X146768325Y-135219919D01*
X146637537Y-134904169D01*
X146447663Y-134620002D01*
X146205998Y-134378337D01*
X145921831Y-134188463D01*
X145606081Y-134057675D01*
X145270883Y-133991000D01*
X144929117Y-133991000D01*
X144593919Y-134057675D01*
X144278169Y-134188463D01*
X143994002Y-134378337D01*
X143752337Y-134620002D01*
X143562463Y-134904169D01*
X143431675Y-135219919D01*
X143365000Y-135555117D01*
X108160000Y-135555117D01*
X108160000Y-118585581D01*
X108156765Y-118552735D01*
X108156765Y-118541376D01*
X108155802Y-118532212D01*
X108136766Y-118362506D01*
X108124332Y-118304009D01*
X108112710Y-118245315D01*
X108109984Y-118236512D01*
X108058348Y-118073735D01*
X108034796Y-118018785D01*
X108011989Y-117963450D01*
X108007606Y-117955344D01*
X107925337Y-117805697D01*
X107891549Y-117756350D01*
X107858439Y-117706516D01*
X107852564Y-117699415D01*
X107742795Y-117568597D01*
X107700065Y-117526753D01*
X107657905Y-117484297D01*
X107650764Y-117478473D01*
X107517677Y-117371469D01*
X107467625Y-117338716D01*
X107418030Y-117305263D01*
X107409898Y-117300940D01*
X107409894Y-117300937D01*
X107409890Y-117300935D01*
X107258556Y-117221820D01*
X107203098Y-117199414D01*
X107147947Y-117176230D01*
X107139125Y-117173566D01*
X106975303Y-117125351D01*
X106916563Y-117114146D01*
X106857950Y-117102114D01*
X106848779Y-117101216D01*
X106848774Y-117101215D01*
X106848768Y-117101215D01*
X106678711Y-117085738D01*
X106618929Y-117086155D01*
X106559071Y-117085737D01*
X106549900Y-117086637D01*
X106380065Y-117104488D01*
X106321501Y-117116510D01*
X106262712Y-117127724D01*
X106253890Y-117130388D01*
X106090757Y-117180886D01*
X106035577Y-117204081D01*
X105980150Y-117226475D01*
X105972014Y-117230801D01*
X105821796Y-117312023D01*
X105772234Y-117345454D01*
X105722146Y-117378230D01*
X105715005Y-117384054D01*
X105583425Y-117492907D01*
X105541286Y-117535341D01*
X105498537Y-117577204D01*
X105492664Y-117584304D01*
X105384732Y-117716641D01*
X105351638Y-117766452D01*
X105317832Y-117815824D01*
X105313449Y-117823930D01*
X105233277Y-117974711D01*
X105210488Y-118030003D01*
X105186916Y-118084999D01*
X105184191Y-118093802D01*
X105134833Y-118257284D01*
X105123216Y-118315955D01*
X105110777Y-118374476D01*
X105109814Y-118383641D01*
X105093150Y-118553596D01*
X105090000Y-118585582D01*
X105090001Y-126717711D01*
X105051853Y-127106776D01*
X104948238Y-127449964D01*
X104779939Y-127766489D01*
X104553365Y-128044296D01*
X104277146Y-128272805D01*
X103961803Y-128443310D01*
X103619344Y-128549319D01*
X103232288Y-128590000D01*
X67032279Y-128590000D01*
X66643224Y-128551853D01*
X66300036Y-128448238D01*
X65983511Y-128279939D01*
X65705704Y-128053365D01*
X65477195Y-127777146D01*
X65306690Y-127461803D01*
X65200681Y-127119344D01*
X65160000Y-126732288D01*
X65160000Y-125879872D01*
X65583000Y-125879872D01*
X65583000Y-126320128D01*
X65668890Y-126751925D01*
X65837369Y-127158669D01*
X66081962Y-127524729D01*
X66393271Y-127836038D01*
X66759331Y-128080631D01*
X67166075Y-128249110D01*
X67597872Y-128335000D01*
X68038128Y-128335000D01*
X68469925Y-128249110D01*
X68876669Y-128080631D01*
X69242729Y-127836038D01*
X69554038Y-127524729D01*
X69798631Y-127158669D01*
X69967110Y-126751925D01*
X70053000Y-126320128D01*
X70053000Y-125879872D01*
X70029927Y-125763872D01*
X99873000Y-125763872D01*
X99873000Y-126204128D01*
X99958890Y-126635925D01*
X100127369Y-127042669D01*
X100371962Y-127408729D01*
X100683271Y-127720038D01*
X101049331Y-127964631D01*
X101456075Y-128133110D01*
X101887872Y-128219000D01*
X102328128Y-128219000D01*
X102759925Y-128133110D01*
X103166669Y-127964631D01*
X103532729Y-127720038D01*
X103844038Y-127408729D01*
X104088631Y-127042669D01*
X104257110Y-126635925D01*
X104343000Y-126204128D01*
X104343000Y-125763872D01*
X104257110Y-125332075D01*
X104088631Y-124925331D01*
X103844038Y-124559271D01*
X103532729Y-124247962D01*
X103166669Y-124003369D01*
X102759925Y-123834890D01*
X102328128Y-123749000D01*
X101887872Y-123749000D01*
X101456075Y-123834890D01*
X101049331Y-124003369D01*
X100683271Y-124247962D01*
X100371962Y-124559271D01*
X100127369Y-124925331D01*
X99958890Y-125332075D01*
X99873000Y-125763872D01*
X70029927Y-125763872D01*
X69967110Y-125448075D01*
X69798631Y-125041331D01*
X69554038Y-124675271D01*
X69242729Y-124363962D01*
X68876669Y-124119369D01*
X68469925Y-123950890D01*
X68038128Y-123865000D01*
X67597872Y-123865000D01*
X67166075Y-123950890D01*
X66759331Y-124119369D01*
X66393271Y-124363962D01*
X66081962Y-124675271D01*
X65837369Y-125041331D01*
X65668890Y-125448075D01*
X65583000Y-125879872D01*
X65160000Y-125879872D01*
X65160000Y-64983872D01*
X65583000Y-64983872D01*
X65583000Y-65424128D01*
X65668890Y-65855925D01*
X65837369Y-66262669D01*
X66081962Y-66628729D01*
X66393271Y-66940038D01*
X66759331Y-67184631D01*
X67166075Y-67353110D01*
X67597872Y-67439000D01*
X68038128Y-67439000D01*
X68469925Y-67353110D01*
X68876669Y-67184631D01*
X69242729Y-66940038D01*
X69554038Y-66628729D01*
X69798631Y-66262669D01*
X69927314Y-65952000D01*
X72171928Y-65952000D01*
X72171928Y-67652000D01*
X72184188Y-67776482D01*
X72220498Y-67896180D01*
X72279463Y-68006494D01*
X72358815Y-68103185D01*
X72455506Y-68182537D01*
X72565820Y-68241502D01*
X72638380Y-68263513D01*
X72506525Y-68395368D01*
X72344010Y-68638589D01*
X72232068Y-68908842D01*
X72175000Y-69195740D01*
X72175000Y-69488260D01*
X72232068Y-69775158D01*
X72344010Y-70045411D01*
X72506525Y-70288632D01*
X72713368Y-70495475D01*
X72887760Y-70612000D01*
X72713368Y-70728525D01*
X72506525Y-70935368D01*
X72344010Y-71178589D01*
X72232068Y-71448842D01*
X72175000Y-71735740D01*
X72175000Y-72028260D01*
X72232068Y-72315158D01*
X72344010Y-72585411D01*
X72506525Y-72828632D01*
X72713368Y-73035475D01*
X72887760Y-73152000D01*
X72713368Y-73268525D01*
X72506525Y-73475368D01*
X72344010Y-73718589D01*
X72232068Y-73988842D01*
X72175000Y-74275740D01*
X72175000Y-74568260D01*
X72232068Y-74855158D01*
X72344010Y-75125411D01*
X72506525Y-75368632D01*
X72713368Y-75575475D01*
X72895534Y-75697195D01*
X72778645Y-75766822D01*
X72562412Y-75961731D01*
X72388359Y-76195080D01*
X72263175Y-76457901D01*
X72218524Y-76605110D01*
X72339845Y-76835000D01*
X73533000Y-76835000D01*
X73533000Y-76815000D01*
X73787000Y-76815000D01*
X73787000Y-76835000D01*
X74980155Y-76835000D01*
X75101476Y-76605110D01*
X75056825Y-76457901D01*
X74931641Y-76195080D01*
X74757588Y-75961731D01*
X74541355Y-75766822D01*
X74424466Y-75697195D01*
X74606632Y-75575475D01*
X74813475Y-75368632D01*
X74942796Y-75175089D01*
X74984286Y-75171003D01*
X75127547Y-75127546D01*
X75259576Y-75056974D01*
X75375301Y-74962001D01*
X75399104Y-74932997D01*
X75480501Y-74851600D01*
X78896928Y-74851600D01*
X78896928Y-74968270D01*
X75002532Y-78862667D01*
X74975990Y-78798589D01*
X74813475Y-78555368D01*
X74606632Y-78348525D01*
X74424466Y-78226805D01*
X74541355Y-78157178D01*
X74757588Y-77962269D01*
X74931641Y-77728920D01*
X75056825Y-77466099D01*
X75101476Y-77318890D01*
X74980155Y-77089000D01*
X73787000Y-77089000D01*
X73787000Y-77109000D01*
X73533000Y-77109000D01*
X73533000Y-77089000D01*
X72339845Y-77089000D01*
X72218524Y-77318890D01*
X72263175Y-77466099D01*
X72388359Y-77728920D01*
X72562412Y-77962269D01*
X72778645Y-78157178D01*
X72895534Y-78226805D01*
X72713368Y-78348525D01*
X72506525Y-78555368D01*
X72344010Y-78798589D01*
X72232068Y-79068842D01*
X72175000Y-79355740D01*
X72175000Y-79648260D01*
X72232068Y-79935158D01*
X72344010Y-80205411D01*
X72506525Y-80448632D01*
X72713368Y-80655475D01*
X72887760Y-80772000D01*
X72713368Y-80888525D01*
X72506525Y-81095368D01*
X72344010Y-81338589D01*
X72232068Y-81608842D01*
X72175000Y-81895740D01*
X72175000Y-82188260D01*
X72232068Y-82475158D01*
X72344010Y-82745411D01*
X72506525Y-82988632D01*
X72713368Y-83195475D01*
X72887760Y-83312000D01*
X72713368Y-83428525D01*
X72506525Y-83635368D01*
X72344010Y-83878589D01*
X72232068Y-84148842D01*
X72175000Y-84435740D01*
X72175000Y-84728260D01*
X72232068Y-85015158D01*
X72344010Y-85285411D01*
X72506525Y-85528632D01*
X72713368Y-85735475D01*
X72887760Y-85852000D01*
X72713368Y-85968525D01*
X72506525Y-86175368D01*
X72344010Y-86418589D01*
X72232068Y-86688842D01*
X72175000Y-86975740D01*
X72175000Y-87268260D01*
X72232068Y-87555158D01*
X72344010Y-87825411D01*
X72506525Y-88068632D01*
X72713368Y-88275475D01*
X72887760Y-88392000D01*
X72713368Y-88508525D01*
X72506525Y-88715368D01*
X72344010Y-88958589D01*
X72232068Y-89228842D01*
X72175000Y-89515740D01*
X72175000Y-89808260D01*
X72232068Y-90095158D01*
X72344010Y-90365411D01*
X72506525Y-90608632D01*
X72713368Y-90815475D01*
X72887760Y-90932000D01*
X72713368Y-91048525D01*
X72506525Y-91255368D01*
X72344010Y-91498589D01*
X72232068Y-91768842D01*
X72175000Y-92055740D01*
X72175000Y-92348260D01*
X72232068Y-92635158D01*
X72344010Y-92905411D01*
X72506525Y-93148632D01*
X72713368Y-93355475D01*
X72887760Y-93472000D01*
X72713368Y-93588525D01*
X72506525Y-93795368D01*
X72344010Y-94038589D01*
X72232068Y-94308842D01*
X72175000Y-94595740D01*
X72175000Y-94888260D01*
X72232068Y-95175158D01*
X72344010Y-95445411D01*
X72506525Y-95688632D01*
X72713368Y-95895475D01*
X72887760Y-96012000D01*
X72713368Y-96128525D01*
X72506525Y-96335368D01*
X72344010Y-96578589D01*
X72232068Y-96848842D01*
X72175000Y-97135740D01*
X72175000Y-97428260D01*
X72232068Y-97715158D01*
X72344010Y-97985411D01*
X72506525Y-98228632D01*
X72713368Y-98435475D01*
X72887760Y-98552000D01*
X72713368Y-98668525D01*
X72506525Y-98875368D01*
X72344010Y-99118589D01*
X72232068Y-99388842D01*
X72175000Y-99675740D01*
X72175000Y-99968260D01*
X72232068Y-100255158D01*
X72344010Y-100525411D01*
X72506525Y-100768632D01*
X72713368Y-100975475D01*
X72887760Y-101092000D01*
X72713368Y-101208525D01*
X72506525Y-101415368D01*
X72344010Y-101658589D01*
X72232068Y-101928842D01*
X72175000Y-102215740D01*
X72175000Y-102508260D01*
X72232068Y-102795158D01*
X72344010Y-103065411D01*
X72506525Y-103308632D01*
X72713368Y-103515475D01*
X72887760Y-103632000D01*
X72713368Y-103748525D01*
X72506525Y-103955368D01*
X72344010Y-104198589D01*
X72232068Y-104468842D01*
X72175000Y-104755740D01*
X72175000Y-105048260D01*
X72232068Y-105335158D01*
X72344010Y-105605411D01*
X72506525Y-105848632D01*
X72713368Y-106055475D01*
X72887760Y-106172000D01*
X72713368Y-106288525D01*
X72506525Y-106495368D01*
X72344010Y-106738589D01*
X72232068Y-107008842D01*
X72175000Y-107295740D01*
X72175000Y-107588260D01*
X72232068Y-107875158D01*
X72344010Y-108145411D01*
X72506525Y-108388632D01*
X72713368Y-108595475D01*
X72887760Y-108712000D01*
X72713368Y-108828525D01*
X72506525Y-109035368D01*
X72344010Y-109278589D01*
X72232068Y-109548842D01*
X72175000Y-109835740D01*
X72175000Y-110128260D01*
X72232068Y-110415158D01*
X72344010Y-110685411D01*
X72506525Y-110928632D01*
X72713368Y-111135475D01*
X72887760Y-111252000D01*
X72713368Y-111368525D01*
X72506525Y-111575368D01*
X72344010Y-111818589D01*
X72232068Y-112088842D01*
X72175000Y-112375740D01*
X72175000Y-112668260D01*
X72232068Y-112955158D01*
X72344010Y-113225411D01*
X72506525Y-113468632D01*
X72713368Y-113675475D01*
X72887760Y-113792000D01*
X72713368Y-113908525D01*
X72506525Y-114115368D01*
X72344010Y-114358589D01*
X72232068Y-114628842D01*
X72175000Y-114915740D01*
X72175000Y-115208260D01*
X72232068Y-115495158D01*
X72344010Y-115765411D01*
X72506525Y-116008632D01*
X72713368Y-116215475D01*
X72887760Y-116332000D01*
X72713368Y-116448525D01*
X72506525Y-116655368D01*
X72344010Y-116898589D01*
X72232068Y-117168842D01*
X72175000Y-117455740D01*
X72175000Y-117748260D01*
X72232068Y-118035158D01*
X72344010Y-118305411D01*
X72506525Y-118548632D01*
X72713368Y-118755475D01*
X72887760Y-118872000D01*
X72713368Y-118988525D01*
X72506525Y-119195368D01*
X72344010Y-119438589D01*
X72232068Y-119708842D01*
X72175000Y-119995740D01*
X72175000Y-120288260D01*
X72232068Y-120575158D01*
X72344010Y-120845411D01*
X72506525Y-121088632D01*
X72713368Y-121295475D01*
X72956589Y-121457990D01*
X73226842Y-121569932D01*
X73513740Y-121627000D01*
X73806260Y-121627000D01*
X74093158Y-121569932D01*
X74363411Y-121457990D01*
X74606632Y-121295475D01*
X74813475Y-121088632D01*
X74975990Y-120845411D01*
X75087932Y-120575158D01*
X75145000Y-120288260D01*
X75145000Y-119995740D01*
X75087932Y-119708842D01*
X74975990Y-119438589D01*
X74813475Y-119195368D01*
X74606632Y-118988525D01*
X74432240Y-118872000D01*
X74606632Y-118755475D01*
X74813475Y-118548632D01*
X74975990Y-118305411D01*
X75087932Y-118035158D01*
X75145000Y-117748260D01*
X75145000Y-117455740D01*
X75087932Y-117168842D01*
X74975990Y-116898589D01*
X74813475Y-116655368D01*
X74606632Y-116448525D01*
X74432240Y-116332000D01*
X74606632Y-116215475D01*
X74813475Y-116008632D01*
X74975990Y-115765411D01*
X75087932Y-115495158D01*
X75145000Y-115208260D01*
X75145000Y-114915740D01*
X75087932Y-114628842D01*
X74975990Y-114358589D01*
X74813475Y-114115368D01*
X74606632Y-113908525D01*
X74432240Y-113792000D01*
X74606632Y-113675475D01*
X74813475Y-113468632D01*
X74975990Y-113225411D01*
X75087932Y-112955158D01*
X75145000Y-112668260D01*
X75145000Y-112375740D01*
X75087932Y-112088842D01*
X74975990Y-111818589D01*
X74813475Y-111575368D01*
X74606632Y-111368525D01*
X74432240Y-111252000D01*
X74606632Y-111135475D01*
X74813475Y-110928632D01*
X74942796Y-110735089D01*
X74984286Y-110731003D01*
X75127547Y-110687546D01*
X75259576Y-110616974D01*
X75375301Y-110522001D01*
X75399104Y-110492997D01*
X79083134Y-106808968D01*
X79044488Y-106856058D01*
X78963577Y-107007433D01*
X78913752Y-107171684D01*
X78896928Y-107342500D01*
X78896928Y-107842500D01*
X78913752Y-108013316D01*
X78963577Y-108177567D01*
X79044488Y-108328942D01*
X79153377Y-108461623D01*
X79286058Y-108570512D01*
X79437433Y-108651423D01*
X79601684Y-108701248D01*
X79772500Y-108718072D01*
X80247500Y-108718072D01*
X80418316Y-108701248D01*
X80582567Y-108651423D01*
X80733942Y-108570512D01*
X80866623Y-108461623D01*
X80956178Y-108352500D01*
X81056344Y-108352500D01*
X81143714Y-108379003D01*
X81144577Y-108379088D01*
X81166815Y-108406185D01*
X81263506Y-108485537D01*
X81373820Y-108544502D01*
X81493518Y-108580812D01*
X81618000Y-108593072D01*
X83618000Y-108593072D01*
X83742482Y-108580812D01*
X83862180Y-108544502D01*
X83972494Y-108485537D01*
X84069185Y-108406185D01*
X84091423Y-108379088D01*
X84092286Y-108379003D01*
X84235547Y-108335546D01*
X84367576Y-108264974D01*
X84483301Y-108170001D01*
X84578274Y-108054276D01*
X84648846Y-107922247D01*
X84692303Y-107778986D01*
X84706977Y-107630000D01*
X84703300Y-107592667D01*
X84703300Y-107546117D01*
X84793820Y-107594502D01*
X84913518Y-107630812D01*
X85038000Y-107643072D01*
X86603300Y-107643072D01*
X86603300Y-108109677D01*
X86599624Y-108147000D01*
X86603300Y-108184322D01*
X86603300Y-108184332D01*
X86614297Y-108295985D01*
X86642401Y-108388632D01*
X86657754Y-108439246D01*
X86728326Y-108571276D01*
X86739568Y-108584974D01*
X86823299Y-108687001D01*
X86852302Y-108710803D01*
X87410400Y-109268902D01*
X87434199Y-109297901D01*
X87463197Y-109321699D01*
X87549923Y-109392874D01*
X87673631Y-109458998D01*
X87681953Y-109463446D01*
X87825214Y-109506903D01*
X87936867Y-109517900D01*
X87936876Y-109517900D01*
X87974199Y-109521576D01*
X88011522Y-109517900D01*
X89475278Y-109517900D01*
X89512600Y-109521576D01*
X89549922Y-109517900D01*
X89549933Y-109517900D01*
X89661586Y-109506903D01*
X89804847Y-109463446D01*
X89936876Y-109392874D01*
X90052601Y-109297901D01*
X90076403Y-109268898D01*
X90282229Y-109063072D01*
X90358771Y-109063072D01*
X91788701Y-110493003D01*
X91812499Y-110522001D01*
X91841497Y-110545799D01*
X91928223Y-110616974D01*
X92060253Y-110687546D01*
X92203514Y-110731003D01*
X92315167Y-110742000D01*
X92315177Y-110742000D01*
X92352500Y-110745676D01*
X92389823Y-110742000D01*
X95495822Y-110742000D01*
X95620525Y-110928632D01*
X95827368Y-111135475D01*
X96001760Y-111252000D01*
X95827368Y-111368525D01*
X95620525Y-111575368D01*
X95458010Y-111818589D01*
X95346068Y-112088842D01*
X95289000Y-112375740D01*
X95289000Y-112668260D01*
X95346068Y-112955158D01*
X95458010Y-113225411D01*
X95620525Y-113468632D01*
X95827368Y-113675475D01*
X96001760Y-113792000D01*
X95827368Y-113908525D01*
X95620525Y-114115368D01*
X95458010Y-114358589D01*
X95346068Y-114628842D01*
X95289000Y-114915740D01*
X95289000Y-115208260D01*
X95346068Y-115495158D01*
X95458010Y-115765411D01*
X95620525Y-116008632D01*
X95827368Y-116215475D01*
X96001760Y-116332000D01*
X95827368Y-116448525D01*
X95620525Y-116655368D01*
X95458010Y-116898589D01*
X95346068Y-117168842D01*
X95289000Y-117455740D01*
X95289000Y-117748260D01*
X95346068Y-118035158D01*
X95458010Y-118305411D01*
X95620525Y-118548632D01*
X95827368Y-118755475D01*
X96001760Y-118872000D01*
X95827368Y-118988525D01*
X95620525Y-119195368D01*
X95458010Y-119438589D01*
X95346068Y-119708842D01*
X95289000Y-119995740D01*
X95289000Y-120288260D01*
X95346068Y-120575158D01*
X95458010Y-120845411D01*
X95620525Y-121088632D01*
X95827368Y-121295475D01*
X96070589Y-121457990D01*
X96340842Y-121569932D01*
X96627740Y-121627000D01*
X96920260Y-121627000D01*
X97207158Y-121569932D01*
X97477411Y-121457990D01*
X97720632Y-121295475D01*
X97927475Y-121088632D01*
X98089990Y-120845411D01*
X98201932Y-120575158D01*
X98259000Y-120288260D01*
X98259000Y-119995740D01*
X98201932Y-119708842D01*
X98089990Y-119438589D01*
X97927475Y-119195368D01*
X97720632Y-118988525D01*
X97546240Y-118872000D01*
X97720632Y-118755475D01*
X97927475Y-118548632D01*
X98089990Y-118305411D01*
X98201932Y-118035158D01*
X98259000Y-117748260D01*
X98259000Y-117455740D01*
X98201932Y-117168842D01*
X98089990Y-116898589D01*
X97927475Y-116655368D01*
X97720632Y-116448525D01*
X97546240Y-116332000D01*
X97720632Y-116215475D01*
X97927475Y-116008632D01*
X98089990Y-115765411D01*
X98201932Y-115495158D01*
X98259000Y-115208260D01*
X98259000Y-114915740D01*
X98201932Y-114628842D01*
X98089990Y-114358589D01*
X97927475Y-114115368D01*
X97720632Y-113908525D01*
X97546240Y-113792000D01*
X97720632Y-113675475D01*
X97927475Y-113468632D01*
X98089990Y-113225411D01*
X98201932Y-112955158D01*
X98259000Y-112668260D01*
X98259000Y-112375740D01*
X98201932Y-112088842D01*
X98089990Y-111818589D01*
X97927475Y-111575368D01*
X97720632Y-111368525D01*
X97546240Y-111252000D01*
X97720632Y-111135475D01*
X97927475Y-110928632D01*
X98089990Y-110685411D01*
X98201932Y-110415158D01*
X98259000Y-110128260D01*
X98259000Y-109835740D01*
X98201932Y-109548842D01*
X98089990Y-109278589D01*
X97927475Y-109035368D01*
X97720632Y-108828525D01*
X97546240Y-108712000D01*
X97720632Y-108595475D01*
X97874303Y-108441804D01*
X102915201Y-113482703D01*
X102938999Y-113511701D01*
X103054724Y-113606674D01*
X103186753Y-113677246D01*
X103330014Y-113720703D01*
X103441667Y-113731700D01*
X103441675Y-113731700D01*
X103479000Y-113735376D01*
X103516325Y-113731700D01*
X113817178Y-113731700D01*
X113854500Y-113735376D01*
X113891822Y-113731700D01*
X113891833Y-113731700D01*
X114003486Y-113720703D01*
X114146747Y-113677246D01*
X114278776Y-113606674D01*
X114394501Y-113511701D01*
X114418303Y-113482698D01*
X114863485Y-113037517D01*
X115940899Y-114114994D01*
X115940525Y-114115368D01*
X115778010Y-114358589D01*
X115666068Y-114628842D01*
X115609000Y-114915740D01*
X115609000Y-115208260D01*
X115666068Y-115495158D01*
X115778010Y-115765411D01*
X115940525Y-116008632D01*
X116147368Y-116215475D01*
X116321760Y-116332000D01*
X116147368Y-116448525D01*
X115940525Y-116655368D01*
X115778010Y-116898589D01*
X115666068Y-117168842D01*
X115609000Y-117455740D01*
X115609000Y-117748260D01*
X115666068Y-118035158D01*
X115778010Y-118305411D01*
X115940525Y-118548632D01*
X116147368Y-118755475D01*
X116321760Y-118872000D01*
X116147368Y-118988525D01*
X115940525Y-119195368D01*
X115778010Y-119438589D01*
X115666068Y-119708842D01*
X115609000Y-119995740D01*
X115609000Y-120288260D01*
X115666068Y-120575158D01*
X115778010Y-120845411D01*
X115940525Y-121088632D01*
X116147368Y-121295475D01*
X116390589Y-121457990D01*
X116660842Y-121569932D01*
X116947740Y-121627000D01*
X117240260Y-121627000D01*
X117527158Y-121569932D01*
X117797411Y-121457990D01*
X118040632Y-121295475D01*
X118247475Y-121088632D01*
X118409990Y-120845411D01*
X118521932Y-120575158D01*
X118579000Y-120288260D01*
X118579000Y-119995740D01*
X118521932Y-119708842D01*
X118409990Y-119438589D01*
X118271491Y-119231310D01*
X127973758Y-109529044D01*
X128011663Y-109585774D01*
X128155826Y-109729937D01*
X128325344Y-109843205D01*
X128513702Y-109921226D01*
X128713661Y-109961000D01*
X128917539Y-109961000D01*
X128992100Y-109946169D01*
X128992100Y-116459778D01*
X128988424Y-116497100D01*
X128992100Y-116534422D01*
X128992100Y-116534432D01*
X129003097Y-116646085D01*
X129046554Y-116789346D01*
X129117126Y-116921376D01*
X129154324Y-116966701D01*
X129212099Y-117037101D01*
X129241103Y-117060904D01*
X132096400Y-119916202D01*
X132096400Y-119978339D01*
X132136174Y-120178298D01*
X132214195Y-120366656D01*
X132327463Y-120536174D01*
X132471626Y-120680337D01*
X132641144Y-120793605D01*
X132829502Y-120871626D01*
X133029461Y-120911400D01*
X133233339Y-120911400D01*
X133433298Y-120871626D01*
X133621656Y-120793605D01*
X133791174Y-120680337D01*
X133935337Y-120536174D01*
X134048605Y-120366656D01*
X134126626Y-120178298D01*
X134166400Y-119978339D01*
X134166400Y-119774461D01*
X134126626Y-119574502D01*
X134048605Y-119386144D01*
X133935337Y-119216626D01*
X133791174Y-119072463D01*
X133621656Y-118959195D01*
X133433298Y-118881174D01*
X133233339Y-118841400D01*
X133171202Y-118841400D01*
X130512100Y-116182299D01*
X130512100Y-82368901D01*
X132416300Y-84273102D01*
X132416301Y-105703757D01*
X132412623Y-105741100D01*
X132427297Y-105890086D01*
X132470754Y-106033347D01*
X132541326Y-106165376D01*
X132636299Y-106281101D01*
X132665860Y-106305361D01*
X133236300Y-106875802D01*
X133236300Y-106937939D01*
X133276074Y-107137898D01*
X133354095Y-107326256D01*
X133467363Y-107495774D01*
X133611526Y-107639937D01*
X133781044Y-107753205D01*
X133969402Y-107831226D01*
X134169361Y-107871000D01*
X134373239Y-107871000D01*
X134573198Y-107831226D01*
X134761556Y-107753205D01*
X134931074Y-107639937D01*
X135075237Y-107495774D01*
X135188505Y-107326256D01*
X135266526Y-107137898D01*
X135306300Y-106937939D01*
X135306300Y-106734061D01*
X135266526Y-106534102D01*
X135188505Y-106345744D01*
X135075237Y-106176226D01*
X134931074Y-106032063D01*
X134761556Y-105918795D01*
X134573198Y-105840774D01*
X134373239Y-105801000D01*
X134311102Y-105801000D01*
X133936300Y-105426199D01*
X133936300Y-96846442D01*
X134059761Y-96871000D01*
X134263639Y-96871000D01*
X134463598Y-96831226D01*
X134651956Y-96753205D01*
X134821474Y-96639937D01*
X134965637Y-96495774D01*
X135078905Y-96326256D01*
X135156926Y-96137898D01*
X135196700Y-95937939D01*
X135196700Y-95734061D01*
X135156926Y-95534102D01*
X135078905Y-95345744D01*
X134965637Y-95176226D01*
X134921700Y-95132289D01*
X134921700Y-81173923D01*
X134925376Y-81136600D01*
X134921700Y-81099277D01*
X134921700Y-81099267D01*
X134910703Y-80987614D01*
X134867246Y-80844353D01*
X134796674Y-80712324D01*
X134701701Y-80596599D01*
X134672704Y-80572802D01*
X127455019Y-73355117D01*
X131765000Y-73355117D01*
X131765000Y-73696883D01*
X131831675Y-74032081D01*
X131962463Y-74347831D01*
X132152337Y-74631998D01*
X132394002Y-74873663D01*
X132678169Y-75063537D01*
X132993919Y-75194325D01*
X133329117Y-75261000D01*
X133670883Y-75261000D01*
X134006081Y-75194325D01*
X134321831Y-75063537D01*
X134605998Y-74873663D01*
X134847663Y-74631998D01*
X135037537Y-74347831D01*
X135168325Y-74032081D01*
X135235000Y-73696883D01*
X135235000Y-73355117D01*
X135168325Y-73019919D01*
X135037537Y-72704169D01*
X134847663Y-72420002D01*
X134605998Y-72178337D01*
X134321831Y-71988463D01*
X134006081Y-71857675D01*
X133670883Y-71791000D01*
X133329117Y-71791000D01*
X132993919Y-71857675D01*
X132678169Y-71988463D01*
X132394002Y-72178337D01*
X132152337Y-72420002D01*
X131962463Y-72704169D01*
X131831675Y-73019919D01*
X131765000Y-73355117D01*
X127455019Y-73355117D01*
X119184304Y-65084403D01*
X119180586Y-65079872D01*
X158565000Y-65079872D01*
X158565000Y-65520128D01*
X158650890Y-65951925D01*
X158819369Y-66358669D01*
X159063962Y-66724729D01*
X159375271Y-67036038D01*
X159741331Y-67280631D01*
X160148075Y-67449110D01*
X160579872Y-67535000D01*
X161020128Y-67535000D01*
X161451925Y-67449110D01*
X161858669Y-67280631D01*
X162224729Y-67036038D01*
X162536038Y-66724729D01*
X162780631Y-66358669D01*
X162949110Y-65951925D01*
X163035000Y-65520128D01*
X163035000Y-65079872D01*
X162949110Y-64648075D01*
X162780631Y-64241331D01*
X162536038Y-63875271D01*
X162224729Y-63563962D01*
X161858669Y-63319369D01*
X161451925Y-63150890D01*
X161020128Y-63065000D01*
X160579872Y-63065000D01*
X160148075Y-63150890D01*
X159741331Y-63319369D01*
X159375271Y-63563962D01*
X159063962Y-63875271D01*
X158819369Y-64241331D01*
X158650890Y-64648075D01*
X158565000Y-65079872D01*
X119180586Y-65079872D01*
X119160501Y-65055399D01*
X119044776Y-64960426D01*
X118912747Y-64889854D01*
X118769486Y-64846397D01*
X118657833Y-64835400D01*
X118657822Y-64835400D01*
X118620500Y-64831724D01*
X118583178Y-64835400D01*
X116132723Y-64835400D01*
X116095400Y-64831724D01*
X116058077Y-64835400D01*
X116058067Y-64835400D01*
X115946414Y-64846397D01*
X115803153Y-64889854D01*
X115671124Y-64960426D01*
X115555399Y-65055399D01*
X115531596Y-65084403D01*
X115359198Y-65256801D01*
X115330200Y-65280599D01*
X115306402Y-65309597D01*
X115306401Y-65309598D01*
X115235226Y-65396324D01*
X115164654Y-65528354D01*
X115144317Y-65595400D01*
X115121198Y-65671614D01*
X115110201Y-65783267D01*
X115106524Y-65820600D01*
X115110201Y-65857932D01*
X115110200Y-67713577D01*
X115106524Y-67750900D01*
X115110200Y-67788222D01*
X115110200Y-67788232D01*
X115121197Y-67899885D01*
X115159456Y-68026010D01*
X115164654Y-68043146D01*
X115235226Y-68175176D01*
X115275071Y-68223726D01*
X115330199Y-68290901D01*
X115359203Y-68314704D01*
X115722196Y-68677697D01*
X115745999Y-68706701D01*
X115748834Y-68709027D01*
X115666068Y-68908842D01*
X115609000Y-69195740D01*
X115609000Y-69488260D01*
X115666068Y-69775158D01*
X115778010Y-70045411D01*
X115940525Y-70288632D01*
X116147368Y-70495475D01*
X116321760Y-70612000D01*
X116147368Y-70728525D01*
X115940525Y-70935368D01*
X115778010Y-71178589D01*
X115666068Y-71448842D01*
X115609000Y-71735740D01*
X115609000Y-72028260D01*
X115666068Y-72315158D01*
X115778010Y-72585411D01*
X115940525Y-72828632D01*
X116147368Y-73035475D01*
X116321760Y-73152000D01*
X116147368Y-73268525D01*
X115993697Y-73422196D01*
X115307204Y-72735703D01*
X115283401Y-72706699D01*
X115167676Y-72611726D01*
X115035647Y-72541154D01*
X114892386Y-72497697D01*
X114780733Y-72486700D01*
X114780722Y-72486700D01*
X114743400Y-72483024D01*
X114706078Y-72486700D01*
X102168802Y-72486700D01*
X98513104Y-68831003D01*
X98489301Y-68801999D01*
X98373576Y-68707026D01*
X98241547Y-68636454D01*
X98098286Y-68592997D01*
X98056796Y-68588911D01*
X97927475Y-68395368D01*
X97795620Y-68263513D01*
X97868180Y-68241502D01*
X97978494Y-68182537D01*
X98075185Y-68103185D01*
X98154537Y-68006494D01*
X98213502Y-67896180D01*
X98249812Y-67776482D01*
X98262072Y-67652000D01*
X98262072Y-65952000D01*
X98249812Y-65827518D01*
X98213502Y-65707820D01*
X98154537Y-65597506D01*
X98075185Y-65500815D01*
X97978494Y-65421463D01*
X97868180Y-65362498D01*
X97748482Y-65326188D01*
X97624000Y-65313928D01*
X95924000Y-65313928D01*
X95799518Y-65326188D01*
X95679820Y-65362498D01*
X95569506Y-65421463D01*
X95472815Y-65500815D01*
X95393463Y-65597506D01*
X95334498Y-65707820D01*
X95298188Y-65827518D01*
X95285928Y-65952000D01*
X95285928Y-67652000D01*
X95298188Y-67776482D01*
X95334498Y-67896180D01*
X95393463Y-68006494D01*
X95472815Y-68103185D01*
X95569506Y-68182537D01*
X95679820Y-68241502D01*
X95752380Y-68263513D01*
X95620525Y-68395368D01*
X95495822Y-68582000D01*
X74938178Y-68582000D01*
X74813475Y-68395368D01*
X74681620Y-68263513D01*
X74754180Y-68241502D01*
X74864494Y-68182537D01*
X74961185Y-68103185D01*
X75040537Y-68006494D01*
X75099502Y-67896180D01*
X75135812Y-67776482D01*
X75148072Y-67652000D01*
X75148072Y-65952000D01*
X75135812Y-65827518D01*
X75099502Y-65707820D01*
X75040537Y-65597506D01*
X74961185Y-65500815D01*
X74864494Y-65421463D01*
X74754180Y-65362498D01*
X74634482Y-65326188D01*
X74510000Y-65313928D01*
X72810000Y-65313928D01*
X72685518Y-65326188D01*
X72565820Y-65362498D01*
X72455506Y-65421463D01*
X72358815Y-65500815D01*
X72279463Y-65597506D01*
X72220498Y-65707820D01*
X72184188Y-65827518D01*
X72171928Y-65952000D01*
X69927314Y-65952000D01*
X69967110Y-65855925D01*
X70053000Y-65424128D01*
X70053000Y-64983872D01*
X100127000Y-64983872D01*
X100127000Y-65424128D01*
X100212890Y-65855925D01*
X100381369Y-66262669D01*
X100625962Y-66628729D01*
X100937271Y-66940038D01*
X101303331Y-67184631D01*
X101710075Y-67353110D01*
X102141872Y-67439000D01*
X102582128Y-67439000D01*
X103013925Y-67353110D01*
X103420669Y-67184631D01*
X103786729Y-66940038D01*
X104098038Y-66628729D01*
X104342631Y-66262669D01*
X104511110Y-65855925D01*
X104597000Y-65424128D01*
X104597000Y-64983872D01*
X104511110Y-64552075D01*
X104342631Y-64145331D01*
X104098038Y-63779271D01*
X103786729Y-63467962D01*
X103420669Y-63223369D01*
X103013925Y-63054890D01*
X102582128Y-62969000D01*
X102141872Y-62969000D01*
X101710075Y-63054890D01*
X101303331Y-63223369D01*
X100937271Y-63467962D01*
X100625962Y-63779271D01*
X100381369Y-64145331D01*
X100212890Y-64552075D01*
X100127000Y-64983872D01*
X70053000Y-64983872D01*
X69967110Y-64552075D01*
X69798631Y-64145331D01*
X69554038Y-63779271D01*
X69242729Y-63467962D01*
X68876669Y-63223369D01*
X68469925Y-63054890D01*
X68038128Y-62969000D01*
X67597872Y-62969000D01*
X67166075Y-63054890D01*
X66759331Y-63223369D01*
X66393271Y-63467962D01*
X66081962Y-63779271D01*
X65837369Y-64145331D01*
X65668890Y-64552075D01*
X65583000Y-64983872D01*
X65160000Y-64983872D01*
X65160000Y-64532279D01*
X65198147Y-64143225D01*
X65301763Y-63800033D01*
X65470062Y-63483511D01*
X65696637Y-63205701D01*
X65972856Y-62977194D01*
X66288197Y-62806690D01*
X66630656Y-62700681D01*
X67017712Y-62660000D01*
X103217721Y-62660000D01*
X103606775Y-62698147D01*
G37*
G04 #@! TD.AperFunction*
D15*
X115354900Y-74933002D02*
X115378699Y-74962001D01*
X115494424Y-75056974D01*
X115626453Y-75127546D01*
X115769714Y-75171003D01*
X115811204Y-75175089D01*
X115940525Y-75368632D01*
X116147368Y-75575475D01*
X116329534Y-75697195D01*
X116212645Y-75766822D01*
X115996412Y-75961731D01*
X115822359Y-76195080D01*
X115697175Y-76457901D01*
X115652524Y-76605110D01*
X115773845Y-76835000D01*
X116967000Y-76835000D01*
X116967000Y-76815000D01*
X117221000Y-76815000D01*
X117221000Y-76835000D01*
X118414155Y-76835000D01*
X118535476Y-76605110D01*
X118490825Y-76457901D01*
X118365641Y-76195080D01*
X118191588Y-75961731D01*
X117975355Y-75766822D01*
X117858466Y-75697195D01*
X118040632Y-75575475D01*
X118247475Y-75368632D01*
X118372178Y-75182000D01*
X120943699Y-75182000D01*
X122584928Y-76823230D01*
X122584928Y-77161500D01*
X122601752Y-77332316D01*
X122651577Y-77496567D01*
X122731774Y-77646606D01*
X122692463Y-77694506D01*
X122633498Y-77804820D01*
X122597188Y-77924518D01*
X122584928Y-78049000D01*
X122588000Y-78300750D01*
X122746750Y-78459500D01*
X123571000Y-78459500D01*
X123571000Y-78439500D01*
X123825000Y-78439500D01*
X123825000Y-78459500D01*
X123845000Y-78459500D01*
X123845000Y-78713500D01*
X123825000Y-78713500D01*
X123825000Y-79600250D01*
X123983750Y-79759000D01*
X124173000Y-79762072D01*
X124297482Y-79749812D01*
X124417180Y-79713502D01*
X124527494Y-79654537D01*
X124624185Y-79575185D01*
X124703537Y-79478494D01*
X124762502Y-79368180D01*
X124798812Y-79248482D01*
X124811072Y-79124000D01*
X124810150Y-79048452D01*
X126637400Y-80875702D01*
X126661199Y-80904701D01*
X126690197Y-80928499D01*
X126776923Y-80999674D01*
X126886151Y-81058058D01*
X126908953Y-81070246D01*
X127052214Y-81113703D01*
X127163867Y-81124700D01*
X127163877Y-81124700D01*
X127201200Y-81128376D01*
X127238523Y-81124700D01*
X127710800Y-81124700D01*
X127710800Y-81184798D01*
X126237398Y-82658201D01*
X126208400Y-82681999D01*
X126184602Y-82710997D01*
X126184601Y-82710998D01*
X126113426Y-82797724D01*
X126042854Y-82929754D01*
X126020370Y-83003876D01*
X125999398Y-83073014D01*
X125994851Y-83119180D01*
X125984724Y-83222000D01*
X125988401Y-83259332D01*
X125988400Y-95424100D01*
X125921161Y-95424100D01*
X125721202Y-95463874D01*
X125532844Y-95541895D01*
X125363326Y-95655163D01*
X125219163Y-95799326D01*
X125105895Y-95968844D01*
X125027874Y-96157202D01*
X124988100Y-96357161D01*
X124988100Y-96419298D01*
X121025900Y-100381499D01*
X121025900Y-81012323D01*
X121029576Y-80975000D01*
X121025900Y-80937677D01*
X121025900Y-80937667D01*
X121014903Y-80826014D01*
X120971446Y-80682753D01*
X120900874Y-80550724D01*
X120805901Y-80434999D01*
X120776904Y-80411202D01*
X119489702Y-79124000D01*
X122584928Y-79124000D01*
X122597188Y-79248482D01*
X122633498Y-79368180D01*
X122692463Y-79478494D01*
X122771815Y-79575185D01*
X122868506Y-79654537D01*
X122978820Y-79713502D01*
X123098518Y-79749812D01*
X123223000Y-79762072D01*
X123412250Y-79759000D01*
X123571000Y-79600250D01*
X123571000Y-78713500D01*
X122746750Y-78713500D01*
X122588000Y-78872250D01*
X122584928Y-79124000D01*
X119489702Y-79124000D01*
X118249854Y-77884153D01*
X118365641Y-77728920D01*
X118490825Y-77466099D01*
X118535476Y-77318890D01*
X118414155Y-77089000D01*
X117221000Y-77089000D01*
X117221000Y-77109000D01*
X116967000Y-77109000D01*
X116967000Y-77089000D01*
X115773845Y-77089000D01*
X115652524Y-77318890D01*
X115697175Y-77466099D01*
X115699986Y-77472000D01*
X115048702Y-77472000D01*
X111583401Y-74006700D01*
X114428599Y-74006700D01*
X115354900Y-74933002D01*
G04 #@! TA.AperFunction,Conductor*
D16*
G36*
X115354900Y-74933002D02*
G01*
X115378699Y-74962001D01*
X115494424Y-75056974D01*
X115626453Y-75127546D01*
X115769714Y-75171003D01*
X115811204Y-75175089D01*
X115940525Y-75368632D01*
X116147368Y-75575475D01*
X116329534Y-75697195D01*
X116212645Y-75766822D01*
X115996412Y-75961731D01*
X115822359Y-76195080D01*
X115697175Y-76457901D01*
X115652524Y-76605110D01*
X115773845Y-76835000D01*
X116967000Y-76835000D01*
X116967000Y-76815000D01*
X117221000Y-76815000D01*
X117221000Y-76835000D01*
X118414155Y-76835000D01*
X118535476Y-76605110D01*
X118490825Y-76457901D01*
X118365641Y-76195080D01*
X118191588Y-75961731D01*
X117975355Y-75766822D01*
X117858466Y-75697195D01*
X118040632Y-75575475D01*
X118247475Y-75368632D01*
X118372178Y-75182000D01*
X120943699Y-75182000D01*
X122584928Y-76823230D01*
X122584928Y-77161500D01*
X122601752Y-77332316D01*
X122651577Y-77496567D01*
X122731774Y-77646606D01*
X122692463Y-77694506D01*
X122633498Y-77804820D01*
X122597188Y-77924518D01*
X122584928Y-78049000D01*
X122588000Y-78300750D01*
X122746750Y-78459500D01*
X123571000Y-78459500D01*
X123571000Y-78439500D01*
X123825000Y-78439500D01*
X123825000Y-78459500D01*
X123845000Y-78459500D01*
X123845000Y-78713500D01*
X123825000Y-78713500D01*
X123825000Y-79600250D01*
X123983750Y-79759000D01*
X124173000Y-79762072D01*
X124297482Y-79749812D01*
X124417180Y-79713502D01*
X124527494Y-79654537D01*
X124624185Y-79575185D01*
X124703537Y-79478494D01*
X124762502Y-79368180D01*
X124798812Y-79248482D01*
X124811072Y-79124000D01*
X124810150Y-79048452D01*
X126637400Y-80875702D01*
X126661199Y-80904701D01*
X126690197Y-80928499D01*
X126776923Y-80999674D01*
X126886151Y-81058058D01*
X126908953Y-81070246D01*
X127052214Y-81113703D01*
X127163867Y-81124700D01*
X127163877Y-81124700D01*
X127201200Y-81128376D01*
X127238523Y-81124700D01*
X127710800Y-81124700D01*
X127710800Y-81184798D01*
X126237398Y-82658201D01*
X126208400Y-82681999D01*
X126184602Y-82710997D01*
X126184601Y-82710998D01*
X126113426Y-82797724D01*
X126042854Y-82929754D01*
X126020370Y-83003876D01*
X125999398Y-83073014D01*
X125994851Y-83119180D01*
X125984724Y-83222000D01*
X125988401Y-83259332D01*
X125988400Y-95424100D01*
X125921161Y-95424100D01*
X125721202Y-95463874D01*
X125532844Y-95541895D01*
X125363326Y-95655163D01*
X125219163Y-95799326D01*
X125105895Y-95968844D01*
X125027874Y-96157202D01*
X124988100Y-96357161D01*
X124988100Y-96419298D01*
X121025900Y-100381499D01*
X121025900Y-81012323D01*
X121029576Y-80975000D01*
X121025900Y-80937677D01*
X121025900Y-80937667D01*
X121014903Y-80826014D01*
X120971446Y-80682753D01*
X120900874Y-80550724D01*
X120805901Y-80434999D01*
X120776904Y-80411202D01*
X119489702Y-79124000D01*
X122584928Y-79124000D01*
X122597188Y-79248482D01*
X122633498Y-79368180D01*
X122692463Y-79478494D01*
X122771815Y-79575185D01*
X122868506Y-79654537D01*
X122978820Y-79713502D01*
X123098518Y-79749812D01*
X123223000Y-79762072D01*
X123412250Y-79759000D01*
X123571000Y-79600250D01*
X123571000Y-78713500D01*
X122746750Y-78713500D01*
X122588000Y-78872250D01*
X122584928Y-79124000D01*
X119489702Y-79124000D01*
X118249854Y-77884153D01*
X118365641Y-77728920D01*
X118490825Y-77466099D01*
X118535476Y-77318890D01*
X118414155Y-77089000D01*
X117221000Y-77089000D01*
X117221000Y-77109000D01*
X116967000Y-77109000D01*
X116967000Y-77089000D01*
X115773845Y-77089000D01*
X115652524Y-77318890D01*
X115697175Y-77466099D01*
X115699986Y-77472000D01*
X115048702Y-77472000D01*
X111583401Y-74006700D01*
X114428599Y-74006700D01*
X115354900Y-74933002D01*
G37*
G04 #@! TD.AperFunction*
D15*
X133401700Y-81451402D02*
X133401700Y-83108898D01*
X129859371Y-79566570D01*
X129878812Y-79502482D01*
X129891072Y-79378000D01*
X129888000Y-79126250D01*
X129729250Y-78967500D01*
X128905000Y-78967500D01*
X128905000Y-78987500D01*
X128651000Y-78987500D01*
X128651000Y-78967500D01*
X128631000Y-78967500D01*
X128631000Y-78713500D01*
X128651000Y-78713500D01*
X128651000Y-78693500D01*
X128905000Y-78693500D01*
X128905000Y-78713500D01*
X129729250Y-78713500D01*
X129888000Y-78554750D01*
X129891072Y-78303000D01*
X129878812Y-78178518D01*
X129842502Y-78058820D01*
X129783537Y-77948506D01*
X129744226Y-77900606D01*
X129781385Y-77831087D01*
X133401700Y-81451402D01*
G04 #@! TA.AperFunction,Conductor*
D16*
G36*
X133401700Y-81451402D02*
G01*
X133401700Y-83108898D01*
X129859371Y-79566570D01*
X129878812Y-79502482D01*
X129891072Y-79378000D01*
X129888000Y-79126250D01*
X129729250Y-78967500D01*
X128905000Y-78967500D01*
X128905000Y-78987500D01*
X128651000Y-78987500D01*
X128651000Y-78967500D01*
X128631000Y-78967500D01*
X128631000Y-78713500D01*
X128651000Y-78713500D01*
X128651000Y-78693500D01*
X128905000Y-78693500D01*
X128905000Y-78713500D01*
X129729250Y-78713500D01*
X129888000Y-78554750D01*
X129891072Y-78303000D01*
X129878812Y-78178518D01*
X129842502Y-78058820D01*
X129783537Y-77948506D01*
X129744226Y-77900606D01*
X129781385Y-77831087D01*
X133401700Y-81451402D01*
G37*
G04 #@! TD.AperFunction*
D15*
X101290200Y-73757702D02*
X101313999Y-73786701D01*
X101429724Y-73881674D01*
X101561753Y-73952246D01*
X101705014Y-73995703D01*
X101816667Y-74006700D01*
X101816675Y-74006700D01*
X101854000Y-74010376D01*
X101891325Y-74006700D01*
X104909797Y-74006700D01*
X97874303Y-81042196D01*
X97720632Y-80888525D01*
X97546240Y-80772000D01*
X97720632Y-80655475D01*
X97927475Y-80448632D01*
X98089990Y-80205411D01*
X98201932Y-79935158D01*
X98259000Y-79648260D01*
X98259000Y-79355740D01*
X98201932Y-79068842D01*
X98089990Y-78798589D01*
X97927475Y-78555368D01*
X97720632Y-78348525D01*
X97538466Y-78226805D01*
X97655355Y-78157178D01*
X97871588Y-77962269D01*
X98045641Y-77728920D01*
X98170825Y-77466099D01*
X98215476Y-77318890D01*
X98094155Y-77089000D01*
X96901000Y-77089000D01*
X96901000Y-77109000D01*
X96647000Y-77109000D01*
X96647000Y-77089000D01*
X95453845Y-77089000D01*
X95332524Y-77318890D01*
X95377175Y-77466099D01*
X95502359Y-77728920D01*
X95676412Y-77962269D01*
X95892645Y-78157178D01*
X96009534Y-78226805D01*
X95827368Y-78348525D01*
X95620525Y-78555368D01*
X95458010Y-78798589D01*
X95346068Y-79068842D01*
X95289000Y-79355740D01*
X95289000Y-79648260D01*
X95346068Y-79935158D01*
X95458010Y-80205411D01*
X95620525Y-80448632D01*
X95827368Y-80655475D01*
X96001760Y-80772000D01*
X95827368Y-80888525D01*
X95620525Y-81095368D01*
X95583733Y-81150431D01*
X91446072Y-77012771D01*
X91446072Y-76724500D01*
X91429248Y-76553684D01*
X91379423Y-76389433D01*
X91298512Y-76238058D01*
X91189623Y-76105377D01*
X91056942Y-75996488D01*
X90905567Y-75915577D01*
X90741316Y-75865752D01*
X90570500Y-75848928D01*
X90282230Y-75848928D01*
X89615301Y-75182000D01*
X95495822Y-75182000D01*
X95620525Y-75368632D01*
X95827368Y-75575475D01*
X96009534Y-75697195D01*
X95892645Y-75766822D01*
X95676412Y-75961731D01*
X95502359Y-76195080D01*
X95377175Y-76457901D01*
X95332524Y-76605110D01*
X95453845Y-76835000D01*
X96647000Y-76835000D01*
X96647000Y-76815000D01*
X96901000Y-76815000D01*
X96901000Y-76835000D01*
X98094155Y-76835000D01*
X98215476Y-76605110D01*
X98170825Y-76457901D01*
X98045641Y-76195080D01*
X97871588Y-75961731D01*
X97655355Y-75766822D01*
X97538466Y-75697195D01*
X97720632Y-75575475D01*
X97927475Y-75368632D01*
X98089990Y-75125411D01*
X98201932Y-74855158D01*
X98259000Y-74568260D01*
X98259000Y-74275740D01*
X98201932Y-73988842D01*
X98089990Y-73718589D01*
X97927475Y-73475368D01*
X97720632Y-73268525D01*
X97546240Y-73152000D01*
X97720632Y-73035475D01*
X97927475Y-72828632D01*
X98089990Y-72585411D01*
X98201932Y-72315158D01*
X98259000Y-72028260D01*
X98259000Y-71735740D01*
X98201932Y-71448842D01*
X98089990Y-71178589D01*
X97927475Y-70935368D01*
X97720632Y-70728525D01*
X97546240Y-70612000D01*
X97720632Y-70495475D01*
X97874303Y-70341804D01*
X101290200Y-73757702D01*
G04 #@! TA.AperFunction,Conductor*
D16*
G36*
X101290200Y-73757702D02*
G01*
X101313999Y-73786701D01*
X101429724Y-73881674D01*
X101561753Y-73952246D01*
X101705014Y-73995703D01*
X101816667Y-74006700D01*
X101816675Y-74006700D01*
X101854000Y-74010376D01*
X101891325Y-74006700D01*
X104909797Y-74006700D01*
X97874303Y-81042196D01*
X97720632Y-80888525D01*
X97546240Y-80772000D01*
X97720632Y-80655475D01*
X97927475Y-80448632D01*
X98089990Y-80205411D01*
X98201932Y-79935158D01*
X98259000Y-79648260D01*
X98259000Y-79355740D01*
X98201932Y-79068842D01*
X98089990Y-78798589D01*
X97927475Y-78555368D01*
X97720632Y-78348525D01*
X97538466Y-78226805D01*
X97655355Y-78157178D01*
X97871588Y-77962269D01*
X98045641Y-77728920D01*
X98170825Y-77466099D01*
X98215476Y-77318890D01*
X98094155Y-77089000D01*
X96901000Y-77089000D01*
X96901000Y-77109000D01*
X96647000Y-77109000D01*
X96647000Y-77089000D01*
X95453845Y-77089000D01*
X95332524Y-77318890D01*
X95377175Y-77466099D01*
X95502359Y-77728920D01*
X95676412Y-77962269D01*
X95892645Y-78157178D01*
X96009534Y-78226805D01*
X95827368Y-78348525D01*
X95620525Y-78555368D01*
X95458010Y-78798589D01*
X95346068Y-79068842D01*
X95289000Y-79355740D01*
X95289000Y-79648260D01*
X95346068Y-79935158D01*
X95458010Y-80205411D01*
X95620525Y-80448632D01*
X95827368Y-80655475D01*
X96001760Y-80772000D01*
X95827368Y-80888525D01*
X95620525Y-81095368D01*
X95583733Y-81150431D01*
X91446072Y-77012771D01*
X91446072Y-76724500D01*
X91429248Y-76553684D01*
X91379423Y-76389433D01*
X91298512Y-76238058D01*
X91189623Y-76105377D01*
X91056942Y-75996488D01*
X90905567Y-75915577D01*
X90741316Y-75865752D01*
X90570500Y-75848928D01*
X90282230Y-75848928D01*
X89615301Y-75182000D01*
X95495822Y-75182000D01*
X95620525Y-75368632D01*
X95827368Y-75575475D01*
X96009534Y-75697195D01*
X95892645Y-75766822D01*
X95676412Y-75961731D01*
X95502359Y-76195080D01*
X95377175Y-76457901D01*
X95332524Y-76605110D01*
X95453845Y-76835000D01*
X96647000Y-76835000D01*
X96647000Y-76815000D01*
X96901000Y-76815000D01*
X96901000Y-76835000D01*
X98094155Y-76835000D01*
X98215476Y-76605110D01*
X98170825Y-76457901D01*
X98045641Y-76195080D01*
X97871588Y-75961731D01*
X97655355Y-75766822D01*
X97538466Y-75697195D01*
X97720632Y-75575475D01*
X97927475Y-75368632D01*
X98089990Y-75125411D01*
X98201932Y-74855158D01*
X98259000Y-74568260D01*
X98259000Y-74275740D01*
X98201932Y-73988842D01*
X98089990Y-73718589D01*
X97927475Y-73475368D01*
X97720632Y-73268525D01*
X97546240Y-73152000D01*
X97720632Y-73035475D01*
X97927475Y-72828632D01*
X98089990Y-72585411D01*
X98201932Y-72315158D01*
X98259000Y-72028260D01*
X98259000Y-71735740D01*
X98201932Y-71448842D01*
X98089990Y-71178589D01*
X97927475Y-70935368D01*
X97720632Y-70728525D01*
X97546240Y-70612000D01*
X97720632Y-70495475D01*
X97874303Y-70341804D01*
X101290200Y-73757702D01*
G37*
G04 #@! TD.AperFunction*
G04 #@! TD*
M02*
