M48
; DRILL file {KiCad 5.1.10-88a1d61d58~88~ubuntu18.04.1} date Sat Oct 23 19:38:25 2021
; FORMAT={-:-/ absolute / metric / decimal}
; #@! TF.CreationDate,2021-10-23T19:38:25+09:00
; #@! TF.GenerationSoftware,Kicad,Pcbnew,5.1.10-88a1d61d58~88~ubuntu18.04.1
FMAT,2
METRIC
T1C0.400
T2C1.000
T3C2.200
T4C3.200
%
G90
G05
T1
X83.943Y-78.822
X87.65Y-81.024
X89.207Y-90.82
X118.491Y-109.157
X118.582Y-107.255
X119.086Y-109.977
X120.087Y-109.651
X126.023Y-96.459
X127.176Y-97.4
X127.668Y-76.502
X128.071Y-84.891
X128.213Y-83.804
X128.746Y-81.225
X128.779Y-82.292
X128.816Y-104.139
X128.816Y-108.926
X129.939Y-78.84
X133.131Y-119.876
X134.162Y-95.836
X134.271Y-106.836
T2
X73.66Y-66.802
X73.66Y-69.342
X73.66Y-71.882
X73.66Y-74.422
X73.66Y-76.962
X73.66Y-79.502
X73.66Y-82.042
X73.66Y-84.582
X73.66Y-87.122
X73.66Y-89.662
X73.66Y-92.202
X73.66Y-94.742
X73.66Y-97.282
X73.66Y-99.822
X73.66Y-102.362
X73.66Y-104.902
X73.66Y-107.442
X73.66Y-109.982
X73.66Y-112.522
X73.66Y-115.062
X73.66Y-117.602
X73.66Y-120.142
X96.774Y-66.802
X96.774Y-69.342
X96.774Y-71.882
X96.774Y-74.422
X96.774Y-76.962
X96.774Y-79.502
X96.774Y-82.042
X96.774Y-84.582
X96.774Y-87.122
X96.774Y-89.662
X96.774Y-92.202
X96.774Y-94.742
X96.774Y-97.282
X96.774Y-99.822
X96.774Y-102.362
X96.774Y-104.902
X96.774Y-107.442
X96.774Y-109.982
X96.774Y-112.522
X96.774Y-115.062
X96.774Y-117.602
X96.774Y-120.142
X117.094Y-66.802
X117.094Y-69.342
X117.094Y-71.882
X117.094Y-74.422
X117.094Y-76.962
X117.094Y-79.502
X117.094Y-82.042
X117.094Y-84.582
X117.094Y-87.122
X117.094Y-89.662
X117.094Y-92.202
X117.094Y-94.742
X117.094Y-97.282
X117.094Y-99.822
X117.094Y-102.362
X117.094Y-104.902
X117.094Y-107.442
X117.094Y-109.982
X117.094Y-112.522
X117.094Y-115.062
X117.094Y-117.602
X117.094Y-120.142
T4
X67.818Y-65.204
X67.818Y-126.1
X102.108Y-125.984
X102.362Y-65.204
X110.7Y-65.3
X110.7Y-142.0
X160.8Y-65.3
X160.8Y-142.0
T3
G00X133.5Y-73.526
M15
G01X133.5Y-73.526
M16
G05
G00X145.1Y-135.726
M15
G01X145.1Y-135.726
M16
G05
T0
M30
