G04 #@! TF.GenerationSoftware,KiCad,Pcbnew,5.1.10-88a1d61d58~88~ubuntu18.04.1*
G04 #@! TF.CreationDate,2021-10-23T19:38:23+09:00*
G04 #@! TF.ProjectId,CameraJigSTM32F446RE_Head,43616d65-7261-44a6-9967-53544d333246,rev?*
G04 #@! TF.SameCoordinates,Original*
G04 #@! TF.FileFunction,Soldermask,Bot*
G04 #@! TF.FilePolarity,Negative*
%FSLAX46Y46*%
G04 Gerber Fmt 4.6, Leading zero omitted, Abs format (unit mm)*
G04 Created by KiCad (PCBNEW 5.1.10-88a1d61d58~88~ubuntu18.04.1) date 2021-10-23 19:38:23*
%MOMM*%
%LPD*%
G01*
G04 APERTURE LIST*
%ADD10C,3.200000*%
%ADD11O,2.200000X2.200000*%
%ADD12R,1.700000X1.700000*%
%ADD13O,1.700000X1.700000*%
%ADD14R,2.000000X0.650000*%
G04 APERTURE END LIST*
D10*
G04 #@! TO.C,REF_7*
X160800000Y-142000000D03*
G04 #@! TD*
G04 #@! TO.C,REF_5*
X160800000Y-65300000D03*
G04 #@! TD*
D11*
G04 #@! TO.C,REF_head*
X145100000Y-135726000D03*
X133500000Y-73526000D03*
G04 #@! TD*
D10*
G04 #@! TO.C,REF_6*
X110700000Y-142000000D03*
G04 #@! TD*
G04 #@! TO.C,REF_4*
X110700000Y-65300000D03*
G04 #@! TD*
G04 #@! TO.C,REF_3*
X102108000Y-125984000D03*
G04 #@! TD*
G04 #@! TO.C,REF_1*
X102362000Y-65204000D03*
G04 #@! TD*
G04 #@! TO.C,REF_0*
X67818000Y-65204000D03*
G04 #@! TD*
G04 #@! TO.C,REF_2*
X67818000Y-126100000D03*
G04 #@! TD*
G04 #@! TO.C,C2*
G36*
G01*
X123460500Y-76324000D02*
X123935500Y-76324000D01*
G75*
G02*
X124173000Y-76561500I0J-237500D01*
G01*
X124173000Y-77161500D01*
G75*
G02*
X123935500Y-77399000I-237500J0D01*
G01*
X123460500Y-77399000D01*
G75*
G02*
X123223000Y-77161500I0J237500D01*
G01*
X123223000Y-76561500D01*
G75*
G02*
X123460500Y-76324000I237500J0D01*
G01*
G37*
G36*
G01*
X123460500Y-78049000D02*
X123935500Y-78049000D01*
G75*
G02*
X124173000Y-78286500I0J-237500D01*
G01*
X124173000Y-78886500D01*
G75*
G02*
X123935500Y-79124000I-237500J0D01*
G01*
X123460500Y-79124000D01*
G75*
G02*
X123223000Y-78886500I0J237500D01*
G01*
X123223000Y-78286500D01*
G75*
G02*
X123460500Y-78049000I237500J0D01*
G01*
G37*
G04 #@! TD*
G04 #@! TO.C,C3*
G36*
G01*
X129015500Y-79378000D02*
X128540500Y-79378000D01*
G75*
G02*
X128303000Y-79140500I0J237500D01*
G01*
X128303000Y-78540500D01*
G75*
G02*
X128540500Y-78303000I237500J0D01*
G01*
X129015500Y-78303000D01*
G75*
G02*
X129253000Y-78540500I0J-237500D01*
G01*
X129253000Y-79140500D01*
G75*
G02*
X129015500Y-79378000I-237500J0D01*
G01*
G37*
G36*
G01*
X129015500Y-77653000D02*
X128540500Y-77653000D01*
G75*
G02*
X128303000Y-77415500I0J237500D01*
G01*
X128303000Y-76815500D01*
G75*
G02*
X128540500Y-76578000I237500J0D01*
G01*
X129015500Y-76578000D01*
G75*
G02*
X129253000Y-76815500I0J-237500D01*
G01*
X129253000Y-77415500D01*
G75*
G02*
X129015500Y-77653000I-237500J0D01*
G01*
G37*
G04 #@! TD*
D12*
G04 #@! TO.C,J1*
X117094000Y-66802000D03*
D13*
X117094000Y-69342000D03*
X117094000Y-71882000D03*
X117094000Y-74422000D03*
X117094000Y-76962000D03*
X117094000Y-79502000D03*
X117094000Y-82042000D03*
X117094000Y-84582000D03*
X117094000Y-87122000D03*
X117094000Y-89662000D03*
X117094000Y-92202000D03*
X117094000Y-94742000D03*
X117094000Y-97282000D03*
X117094000Y-99822000D03*
X117094000Y-102362000D03*
X117094000Y-104902000D03*
X117094000Y-107442000D03*
X117094000Y-109982000D03*
X117094000Y-112522000D03*
X117094000Y-115062000D03*
X117094000Y-117602000D03*
X117094000Y-120142000D03*
G04 #@! TD*
D12*
G04 #@! TO.C,J3*
X73660000Y-66802000D03*
D13*
X73660000Y-69342000D03*
X73660000Y-71882000D03*
X73660000Y-74422000D03*
X73660000Y-76962000D03*
X73660000Y-79502000D03*
X73660000Y-82042000D03*
X73660000Y-84582000D03*
X73660000Y-87122000D03*
X73660000Y-89662000D03*
X73660000Y-92202000D03*
X73660000Y-94742000D03*
X73660000Y-97282000D03*
X73660000Y-99822000D03*
X73660000Y-102362000D03*
X73660000Y-104902000D03*
X73660000Y-107442000D03*
X73660000Y-109982000D03*
X73660000Y-112522000D03*
X73660000Y-115062000D03*
X73660000Y-117602000D03*
X73660000Y-120142000D03*
G04 #@! TD*
G04 #@! TO.C,J4*
X96774000Y-120142000D03*
X96774000Y-117602000D03*
X96774000Y-115062000D03*
X96774000Y-112522000D03*
X96774000Y-109982000D03*
X96774000Y-107442000D03*
X96774000Y-104902000D03*
X96774000Y-102362000D03*
X96774000Y-99822000D03*
X96774000Y-97282000D03*
X96774000Y-94742000D03*
X96774000Y-92202000D03*
X96774000Y-89662000D03*
X96774000Y-87122000D03*
X96774000Y-84582000D03*
X96774000Y-82042000D03*
X96774000Y-79502000D03*
X96774000Y-76962000D03*
X96774000Y-74422000D03*
X96774000Y-71882000D03*
X96774000Y-69342000D03*
D12*
X96774000Y-66802000D03*
G04 #@! TD*
D14*
G04 #@! TO.C,Q2*
X82618000Y-83500000D03*
X82618000Y-81600000D03*
X86038000Y-82550000D03*
G04 #@! TD*
G04 #@! TO.C,Q3*
X86038000Y-94234000D03*
X82618000Y-93284000D03*
X82618000Y-95184000D03*
G04 #@! TD*
G04 #@! TO.C,Q4*
X86038000Y-75692000D03*
X82618000Y-74742000D03*
X82618000Y-76642000D03*
G04 #@! TD*
G04 #@! TO.C,Q5*
X82618000Y-88834000D03*
X82618000Y-86934000D03*
X86038000Y-87884000D03*
G04 #@! TD*
G04 #@! TO.C,Q9*
X86038000Y-100076000D03*
X82618000Y-99126000D03*
X82618000Y-101026000D03*
G04 #@! TD*
G04 #@! TO.C,Q11*
X82618000Y-107630000D03*
X82618000Y-105730000D03*
X86038000Y-106680000D03*
G04 #@! TD*
G04 #@! TO.C,R3*
G36*
G01*
X80247500Y-82282000D02*
X79772500Y-82282000D01*
G75*
G02*
X79535000Y-82044500I0J237500D01*
G01*
X79535000Y-81544500D01*
G75*
G02*
X79772500Y-81307000I237500J0D01*
G01*
X80247500Y-81307000D01*
G75*
G02*
X80485000Y-81544500I0J-237500D01*
G01*
X80485000Y-82044500D01*
G75*
G02*
X80247500Y-82282000I-237500J0D01*
G01*
G37*
G36*
G01*
X80247500Y-84107000D02*
X79772500Y-84107000D01*
G75*
G02*
X79535000Y-83869500I0J237500D01*
G01*
X79535000Y-83369500D01*
G75*
G02*
X79772500Y-83132000I237500J0D01*
G01*
X80247500Y-83132000D01*
G75*
G02*
X80485000Y-83369500I0J-237500D01*
G01*
X80485000Y-83869500D01*
G75*
G02*
X80247500Y-84107000I-237500J0D01*
G01*
G37*
G04 #@! TD*
G04 #@! TO.C,R4*
G36*
G01*
X80247500Y-94063000D02*
X79772500Y-94063000D01*
G75*
G02*
X79535000Y-93825500I0J237500D01*
G01*
X79535000Y-93325500D01*
G75*
G02*
X79772500Y-93088000I237500J0D01*
G01*
X80247500Y-93088000D01*
G75*
G02*
X80485000Y-93325500I0J-237500D01*
G01*
X80485000Y-93825500D01*
G75*
G02*
X80247500Y-94063000I-237500J0D01*
G01*
G37*
G36*
G01*
X80247500Y-95888000D02*
X79772500Y-95888000D01*
G75*
G02*
X79535000Y-95650500I0J237500D01*
G01*
X79535000Y-95150500D01*
G75*
G02*
X79772500Y-94913000I237500J0D01*
G01*
X80247500Y-94913000D01*
G75*
G02*
X80485000Y-95150500I0J-237500D01*
G01*
X80485000Y-95650500D01*
G75*
G02*
X80247500Y-95888000I-237500J0D01*
G01*
G37*
G04 #@! TD*
G04 #@! TO.C,R5*
G36*
G01*
X80247500Y-77242500D02*
X79772500Y-77242500D01*
G75*
G02*
X79535000Y-77005000I0J237500D01*
G01*
X79535000Y-76505000D01*
G75*
G02*
X79772500Y-76267500I237500J0D01*
G01*
X80247500Y-76267500D01*
G75*
G02*
X80485000Y-76505000I0J-237500D01*
G01*
X80485000Y-77005000D01*
G75*
G02*
X80247500Y-77242500I-237500J0D01*
G01*
G37*
G36*
G01*
X80247500Y-75417500D02*
X79772500Y-75417500D01*
G75*
G02*
X79535000Y-75180000I0J237500D01*
G01*
X79535000Y-74680000D01*
G75*
G02*
X79772500Y-74442500I237500J0D01*
G01*
X80247500Y-74442500D01*
G75*
G02*
X80485000Y-74680000I0J-237500D01*
G01*
X80485000Y-75180000D01*
G75*
G02*
X80247500Y-75417500I-237500J0D01*
G01*
G37*
G04 #@! TD*
G04 #@! TO.C,R6*
G36*
G01*
X80247500Y-89377000D02*
X79772500Y-89377000D01*
G75*
G02*
X79535000Y-89139500I0J237500D01*
G01*
X79535000Y-88639500D01*
G75*
G02*
X79772500Y-88402000I237500J0D01*
G01*
X80247500Y-88402000D01*
G75*
G02*
X80485000Y-88639500I0J-237500D01*
G01*
X80485000Y-89139500D01*
G75*
G02*
X80247500Y-89377000I-237500J0D01*
G01*
G37*
G36*
G01*
X80247500Y-87552000D02*
X79772500Y-87552000D01*
G75*
G02*
X79535000Y-87314500I0J237500D01*
G01*
X79535000Y-86814500D01*
G75*
G02*
X79772500Y-86577000I237500J0D01*
G01*
X80247500Y-86577000D01*
G75*
G02*
X80485000Y-86814500I0J-237500D01*
G01*
X80485000Y-87314500D01*
G75*
G02*
X80247500Y-87552000I-237500J0D01*
G01*
G37*
G04 #@! TD*
G04 #@! TO.C,R10*
G36*
G01*
X88008000Y-84057500D02*
X88008000Y-83582500D01*
G75*
G02*
X88245500Y-83345000I237500J0D01*
G01*
X88745500Y-83345000D01*
G75*
G02*
X88983000Y-83582500I0J-237500D01*
G01*
X88983000Y-84057500D01*
G75*
G02*
X88745500Y-84295000I-237500J0D01*
G01*
X88245500Y-84295000D01*
G75*
G02*
X88008000Y-84057500I0J237500D01*
G01*
G37*
G36*
G01*
X89833000Y-84057500D02*
X89833000Y-83582500D01*
G75*
G02*
X90070500Y-83345000I237500J0D01*
G01*
X90570500Y-83345000D01*
G75*
G02*
X90808000Y-83582500I0J-237500D01*
G01*
X90808000Y-84057500D01*
G75*
G02*
X90570500Y-84295000I-237500J0D01*
G01*
X90070500Y-84295000D01*
G75*
G02*
X89833000Y-84057500I0J237500D01*
G01*
G37*
G04 #@! TD*
G04 #@! TO.C,R11*
G36*
G01*
X88008000Y-95741500D02*
X88008000Y-95266500D01*
G75*
G02*
X88245500Y-95029000I237500J0D01*
G01*
X88745500Y-95029000D01*
G75*
G02*
X88983000Y-95266500I0J-237500D01*
G01*
X88983000Y-95741500D01*
G75*
G02*
X88745500Y-95979000I-237500J0D01*
G01*
X88245500Y-95979000D01*
G75*
G02*
X88008000Y-95741500I0J237500D01*
G01*
G37*
G36*
G01*
X89833000Y-95741500D02*
X89833000Y-95266500D01*
G75*
G02*
X90070500Y-95029000I237500J0D01*
G01*
X90570500Y-95029000D01*
G75*
G02*
X90808000Y-95266500I0J-237500D01*
G01*
X90808000Y-95741500D01*
G75*
G02*
X90570500Y-95979000I-237500J0D01*
G01*
X90070500Y-95979000D01*
G75*
G02*
X89833000Y-95741500I0J237500D01*
G01*
G37*
G04 #@! TD*
G04 #@! TO.C,R12*
G36*
G01*
X89833000Y-77199500D02*
X89833000Y-76724500D01*
G75*
G02*
X90070500Y-76487000I237500J0D01*
G01*
X90570500Y-76487000D01*
G75*
G02*
X90808000Y-76724500I0J-237500D01*
G01*
X90808000Y-77199500D01*
G75*
G02*
X90570500Y-77437000I-237500J0D01*
G01*
X90070500Y-77437000D01*
G75*
G02*
X89833000Y-77199500I0J237500D01*
G01*
G37*
G36*
G01*
X88008000Y-77199500D02*
X88008000Y-76724500D01*
G75*
G02*
X88245500Y-76487000I237500J0D01*
G01*
X88745500Y-76487000D01*
G75*
G02*
X88983000Y-76724500I0J-237500D01*
G01*
X88983000Y-77199500D01*
G75*
G02*
X88745500Y-77437000I-237500J0D01*
G01*
X88245500Y-77437000D01*
G75*
G02*
X88008000Y-77199500I0J237500D01*
G01*
G37*
G04 #@! TD*
G04 #@! TO.C,R13*
G36*
G01*
X89833000Y-89391500D02*
X89833000Y-88916500D01*
G75*
G02*
X90070500Y-88679000I237500J0D01*
G01*
X90570500Y-88679000D01*
G75*
G02*
X90808000Y-88916500I0J-237500D01*
G01*
X90808000Y-89391500D01*
G75*
G02*
X90570500Y-89629000I-237500J0D01*
G01*
X90070500Y-89629000D01*
G75*
G02*
X89833000Y-89391500I0J237500D01*
G01*
G37*
G36*
G01*
X88008000Y-89391500D02*
X88008000Y-88916500D01*
G75*
G02*
X88245500Y-88679000I237500J0D01*
G01*
X88745500Y-88679000D01*
G75*
G02*
X88983000Y-88916500I0J-237500D01*
G01*
X88983000Y-89391500D01*
G75*
G02*
X88745500Y-89629000I-237500J0D01*
G01*
X88245500Y-89629000D01*
G75*
G02*
X88008000Y-89391500I0J237500D01*
G01*
G37*
G04 #@! TD*
G04 #@! TO.C,R17*
G36*
G01*
X80247500Y-101730000D02*
X79772500Y-101730000D01*
G75*
G02*
X79535000Y-101492500I0J237500D01*
G01*
X79535000Y-100992500D01*
G75*
G02*
X79772500Y-100755000I237500J0D01*
G01*
X80247500Y-100755000D01*
G75*
G02*
X80485000Y-100992500I0J-237500D01*
G01*
X80485000Y-101492500D01*
G75*
G02*
X80247500Y-101730000I-237500J0D01*
G01*
G37*
G36*
G01*
X80247500Y-99905000D02*
X79772500Y-99905000D01*
G75*
G02*
X79535000Y-99667500I0J237500D01*
G01*
X79535000Y-99167500D01*
G75*
G02*
X79772500Y-98930000I237500J0D01*
G01*
X80247500Y-98930000D01*
G75*
G02*
X80485000Y-99167500I0J-237500D01*
G01*
X80485000Y-99667500D01*
G75*
G02*
X80247500Y-99905000I-237500J0D01*
G01*
G37*
G04 #@! TD*
G04 #@! TO.C,R19*
G36*
G01*
X80247500Y-108080000D02*
X79772500Y-108080000D01*
G75*
G02*
X79535000Y-107842500I0J237500D01*
G01*
X79535000Y-107342500D01*
G75*
G02*
X79772500Y-107105000I237500J0D01*
G01*
X80247500Y-107105000D01*
G75*
G02*
X80485000Y-107342500I0J-237500D01*
G01*
X80485000Y-107842500D01*
G75*
G02*
X80247500Y-108080000I-237500J0D01*
G01*
G37*
G36*
G01*
X80247500Y-106255000D02*
X79772500Y-106255000D01*
G75*
G02*
X79535000Y-106017500I0J237500D01*
G01*
X79535000Y-105517500D01*
G75*
G02*
X79772500Y-105280000I237500J0D01*
G01*
X80247500Y-105280000D01*
G75*
G02*
X80485000Y-105517500I0J-237500D01*
G01*
X80485000Y-106017500D01*
G75*
G02*
X80247500Y-106255000I-237500J0D01*
G01*
G37*
G04 #@! TD*
G04 #@! TO.C,R20*
G36*
G01*
X89833000Y-101583500D02*
X89833000Y-101108500D01*
G75*
G02*
X90070500Y-100871000I237500J0D01*
G01*
X90570500Y-100871000D01*
G75*
G02*
X90808000Y-101108500I0J-237500D01*
G01*
X90808000Y-101583500D01*
G75*
G02*
X90570500Y-101821000I-237500J0D01*
G01*
X90070500Y-101821000D01*
G75*
G02*
X89833000Y-101583500I0J237500D01*
G01*
G37*
G36*
G01*
X88008000Y-101583500D02*
X88008000Y-101108500D01*
G75*
G02*
X88245500Y-100871000I237500J0D01*
G01*
X88745500Y-100871000D01*
G75*
G02*
X88983000Y-101108500I0J-237500D01*
G01*
X88983000Y-101583500D01*
G75*
G02*
X88745500Y-101821000I-237500J0D01*
G01*
X88245500Y-101821000D01*
G75*
G02*
X88008000Y-101583500I0J237500D01*
G01*
G37*
G04 #@! TD*
G04 #@! TO.C,R22*
G36*
G01*
X89833000Y-108187500D02*
X89833000Y-107712500D01*
G75*
G02*
X90070500Y-107475000I237500J0D01*
G01*
X90570500Y-107475000D01*
G75*
G02*
X90808000Y-107712500I0J-237500D01*
G01*
X90808000Y-108187500D01*
G75*
G02*
X90570500Y-108425000I-237500J0D01*
G01*
X90070500Y-108425000D01*
G75*
G02*
X89833000Y-108187500I0J237500D01*
G01*
G37*
G36*
G01*
X88008000Y-108187500D02*
X88008000Y-107712500D01*
G75*
G02*
X88245500Y-107475000I237500J0D01*
G01*
X88745500Y-107475000D01*
G75*
G02*
X88983000Y-107712500I0J-237500D01*
G01*
X88983000Y-108187500D01*
G75*
G02*
X88745500Y-108425000I-237500J0D01*
G01*
X88245500Y-108425000D01*
G75*
G02*
X88008000Y-108187500I0J237500D01*
G01*
G37*
G04 #@! TD*
M02*
