G04 #@! TF.GenerationSoftware,KiCad,Pcbnew,5.1.10-88a1d61d58~88~ubuntu18.04.1*
G04 #@! TF.CreationDate,2021-10-23T19:38:23+09:00*
G04 #@! TF.ProjectId,CameraJigSTM32F446RE_Head,43616d65-7261-44a6-9967-53544d333246,rev?*
G04 #@! TF.SameCoordinates,Original*
G04 #@! TF.FileFunction,Legend,Top*
G04 #@! TF.FilePolarity,Positive*
%FSLAX46Y46*%
G04 Gerber Fmt 4.6, Leading zero omitted, Abs format (unit mm)*
G04 Created by KiCad (PCBNEW 5.1.10-88a1d61d58~88~ubuntu18.04.1) date 2021-10-23 19:38:23*
%MOMM*%
%LPD*%
G01*
G04 APERTURE LIST*
%ADD10C,0.150000*%
%ADD11C,0.120000*%
G04 APERTURE END LIST*
D10*
X81910476Y-96308571D02*
X82053333Y-96356190D01*
X82100952Y-96403809D01*
X82148571Y-96499047D01*
X82148571Y-96641904D01*
X82100952Y-96737142D01*
X82053333Y-96784761D01*
X81958095Y-96832380D01*
X81577142Y-96832380D01*
X81577142Y-95832380D01*
X81910476Y-95832380D01*
X82005714Y-95880000D01*
X82053333Y-95927619D01*
X82100952Y-96022857D01*
X82100952Y-96118095D01*
X82053333Y-96213333D01*
X82005714Y-96260952D01*
X81910476Y-96308571D01*
X81577142Y-96308571D01*
X82529523Y-96784761D02*
X82672380Y-96832380D01*
X82910476Y-96832380D01*
X83005714Y-96784761D01*
X83053333Y-96737142D01*
X83100952Y-96641904D01*
X83100952Y-96546666D01*
X83053333Y-96451428D01*
X83005714Y-96403809D01*
X82910476Y-96356190D01*
X82720000Y-96308571D01*
X82624761Y-96260952D01*
X82577142Y-96213333D01*
X82529523Y-96118095D01*
X82529523Y-96022857D01*
X82577142Y-95927619D01*
X82624761Y-95880000D01*
X82720000Y-95832380D01*
X82958095Y-95832380D01*
X83100952Y-95880000D01*
X83481904Y-96784761D02*
X83624761Y-96832380D01*
X83862857Y-96832380D01*
X83958095Y-96784761D01*
X84005714Y-96737142D01*
X84053333Y-96641904D01*
X84053333Y-96546666D01*
X84005714Y-96451428D01*
X83958095Y-96403809D01*
X83862857Y-96356190D01*
X83672380Y-96308571D01*
X83577142Y-96260952D01*
X83529523Y-96213333D01*
X83481904Y-96118095D01*
X83481904Y-96022857D01*
X83529523Y-95927619D01*
X83577142Y-95880000D01*
X83672380Y-95832380D01*
X83910476Y-95832380D01*
X84053333Y-95880000D01*
X85005714Y-96832380D02*
X84434285Y-96832380D01*
X84720000Y-96832380D02*
X84720000Y-95832380D01*
X84624761Y-95975238D01*
X84529523Y-96070476D01*
X84434285Y-96118095D01*
X85339047Y-95832380D02*
X85958095Y-95832380D01*
X85624761Y-96213333D01*
X85767619Y-96213333D01*
X85862857Y-96260952D01*
X85910476Y-96308571D01*
X85958095Y-96403809D01*
X85958095Y-96641904D01*
X85910476Y-96737142D01*
X85862857Y-96784761D01*
X85767619Y-96832380D01*
X85481904Y-96832380D01*
X85386666Y-96784761D01*
X85339047Y-96737142D01*
X86529523Y-96260952D02*
X86434285Y-96213333D01*
X86386666Y-96165714D01*
X86339047Y-96070476D01*
X86339047Y-96022857D01*
X86386666Y-95927619D01*
X86434285Y-95880000D01*
X86529523Y-95832380D01*
X86720000Y-95832380D01*
X86815238Y-95880000D01*
X86862857Y-95927619D01*
X86910476Y-96022857D01*
X86910476Y-96070476D01*
X86862857Y-96165714D01*
X86815238Y-96213333D01*
X86720000Y-96260952D01*
X86529523Y-96260952D01*
X86434285Y-96308571D01*
X86386666Y-96356190D01*
X86339047Y-96451428D01*
X86339047Y-96641904D01*
X86386666Y-96737142D01*
X86434285Y-96784761D01*
X86529523Y-96832380D01*
X86720000Y-96832380D01*
X86815238Y-96784761D01*
X86862857Y-96737142D01*
X86910476Y-96641904D01*
X86910476Y-96451428D01*
X86862857Y-96356190D01*
X86815238Y-96308571D01*
X86720000Y-96260952D01*
X81890476Y-90478571D02*
X82033333Y-90526190D01*
X82080952Y-90573809D01*
X82128571Y-90669047D01*
X82128571Y-90811904D01*
X82080952Y-90907142D01*
X82033333Y-90954761D01*
X81938095Y-91002380D01*
X81557142Y-91002380D01*
X81557142Y-90002380D01*
X81890476Y-90002380D01*
X81985714Y-90050000D01*
X82033333Y-90097619D01*
X82080952Y-90192857D01*
X82080952Y-90288095D01*
X82033333Y-90383333D01*
X81985714Y-90430952D01*
X81890476Y-90478571D01*
X81557142Y-90478571D01*
X82509523Y-90954761D02*
X82652380Y-91002380D01*
X82890476Y-91002380D01*
X82985714Y-90954761D01*
X83033333Y-90907142D01*
X83080952Y-90811904D01*
X83080952Y-90716666D01*
X83033333Y-90621428D01*
X82985714Y-90573809D01*
X82890476Y-90526190D01*
X82700000Y-90478571D01*
X82604761Y-90430952D01*
X82557142Y-90383333D01*
X82509523Y-90288095D01*
X82509523Y-90192857D01*
X82557142Y-90097619D01*
X82604761Y-90050000D01*
X82700000Y-90002380D01*
X82938095Y-90002380D01*
X83080952Y-90050000D01*
X83461904Y-90954761D02*
X83604761Y-91002380D01*
X83842857Y-91002380D01*
X83938095Y-90954761D01*
X83985714Y-90907142D01*
X84033333Y-90811904D01*
X84033333Y-90716666D01*
X83985714Y-90621428D01*
X83938095Y-90573809D01*
X83842857Y-90526190D01*
X83652380Y-90478571D01*
X83557142Y-90430952D01*
X83509523Y-90383333D01*
X83461904Y-90288095D01*
X83461904Y-90192857D01*
X83509523Y-90097619D01*
X83557142Y-90050000D01*
X83652380Y-90002380D01*
X83890476Y-90002380D01*
X84033333Y-90050000D01*
X84985714Y-91002380D02*
X84414285Y-91002380D01*
X84700000Y-91002380D02*
X84700000Y-90002380D01*
X84604761Y-90145238D01*
X84509523Y-90240476D01*
X84414285Y-90288095D01*
X85319047Y-90002380D02*
X85938095Y-90002380D01*
X85604761Y-90383333D01*
X85747619Y-90383333D01*
X85842857Y-90430952D01*
X85890476Y-90478571D01*
X85938095Y-90573809D01*
X85938095Y-90811904D01*
X85890476Y-90907142D01*
X85842857Y-90954761D01*
X85747619Y-91002380D01*
X85461904Y-91002380D01*
X85366666Y-90954761D01*
X85319047Y-90907142D01*
X86509523Y-90430952D02*
X86414285Y-90383333D01*
X86366666Y-90335714D01*
X86319047Y-90240476D01*
X86319047Y-90192857D01*
X86366666Y-90097619D01*
X86414285Y-90050000D01*
X86509523Y-90002380D01*
X86700000Y-90002380D01*
X86795238Y-90050000D01*
X86842857Y-90097619D01*
X86890476Y-90192857D01*
X86890476Y-90240476D01*
X86842857Y-90335714D01*
X86795238Y-90383333D01*
X86700000Y-90430952D01*
X86509523Y-90430952D01*
X86414285Y-90478571D01*
X86366666Y-90526190D01*
X86319047Y-90621428D01*
X86319047Y-90811904D01*
X86366666Y-90907142D01*
X86414285Y-90954761D01*
X86509523Y-91002380D01*
X86700000Y-91002380D01*
X86795238Y-90954761D01*
X86842857Y-90907142D01*
X86890476Y-90811904D01*
X86890476Y-90621428D01*
X86842857Y-90526190D01*
X86795238Y-90478571D01*
X86700000Y-90430952D01*
X81960476Y-85298571D02*
X82103333Y-85346190D01*
X82150952Y-85393809D01*
X82198571Y-85489047D01*
X82198571Y-85631904D01*
X82150952Y-85727142D01*
X82103333Y-85774761D01*
X82008095Y-85822380D01*
X81627142Y-85822380D01*
X81627142Y-84822380D01*
X81960476Y-84822380D01*
X82055714Y-84870000D01*
X82103333Y-84917619D01*
X82150952Y-85012857D01*
X82150952Y-85108095D01*
X82103333Y-85203333D01*
X82055714Y-85250952D01*
X81960476Y-85298571D01*
X81627142Y-85298571D01*
X82579523Y-85774761D02*
X82722380Y-85822380D01*
X82960476Y-85822380D01*
X83055714Y-85774761D01*
X83103333Y-85727142D01*
X83150952Y-85631904D01*
X83150952Y-85536666D01*
X83103333Y-85441428D01*
X83055714Y-85393809D01*
X82960476Y-85346190D01*
X82770000Y-85298571D01*
X82674761Y-85250952D01*
X82627142Y-85203333D01*
X82579523Y-85108095D01*
X82579523Y-85012857D01*
X82627142Y-84917619D01*
X82674761Y-84870000D01*
X82770000Y-84822380D01*
X83008095Y-84822380D01*
X83150952Y-84870000D01*
X83531904Y-85774761D02*
X83674761Y-85822380D01*
X83912857Y-85822380D01*
X84008095Y-85774761D01*
X84055714Y-85727142D01*
X84103333Y-85631904D01*
X84103333Y-85536666D01*
X84055714Y-85441428D01*
X84008095Y-85393809D01*
X83912857Y-85346190D01*
X83722380Y-85298571D01*
X83627142Y-85250952D01*
X83579523Y-85203333D01*
X83531904Y-85108095D01*
X83531904Y-85012857D01*
X83579523Y-84917619D01*
X83627142Y-84870000D01*
X83722380Y-84822380D01*
X83960476Y-84822380D01*
X84103333Y-84870000D01*
X85055714Y-85822380D02*
X84484285Y-85822380D01*
X84770000Y-85822380D02*
X84770000Y-84822380D01*
X84674761Y-84965238D01*
X84579523Y-85060476D01*
X84484285Y-85108095D01*
X85389047Y-84822380D02*
X86008095Y-84822380D01*
X85674761Y-85203333D01*
X85817619Y-85203333D01*
X85912857Y-85250952D01*
X85960476Y-85298571D01*
X86008095Y-85393809D01*
X86008095Y-85631904D01*
X85960476Y-85727142D01*
X85912857Y-85774761D01*
X85817619Y-85822380D01*
X85531904Y-85822380D01*
X85436666Y-85774761D01*
X85389047Y-85727142D01*
X86579523Y-85250952D02*
X86484285Y-85203333D01*
X86436666Y-85155714D01*
X86389047Y-85060476D01*
X86389047Y-85012857D01*
X86436666Y-84917619D01*
X86484285Y-84870000D01*
X86579523Y-84822380D01*
X86770000Y-84822380D01*
X86865238Y-84870000D01*
X86912857Y-84917619D01*
X86960476Y-85012857D01*
X86960476Y-85060476D01*
X86912857Y-85155714D01*
X86865238Y-85203333D01*
X86770000Y-85250952D01*
X86579523Y-85250952D01*
X86484285Y-85298571D01*
X86436666Y-85346190D01*
X86389047Y-85441428D01*
X86389047Y-85631904D01*
X86436666Y-85727142D01*
X86484285Y-85774761D01*
X86579523Y-85822380D01*
X86770000Y-85822380D01*
X86865238Y-85774761D01*
X86912857Y-85727142D01*
X86960476Y-85631904D01*
X86960476Y-85441428D01*
X86912857Y-85346190D01*
X86865238Y-85298571D01*
X86770000Y-85250952D01*
X81850476Y-79128571D02*
X81993333Y-79176190D01*
X82040952Y-79223809D01*
X82088571Y-79319047D01*
X82088571Y-79461904D01*
X82040952Y-79557142D01*
X81993333Y-79604761D01*
X81898095Y-79652380D01*
X81517142Y-79652380D01*
X81517142Y-78652380D01*
X81850476Y-78652380D01*
X81945714Y-78700000D01*
X81993333Y-78747619D01*
X82040952Y-78842857D01*
X82040952Y-78938095D01*
X81993333Y-79033333D01*
X81945714Y-79080952D01*
X81850476Y-79128571D01*
X81517142Y-79128571D01*
X82469523Y-79604761D02*
X82612380Y-79652380D01*
X82850476Y-79652380D01*
X82945714Y-79604761D01*
X82993333Y-79557142D01*
X83040952Y-79461904D01*
X83040952Y-79366666D01*
X82993333Y-79271428D01*
X82945714Y-79223809D01*
X82850476Y-79176190D01*
X82660000Y-79128571D01*
X82564761Y-79080952D01*
X82517142Y-79033333D01*
X82469523Y-78938095D01*
X82469523Y-78842857D01*
X82517142Y-78747619D01*
X82564761Y-78700000D01*
X82660000Y-78652380D01*
X82898095Y-78652380D01*
X83040952Y-78700000D01*
X83421904Y-79604761D02*
X83564761Y-79652380D01*
X83802857Y-79652380D01*
X83898095Y-79604761D01*
X83945714Y-79557142D01*
X83993333Y-79461904D01*
X83993333Y-79366666D01*
X83945714Y-79271428D01*
X83898095Y-79223809D01*
X83802857Y-79176190D01*
X83612380Y-79128571D01*
X83517142Y-79080952D01*
X83469523Y-79033333D01*
X83421904Y-78938095D01*
X83421904Y-78842857D01*
X83469523Y-78747619D01*
X83517142Y-78700000D01*
X83612380Y-78652380D01*
X83850476Y-78652380D01*
X83993333Y-78700000D01*
X84945714Y-79652380D02*
X84374285Y-79652380D01*
X84660000Y-79652380D02*
X84660000Y-78652380D01*
X84564761Y-78795238D01*
X84469523Y-78890476D01*
X84374285Y-78938095D01*
X85279047Y-78652380D02*
X85898095Y-78652380D01*
X85564761Y-79033333D01*
X85707619Y-79033333D01*
X85802857Y-79080952D01*
X85850476Y-79128571D01*
X85898095Y-79223809D01*
X85898095Y-79461904D01*
X85850476Y-79557142D01*
X85802857Y-79604761D01*
X85707619Y-79652380D01*
X85421904Y-79652380D01*
X85326666Y-79604761D01*
X85279047Y-79557142D01*
X86469523Y-79080952D02*
X86374285Y-79033333D01*
X86326666Y-78985714D01*
X86279047Y-78890476D01*
X86279047Y-78842857D01*
X86326666Y-78747619D01*
X86374285Y-78700000D01*
X86469523Y-78652380D01*
X86660000Y-78652380D01*
X86755238Y-78700000D01*
X86802857Y-78747619D01*
X86850476Y-78842857D01*
X86850476Y-78890476D01*
X86802857Y-78985714D01*
X86755238Y-79033333D01*
X86660000Y-79080952D01*
X86469523Y-79080952D01*
X86374285Y-79128571D01*
X86326666Y-79176190D01*
X86279047Y-79271428D01*
X86279047Y-79461904D01*
X86326666Y-79557142D01*
X86374285Y-79604761D01*
X86469523Y-79652380D01*
X86660000Y-79652380D01*
X86755238Y-79604761D01*
X86802857Y-79557142D01*
X86850476Y-79461904D01*
X86850476Y-79271428D01*
X86802857Y-79176190D01*
X86755238Y-79128571D01*
X86660000Y-79080952D01*
X81890476Y-72568571D02*
X82033333Y-72616190D01*
X82080952Y-72663809D01*
X82128571Y-72759047D01*
X82128571Y-72901904D01*
X82080952Y-72997142D01*
X82033333Y-73044761D01*
X81938095Y-73092380D01*
X81557142Y-73092380D01*
X81557142Y-72092380D01*
X81890476Y-72092380D01*
X81985714Y-72140000D01*
X82033333Y-72187619D01*
X82080952Y-72282857D01*
X82080952Y-72378095D01*
X82033333Y-72473333D01*
X81985714Y-72520952D01*
X81890476Y-72568571D01*
X81557142Y-72568571D01*
X82509523Y-73044761D02*
X82652380Y-73092380D01*
X82890476Y-73092380D01*
X82985714Y-73044761D01*
X83033333Y-72997142D01*
X83080952Y-72901904D01*
X83080952Y-72806666D01*
X83033333Y-72711428D01*
X82985714Y-72663809D01*
X82890476Y-72616190D01*
X82700000Y-72568571D01*
X82604761Y-72520952D01*
X82557142Y-72473333D01*
X82509523Y-72378095D01*
X82509523Y-72282857D01*
X82557142Y-72187619D01*
X82604761Y-72140000D01*
X82700000Y-72092380D01*
X82938095Y-72092380D01*
X83080952Y-72140000D01*
X83461904Y-73044761D02*
X83604761Y-73092380D01*
X83842857Y-73092380D01*
X83938095Y-73044761D01*
X83985714Y-72997142D01*
X84033333Y-72901904D01*
X84033333Y-72806666D01*
X83985714Y-72711428D01*
X83938095Y-72663809D01*
X83842857Y-72616190D01*
X83652380Y-72568571D01*
X83557142Y-72520952D01*
X83509523Y-72473333D01*
X83461904Y-72378095D01*
X83461904Y-72282857D01*
X83509523Y-72187619D01*
X83557142Y-72140000D01*
X83652380Y-72092380D01*
X83890476Y-72092380D01*
X84033333Y-72140000D01*
X84985714Y-73092380D02*
X84414285Y-73092380D01*
X84700000Y-73092380D02*
X84700000Y-72092380D01*
X84604761Y-72235238D01*
X84509523Y-72330476D01*
X84414285Y-72378095D01*
X85319047Y-72092380D02*
X85938095Y-72092380D01*
X85604761Y-72473333D01*
X85747619Y-72473333D01*
X85842857Y-72520952D01*
X85890476Y-72568571D01*
X85938095Y-72663809D01*
X85938095Y-72901904D01*
X85890476Y-72997142D01*
X85842857Y-73044761D01*
X85747619Y-73092380D01*
X85461904Y-73092380D01*
X85366666Y-73044761D01*
X85319047Y-72997142D01*
X86509523Y-72520952D02*
X86414285Y-72473333D01*
X86366666Y-72425714D01*
X86319047Y-72330476D01*
X86319047Y-72282857D01*
X86366666Y-72187619D01*
X86414285Y-72140000D01*
X86509523Y-72092380D01*
X86700000Y-72092380D01*
X86795238Y-72140000D01*
X86842857Y-72187619D01*
X86890476Y-72282857D01*
X86890476Y-72330476D01*
X86842857Y-72425714D01*
X86795238Y-72473333D01*
X86700000Y-72520952D01*
X86509523Y-72520952D01*
X86414285Y-72568571D01*
X86366666Y-72616190D01*
X86319047Y-72711428D01*
X86319047Y-72901904D01*
X86366666Y-72997142D01*
X86414285Y-73044761D01*
X86509523Y-73092380D01*
X86700000Y-73092380D01*
X86795238Y-73044761D01*
X86842857Y-72997142D01*
X86890476Y-72901904D01*
X86890476Y-72711428D01*
X86842857Y-72616190D01*
X86795238Y-72568571D01*
X86700000Y-72520952D01*
X89084761Y-97472380D02*
X88513333Y-97472380D01*
X88799047Y-97472380D02*
X88799047Y-96472380D01*
X88703809Y-96615238D01*
X88608571Y-96710476D01*
X88513333Y-96758095D01*
X89703809Y-96472380D02*
X89799047Y-96472380D01*
X89894285Y-96520000D01*
X89941904Y-96567619D01*
X89989523Y-96662857D01*
X90037142Y-96853333D01*
X90037142Y-97091428D01*
X89989523Y-97281904D01*
X89941904Y-97377142D01*
X89894285Y-97424761D01*
X89799047Y-97472380D01*
X89703809Y-97472380D01*
X89608571Y-97424761D01*
X89560952Y-97377142D01*
X89513333Y-97281904D01*
X89465714Y-97091428D01*
X89465714Y-96853333D01*
X89513333Y-96662857D01*
X89560952Y-96567619D01*
X89608571Y-96520000D01*
X89703809Y-96472380D01*
X90465714Y-97472380D02*
X90465714Y-96472380D01*
X90560952Y-97091428D02*
X90846666Y-97472380D01*
X90846666Y-96805714D02*
X90465714Y-97186666D01*
X89184761Y-91112380D02*
X88613333Y-91112380D01*
X88899047Y-91112380D02*
X88899047Y-90112380D01*
X88803809Y-90255238D01*
X88708571Y-90350476D01*
X88613333Y-90398095D01*
X89803809Y-90112380D02*
X89899047Y-90112380D01*
X89994285Y-90160000D01*
X90041904Y-90207619D01*
X90089523Y-90302857D01*
X90137142Y-90493333D01*
X90137142Y-90731428D01*
X90089523Y-90921904D01*
X90041904Y-91017142D01*
X89994285Y-91064761D01*
X89899047Y-91112380D01*
X89803809Y-91112380D01*
X89708571Y-91064761D01*
X89660952Y-91017142D01*
X89613333Y-90921904D01*
X89565714Y-90731428D01*
X89565714Y-90493333D01*
X89613333Y-90302857D01*
X89660952Y-90207619D01*
X89708571Y-90160000D01*
X89803809Y-90112380D01*
X90565714Y-91112380D02*
X90565714Y-90112380D01*
X90660952Y-90731428D02*
X90946666Y-91112380D01*
X90946666Y-90445714D02*
X90565714Y-90826666D01*
X89134761Y-85852380D02*
X88563333Y-85852380D01*
X88849047Y-85852380D02*
X88849047Y-84852380D01*
X88753809Y-84995238D01*
X88658571Y-85090476D01*
X88563333Y-85138095D01*
X89753809Y-84852380D02*
X89849047Y-84852380D01*
X89944285Y-84900000D01*
X89991904Y-84947619D01*
X90039523Y-85042857D01*
X90087142Y-85233333D01*
X90087142Y-85471428D01*
X90039523Y-85661904D01*
X89991904Y-85757142D01*
X89944285Y-85804761D01*
X89849047Y-85852380D01*
X89753809Y-85852380D01*
X89658571Y-85804761D01*
X89610952Y-85757142D01*
X89563333Y-85661904D01*
X89515714Y-85471428D01*
X89515714Y-85233333D01*
X89563333Y-85042857D01*
X89610952Y-84947619D01*
X89658571Y-84900000D01*
X89753809Y-84852380D01*
X90515714Y-85852380D02*
X90515714Y-84852380D01*
X90610952Y-85471428D02*
X90896666Y-85852380D01*
X90896666Y-85185714D02*
X90515714Y-85566666D01*
X89224761Y-79672380D02*
X88653333Y-79672380D01*
X88939047Y-79672380D02*
X88939047Y-78672380D01*
X88843809Y-78815238D01*
X88748571Y-78910476D01*
X88653333Y-78958095D01*
X89843809Y-78672380D02*
X89939047Y-78672380D01*
X90034285Y-78720000D01*
X90081904Y-78767619D01*
X90129523Y-78862857D01*
X90177142Y-79053333D01*
X90177142Y-79291428D01*
X90129523Y-79481904D01*
X90081904Y-79577142D01*
X90034285Y-79624761D01*
X89939047Y-79672380D01*
X89843809Y-79672380D01*
X89748571Y-79624761D01*
X89700952Y-79577142D01*
X89653333Y-79481904D01*
X89605714Y-79291428D01*
X89605714Y-79053333D01*
X89653333Y-78862857D01*
X89700952Y-78767619D01*
X89748571Y-78720000D01*
X89843809Y-78672380D01*
X90605714Y-79672380D02*
X90605714Y-78672380D01*
X90700952Y-79291428D02*
X90986666Y-79672380D01*
X90986666Y-79005714D02*
X90605714Y-79386666D01*
X89454761Y-72952380D02*
X88883333Y-72952380D01*
X89169047Y-72952380D02*
X89169047Y-71952380D01*
X89073809Y-72095238D01*
X88978571Y-72190476D01*
X88883333Y-72238095D01*
X90073809Y-71952380D02*
X90169047Y-71952380D01*
X90264285Y-72000000D01*
X90311904Y-72047619D01*
X90359523Y-72142857D01*
X90407142Y-72333333D01*
X90407142Y-72571428D01*
X90359523Y-72761904D01*
X90311904Y-72857142D01*
X90264285Y-72904761D01*
X90169047Y-72952380D01*
X90073809Y-72952380D01*
X89978571Y-72904761D01*
X89930952Y-72857142D01*
X89883333Y-72761904D01*
X89835714Y-72571428D01*
X89835714Y-72333333D01*
X89883333Y-72142857D01*
X89930952Y-72047619D01*
X89978571Y-72000000D01*
X90073809Y-71952380D01*
X90835714Y-72952380D02*
X90835714Y-71952380D01*
X90930952Y-72571428D02*
X91216666Y-72952380D01*
X91216666Y-72285714D02*
X90835714Y-72666666D01*
X77884761Y-97482380D02*
X77313333Y-97482380D01*
X77599047Y-97482380D02*
X77599047Y-96482380D01*
X77503809Y-96625238D01*
X77408571Y-96720476D01*
X77313333Y-96768095D01*
X78503809Y-96482380D02*
X78599047Y-96482380D01*
X78694285Y-96530000D01*
X78741904Y-96577619D01*
X78789523Y-96672857D01*
X78837142Y-96863333D01*
X78837142Y-97101428D01*
X78789523Y-97291904D01*
X78741904Y-97387142D01*
X78694285Y-97434761D01*
X78599047Y-97482380D01*
X78503809Y-97482380D01*
X78408571Y-97434761D01*
X78360952Y-97387142D01*
X78313333Y-97291904D01*
X78265714Y-97101428D01*
X78265714Y-96863333D01*
X78313333Y-96672857D01*
X78360952Y-96577619D01*
X78408571Y-96530000D01*
X78503809Y-96482380D01*
X79265714Y-97482380D02*
X79265714Y-96482380D01*
X79360952Y-97101428D02*
X79646666Y-97482380D01*
X79646666Y-96815714D02*
X79265714Y-97196666D01*
X78014761Y-91082380D02*
X77443333Y-91082380D01*
X77729047Y-91082380D02*
X77729047Y-90082380D01*
X77633809Y-90225238D01*
X77538571Y-90320476D01*
X77443333Y-90368095D01*
X78633809Y-90082380D02*
X78729047Y-90082380D01*
X78824285Y-90130000D01*
X78871904Y-90177619D01*
X78919523Y-90272857D01*
X78967142Y-90463333D01*
X78967142Y-90701428D01*
X78919523Y-90891904D01*
X78871904Y-90987142D01*
X78824285Y-91034761D01*
X78729047Y-91082380D01*
X78633809Y-91082380D01*
X78538571Y-91034761D01*
X78490952Y-90987142D01*
X78443333Y-90891904D01*
X78395714Y-90701428D01*
X78395714Y-90463333D01*
X78443333Y-90272857D01*
X78490952Y-90177619D01*
X78538571Y-90130000D01*
X78633809Y-90082380D01*
X79395714Y-91082380D02*
X79395714Y-90082380D01*
X79490952Y-90701428D02*
X79776666Y-91082380D01*
X79776666Y-90415714D02*
X79395714Y-90796666D01*
X78084761Y-85882380D02*
X77513333Y-85882380D01*
X77799047Y-85882380D02*
X77799047Y-84882380D01*
X77703809Y-85025238D01*
X77608571Y-85120476D01*
X77513333Y-85168095D01*
X78703809Y-84882380D02*
X78799047Y-84882380D01*
X78894285Y-84930000D01*
X78941904Y-84977619D01*
X78989523Y-85072857D01*
X79037142Y-85263333D01*
X79037142Y-85501428D01*
X78989523Y-85691904D01*
X78941904Y-85787142D01*
X78894285Y-85834761D01*
X78799047Y-85882380D01*
X78703809Y-85882380D01*
X78608571Y-85834761D01*
X78560952Y-85787142D01*
X78513333Y-85691904D01*
X78465714Y-85501428D01*
X78465714Y-85263333D01*
X78513333Y-85072857D01*
X78560952Y-84977619D01*
X78608571Y-84930000D01*
X78703809Y-84882380D01*
X79465714Y-85882380D02*
X79465714Y-84882380D01*
X79560952Y-85501428D02*
X79846666Y-85882380D01*
X79846666Y-85215714D02*
X79465714Y-85596666D01*
X78274761Y-79752380D02*
X77703333Y-79752380D01*
X77989047Y-79752380D02*
X77989047Y-78752380D01*
X77893809Y-78895238D01*
X77798571Y-78990476D01*
X77703333Y-79038095D01*
X78893809Y-78752380D02*
X78989047Y-78752380D01*
X79084285Y-78800000D01*
X79131904Y-78847619D01*
X79179523Y-78942857D01*
X79227142Y-79133333D01*
X79227142Y-79371428D01*
X79179523Y-79561904D01*
X79131904Y-79657142D01*
X79084285Y-79704761D01*
X78989047Y-79752380D01*
X78893809Y-79752380D01*
X78798571Y-79704761D01*
X78750952Y-79657142D01*
X78703333Y-79561904D01*
X78655714Y-79371428D01*
X78655714Y-79133333D01*
X78703333Y-78942857D01*
X78750952Y-78847619D01*
X78798571Y-78800000D01*
X78893809Y-78752380D01*
X79655714Y-79752380D02*
X79655714Y-78752380D01*
X79750952Y-79371428D02*
X80036666Y-79752380D01*
X80036666Y-79085714D02*
X79655714Y-79466666D01*
X78344761Y-72902380D02*
X77773333Y-72902380D01*
X78059047Y-72902380D02*
X78059047Y-71902380D01*
X77963809Y-72045238D01*
X77868571Y-72140476D01*
X77773333Y-72188095D01*
X78963809Y-71902380D02*
X79059047Y-71902380D01*
X79154285Y-71950000D01*
X79201904Y-71997619D01*
X79249523Y-72092857D01*
X79297142Y-72283333D01*
X79297142Y-72521428D01*
X79249523Y-72711904D01*
X79201904Y-72807142D01*
X79154285Y-72854761D01*
X79059047Y-72902380D01*
X78963809Y-72902380D01*
X78868571Y-72854761D01*
X78820952Y-72807142D01*
X78773333Y-72711904D01*
X78725714Y-72521428D01*
X78725714Y-72283333D01*
X78773333Y-72092857D01*
X78820952Y-71997619D01*
X78868571Y-71950000D01*
X78963809Y-71902380D01*
X79725714Y-72902380D02*
X79725714Y-71902380D01*
X79820952Y-72521428D02*
X80106666Y-72902380D01*
X80106666Y-72235714D02*
X79725714Y-72616666D01*
X130887142Y-63677380D02*
X131458571Y-63677380D01*
X131172857Y-64677380D02*
X131172857Y-63677380D01*
X131791904Y-64677380D02*
X131791904Y-63677380D01*
X132220476Y-64677380D02*
X132220476Y-64153571D01*
X132172857Y-64058333D01*
X132077619Y-64010714D01*
X131934761Y-64010714D01*
X131839523Y-64058333D01*
X131791904Y-64105952D01*
X133077619Y-64629761D02*
X132982380Y-64677380D01*
X132791904Y-64677380D01*
X132696666Y-64629761D01*
X132649047Y-64534523D01*
X132649047Y-64153571D01*
X132696666Y-64058333D01*
X132791904Y-64010714D01*
X132982380Y-64010714D01*
X133077619Y-64058333D01*
X133125238Y-64153571D01*
X133125238Y-64248809D01*
X132649047Y-64344047D01*
X133553809Y-64677380D02*
X133553809Y-64010714D01*
X133553809Y-64201190D02*
X133601428Y-64105952D01*
X133649047Y-64058333D01*
X133744285Y-64010714D01*
X133839523Y-64010714D01*
X134172857Y-64677380D02*
X134172857Y-64010714D01*
X134172857Y-64105952D02*
X134220476Y-64058333D01*
X134315714Y-64010714D01*
X134458571Y-64010714D01*
X134553809Y-64058333D01*
X134601428Y-64153571D01*
X134601428Y-64677380D01*
X134601428Y-64153571D02*
X134649047Y-64058333D01*
X134744285Y-64010714D01*
X134887142Y-64010714D01*
X134982380Y-64058333D01*
X135030000Y-64153571D01*
X135030000Y-64677380D01*
X135934761Y-64677380D02*
X135934761Y-64153571D01*
X135887142Y-64058333D01*
X135791904Y-64010714D01*
X135601428Y-64010714D01*
X135506190Y-64058333D01*
X135934761Y-64629761D02*
X135839523Y-64677380D01*
X135601428Y-64677380D01*
X135506190Y-64629761D01*
X135458571Y-64534523D01*
X135458571Y-64439285D01*
X135506190Y-64344047D01*
X135601428Y-64296428D01*
X135839523Y-64296428D01*
X135934761Y-64248809D01*
X136553809Y-64677380D02*
X136458571Y-64629761D01*
X136410952Y-64534523D01*
X136410952Y-63677380D01*
X137696666Y-64677380D02*
X137696666Y-63677380D01*
X137696666Y-64153571D02*
X138268095Y-64153571D01*
X138268095Y-64677380D02*
X138268095Y-63677380D01*
X139125238Y-64629761D02*
X139030000Y-64677380D01*
X138839523Y-64677380D01*
X138744285Y-64629761D01*
X138696666Y-64534523D01*
X138696666Y-64153571D01*
X138744285Y-64058333D01*
X138839523Y-64010714D01*
X139030000Y-64010714D01*
X139125238Y-64058333D01*
X139172857Y-64153571D01*
X139172857Y-64248809D01*
X138696666Y-64344047D01*
X140030000Y-64677380D02*
X140030000Y-64153571D01*
X139982380Y-64058333D01*
X139887142Y-64010714D01*
X139696666Y-64010714D01*
X139601428Y-64058333D01*
X140030000Y-64629761D02*
X139934761Y-64677380D01*
X139696666Y-64677380D01*
X139601428Y-64629761D01*
X139553809Y-64534523D01*
X139553809Y-64439285D01*
X139601428Y-64344047D01*
X139696666Y-64296428D01*
X139934761Y-64296428D01*
X140030000Y-64248809D01*
X140934761Y-64677380D02*
X140934761Y-63677380D01*
X140934761Y-64629761D02*
X140839523Y-64677380D01*
X140649047Y-64677380D01*
X140553809Y-64629761D01*
X140506190Y-64582142D01*
X140458571Y-64486904D01*
X140458571Y-64201190D01*
X140506190Y-64105952D01*
X140553809Y-64058333D01*
X140649047Y-64010714D01*
X140839523Y-64010714D01*
X140934761Y-64058333D01*
X142506190Y-64153571D02*
X142649047Y-64201190D01*
X142696666Y-64248809D01*
X142744285Y-64344047D01*
X142744285Y-64486904D01*
X142696666Y-64582142D01*
X142649047Y-64629761D01*
X142553809Y-64677380D01*
X142172857Y-64677380D01*
X142172857Y-63677380D01*
X142506190Y-63677380D01*
X142601428Y-63725000D01*
X142649047Y-63772619D01*
X142696666Y-63867857D01*
X142696666Y-63963095D01*
X142649047Y-64058333D01*
X142601428Y-64105952D01*
X142506190Y-64153571D01*
X142172857Y-64153571D01*
X143315714Y-64677380D02*
X143220476Y-64629761D01*
X143172857Y-64582142D01*
X143125238Y-64486904D01*
X143125238Y-64201190D01*
X143172857Y-64105952D01*
X143220476Y-64058333D01*
X143315714Y-64010714D01*
X143458571Y-64010714D01*
X143553809Y-64058333D01*
X143601428Y-64105952D01*
X143649047Y-64201190D01*
X143649047Y-64486904D01*
X143601428Y-64582142D01*
X143553809Y-64629761D01*
X143458571Y-64677380D01*
X143315714Y-64677380D01*
X144506190Y-64677380D02*
X144506190Y-64153571D01*
X144458571Y-64058333D01*
X144363333Y-64010714D01*
X144172857Y-64010714D01*
X144077619Y-64058333D01*
X144506190Y-64629761D02*
X144410952Y-64677380D01*
X144172857Y-64677380D01*
X144077619Y-64629761D01*
X144030000Y-64534523D01*
X144030000Y-64439285D01*
X144077619Y-64344047D01*
X144172857Y-64296428D01*
X144410952Y-64296428D01*
X144506190Y-64248809D01*
X144982380Y-64677380D02*
X144982380Y-64010714D01*
X144982380Y-64201190D02*
X145030000Y-64105952D01*
X145077619Y-64058333D01*
X145172857Y-64010714D01*
X145268095Y-64010714D01*
X146030000Y-64677380D02*
X146030000Y-63677380D01*
X146030000Y-64629761D02*
X145934761Y-64677380D01*
X145744285Y-64677380D01*
X145649047Y-64629761D01*
X145601428Y-64582142D01*
X145553809Y-64486904D01*
X145553809Y-64201190D01*
X145601428Y-64105952D01*
X145649047Y-64058333D01*
X145744285Y-64010714D01*
X145934761Y-64010714D01*
X146030000Y-64058333D01*
X132910952Y-65327380D02*
X133244285Y-66327380D01*
X133577619Y-65327380D01*
X134291904Y-66279761D02*
X134196666Y-66327380D01*
X134006190Y-66327380D01*
X133910952Y-66279761D01*
X133863333Y-66184523D01*
X133863333Y-65803571D01*
X133910952Y-65708333D01*
X134006190Y-65660714D01*
X134196666Y-65660714D01*
X134291904Y-65708333D01*
X134339523Y-65803571D01*
X134339523Y-65898809D01*
X133863333Y-65994047D01*
X134768095Y-66327380D02*
X134768095Y-65660714D01*
X134768095Y-65851190D02*
X134815714Y-65755952D01*
X134863333Y-65708333D01*
X134958571Y-65660714D01*
X135053809Y-65660714D01*
X135387142Y-66232142D02*
X135434761Y-66279761D01*
X135387142Y-66327380D01*
X135339523Y-66279761D01*
X135387142Y-66232142D01*
X135387142Y-66327380D01*
X136387142Y-66327380D02*
X135815714Y-66327380D01*
X136101428Y-66327380D02*
X136101428Y-65327380D01*
X136006190Y-65470238D01*
X135910952Y-65565476D01*
X135815714Y-65613095D01*
X136815714Y-66232142D02*
X136863333Y-66279761D01*
X136815714Y-66327380D01*
X136768095Y-66279761D01*
X136815714Y-66232142D01*
X136815714Y-66327380D01*
X137482380Y-65327380D02*
X137577619Y-65327380D01*
X137672857Y-65375000D01*
X137720476Y-65422619D01*
X137768095Y-65517857D01*
X137815714Y-65708333D01*
X137815714Y-65946428D01*
X137768095Y-66136904D01*
X137720476Y-66232142D01*
X137672857Y-66279761D01*
X137577619Y-66327380D01*
X137482380Y-66327380D01*
X137387142Y-66279761D01*
X137339523Y-66232142D01*
X137291904Y-66136904D01*
X137244285Y-65946428D01*
X137244285Y-65708333D01*
X137291904Y-65517857D01*
X137339523Y-65422619D01*
X137387142Y-65375000D01*
X137482380Y-65327380D01*
X139577619Y-66327380D02*
X139244285Y-65851190D01*
X139006190Y-66327380D02*
X139006190Y-65327380D01*
X139387142Y-65327380D01*
X139482380Y-65375000D01*
X139530000Y-65422619D01*
X139577619Y-65517857D01*
X139577619Y-65660714D01*
X139530000Y-65755952D01*
X139482380Y-65803571D01*
X139387142Y-65851190D01*
X139006190Y-65851190D01*
X140387142Y-66279761D02*
X140291904Y-66327380D01*
X140101428Y-66327380D01*
X140006190Y-66279761D01*
X139958571Y-66184523D01*
X139958571Y-65803571D01*
X140006190Y-65708333D01*
X140101428Y-65660714D01*
X140291904Y-65660714D01*
X140387142Y-65708333D01*
X140434761Y-65803571D01*
X140434761Y-65898809D01*
X139958571Y-65994047D01*
X140768095Y-65660714D02*
X141006190Y-66327380D01*
X141244285Y-65660714D01*
X141625238Y-66232142D02*
X141672857Y-66279761D01*
X141625238Y-66327380D01*
X141577619Y-66279761D01*
X141625238Y-66232142D01*
X141625238Y-66327380D01*
X142291904Y-65327380D02*
X142387142Y-65327380D01*
X142482380Y-65375000D01*
X142530000Y-65422619D01*
X142577619Y-65517857D01*
X142625238Y-65708333D01*
X142625238Y-65946428D01*
X142577619Y-66136904D01*
X142530000Y-66232142D01*
X142482380Y-66279761D01*
X142387142Y-66327380D01*
X142291904Y-66327380D01*
X142196666Y-66279761D01*
X142149047Y-66232142D01*
X142101428Y-66136904D01*
X142053809Y-65946428D01*
X142053809Y-65708333D01*
X142101428Y-65517857D01*
X142149047Y-65422619D01*
X142196666Y-65375000D01*
X142291904Y-65327380D01*
X143053809Y-66232142D02*
X143101428Y-66279761D01*
X143053809Y-66327380D01*
X143006190Y-66279761D01*
X143053809Y-66232142D01*
X143053809Y-66327380D01*
X143720476Y-65327380D02*
X143815714Y-65327380D01*
X143910952Y-65375000D01*
X143958571Y-65422619D01*
X144006190Y-65517857D01*
X144053809Y-65708333D01*
X144053809Y-65946428D01*
X144006190Y-66136904D01*
X143958571Y-66232142D01*
X143910952Y-66279761D01*
X143815714Y-66327380D01*
X143720476Y-66327380D01*
X143625238Y-66279761D01*
X143577619Y-66232142D01*
X143530000Y-66136904D01*
X143482380Y-65946428D01*
X143482380Y-65708333D01*
X143530000Y-65517857D01*
X143577619Y-65422619D01*
X143625238Y-65375000D01*
X143720476Y-65327380D01*
X126442380Y-66165238D02*
X126442380Y-66736666D01*
X126442380Y-66450952D02*
X125442380Y-66450952D01*
X125585238Y-66546190D01*
X125680476Y-66641428D01*
X125728095Y-66736666D01*
X125775714Y-65308095D02*
X126442380Y-65308095D01*
X125775714Y-65736666D02*
X126299523Y-65736666D01*
X126394761Y-65689047D01*
X126442380Y-65593809D01*
X126442380Y-65450952D01*
X126394761Y-65355714D01*
X126347142Y-65308095D01*
X125918571Y-64498571D02*
X125918571Y-64831904D01*
X126442380Y-64831904D02*
X125442380Y-64831904D01*
X125442380Y-64355714D01*
X126632380Y-71205238D02*
X126632380Y-71776666D01*
X126632380Y-71490952D02*
X125632380Y-71490952D01*
X125775238Y-71586190D01*
X125870476Y-71681428D01*
X125918095Y-71776666D01*
X125965714Y-70348095D02*
X126632380Y-70348095D01*
X125965714Y-70776666D02*
X126489523Y-70776666D01*
X126584761Y-70729047D01*
X126632380Y-70633809D01*
X126632380Y-70490952D01*
X126584761Y-70395714D01*
X126537142Y-70348095D01*
X126108571Y-69538571D02*
X126108571Y-69871904D01*
X126632380Y-69871904D02*
X125632380Y-69871904D01*
X125632380Y-69395714D01*
X123614761Y-79352380D02*
X123614761Y-78352380D01*
X123852857Y-78352380D01*
X123995714Y-78400000D01*
X124090952Y-78495238D01*
X124138571Y-78590476D01*
X124186190Y-78780952D01*
X124186190Y-78923809D01*
X124138571Y-79114285D01*
X124090952Y-79209523D01*
X123995714Y-79304761D01*
X123852857Y-79352380D01*
X123614761Y-79352380D01*
X125186190Y-79352380D02*
X124852857Y-78876190D01*
X124614761Y-79352380D02*
X124614761Y-78352380D01*
X124995714Y-78352380D01*
X125090952Y-78400000D01*
X125138571Y-78447619D01*
X125186190Y-78542857D01*
X125186190Y-78685714D01*
X125138571Y-78780952D01*
X125090952Y-78828571D01*
X124995714Y-78876190D01*
X124614761Y-78876190D01*
X125471904Y-78352380D02*
X125805238Y-79352380D01*
X126138571Y-78352380D01*
X126614761Y-78780952D02*
X126519523Y-78733333D01*
X126471904Y-78685714D01*
X126424285Y-78590476D01*
X126424285Y-78542857D01*
X126471904Y-78447619D01*
X126519523Y-78400000D01*
X126614761Y-78352380D01*
X126805238Y-78352380D01*
X126900476Y-78400000D01*
X126948095Y-78447619D01*
X126995714Y-78542857D01*
X126995714Y-78590476D01*
X126948095Y-78685714D01*
X126900476Y-78733333D01*
X126805238Y-78780952D01*
X126614761Y-78780952D01*
X126519523Y-78828571D01*
X126471904Y-78876190D01*
X126424285Y-78971428D01*
X126424285Y-79161904D01*
X126471904Y-79257142D01*
X126519523Y-79304761D01*
X126614761Y-79352380D01*
X126805238Y-79352380D01*
X126900476Y-79304761D01*
X126948095Y-79257142D01*
X126995714Y-79161904D01*
X126995714Y-78971428D01*
X126948095Y-78876190D01*
X126900476Y-78828571D01*
X126805238Y-78780952D01*
X127567142Y-78780952D02*
X127471904Y-78733333D01*
X127424285Y-78685714D01*
X127376666Y-78590476D01*
X127376666Y-78542857D01*
X127424285Y-78447619D01*
X127471904Y-78400000D01*
X127567142Y-78352380D01*
X127757619Y-78352380D01*
X127852857Y-78400000D01*
X127900476Y-78447619D01*
X127948095Y-78542857D01*
X127948095Y-78590476D01*
X127900476Y-78685714D01*
X127852857Y-78733333D01*
X127757619Y-78780952D01*
X127567142Y-78780952D01*
X127471904Y-78828571D01*
X127424285Y-78876190D01*
X127376666Y-78971428D01*
X127376666Y-79161904D01*
X127424285Y-79257142D01*
X127471904Y-79304761D01*
X127567142Y-79352380D01*
X127757619Y-79352380D01*
X127852857Y-79304761D01*
X127900476Y-79257142D01*
X127948095Y-79161904D01*
X127948095Y-78971428D01*
X127900476Y-78876190D01*
X127852857Y-78828571D01*
X127757619Y-78780952D01*
X128281428Y-78352380D02*
X128900476Y-78352380D01*
X128567142Y-78733333D01*
X128710000Y-78733333D01*
X128805238Y-78780952D01*
X128852857Y-78828571D01*
X128900476Y-78923809D01*
X128900476Y-79161904D01*
X128852857Y-79257142D01*
X128805238Y-79304761D01*
X128710000Y-79352380D01*
X128424285Y-79352380D01*
X128329047Y-79304761D01*
X128281428Y-79257142D01*
X129805238Y-78352380D02*
X129329047Y-78352380D01*
X129281428Y-78828571D01*
X129329047Y-78780952D01*
X129424285Y-78733333D01*
X129662380Y-78733333D01*
X129757619Y-78780952D01*
X129805238Y-78828571D01*
X129852857Y-78923809D01*
X129852857Y-79161904D01*
X129805238Y-79257142D01*
X129757619Y-79304761D01*
X129662380Y-79352380D01*
X129424285Y-79352380D01*
X129329047Y-79304761D01*
X129281428Y-79257142D01*
D11*
X73270000Y-64980000D02*
X73750000Y-66550000D01*
X97550000Y-64380000D02*
X96970000Y-66680000D01*
X114940000Y-64050000D02*
X116660000Y-66320000D01*
D10*
X112580000Y-71394760D02*
X112913333Y-72394760D01*
X113246666Y-71394760D01*
X113580000Y-72394760D02*
X113580000Y-71394760D01*
X113580000Y-71870951D02*
X114151428Y-71870951D01*
X114151428Y-72394760D02*
X114151428Y-71394760D01*
X112103809Y-76514760D02*
X112008571Y-76467140D01*
X111865714Y-76467140D01*
X111722856Y-76514760D01*
X111627618Y-76609998D01*
X111579999Y-76705236D01*
X111532380Y-76895712D01*
X111532380Y-77038569D01*
X111579999Y-77229045D01*
X111627618Y-77324283D01*
X111722856Y-77419521D01*
X111865714Y-77467140D01*
X111960952Y-77467140D01*
X112103809Y-77419521D01*
X112151428Y-77371902D01*
X112151428Y-77038569D01*
X111960952Y-77038569D01*
X112579999Y-77467140D02*
X112579999Y-76467140D01*
X113151428Y-77467140D01*
X113151428Y-76467140D01*
X113627618Y-77467140D02*
X113627618Y-76467140D01*
X113865714Y-76467140D01*
X114008571Y-76514760D01*
X114103809Y-76609998D01*
X114151428Y-76705236D01*
X114199047Y-76895712D01*
X114199047Y-77038569D01*
X114151428Y-77229045D01*
X114103809Y-77324283D01*
X114008571Y-77419521D01*
X113865714Y-77467140D01*
X113627618Y-77467140D01*
X109151429Y-115509990D02*
X109151429Y-114509990D01*
X109484762Y-115224276D01*
X109818095Y-114509990D01*
X109818095Y-115509990D01*
X110151429Y-114509990D02*
X110722857Y-114509990D01*
X110437143Y-115509990D02*
X110437143Y-114509990D01*
X111008571Y-115224276D02*
X111484762Y-115224276D01*
X110913333Y-115509990D02*
X111246667Y-114509990D01*
X111580000Y-115509990D01*
X111675238Y-115605229D02*
X112437143Y-115605229D01*
X112675238Y-114986181D02*
X113008571Y-114986181D01*
X113151429Y-115509990D02*
X112675238Y-115509990D01*
X112675238Y-114509990D01*
X113151429Y-114509990D01*
X113580000Y-115509990D02*
X113580000Y-114509990D01*
X114151429Y-115509990D01*
X114151429Y-114509990D01*
X110913332Y-97709041D02*
X111056190Y-97756660D01*
X111294285Y-97756660D01*
X111389523Y-97709041D01*
X111437142Y-97661422D01*
X111484761Y-97566184D01*
X111484761Y-97470946D01*
X111437142Y-97375708D01*
X111389523Y-97328089D01*
X111294285Y-97280470D01*
X111103809Y-97232851D01*
X111008570Y-97185232D01*
X110960951Y-97137613D01*
X110913332Y-97042375D01*
X110913332Y-96947137D01*
X110960951Y-96851899D01*
X111008570Y-96804280D01*
X111103809Y-96756660D01*
X111341904Y-96756660D01*
X111484761Y-96804280D01*
X111770475Y-96756660D02*
X112341904Y-96756660D01*
X112056190Y-97756660D02*
X112056190Y-96756660D01*
X113008570Y-97232851D02*
X113151428Y-97280470D01*
X113199047Y-97328089D01*
X113246666Y-97423327D01*
X113246666Y-97566184D01*
X113199047Y-97661422D01*
X113151428Y-97709041D01*
X113056190Y-97756660D01*
X112675237Y-97756660D01*
X112675237Y-96756660D01*
X113008570Y-96756660D01*
X113103809Y-96804280D01*
X113151428Y-96851899D01*
X113199047Y-96947137D01*
X113199047Y-97042375D01*
X113151428Y-97137613D01*
X113103809Y-97185232D01*
X113008570Y-97232851D01*
X112675237Y-97232851D01*
X114151428Y-96756660D02*
X113675237Y-96756660D01*
X113627618Y-97232851D01*
X113675237Y-97185232D01*
X113770475Y-97137613D01*
X114008570Y-97137613D01*
X114103809Y-97185232D01*
X114151428Y-97232851D01*
X114199047Y-97328089D01*
X114199047Y-97566184D01*
X114151428Y-97661422D01*
X114103809Y-97709041D01*
X114008570Y-97756660D01*
X113770475Y-97756660D01*
X113675237Y-97709041D01*
X113627618Y-97661422D01*
X111675237Y-80003330D02*
X111675237Y-79003330D01*
X112056190Y-79003330D01*
X112151428Y-79050950D01*
X112199047Y-79098569D01*
X112246666Y-79193807D01*
X112246666Y-79336664D01*
X112199047Y-79431902D01*
X112151428Y-79479521D01*
X112056190Y-79527140D01*
X111675237Y-79527140D01*
X112675237Y-80003330D02*
X112675237Y-79003330D01*
X112675237Y-79479521D02*
X113246666Y-79479521D01*
X113246666Y-80003330D02*
X113246666Y-79003330D01*
X113722856Y-79479521D02*
X114056190Y-79479521D01*
X114199047Y-80003330D02*
X113722856Y-80003330D01*
X113722856Y-79003330D01*
X114199047Y-79003330D01*
X112579999Y-110437610D02*
X112579999Y-109437610D01*
X112818094Y-109437610D01*
X112960952Y-109485230D01*
X113056190Y-109580468D01*
X113103809Y-109675706D01*
X113151428Y-109866182D01*
X113151428Y-110009039D01*
X113103809Y-110199515D01*
X113056190Y-110294753D01*
X112960952Y-110389991D01*
X112818094Y-110437610D01*
X112579999Y-110437610D01*
X113770475Y-109437610D02*
X113960952Y-109437610D01*
X114056190Y-109485230D01*
X114151428Y-109580468D01*
X114199047Y-109770944D01*
X114199047Y-110104277D01*
X114151428Y-110294753D01*
X114056190Y-110389991D01*
X113960952Y-110437610D01*
X113770475Y-110437610D01*
X113675237Y-110389991D01*
X113579999Y-110294753D01*
X113532380Y-110104277D01*
X113532380Y-109770944D01*
X113579999Y-109580468D01*
X113675237Y-109485230D01*
X113770475Y-109437610D01*
X113213809Y-62532380D02*
X113832857Y-62532380D01*
X113499523Y-62913333D01*
X113642380Y-62913333D01*
X113737619Y-62960952D01*
X113785238Y-63008571D01*
X113832857Y-63103809D01*
X113832857Y-63341904D01*
X113785238Y-63437142D01*
X113737619Y-63484761D01*
X113642380Y-63532380D01*
X113356666Y-63532380D01*
X113261428Y-63484761D01*
X113213809Y-63437142D01*
X114261428Y-63437142D02*
X114309047Y-63484761D01*
X114261428Y-63532380D01*
X114213809Y-63484761D01*
X114261428Y-63437142D01*
X114261428Y-63532380D01*
X114642380Y-62532380D02*
X115261428Y-62532380D01*
X114928095Y-62913333D01*
X115070952Y-62913333D01*
X115166190Y-62960952D01*
X115213809Y-63008571D01*
X115261428Y-63103809D01*
X115261428Y-63341904D01*
X115213809Y-63437142D01*
X115166190Y-63484761D01*
X115070952Y-63532380D01*
X114785238Y-63532380D01*
X114690000Y-63484761D01*
X114642380Y-63437142D01*
X115547142Y-62532380D02*
X115880476Y-63532380D01*
X116213809Y-62532380D01*
X112580000Y-101829040D02*
X113151428Y-101829040D01*
X112865714Y-102829040D02*
X112865714Y-101829040D01*
X113484762Y-102829040D02*
X113484762Y-101829040D01*
X113818095Y-102543326D01*
X114151428Y-101829040D01*
X114151428Y-102829040D01*
X111818094Y-104365230D02*
X112389523Y-104365230D01*
X112103809Y-105365230D02*
X112103809Y-104365230D01*
X112722856Y-105365230D02*
X112722856Y-104365230D01*
X113056190Y-105079516D01*
X113389523Y-104365230D01*
X113389523Y-105365230D01*
X113627618Y-105460469D02*
X114389523Y-105460469D01*
X108913333Y-118046180D02*
X108913333Y-117046180D01*
X109246666Y-117760466D01*
X109580000Y-117046180D01*
X109580000Y-118046180D01*
X109913333Y-117046180D02*
X110484761Y-117046180D01*
X110199047Y-118046180D02*
X110199047Y-117046180D01*
X111151428Y-117522371D02*
X111294285Y-117569990D01*
X111341904Y-117617609D01*
X111389523Y-117712847D01*
X111389523Y-117855704D01*
X111341904Y-117950942D01*
X111294285Y-117998561D01*
X111199047Y-118046180D01*
X110818095Y-118046180D01*
X110818095Y-117046180D01*
X111151428Y-117046180D01*
X111246666Y-117093800D01*
X111294285Y-117141419D01*
X111341904Y-117236657D01*
X111341904Y-117331895D01*
X111294285Y-117427133D01*
X111246666Y-117474752D01*
X111151428Y-117522371D01*
X110818095Y-117522371D01*
X111580000Y-118141419D02*
X112341904Y-118141419D01*
X112580000Y-118046180D02*
X112580000Y-117046180D01*
X112960952Y-117046180D01*
X113056190Y-117093800D01*
X113103809Y-117141419D01*
X113151428Y-117236657D01*
X113151428Y-117379514D01*
X113103809Y-117474752D01*
X113056190Y-117522371D01*
X112960952Y-117569990D01*
X112580000Y-117569990D01*
X113580000Y-118046180D02*
X113580000Y-117046180D01*
X113580000Y-117522371D02*
X114151428Y-117522371D01*
X114151428Y-118046180D02*
X114151428Y-117046180D01*
X109675238Y-73930950D02*
X110008571Y-74930950D01*
X110341904Y-73930950D01*
X111151428Y-74930950D02*
X110675238Y-74930950D01*
X110675238Y-73930950D01*
X111627619Y-74930950D02*
X111532381Y-74883331D01*
X111484762Y-74835712D01*
X111437142Y-74740474D01*
X111437142Y-74454760D01*
X111484762Y-74359522D01*
X111532381Y-74311903D01*
X111627619Y-74264284D01*
X111770476Y-74264284D01*
X111865714Y-74311903D01*
X111913333Y-74359522D01*
X111960952Y-74454760D01*
X111960952Y-74740474D01*
X111913333Y-74835712D01*
X111865714Y-74883331D01*
X111770476Y-74930950D01*
X111627619Y-74930950D01*
X112818095Y-74264284D02*
X112818095Y-75073808D01*
X112770476Y-75169046D01*
X112722857Y-75216665D01*
X112627619Y-75264284D01*
X112484762Y-75264284D01*
X112389523Y-75216665D01*
X112818095Y-74883331D02*
X112722857Y-74930950D01*
X112532381Y-74930950D01*
X112437142Y-74883331D01*
X112389523Y-74835712D01*
X112341904Y-74740474D01*
X112341904Y-74454760D01*
X112389523Y-74359522D01*
X112437142Y-74311903D01*
X112532381Y-74264284D01*
X112722857Y-74264284D01*
X112818095Y-74311903D01*
X113294285Y-74930950D02*
X113294285Y-74264284D01*
X113294285Y-73930950D02*
X113246666Y-73978570D01*
X113294285Y-74026189D01*
X113341904Y-73978570D01*
X113294285Y-73930950D01*
X113294285Y-74026189D01*
X114199047Y-74883331D02*
X114103809Y-74930950D01*
X113913333Y-74930950D01*
X113818095Y-74883331D01*
X113770476Y-74835712D01*
X113722857Y-74740474D01*
X113722857Y-74454760D01*
X113770476Y-74359522D01*
X113818095Y-74311903D01*
X113913333Y-74264284D01*
X114103809Y-74264284D01*
X114199047Y-74311903D01*
X110913332Y-95172851D02*
X111056190Y-95220470D01*
X111294285Y-95220470D01*
X111389523Y-95172851D01*
X111437142Y-95125232D01*
X111484761Y-95029994D01*
X111484761Y-94934756D01*
X111437142Y-94839518D01*
X111389523Y-94791899D01*
X111294285Y-94744280D01*
X111103809Y-94696661D01*
X111008570Y-94649042D01*
X110960951Y-94601423D01*
X110913332Y-94506185D01*
X110913332Y-94410947D01*
X110960951Y-94315709D01*
X111008570Y-94268090D01*
X111103809Y-94220470D01*
X111341904Y-94220470D01*
X111484761Y-94268090D01*
X111770475Y-94220470D02*
X112341904Y-94220470D01*
X112056190Y-95220470D02*
X112056190Y-94220470D01*
X113008570Y-94696661D02*
X113151428Y-94744280D01*
X113199047Y-94791899D01*
X113246666Y-94887137D01*
X113246666Y-95029994D01*
X113199047Y-95125232D01*
X113151428Y-95172851D01*
X113056190Y-95220470D01*
X112675237Y-95220470D01*
X112675237Y-94220470D01*
X113008570Y-94220470D01*
X113103809Y-94268090D01*
X113151428Y-94315709D01*
X113199047Y-94410947D01*
X113199047Y-94506185D01*
X113151428Y-94601423D01*
X113103809Y-94649042D01*
X113008570Y-94696661D01*
X112675237Y-94696661D01*
X114103809Y-94553804D02*
X114103809Y-95220470D01*
X113865713Y-94172851D02*
X113627618Y-94887137D01*
X114246666Y-94887137D01*
X112675238Y-107901420D02*
X112199047Y-107901420D01*
X112199047Y-106901420D01*
X112960952Y-107615706D02*
X113437142Y-107615706D01*
X112865714Y-107901420D02*
X113199047Y-106901420D01*
X113532380Y-107901420D01*
X113722857Y-106901420D02*
X114294285Y-106901420D01*
X114008571Y-107901420D02*
X114008571Y-106901420D01*
X110913332Y-100245231D02*
X111056190Y-100292850D01*
X111294285Y-100292850D01*
X111389523Y-100245231D01*
X111437142Y-100197612D01*
X111484761Y-100102374D01*
X111484761Y-100007136D01*
X111437142Y-99911898D01*
X111389523Y-99864279D01*
X111294285Y-99816660D01*
X111103809Y-99769041D01*
X111008570Y-99721422D01*
X110960951Y-99673803D01*
X110913332Y-99578565D01*
X110913332Y-99483327D01*
X110960951Y-99388089D01*
X111008570Y-99340470D01*
X111103809Y-99292850D01*
X111341904Y-99292850D01*
X111484761Y-99340470D01*
X111770475Y-99292850D02*
X112341904Y-99292850D01*
X112056190Y-100292850D02*
X112056190Y-99292850D01*
X113008570Y-99769041D02*
X113151428Y-99816660D01*
X113199047Y-99864279D01*
X113246666Y-99959517D01*
X113246666Y-100102374D01*
X113199047Y-100197612D01*
X113151428Y-100245231D01*
X113056190Y-100292850D01*
X112675237Y-100292850D01*
X112675237Y-99292850D01*
X113008570Y-99292850D01*
X113103809Y-99340470D01*
X113151428Y-99388089D01*
X113199047Y-99483327D01*
X113199047Y-99578565D01*
X113151428Y-99673803D01*
X113103809Y-99721422D01*
X113008570Y-99769041D01*
X112675237Y-99769041D01*
X114103809Y-99292850D02*
X113913332Y-99292850D01*
X113818094Y-99340470D01*
X113770475Y-99388089D01*
X113675237Y-99530946D01*
X113627618Y-99721422D01*
X113627618Y-100102374D01*
X113675237Y-100197612D01*
X113722856Y-100245231D01*
X113818094Y-100292850D01*
X114008570Y-100292850D01*
X114103809Y-100245231D01*
X114151428Y-100197612D01*
X114199047Y-100102374D01*
X114199047Y-99864279D01*
X114151428Y-99769041D01*
X114103809Y-99721422D01*
X114008570Y-99673803D01*
X113818094Y-99673803D01*
X113722856Y-99721422D01*
X113675237Y-99769041D01*
X113627618Y-99864279D01*
X113294285Y-68858570D02*
X112818095Y-68858570D01*
X112770476Y-69334761D01*
X112818095Y-69287142D01*
X112913333Y-69239523D01*
X113151428Y-69239523D01*
X113246666Y-69287142D01*
X113294285Y-69334761D01*
X113341904Y-69429999D01*
X113341904Y-69668094D01*
X113294285Y-69763332D01*
X113246666Y-69810951D01*
X113151428Y-69858570D01*
X112913333Y-69858570D01*
X112818095Y-69810951D01*
X112770476Y-69763332D01*
X113627619Y-68858570D02*
X113960952Y-69858570D01*
X114294285Y-68858570D01*
X110913332Y-90100471D02*
X111056190Y-90148090D01*
X111294285Y-90148090D01*
X111389523Y-90100471D01*
X111437142Y-90052852D01*
X111484761Y-89957614D01*
X111484761Y-89862376D01*
X111437142Y-89767138D01*
X111389523Y-89719519D01*
X111294285Y-89671900D01*
X111103809Y-89624281D01*
X111008570Y-89576662D01*
X110960951Y-89529043D01*
X110913332Y-89433805D01*
X110913332Y-89338567D01*
X110960951Y-89243329D01*
X111008570Y-89195710D01*
X111103809Y-89148090D01*
X111341904Y-89148090D01*
X111484761Y-89195710D01*
X111770475Y-89148090D02*
X112341904Y-89148090D01*
X112056190Y-90148090D02*
X112056190Y-89148090D01*
X113008570Y-89624281D02*
X113151428Y-89671900D01*
X113199047Y-89719519D01*
X113246666Y-89814757D01*
X113246666Y-89957614D01*
X113199047Y-90052852D01*
X113151428Y-90100471D01*
X113056190Y-90148090D01*
X112675237Y-90148090D01*
X112675237Y-89148090D01*
X113008570Y-89148090D01*
X113103809Y-89195710D01*
X113151428Y-89243329D01*
X113199047Y-89338567D01*
X113199047Y-89433805D01*
X113151428Y-89529043D01*
X113103809Y-89576662D01*
X113008570Y-89624281D01*
X112675237Y-89624281D01*
X113627618Y-89243329D02*
X113675237Y-89195710D01*
X113770475Y-89148090D01*
X114008570Y-89148090D01*
X114103809Y-89195710D01*
X114151428Y-89243329D01*
X114199047Y-89338567D01*
X114199047Y-89433805D01*
X114151428Y-89576662D01*
X113579999Y-90148090D01*
X114199047Y-90148090D01*
X110913332Y-92636661D02*
X111056190Y-92684280D01*
X111294285Y-92684280D01*
X111389523Y-92636661D01*
X111437142Y-92589042D01*
X111484761Y-92493804D01*
X111484761Y-92398566D01*
X111437142Y-92303328D01*
X111389523Y-92255709D01*
X111294285Y-92208090D01*
X111103809Y-92160471D01*
X111008570Y-92112852D01*
X110960951Y-92065233D01*
X110913332Y-91969995D01*
X110913332Y-91874757D01*
X110960951Y-91779519D01*
X111008570Y-91731900D01*
X111103809Y-91684280D01*
X111341904Y-91684280D01*
X111484761Y-91731900D01*
X111770475Y-91684280D02*
X112341904Y-91684280D01*
X112056190Y-92684280D02*
X112056190Y-91684280D01*
X113008570Y-92160471D02*
X113151428Y-92208090D01*
X113199047Y-92255709D01*
X113246666Y-92350947D01*
X113246666Y-92493804D01*
X113199047Y-92589042D01*
X113151428Y-92636661D01*
X113056190Y-92684280D01*
X112675237Y-92684280D01*
X112675237Y-91684280D01*
X113008570Y-91684280D01*
X113103809Y-91731900D01*
X113151428Y-91779519D01*
X113199047Y-91874757D01*
X113199047Y-91969995D01*
X113151428Y-92065233D01*
X113103809Y-92112852D01*
X113008570Y-92160471D01*
X112675237Y-92160471D01*
X113579999Y-91684280D02*
X114199047Y-91684280D01*
X113865713Y-92065233D01*
X114008570Y-92065233D01*
X114103809Y-92112852D01*
X114151428Y-92160471D01*
X114199047Y-92255709D01*
X114199047Y-92493804D01*
X114151428Y-92589042D01*
X114103809Y-92636661D01*
X114008570Y-92684280D01*
X113722856Y-92684280D01*
X113627618Y-92636661D01*
X113579999Y-92589042D01*
X113151429Y-82539520D02*
X113151429Y-81539520D01*
X113389524Y-81539520D01*
X113532381Y-81587140D01*
X113627619Y-81682378D01*
X113675238Y-81777616D01*
X113722857Y-81968092D01*
X113722857Y-82110949D01*
X113675238Y-82301425D01*
X113627619Y-82396663D01*
X113532381Y-82491901D01*
X113389524Y-82539520D01*
X113151429Y-82539520D01*
X114151429Y-82539520D02*
X114151429Y-81539520D01*
X109008571Y-120582380D02*
X109008571Y-119582380D01*
X109341904Y-120296666D01*
X109675238Y-119582380D01*
X109675238Y-120582380D01*
X110008571Y-119582380D02*
X110580000Y-119582380D01*
X110294285Y-120582380D02*
X110294285Y-119582380D01*
X111246666Y-120058571D02*
X111389523Y-120106190D01*
X111437142Y-120153809D01*
X111484761Y-120249047D01*
X111484761Y-120391904D01*
X111437142Y-120487142D01*
X111389523Y-120534761D01*
X111294285Y-120582380D01*
X110913333Y-120582380D01*
X110913333Y-119582380D01*
X111246666Y-119582380D01*
X111341904Y-119630000D01*
X111389523Y-119677619D01*
X111437142Y-119772857D01*
X111437142Y-119868095D01*
X111389523Y-119963333D01*
X111341904Y-120010952D01*
X111246666Y-120058571D01*
X110913333Y-120058571D01*
X111675238Y-120677619D02*
X112437142Y-120677619D01*
X112675238Y-120058571D02*
X113008571Y-120058571D01*
X113151428Y-120582380D02*
X112675238Y-120582380D01*
X112675238Y-119582380D01*
X113151428Y-119582380D01*
X113580000Y-120582380D02*
X113580000Y-119582380D01*
X114151428Y-120582380D01*
X114151428Y-119582380D01*
X112389523Y-84980472D02*
X112341904Y-85028091D01*
X112199047Y-85075710D01*
X112103809Y-85075710D01*
X111960952Y-85028091D01*
X111865714Y-84932853D01*
X111818095Y-84837615D01*
X111770476Y-84647139D01*
X111770476Y-84504282D01*
X111818095Y-84313806D01*
X111865714Y-84218568D01*
X111960952Y-84123330D01*
X112103809Y-84075710D01*
X112199047Y-84075710D01*
X112341904Y-84123330D01*
X112389523Y-84170949D01*
X113294285Y-85075710D02*
X112818095Y-85075710D01*
X112818095Y-84075710D01*
X113627619Y-85075710D02*
X113627619Y-84075710D01*
X114199047Y-85075710D02*
X113770476Y-84504282D01*
X114199047Y-84075710D02*
X113627619Y-84647139D01*
X109056189Y-112973800D02*
X109056189Y-111973800D01*
X109389523Y-112688086D01*
X109722856Y-111973800D01*
X109722856Y-112973800D01*
X110056189Y-111973800D02*
X110627618Y-111973800D01*
X110341904Y-112973800D02*
X110341904Y-111973800D01*
X110913332Y-112688086D02*
X111389523Y-112688086D01*
X110818094Y-112973800D02*
X111151428Y-111973800D01*
X111484761Y-112973800D01*
X111579999Y-113069039D02*
X112341904Y-113069039D01*
X112579999Y-112973800D02*
X112579999Y-111973800D01*
X112960951Y-111973800D01*
X113056189Y-112021420D01*
X113103809Y-112069039D01*
X113151428Y-112164277D01*
X113151428Y-112307134D01*
X113103809Y-112402372D01*
X113056189Y-112449991D01*
X112960951Y-112497610D01*
X112579999Y-112497610D01*
X113579999Y-112973800D02*
X113579999Y-111973800D01*
X113579999Y-112449991D02*
X114151428Y-112449991D01*
X114151428Y-112973800D02*
X114151428Y-111973800D01*
X110913332Y-87564281D02*
X111056190Y-87611900D01*
X111294285Y-87611900D01*
X111389523Y-87564281D01*
X111437142Y-87516662D01*
X111484761Y-87421424D01*
X111484761Y-87326186D01*
X111437142Y-87230948D01*
X111389523Y-87183329D01*
X111294285Y-87135710D01*
X111103809Y-87088091D01*
X111008570Y-87040472D01*
X110960951Y-86992853D01*
X110913332Y-86897615D01*
X110913332Y-86802377D01*
X110960951Y-86707139D01*
X111008570Y-86659520D01*
X111103809Y-86611900D01*
X111341904Y-86611900D01*
X111484761Y-86659520D01*
X111770475Y-86611900D02*
X112341904Y-86611900D01*
X112056190Y-87611900D02*
X112056190Y-86611900D01*
X113008570Y-87088091D02*
X113151428Y-87135710D01*
X113199047Y-87183329D01*
X113246666Y-87278567D01*
X113246666Y-87421424D01*
X113199047Y-87516662D01*
X113151428Y-87564281D01*
X113056190Y-87611900D01*
X112675237Y-87611900D01*
X112675237Y-86611900D01*
X113008570Y-86611900D01*
X113103809Y-86659520D01*
X113151428Y-86707139D01*
X113199047Y-86802377D01*
X113199047Y-86897615D01*
X113151428Y-86992853D01*
X113103809Y-87040472D01*
X113008570Y-87088091D01*
X112675237Y-87088091D01*
X114199047Y-87611900D02*
X113627618Y-87611900D01*
X113913332Y-87611900D02*
X113913332Y-86611900D01*
X113818094Y-86754758D01*
X113722856Y-86849996D01*
X113627618Y-86897615D01*
X102960000Y-71394760D02*
X103293333Y-72394760D01*
X103626666Y-71394760D01*
X103960000Y-72394760D02*
X103960000Y-71394760D01*
X103960000Y-71870951D02*
X104531428Y-71870951D01*
X104531428Y-72394760D02*
X104531428Y-71394760D01*
X102483809Y-76514760D02*
X102388571Y-76467140D01*
X102245714Y-76467140D01*
X102102856Y-76514760D01*
X102007618Y-76609998D01*
X101959999Y-76705236D01*
X101912380Y-76895712D01*
X101912380Y-77038569D01*
X101959999Y-77229045D01*
X102007618Y-77324283D01*
X102102856Y-77419521D01*
X102245714Y-77467140D01*
X102340952Y-77467140D01*
X102483809Y-77419521D01*
X102531428Y-77371902D01*
X102531428Y-77038569D01*
X102340952Y-77038569D01*
X102959999Y-77467140D02*
X102959999Y-76467140D01*
X103531428Y-77467140D01*
X103531428Y-76467140D01*
X104007618Y-77467140D02*
X104007618Y-76467140D01*
X104245714Y-76467140D01*
X104388571Y-76514760D01*
X104483809Y-76609998D01*
X104531428Y-76705236D01*
X104579047Y-76895712D01*
X104579047Y-77038569D01*
X104531428Y-77229045D01*
X104483809Y-77324283D01*
X104388571Y-77419521D01*
X104245714Y-77467140D01*
X104007618Y-77467140D01*
X99531429Y-115509990D02*
X99531429Y-114509990D01*
X99864762Y-115224276D01*
X100198095Y-114509990D01*
X100198095Y-115509990D01*
X100531429Y-114509990D02*
X101102857Y-114509990D01*
X100817143Y-115509990D02*
X100817143Y-114509990D01*
X101388571Y-115224276D02*
X101864762Y-115224276D01*
X101293333Y-115509990D02*
X101626667Y-114509990D01*
X101960000Y-115509990D01*
X102055238Y-115605229D02*
X102817143Y-115605229D01*
X103055238Y-114986181D02*
X103388571Y-114986181D01*
X103531429Y-115509990D02*
X103055238Y-115509990D01*
X103055238Y-114509990D01*
X103531429Y-114509990D01*
X103960000Y-115509990D02*
X103960000Y-114509990D01*
X104531429Y-115509990D01*
X104531429Y-114509990D01*
X101293332Y-97709041D02*
X101436190Y-97756660D01*
X101674285Y-97756660D01*
X101769523Y-97709041D01*
X101817142Y-97661422D01*
X101864761Y-97566184D01*
X101864761Y-97470946D01*
X101817142Y-97375708D01*
X101769523Y-97328089D01*
X101674285Y-97280470D01*
X101483809Y-97232851D01*
X101388570Y-97185232D01*
X101340951Y-97137613D01*
X101293332Y-97042375D01*
X101293332Y-96947137D01*
X101340951Y-96851899D01*
X101388570Y-96804280D01*
X101483809Y-96756660D01*
X101721904Y-96756660D01*
X101864761Y-96804280D01*
X102150475Y-96756660D02*
X102721904Y-96756660D01*
X102436190Y-97756660D02*
X102436190Y-96756660D01*
X103388570Y-97232851D02*
X103531428Y-97280470D01*
X103579047Y-97328089D01*
X103626666Y-97423327D01*
X103626666Y-97566184D01*
X103579047Y-97661422D01*
X103531428Y-97709041D01*
X103436190Y-97756660D01*
X103055237Y-97756660D01*
X103055237Y-96756660D01*
X103388570Y-96756660D01*
X103483809Y-96804280D01*
X103531428Y-96851899D01*
X103579047Y-96947137D01*
X103579047Y-97042375D01*
X103531428Y-97137613D01*
X103483809Y-97185232D01*
X103388570Y-97232851D01*
X103055237Y-97232851D01*
X104531428Y-96756660D02*
X104055237Y-96756660D01*
X104007618Y-97232851D01*
X104055237Y-97185232D01*
X104150475Y-97137613D01*
X104388570Y-97137613D01*
X104483809Y-97185232D01*
X104531428Y-97232851D01*
X104579047Y-97328089D01*
X104579047Y-97566184D01*
X104531428Y-97661422D01*
X104483809Y-97709041D01*
X104388570Y-97756660D01*
X104150475Y-97756660D01*
X104055237Y-97709041D01*
X104007618Y-97661422D01*
X102055237Y-80003330D02*
X102055237Y-79003330D01*
X102436190Y-79003330D01*
X102531428Y-79050950D01*
X102579047Y-79098569D01*
X102626666Y-79193807D01*
X102626666Y-79336664D01*
X102579047Y-79431902D01*
X102531428Y-79479521D01*
X102436190Y-79527140D01*
X102055237Y-79527140D01*
X103055237Y-80003330D02*
X103055237Y-79003330D01*
X103055237Y-79479521D02*
X103626666Y-79479521D01*
X103626666Y-80003330D02*
X103626666Y-79003330D01*
X104102856Y-79479521D02*
X104436190Y-79479521D01*
X104579047Y-80003330D02*
X104102856Y-80003330D01*
X104102856Y-79003330D01*
X104579047Y-79003330D01*
X102959999Y-110437610D02*
X102959999Y-109437610D01*
X103198094Y-109437610D01*
X103340952Y-109485230D01*
X103436190Y-109580468D01*
X103483809Y-109675706D01*
X103531428Y-109866182D01*
X103531428Y-110009039D01*
X103483809Y-110199515D01*
X103436190Y-110294753D01*
X103340952Y-110389991D01*
X103198094Y-110437610D01*
X102959999Y-110437610D01*
X104150475Y-109437610D02*
X104340952Y-109437610D01*
X104436190Y-109485230D01*
X104531428Y-109580468D01*
X104579047Y-109770944D01*
X104579047Y-110104277D01*
X104531428Y-110294753D01*
X104436190Y-110389991D01*
X104340952Y-110437610D01*
X104150475Y-110437610D01*
X104055237Y-110389991D01*
X103959999Y-110294753D01*
X103912380Y-110104277D01*
X103912380Y-109770944D01*
X103959999Y-109580468D01*
X104055237Y-109485230D01*
X104150475Y-109437610D01*
X95703809Y-62522380D02*
X96322857Y-62522380D01*
X95989523Y-62903333D01*
X96132380Y-62903333D01*
X96227619Y-62950952D01*
X96275238Y-62998571D01*
X96322857Y-63093809D01*
X96322857Y-63331904D01*
X96275238Y-63427142D01*
X96227619Y-63474761D01*
X96132380Y-63522380D01*
X95846666Y-63522380D01*
X95751428Y-63474761D01*
X95703809Y-63427142D01*
X96751428Y-63427142D02*
X96799047Y-63474761D01*
X96751428Y-63522380D01*
X96703809Y-63474761D01*
X96751428Y-63427142D01*
X96751428Y-63522380D01*
X97132380Y-62522380D02*
X97751428Y-62522380D01*
X97418095Y-62903333D01*
X97560952Y-62903333D01*
X97656190Y-62950952D01*
X97703809Y-62998571D01*
X97751428Y-63093809D01*
X97751428Y-63331904D01*
X97703809Y-63427142D01*
X97656190Y-63474761D01*
X97560952Y-63522380D01*
X97275238Y-63522380D01*
X97180000Y-63474761D01*
X97132380Y-63427142D01*
X98037142Y-62522380D02*
X98370476Y-63522380D01*
X98703809Y-62522380D01*
X102960000Y-101829040D02*
X103531428Y-101829040D01*
X103245714Y-102829040D02*
X103245714Y-101829040D01*
X103864762Y-102829040D02*
X103864762Y-101829040D01*
X104198095Y-102543326D01*
X104531428Y-101829040D01*
X104531428Y-102829040D01*
X102198094Y-104365230D02*
X102769523Y-104365230D01*
X102483809Y-105365230D02*
X102483809Y-104365230D01*
X103102856Y-105365230D02*
X103102856Y-104365230D01*
X103436190Y-105079516D01*
X103769523Y-104365230D01*
X103769523Y-105365230D01*
X104007618Y-105460469D02*
X104769523Y-105460469D01*
X99293333Y-118046180D02*
X99293333Y-117046180D01*
X99626666Y-117760466D01*
X99960000Y-117046180D01*
X99960000Y-118046180D01*
X100293333Y-117046180D02*
X100864761Y-117046180D01*
X100579047Y-118046180D02*
X100579047Y-117046180D01*
X101531428Y-117522371D02*
X101674285Y-117569990D01*
X101721904Y-117617609D01*
X101769523Y-117712847D01*
X101769523Y-117855704D01*
X101721904Y-117950942D01*
X101674285Y-117998561D01*
X101579047Y-118046180D01*
X101198095Y-118046180D01*
X101198095Y-117046180D01*
X101531428Y-117046180D01*
X101626666Y-117093800D01*
X101674285Y-117141419D01*
X101721904Y-117236657D01*
X101721904Y-117331895D01*
X101674285Y-117427133D01*
X101626666Y-117474752D01*
X101531428Y-117522371D01*
X101198095Y-117522371D01*
X101960000Y-118141419D02*
X102721904Y-118141419D01*
X102960000Y-118046180D02*
X102960000Y-117046180D01*
X103340952Y-117046180D01*
X103436190Y-117093800D01*
X103483809Y-117141419D01*
X103531428Y-117236657D01*
X103531428Y-117379514D01*
X103483809Y-117474752D01*
X103436190Y-117522371D01*
X103340952Y-117569990D01*
X102960000Y-117569990D01*
X103960000Y-118046180D02*
X103960000Y-117046180D01*
X103960000Y-117522371D02*
X104531428Y-117522371D01*
X104531428Y-118046180D02*
X104531428Y-117046180D01*
X100055238Y-73930950D02*
X100388571Y-74930950D01*
X100721904Y-73930950D01*
X101531428Y-74930950D02*
X101055238Y-74930950D01*
X101055238Y-73930950D01*
X102007619Y-74930950D02*
X101912381Y-74883331D01*
X101864762Y-74835712D01*
X101817142Y-74740474D01*
X101817142Y-74454760D01*
X101864762Y-74359522D01*
X101912381Y-74311903D01*
X102007619Y-74264284D01*
X102150476Y-74264284D01*
X102245714Y-74311903D01*
X102293333Y-74359522D01*
X102340952Y-74454760D01*
X102340952Y-74740474D01*
X102293333Y-74835712D01*
X102245714Y-74883331D01*
X102150476Y-74930950D01*
X102007619Y-74930950D01*
X103198095Y-74264284D02*
X103198095Y-75073808D01*
X103150476Y-75169046D01*
X103102857Y-75216665D01*
X103007619Y-75264284D01*
X102864762Y-75264284D01*
X102769523Y-75216665D01*
X103198095Y-74883331D02*
X103102857Y-74930950D01*
X102912381Y-74930950D01*
X102817142Y-74883331D01*
X102769523Y-74835712D01*
X102721904Y-74740474D01*
X102721904Y-74454760D01*
X102769523Y-74359522D01*
X102817142Y-74311903D01*
X102912381Y-74264284D01*
X103102857Y-74264284D01*
X103198095Y-74311903D01*
X103674285Y-74930950D02*
X103674285Y-74264284D01*
X103674285Y-73930950D02*
X103626666Y-73978570D01*
X103674285Y-74026189D01*
X103721904Y-73978570D01*
X103674285Y-73930950D01*
X103674285Y-74026189D01*
X104579047Y-74883331D02*
X104483809Y-74930950D01*
X104293333Y-74930950D01*
X104198095Y-74883331D01*
X104150476Y-74835712D01*
X104102857Y-74740474D01*
X104102857Y-74454760D01*
X104150476Y-74359522D01*
X104198095Y-74311903D01*
X104293333Y-74264284D01*
X104483809Y-74264284D01*
X104579047Y-74311903D01*
X101293332Y-95172851D02*
X101436190Y-95220470D01*
X101674285Y-95220470D01*
X101769523Y-95172851D01*
X101817142Y-95125232D01*
X101864761Y-95029994D01*
X101864761Y-94934756D01*
X101817142Y-94839518D01*
X101769523Y-94791899D01*
X101674285Y-94744280D01*
X101483809Y-94696661D01*
X101388570Y-94649042D01*
X101340951Y-94601423D01*
X101293332Y-94506185D01*
X101293332Y-94410947D01*
X101340951Y-94315709D01*
X101388570Y-94268090D01*
X101483809Y-94220470D01*
X101721904Y-94220470D01*
X101864761Y-94268090D01*
X102150475Y-94220470D02*
X102721904Y-94220470D01*
X102436190Y-95220470D02*
X102436190Y-94220470D01*
X103388570Y-94696661D02*
X103531428Y-94744280D01*
X103579047Y-94791899D01*
X103626666Y-94887137D01*
X103626666Y-95029994D01*
X103579047Y-95125232D01*
X103531428Y-95172851D01*
X103436190Y-95220470D01*
X103055237Y-95220470D01*
X103055237Y-94220470D01*
X103388570Y-94220470D01*
X103483809Y-94268090D01*
X103531428Y-94315709D01*
X103579047Y-94410947D01*
X103579047Y-94506185D01*
X103531428Y-94601423D01*
X103483809Y-94649042D01*
X103388570Y-94696661D01*
X103055237Y-94696661D01*
X104483809Y-94553804D02*
X104483809Y-95220470D01*
X104245713Y-94172851D02*
X104007618Y-94887137D01*
X104626666Y-94887137D01*
X103055238Y-107901420D02*
X102579047Y-107901420D01*
X102579047Y-106901420D01*
X103340952Y-107615706D02*
X103817142Y-107615706D01*
X103245714Y-107901420D02*
X103579047Y-106901420D01*
X103912380Y-107901420D01*
X104102857Y-106901420D02*
X104674285Y-106901420D01*
X104388571Y-107901420D02*
X104388571Y-106901420D01*
X101293332Y-100245231D02*
X101436190Y-100292850D01*
X101674285Y-100292850D01*
X101769523Y-100245231D01*
X101817142Y-100197612D01*
X101864761Y-100102374D01*
X101864761Y-100007136D01*
X101817142Y-99911898D01*
X101769523Y-99864279D01*
X101674285Y-99816660D01*
X101483809Y-99769041D01*
X101388570Y-99721422D01*
X101340951Y-99673803D01*
X101293332Y-99578565D01*
X101293332Y-99483327D01*
X101340951Y-99388089D01*
X101388570Y-99340470D01*
X101483809Y-99292850D01*
X101721904Y-99292850D01*
X101864761Y-99340470D01*
X102150475Y-99292850D02*
X102721904Y-99292850D01*
X102436190Y-100292850D02*
X102436190Y-99292850D01*
X103388570Y-99769041D02*
X103531428Y-99816660D01*
X103579047Y-99864279D01*
X103626666Y-99959517D01*
X103626666Y-100102374D01*
X103579047Y-100197612D01*
X103531428Y-100245231D01*
X103436190Y-100292850D01*
X103055237Y-100292850D01*
X103055237Y-99292850D01*
X103388570Y-99292850D01*
X103483809Y-99340470D01*
X103531428Y-99388089D01*
X103579047Y-99483327D01*
X103579047Y-99578565D01*
X103531428Y-99673803D01*
X103483809Y-99721422D01*
X103388570Y-99769041D01*
X103055237Y-99769041D01*
X104483809Y-99292850D02*
X104293332Y-99292850D01*
X104198094Y-99340470D01*
X104150475Y-99388089D01*
X104055237Y-99530946D01*
X104007618Y-99721422D01*
X104007618Y-100102374D01*
X104055237Y-100197612D01*
X104102856Y-100245231D01*
X104198094Y-100292850D01*
X104388570Y-100292850D01*
X104483809Y-100245231D01*
X104531428Y-100197612D01*
X104579047Y-100102374D01*
X104579047Y-99864279D01*
X104531428Y-99769041D01*
X104483809Y-99721422D01*
X104388570Y-99673803D01*
X104198094Y-99673803D01*
X104102856Y-99721422D01*
X104055237Y-99769041D01*
X104007618Y-99864279D01*
X103674285Y-68858570D02*
X103198095Y-68858570D01*
X103150476Y-69334761D01*
X103198095Y-69287142D01*
X103293333Y-69239523D01*
X103531428Y-69239523D01*
X103626666Y-69287142D01*
X103674285Y-69334761D01*
X103721904Y-69429999D01*
X103721904Y-69668094D01*
X103674285Y-69763332D01*
X103626666Y-69810951D01*
X103531428Y-69858570D01*
X103293333Y-69858570D01*
X103198095Y-69810951D01*
X103150476Y-69763332D01*
X104007619Y-68858570D02*
X104340952Y-69858570D01*
X104674285Y-68858570D01*
X101293332Y-90100471D02*
X101436190Y-90148090D01*
X101674285Y-90148090D01*
X101769523Y-90100471D01*
X101817142Y-90052852D01*
X101864761Y-89957614D01*
X101864761Y-89862376D01*
X101817142Y-89767138D01*
X101769523Y-89719519D01*
X101674285Y-89671900D01*
X101483809Y-89624281D01*
X101388570Y-89576662D01*
X101340951Y-89529043D01*
X101293332Y-89433805D01*
X101293332Y-89338567D01*
X101340951Y-89243329D01*
X101388570Y-89195710D01*
X101483809Y-89148090D01*
X101721904Y-89148090D01*
X101864761Y-89195710D01*
X102150475Y-89148090D02*
X102721904Y-89148090D01*
X102436190Y-90148090D02*
X102436190Y-89148090D01*
X103388570Y-89624281D02*
X103531428Y-89671900D01*
X103579047Y-89719519D01*
X103626666Y-89814757D01*
X103626666Y-89957614D01*
X103579047Y-90052852D01*
X103531428Y-90100471D01*
X103436190Y-90148090D01*
X103055237Y-90148090D01*
X103055237Y-89148090D01*
X103388570Y-89148090D01*
X103483809Y-89195710D01*
X103531428Y-89243329D01*
X103579047Y-89338567D01*
X103579047Y-89433805D01*
X103531428Y-89529043D01*
X103483809Y-89576662D01*
X103388570Y-89624281D01*
X103055237Y-89624281D01*
X104007618Y-89243329D02*
X104055237Y-89195710D01*
X104150475Y-89148090D01*
X104388570Y-89148090D01*
X104483809Y-89195710D01*
X104531428Y-89243329D01*
X104579047Y-89338567D01*
X104579047Y-89433805D01*
X104531428Y-89576662D01*
X103959999Y-90148090D01*
X104579047Y-90148090D01*
X101293332Y-92636661D02*
X101436190Y-92684280D01*
X101674285Y-92684280D01*
X101769523Y-92636661D01*
X101817142Y-92589042D01*
X101864761Y-92493804D01*
X101864761Y-92398566D01*
X101817142Y-92303328D01*
X101769523Y-92255709D01*
X101674285Y-92208090D01*
X101483809Y-92160471D01*
X101388570Y-92112852D01*
X101340951Y-92065233D01*
X101293332Y-91969995D01*
X101293332Y-91874757D01*
X101340951Y-91779519D01*
X101388570Y-91731900D01*
X101483809Y-91684280D01*
X101721904Y-91684280D01*
X101864761Y-91731900D01*
X102150475Y-91684280D02*
X102721904Y-91684280D01*
X102436190Y-92684280D02*
X102436190Y-91684280D01*
X103388570Y-92160471D02*
X103531428Y-92208090D01*
X103579047Y-92255709D01*
X103626666Y-92350947D01*
X103626666Y-92493804D01*
X103579047Y-92589042D01*
X103531428Y-92636661D01*
X103436190Y-92684280D01*
X103055237Y-92684280D01*
X103055237Y-91684280D01*
X103388570Y-91684280D01*
X103483809Y-91731900D01*
X103531428Y-91779519D01*
X103579047Y-91874757D01*
X103579047Y-91969995D01*
X103531428Y-92065233D01*
X103483809Y-92112852D01*
X103388570Y-92160471D01*
X103055237Y-92160471D01*
X103959999Y-91684280D02*
X104579047Y-91684280D01*
X104245713Y-92065233D01*
X104388570Y-92065233D01*
X104483809Y-92112852D01*
X104531428Y-92160471D01*
X104579047Y-92255709D01*
X104579047Y-92493804D01*
X104531428Y-92589042D01*
X104483809Y-92636661D01*
X104388570Y-92684280D01*
X104102856Y-92684280D01*
X104007618Y-92636661D01*
X103959999Y-92589042D01*
X103531429Y-82539520D02*
X103531429Y-81539520D01*
X103769524Y-81539520D01*
X103912381Y-81587140D01*
X104007619Y-81682378D01*
X104055238Y-81777616D01*
X104102857Y-81968092D01*
X104102857Y-82110949D01*
X104055238Y-82301425D01*
X104007619Y-82396663D01*
X103912381Y-82491901D01*
X103769524Y-82539520D01*
X103531429Y-82539520D01*
X104531429Y-82539520D02*
X104531429Y-81539520D01*
X99388571Y-120582380D02*
X99388571Y-119582380D01*
X99721904Y-120296666D01*
X100055238Y-119582380D01*
X100055238Y-120582380D01*
X100388571Y-119582380D02*
X100960000Y-119582380D01*
X100674285Y-120582380D02*
X100674285Y-119582380D01*
X101626666Y-120058571D02*
X101769523Y-120106190D01*
X101817142Y-120153809D01*
X101864761Y-120249047D01*
X101864761Y-120391904D01*
X101817142Y-120487142D01*
X101769523Y-120534761D01*
X101674285Y-120582380D01*
X101293333Y-120582380D01*
X101293333Y-119582380D01*
X101626666Y-119582380D01*
X101721904Y-119630000D01*
X101769523Y-119677619D01*
X101817142Y-119772857D01*
X101817142Y-119868095D01*
X101769523Y-119963333D01*
X101721904Y-120010952D01*
X101626666Y-120058571D01*
X101293333Y-120058571D01*
X102055238Y-120677619D02*
X102817142Y-120677619D01*
X103055238Y-120058571D02*
X103388571Y-120058571D01*
X103531428Y-120582380D02*
X103055238Y-120582380D01*
X103055238Y-119582380D01*
X103531428Y-119582380D01*
X103960000Y-120582380D02*
X103960000Y-119582380D01*
X104531428Y-120582380D01*
X104531428Y-119582380D01*
X102769523Y-84980472D02*
X102721904Y-85028091D01*
X102579047Y-85075710D01*
X102483809Y-85075710D01*
X102340952Y-85028091D01*
X102245714Y-84932853D01*
X102198095Y-84837615D01*
X102150476Y-84647139D01*
X102150476Y-84504282D01*
X102198095Y-84313806D01*
X102245714Y-84218568D01*
X102340952Y-84123330D01*
X102483809Y-84075710D01*
X102579047Y-84075710D01*
X102721904Y-84123330D01*
X102769523Y-84170949D01*
X103674285Y-85075710D02*
X103198095Y-85075710D01*
X103198095Y-84075710D01*
X104007619Y-85075710D02*
X104007619Y-84075710D01*
X104579047Y-85075710D02*
X104150476Y-84504282D01*
X104579047Y-84075710D02*
X104007619Y-84647139D01*
X99436189Y-112973800D02*
X99436189Y-111973800D01*
X99769523Y-112688086D01*
X100102856Y-111973800D01*
X100102856Y-112973800D01*
X100436189Y-111973800D02*
X101007618Y-111973800D01*
X100721904Y-112973800D02*
X100721904Y-111973800D01*
X101293332Y-112688086D02*
X101769523Y-112688086D01*
X101198094Y-112973800D02*
X101531428Y-111973800D01*
X101864761Y-112973800D01*
X101959999Y-113069039D02*
X102721904Y-113069039D01*
X102959999Y-112973800D02*
X102959999Y-111973800D01*
X103340951Y-111973800D01*
X103436189Y-112021420D01*
X103483809Y-112069039D01*
X103531428Y-112164277D01*
X103531428Y-112307134D01*
X103483809Y-112402372D01*
X103436189Y-112449991D01*
X103340951Y-112497610D01*
X102959999Y-112497610D01*
X103959999Y-112973800D02*
X103959999Y-111973800D01*
X103959999Y-112449991D02*
X104531428Y-112449991D01*
X104531428Y-112973800D02*
X104531428Y-111973800D01*
X101293332Y-87564281D02*
X101436190Y-87611900D01*
X101674285Y-87611900D01*
X101769523Y-87564281D01*
X101817142Y-87516662D01*
X101864761Y-87421424D01*
X101864761Y-87326186D01*
X101817142Y-87230948D01*
X101769523Y-87183329D01*
X101674285Y-87135710D01*
X101483809Y-87088091D01*
X101388570Y-87040472D01*
X101340951Y-86992853D01*
X101293332Y-86897615D01*
X101293332Y-86802377D01*
X101340951Y-86707139D01*
X101388570Y-86659520D01*
X101483809Y-86611900D01*
X101721904Y-86611900D01*
X101864761Y-86659520D01*
X102150475Y-86611900D02*
X102721904Y-86611900D01*
X102436190Y-87611900D02*
X102436190Y-86611900D01*
X103388570Y-87088091D02*
X103531428Y-87135710D01*
X103579047Y-87183329D01*
X103626666Y-87278567D01*
X103626666Y-87421424D01*
X103579047Y-87516662D01*
X103531428Y-87564281D01*
X103436190Y-87611900D01*
X103055237Y-87611900D01*
X103055237Y-86611900D01*
X103388570Y-86611900D01*
X103483809Y-86659520D01*
X103531428Y-86707139D01*
X103579047Y-86802377D01*
X103579047Y-86897615D01*
X103531428Y-86992853D01*
X103483809Y-87040472D01*
X103388570Y-87088091D01*
X103055237Y-87088091D01*
X104579047Y-87611900D02*
X104007618Y-87611900D01*
X104293332Y-87611900D02*
X104293332Y-86611900D01*
X104198094Y-86754758D01*
X104102856Y-86849996D01*
X104007618Y-86897615D01*
X66708571Y-120732380D02*
X66708571Y-119732380D01*
X67041904Y-120446666D01*
X67375238Y-119732380D01*
X67375238Y-120732380D01*
X67708571Y-119732380D02*
X68280000Y-119732380D01*
X67994285Y-120732380D02*
X67994285Y-119732380D01*
X68946666Y-120208571D02*
X69089523Y-120256190D01*
X69137142Y-120303809D01*
X69184761Y-120399047D01*
X69184761Y-120541904D01*
X69137142Y-120637142D01*
X69089523Y-120684761D01*
X68994285Y-120732380D01*
X68613333Y-120732380D01*
X68613333Y-119732380D01*
X68946666Y-119732380D01*
X69041904Y-119780000D01*
X69089523Y-119827619D01*
X69137142Y-119922857D01*
X69137142Y-120018095D01*
X69089523Y-120113333D01*
X69041904Y-120160952D01*
X68946666Y-120208571D01*
X68613333Y-120208571D01*
X69375238Y-120827619D02*
X70137142Y-120827619D01*
X70375238Y-120208571D02*
X70708571Y-120208571D01*
X70851428Y-120732380D02*
X70375238Y-120732380D01*
X70375238Y-119732380D01*
X70851428Y-119732380D01*
X71280000Y-120732380D02*
X71280000Y-119732380D01*
X71851428Y-120732380D01*
X71851428Y-119732380D01*
X66613333Y-118196180D02*
X66613333Y-117196180D01*
X66946666Y-117910466D01*
X67280000Y-117196180D01*
X67280000Y-118196180D01*
X67613333Y-117196180D02*
X68184761Y-117196180D01*
X67899047Y-118196180D02*
X67899047Y-117196180D01*
X68851428Y-117672371D02*
X68994285Y-117719990D01*
X69041904Y-117767609D01*
X69089523Y-117862847D01*
X69089523Y-118005704D01*
X69041904Y-118100942D01*
X68994285Y-118148561D01*
X68899047Y-118196180D01*
X68518095Y-118196180D01*
X68518095Y-117196180D01*
X68851428Y-117196180D01*
X68946666Y-117243800D01*
X68994285Y-117291419D01*
X69041904Y-117386657D01*
X69041904Y-117481895D01*
X68994285Y-117577133D01*
X68946666Y-117624752D01*
X68851428Y-117672371D01*
X68518095Y-117672371D01*
X69280000Y-118291419D02*
X70041904Y-118291419D01*
X70280000Y-118196180D02*
X70280000Y-117196180D01*
X70660952Y-117196180D01*
X70756190Y-117243800D01*
X70803809Y-117291419D01*
X70851428Y-117386657D01*
X70851428Y-117529514D01*
X70803809Y-117624752D01*
X70756190Y-117672371D01*
X70660952Y-117719990D01*
X70280000Y-117719990D01*
X71280000Y-118196180D02*
X71280000Y-117196180D01*
X71280000Y-117672371D02*
X71851428Y-117672371D01*
X71851428Y-118196180D02*
X71851428Y-117196180D01*
X66851429Y-115659990D02*
X66851429Y-114659990D01*
X67184762Y-115374276D01*
X67518095Y-114659990D01*
X67518095Y-115659990D01*
X67851429Y-114659990D02*
X68422857Y-114659990D01*
X68137143Y-115659990D02*
X68137143Y-114659990D01*
X68708571Y-115374276D02*
X69184762Y-115374276D01*
X68613333Y-115659990D02*
X68946667Y-114659990D01*
X69280000Y-115659990D01*
X69375238Y-115755229D02*
X70137143Y-115755229D01*
X70375238Y-115136181D02*
X70708571Y-115136181D01*
X70851429Y-115659990D02*
X70375238Y-115659990D01*
X70375238Y-114659990D01*
X70851429Y-114659990D01*
X71280000Y-115659990D02*
X71280000Y-114659990D01*
X71851429Y-115659990D01*
X71851429Y-114659990D01*
X66756189Y-113123800D02*
X66756189Y-112123800D01*
X67089523Y-112838086D01*
X67422856Y-112123800D01*
X67422856Y-113123800D01*
X67756189Y-112123800D02*
X68327618Y-112123800D01*
X68041904Y-113123800D02*
X68041904Y-112123800D01*
X68613332Y-112838086D02*
X69089523Y-112838086D01*
X68518094Y-113123800D02*
X68851428Y-112123800D01*
X69184761Y-113123800D01*
X69279999Y-113219039D02*
X70041904Y-113219039D01*
X70279999Y-113123800D02*
X70279999Y-112123800D01*
X70660951Y-112123800D01*
X70756189Y-112171420D01*
X70803809Y-112219039D01*
X70851428Y-112314277D01*
X70851428Y-112457134D01*
X70803809Y-112552372D01*
X70756189Y-112599991D01*
X70660951Y-112647610D01*
X70279999Y-112647610D01*
X71279999Y-113123800D02*
X71279999Y-112123800D01*
X71279999Y-112599991D02*
X71851428Y-112599991D01*
X71851428Y-113123800D02*
X71851428Y-112123800D01*
X70279999Y-110587610D02*
X70279999Y-109587610D01*
X70518094Y-109587610D01*
X70660952Y-109635230D01*
X70756190Y-109730468D01*
X70803809Y-109825706D01*
X70851428Y-110016182D01*
X70851428Y-110159039D01*
X70803809Y-110349515D01*
X70756190Y-110444753D01*
X70660952Y-110539991D01*
X70518094Y-110587610D01*
X70279999Y-110587610D01*
X71470475Y-109587610D02*
X71660952Y-109587610D01*
X71756190Y-109635230D01*
X71851428Y-109730468D01*
X71899047Y-109920944D01*
X71899047Y-110254277D01*
X71851428Y-110444753D01*
X71756190Y-110539991D01*
X71660952Y-110587610D01*
X71470475Y-110587610D01*
X71375237Y-110539991D01*
X71279999Y-110444753D01*
X71232380Y-110254277D01*
X71232380Y-109920944D01*
X71279999Y-109730468D01*
X71375237Y-109635230D01*
X71470475Y-109587610D01*
X70375238Y-108051420D02*
X69899047Y-108051420D01*
X69899047Y-107051420D01*
X70660952Y-107765706D02*
X71137142Y-107765706D01*
X70565714Y-108051420D02*
X70899047Y-107051420D01*
X71232380Y-108051420D01*
X71422857Y-107051420D02*
X71994285Y-107051420D01*
X71708571Y-108051420D02*
X71708571Y-107051420D01*
X69518094Y-104515230D02*
X70089523Y-104515230D01*
X69803809Y-105515230D02*
X69803809Y-104515230D01*
X70422856Y-105515230D02*
X70422856Y-104515230D01*
X70756190Y-105229516D01*
X71089523Y-104515230D01*
X71089523Y-105515230D01*
X71327618Y-105610469D02*
X72089523Y-105610469D01*
X70280000Y-101979040D02*
X70851428Y-101979040D01*
X70565714Y-102979040D02*
X70565714Y-101979040D01*
X71184762Y-102979040D02*
X71184762Y-101979040D01*
X71518095Y-102693326D01*
X71851428Y-101979040D01*
X71851428Y-102979040D01*
X68613332Y-100395231D02*
X68756190Y-100442850D01*
X68994285Y-100442850D01*
X69089523Y-100395231D01*
X69137142Y-100347612D01*
X69184761Y-100252374D01*
X69184761Y-100157136D01*
X69137142Y-100061898D01*
X69089523Y-100014279D01*
X68994285Y-99966660D01*
X68803809Y-99919041D01*
X68708570Y-99871422D01*
X68660951Y-99823803D01*
X68613332Y-99728565D01*
X68613332Y-99633327D01*
X68660951Y-99538089D01*
X68708570Y-99490470D01*
X68803809Y-99442850D01*
X69041904Y-99442850D01*
X69184761Y-99490470D01*
X69470475Y-99442850D02*
X70041904Y-99442850D01*
X69756190Y-100442850D02*
X69756190Y-99442850D01*
X70708570Y-99919041D02*
X70851428Y-99966660D01*
X70899047Y-100014279D01*
X70946666Y-100109517D01*
X70946666Y-100252374D01*
X70899047Y-100347612D01*
X70851428Y-100395231D01*
X70756190Y-100442850D01*
X70375237Y-100442850D01*
X70375237Y-99442850D01*
X70708570Y-99442850D01*
X70803809Y-99490470D01*
X70851428Y-99538089D01*
X70899047Y-99633327D01*
X70899047Y-99728565D01*
X70851428Y-99823803D01*
X70803809Y-99871422D01*
X70708570Y-99919041D01*
X70375237Y-99919041D01*
X71803809Y-99442850D02*
X71613332Y-99442850D01*
X71518094Y-99490470D01*
X71470475Y-99538089D01*
X71375237Y-99680946D01*
X71327618Y-99871422D01*
X71327618Y-100252374D01*
X71375237Y-100347612D01*
X71422856Y-100395231D01*
X71518094Y-100442850D01*
X71708570Y-100442850D01*
X71803809Y-100395231D01*
X71851428Y-100347612D01*
X71899047Y-100252374D01*
X71899047Y-100014279D01*
X71851428Y-99919041D01*
X71803809Y-99871422D01*
X71708570Y-99823803D01*
X71518094Y-99823803D01*
X71422856Y-99871422D01*
X71375237Y-99919041D01*
X71327618Y-100014279D01*
X68613332Y-97859041D02*
X68756190Y-97906660D01*
X68994285Y-97906660D01*
X69089523Y-97859041D01*
X69137142Y-97811422D01*
X69184761Y-97716184D01*
X69184761Y-97620946D01*
X69137142Y-97525708D01*
X69089523Y-97478089D01*
X68994285Y-97430470D01*
X68803809Y-97382851D01*
X68708570Y-97335232D01*
X68660951Y-97287613D01*
X68613332Y-97192375D01*
X68613332Y-97097137D01*
X68660951Y-97001899D01*
X68708570Y-96954280D01*
X68803809Y-96906660D01*
X69041904Y-96906660D01*
X69184761Y-96954280D01*
X69470475Y-96906660D02*
X70041904Y-96906660D01*
X69756190Y-97906660D02*
X69756190Y-96906660D01*
X70708570Y-97382851D02*
X70851428Y-97430470D01*
X70899047Y-97478089D01*
X70946666Y-97573327D01*
X70946666Y-97716184D01*
X70899047Y-97811422D01*
X70851428Y-97859041D01*
X70756190Y-97906660D01*
X70375237Y-97906660D01*
X70375237Y-96906660D01*
X70708570Y-96906660D01*
X70803809Y-96954280D01*
X70851428Y-97001899D01*
X70899047Y-97097137D01*
X70899047Y-97192375D01*
X70851428Y-97287613D01*
X70803809Y-97335232D01*
X70708570Y-97382851D01*
X70375237Y-97382851D01*
X71851428Y-96906660D02*
X71375237Y-96906660D01*
X71327618Y-97382851D01*
X71375237Y-97335232D01*
X71470475Y-97287613D01*
X71708570Y-97287613D01*
X71803809Y-97335232D01*
X71851428Y-97382851D01*
X71899047Y-97478089D01*
X71899047Y-97716184D01*
X71851428Y-97811422D01*
X71803809Y-97859041D01*
X71708570Y-97906660D01*
X71470475Y-97906660D01*
X71375237Y-97859041D01*
X71327618Y-97811422D01*
X68613332Y-95322851D02*
X68756190Y-95370470D01*
X68994285Y-95370470D01*
X69089523Y-95322851D01*
X69137142Y-95275232D01*
X69184761Y-95179994D01*
X69184761Y-95084756D01*
X69137142Y-94989518D01*
X69089523Y-94941899D01*
X68994285Y-94894280D01*
X68803809Y-94846661D01*
X68708570Y-94799042D01*
X68660951Y-94751423D01*
X68613332Y-94656185D01*
X68613332Y-94560947D01*
X68660951Y-94465709D01*
X68708570Y-94418090D01*
X68803809Y-94370470D01*
X69041904Y-94370470D01*
X69184761Y-94418090D01*
X69470475Y-94370470D02*
X70041904Y-94370470D01*
X69756190Y-95370470D02*
X69756190Y-94370470D01*
X70708570Y-94846661D02*
X70851428Y-94894280D01*
X70899047Y-94941899D01*
X70946666Y-95037137D01*
X70946666Y-95179994D01*
X70899047Y-95275232D01*
X70851428Y-95322851D01*
X70756190Y-95370470D01*
X70375237Y-95370470D01*
X70375237Y-94370470D01*
X70708570Y-94370470D01*
X70803809Y-94418090D01*
X70851428Y-94465709D01*
X70899047Y-94560947D01*
X70899047Y-94656185D01*
X70851428Y-94751423D01*
X70803809Y-94799042D01*
X70708570Y-94846661D01*
X70375237Y-94846661D01*
X71803809Y-94703804D02*
X71803809Y-95370470D01*
X71565713Y-94322851D02*
X71327618Y-95037137D01*
X71946666Y-95037137D01*
X68613332Y-92786661D02*
X68756190Y-92834280D01*
X68994285Y-92834280D01*
X69089523Y-92786661D01*
X69137142Y-92739042D01*
X69184761Y-92643804D01*
X69184761Y-92548566D01*
X69137142Y-92453328D01*
X69089523Y-92405709D01*
X68994285Y-92358090D01*
X68803809Y-92310471D01*
X68708570Y-92262852D01*
X68660951Y-92215233D01*
X68613332Y-92119995D01*
X68613332Y-92024757D01*
X68660951Y-91929519D01*
X68708570Y-91881900D01*
X68803809Y-91834280D01*
X69041904Y-91834280D01*
X69184761Y-91881900D01*
X69470475Y-91834280D02*
X70041904Y-91834280D01*
X69756190Y-92834280D02*
X69756190Y-91834280D01*
X70708570Y-92310471D02*
X70851428Y-92358090D01*
X70899047Y-92405709D01*
X70946666Y-92500947D01*
X70946666Y-92643804D01*
X70899047Y-92739042D01*
X70851428Y-92786661D01*
X70756190Y-92834280D01*
X70375237Y-92834280D01*
X70375237Y-91834280D01*
X70708570Y-91834280D01*
X70803809Y-91881900D01*
X70851428Y-91929519D01*
X70899047Y-92024757D01*
X70899047Y-92119995D01*
X70851428Y-92215233D01*
X70803809Y-92262852D01*
X70708570Y-92310471D01*
X70375237Y-92310471D01*
X71279999Y-91834280D02*
X71899047Y-91834280D01*
X71565713Y-92215233D01*
X71708570Y-92215233D01*
X71803809Y-92262852D01*
X71851428Y-92310471D01*
X71899047Y-92405709D01*
X71899047Y-92643804D01*
X71851428Y-92739042D01*
X71803809Y-92786661D01*
X71708570Y-92834280D01*
X71422856Y-92834280D01*
X71327618Y-92786661D01*
X71279999Y-92739042D01*
X68613332Y-90250471D02*
X68756190Y-90298090D01*
X68994285Y-90298090D01*
X69089523Y-90250471D01*
X69137142Y-90202852D01*
X69184761Y-90107614D01*
X69184761Y-90012376D01*
X69137142Y-89917138D01*
X69089523Y-89869519D01*
X68994285Y-89821900D01*
X68803809Y-89774281D01*
X68708570Y-89726662D01*
X68660951Y-89679043D01*
X68613332Y-89583805D01*
X68613332Y-89488567D01*
X68660951Y-89393329D01*
X68708570Y-89345710D01*
X68803809Y-89298090D01*
X69041904Y-89298090D01*
X69184761Y-89345710D01*
X69470475Y-89298090D02*
X70041904Y-89298090D01*
X69756190Y-90298090D02*
X69756190Y-89298090D01*
X70708570Y-89774281D02*
X70851428Y-89821900D01*
X70899047Y-89869519D01*
X70946666Y-89964757D01*
X70946666Y-90107614D01*
X70899047Y-90202852D01*
X70851428Y-90250471D01*
X70756190Y-90298090D01*
X70375237Y-90298090D01*
X70375237Y-89298090D01*
X70708570Y-89298090D01*
X70803809Y-89345710D01*
X70851428Y-89393329D01*
X70899047Y-89488567D01*
X70899047Y-89583805D01*
X70851428Y-89679043D01*
X70803809Y-89726662D01*
X70708570Y-89774281D01*
X70375237Y-89774281D01*
X71327618Y-89393329D02*
X71375237Y-89345710D01*
X71470475Y-89298090D01*
X71708570Y-89298090D01*
X71803809Y-89345710D01*
X71851428Y-89393329D01*
X71899047Y-89488567D01*
X71899047Y-89583805D01*
X71851428Y-89726662D01*
X71279999Y-90298090D01*
X71899047Y-90298090D01*
X68613332Y-87714281D02*
X68756190Y-87761900D01*
X68994285Y-87761900D01*
X69089523Y-87714281D01*
X69137142Y-87666662D01*
X69184761Y-87571424D01*
X69184761Y-87476186D01*
X69137142Y-87380948D01*
X69089523Y-87333329D01*
X68994285Y-87285710D01*
X68803809Y-87238091D01*
X68708570Y-87190472D01*
X68660951Y-87142853D01*
X68613332Y-87047615D01*
X68613332Y-86952377D01*
X68660951Y-86857139D01*
X68708570Y-86809520D01*
X68803809Y-86761900D01*
X69041904Y-86761900D01*
X69184761Y-86809520D01*
X69470475Y-86761900D02*
X70041904Y-86761900D01*
X69756190Y-87761900D02*
X69756190Y-86761900D01*
X70708570Y-87238091D02*
X70851428Y-87285710D01*
X70899047Y-87333329D01*
X70946666Y-87428567D01*
X70946666Y-87571424D01*
X70899047Y-87666662D01*
X70851428Y-87714281D01*
X70756190Y-87761900D01*
X70375237Y-87761900D01*
X70375237Y-86761900D01*
X70708570Y-86761900D01*
X70803809Y-86809520D01*
X70851428Y-86857139D01*
X70899047Y-86952377D01*
X70899047Y-87047615D01*
X70851428Y-87142853D01*
X70803809Y-87190472D01*
X70708570Y-87238091D01*
X70375237Y-87238091D01*
X71899047Y-87761900D02*
X71327618Y-87761900D01*
X71613332Y-87761900D02*
X71613332Y-86761900D01*
X71518094Y-86904758D01*
X71422856Y-86999996D01*
X71327618Y-87047615D01*
X70089523Y-85130472D02*
X70041904Y-85178091D01*
X69899047Y-85225710D01*
X69803809Y-85225710D01*
X69660952Y-85178091D01*
X69565714Y-85082853D01*
X69518095Y-84987615D01*
X69470476Y-84797139D01*
X69470476Y-84654282D01*
X69518095Y-84463806D01*
X69565714Y-84368568D01*
X69660952Y-84273330D01*
X69803809Y-84225710D01*
X69899047Y-84225710D01*
X70041904Y-84273330D01*
X70089523Y-84320949D01*
X70994285Y-85225710D02*
X70518095Y-85225710D01*
X70518095Y-84225710D01*
X71327619Y-85225710D02*
X71327619Y-84225710D01*
X71899047Y-85225710D02*
X71470476Y-84654282D01*
X71899047Y-84225710D02*
X71327619Y-84797139D01*
X70851429Y-82689520D02*
X70851429Y-81689520D01*
X71089524Y-81689520D01*
X71232381Y-81737140D01*
X71327619Y-81832378D01*
X71375238Y-81927616D01*
X71422857Y-82118092D01*
X71422857Y-82260949D01*
X71375238Y-82451425D01*
X71327619Y-82546663D01*
X71232381Y-82641901D01*
X71089524Y-82689520D01*
X70851429Y-82689520D01*
X71851429Y-82689520D02*
X71851429Y-81689520D01*
X69375237Y-80153330D02*
X69375237Y-79153330D01*
X69756190Y-79153330D01*
X69851428Y-79200950D01*
X69899047Y-79248569D01*
X69946666Y-79343807D01*
X69946666Y-79486664D01*
X69899047Y-79581902D01*
X69851428Y-79629521D01*
X69756190Y-79677140D01*
X69375237Y-79677140D01*
X70375237Y-80153330D02*
X70375237Y-79153330D01*
X70375237Y-79629521D02*
X70946666Y-79629521D01*
X70946666Y-80153330D02*
X70946666Y-79153330D01*
X71422856Y-79629521D02*
X71756190Y-79629521D01*
X71899047Y-80153330D02*
X71422856Y-80153330D01*
X71422856Y-79153330D01*
X71899047Y-79153330D01*
X69803809Y-76664760D02*
X69708571Y-76617140D01*
X69565714Y-76617140D01*
X69422856Y-76664760D01*
X69327618Y-76759998D01*
X69279999Y-76855236D01*
X69232380Y-77045712D01*
X69232380Y-77188569D01*
X69279999Y-77379045D01*
X69327618Y-77474283D01*
X69422856Y-77569521D01*
X69565714Y-77617140D01*
X69660952Y-77617140D01*
X69803809Y-77569521D01*
X69851428Y-77521902D01*
X69851428Y-77188569D01*
X69660952Y-77188569D01*
X70279999Y-77617140D02*
X70279999Y-76617140D01*
X70851428Y-77617140D01*
X70851428Y-76617140D01*
X71327618Y-77617140D02*
X71327618Y-76617140D01*
X71565714Y-76617140D01*
X71708571Y-76664760D01*
X71803809Y-76759998D01*
X71851428Y-76855236D01*
X71899047Y-77045712D01*
X71899047Y-77188569D01*
X71851428Y-77379045D01*
X71803809Y-77474283D01*
X71708571Y-77569521D01*
X71565714Y-77617140D01*
X71327618Y-77617140D01*
X67375238Y-74080950D02*
X67708571Y-75080950D01*
X68041904Y-74080950D01*
X68851428Y-75080950D02*
X68375238Y-75080950D01*
X68375238Y-74080950D01*
X69327619Y-75080950D02*
X69232381Y-75033331D01*
X69184762Y-74985712D01*
X69137142Y-74890474D01*
X69137142Y-74604760D01*
X69184762Y-74509522D01*
X69232381Y-74461903D01*
X69327619Y-74414284D01*
X69470476Y-74414284D01*
X69565714Y-74461903D01*
X69613333Y-74509522D01*
X69660952Y-74604760D01*
X69660952Y-74890474D01*
X69613333Y-74985712D01*
X69565714Y-75033331D01*
X69470476Y-75080950D01*
X69327619Y-75080950D01*
X70518095Y-74414284D02*
X70518095Y-75223808D01*
X70470476Y-75319046D01*
X70422857Y-75366665D01*
X70327619Y-75414284D01*
X70184762Y-75414284D01*
X70089523Y-75366665D01*
X70518095Y-75033331D02*
X70422857Y-75080950D01*
X70232381Y-75080950D01*
X70137142Y-75033331D01*
X70089523Y-74985712D01*
X70041904Y-74890474D01*
X70041904Y-74604760D01*
X70089523Y-74509522D01*
X70137142Y-74461903D01*
X70232381Y-74414284D01*
X70422857Y-74414284D01*
X70518095Y-74461903D01*
X70994285Y-75080950D02*
X70994285Y-74414284D01*
X70994285Y-74080950D02*
X70946666Y-74128570D01*
X70994285Y-74176189D01*
X71041904Y-74128570D01*
X70994285Y-74080950D01*
X70994285Y-74176189D01*
X71899047Y-75033331D02*
X71803809Y-75080950D01*
X71613333Y-75080950D01*
X71518095Y-75033331D01*
X71470476Y-74985712D01*
X71422857Y-74890474D01*
X71422857Y-74604760D01*
X71470476Y-74509522D01*
X71518095Y-74461903D01*
X71613333Y-74414284D01*
X71803809Y-74414284D01*
X71899047Y-74461903D01*
X70280000Y-71544760D02*
X70613333Y-72544760D01*
X70946666Y-71544760D01*
X71280000Y-72544760D02*
X71280000Y-71544760D01*
X71280000Y-72020951D02*
X71851428Y-72020951D01*
X71851428Y-72544760D02*
X71851428Y-71544760D01*
X70994285Y-69008570D02*
X70518095Y-69008570D01*
X70470476Y-69484761D01*
X70518095Y-69437142D01*
X70613333Y-69389523D01*
X70851428Y-69389523D01*
X70946666Y-69437142D01*
X70994285Y-69484761D01*
X71041904Y-69579999D01*
X71041904Y-69818094D01*
X70994285Y-69913332D01*
X70946666Y-69960951D01*
X70851428Y-70008570D01*
X70613333Y-70008570D01*
X70518095Y-69960951D01*
X70470476Y-69913332D01*
X71327619Y-69008570D02*
X71660952Y-70008570D01*
X71994285Y-69008570D01*
X71273809Y-63132380D02*
X71892857Y-63132380D01*
X71559523Y-63513333D01*
X71702380Y-63513333D01*
X71797619Y-63560952D01*
X71845238Y-63608571D01*
X71892857Y-63703809D01*
X71892857Y-63941904D01*
X71845238Y-64037142D01*
X71797619Y-64084761D01*
X71702380Y-64132380D01*
X71416666Y-64132380D01*
X71321428Y-64084761D01*
X71273809Y-64037142D01*
X72321428Y-64037142D02*
X72369047Y-64084761D01*
X72321428Y-64132380D01*
X72273809Y-64084761D01*
X72321428Y-64037142D01*
X72321428Y-64132380D01*
X72702380Y-63132380D02*
X73321428Y-63132380D01*
X72988095Y-63513333D01*
X73130952Y-63513333D01*
X73226190Y-63560952D01*
X73273809Y-63608571D01*
X73321428Y-63703809D01*
X73321428Y-63941904D01*
X73273809Y-64037142D01*
X73226190Y-64084761D01*
X73130952Y-64132380D01*
X72845238Y-64132380D01*
X72750000Y-64084761D01*
X72702380Y-64037142D01*
X73607142Y-63132380D02*
X73940476Y-64132380D01*
X74273809Y-63132380D01*
X80800000Y-65407380D02*
X80323809Y-65407380D01*
X80323809Y-64407380D01*
X81038095Y-64740714D02*
X81276190Y-65407380D01*
X81514285Y-64740714D01*
X83228571Y-65312142D02*
X83180952Y-65359761D01*
X83038095Y-65407380D01*
X82942857Y-65407380D01*
X82800000Y-65359761D01*
X82704761Y-65264523D01*
X82657142Y-65169285D01*
X82609523Y-64978809D01*
X82609523Y-64835952D01*
X82657142Y-64645476D01*
X82704761Y-64550238D01*
X82800000Y-64455000D01*
X82942857Y-64407380D01*
X83038095Y-64407380D01*
X83180952Y-64455000D01*
X83228571Y-64502619D01*
X83800000Y-65407380D02*
X83704761Y-65359761D01*
X83657142Y-65312142D01*
X83609523Y-65216904D01*
X83609523Y-64931190D01*
X83657142Y-64835952D01*
X83704761Y-64788333D01*
X83800000Y-64740714D01*
X83942857Y-64740714D01*
X84038095Y-64788333D01*
X84085714Y-64835952D01*
X84133333Y-64931190D01*
X84133333Y-65216904D01*
X84085714Y-65312142D01*
X84038095Y-65359761D01*
X83942857Y-65407380D01*
X83800000Y-65407380D01*
X84561904Y-64740714D02*
X84561904Y-65407380D01*
X84561904Y-64835952D02*
X84609523Y-64788333D01*
X84704761Y-64740714D01*
X84847619Y-64740714D01*
X84942857Y-64788333D01*
X84990476Y-64883571D01*
X84990476Y-65407380D01*
X85371428Y-64740714D02*
X85609523Y-65407380D01*
X85847619Y-64740714D01*
X86609523Y-65359761D02*
X86514285Y-65407380D01*
X86323809Y-65407380D01*
X86228571Y-65359761D01*
X86180952Y-65264523D01*
X86180952Y-64883571D01*
X86228571Y-64788333D01*
X86323809Y-64740714D01*
X86514285Y-64740714D01*
X86609523Y-64788333D01*
X86657142Y-64883571D01*
X86657142Y-64978809D01*
X86180952Y-65074047D01*
X87085714Y-65407380D02*
X87085714Y-64740714D01*
X87085714Y-64931190D02*
X87133333Y-64835952D01*
X87180952Y-64788333D01*
X87276190Y-64740714D01*
X87371428Y-64740714D01*
X87561904Y-64740714D02*
X87942857Y-64740714D01*
X87704761Y-64407380D02*
X87704761Y-65264523D01*
X87752380Y-65359761D01*
X87847619Y-65407380D01*
X87942857Y-65407380D01*
X88657142Y-65359761D02*
X88561904Y-65407380D01*
X88371428Y-65407380D01*
X88276190Y-65359761D01*
X88228571Y-65264523D01*
X88228571Y-64883571D01*
X88276190Y-64788333D01*
X88371428Y-64740714D01*
X88561904Y-64740714D01*
X88657142Y-64788333D01*
X88704761Y-64883571D01*
X88704761Y-64978809D01*
X88228571Y-65074047D01*
X89133333Y-65407380D02*
X89133333Y-64740714D01*
X89133333Y-64931190D02*
X89180952Y-64835952D01*
X89228571Y-64788333D01*
X89323809Y-64740714D01*
X89419047Y-64740714D01*
X79180952Y-66057380D02*
X79514285Y-67057380D01*
X79847619Y-66057380D01*
X80561904Y-67009761D02*
X80466666Y-67057380D01*
X80276190Y-67057380D01*
X80180952Y-67009761D01*
X80133333Y-66914523D01*
X80133333Y-66533571D01*
X80180952Y-66438333D01*
X80276190Y-66390714D01*
X80466666Y-66390714D01*
X80561904Y-66438333D01*
X80609523Y-66533571D01*
X80609523Y-66628809D01*
X80133333Y-66724047D01*
X81038095Y-67057380D02*
X81038095Y-66390714D01*
X81038095Y-66581190D02*
X81085714Y-66485952D01*
X81133333Y-66438333D01*
X81228571Y-66390714D01*
X81323809Y-66390714D01*
X81657142Y-66962142D02*
X81704761Y-67009761D01*
X81657142Y-67057380D01*
X81609523Y-67009761D01*
X81657142Y-66962142D01*
X81657142Y-67057380D01*
X82657142Y-67057380D02*
X82085714Y-67057380D01*
X82371428Y-67057380D02*
X82371428Y-66057380D01*
X82276190Y-66200238D01*
X82180952Y-66295476D01*
X82085714Y-66343095D01*
X83085714Y-66962142D02*
X83133333Y-67009761D01*
X83085714Y-67057380D01*
X83038095Y-67009761D01*
X83085714Y-66962142D01*
X83085714Y-67057380D01*
X83752380Y-66057380D02*
X83847619Y-66057380D01*
X83942857Y-66105000D01*
X83990476Y-66152619D01*
X84038095Y-66247857D01*
X84085714Y-66438333D01*
X84085714Y-66676428D01*
X84038095Y-66866904D01*
X83990476Y-66962142D01*
X83942857Y-67009761D01*
X83847619Y-67057380D01*
X83752380Y-67057380D01*
X83657142Y-67009761D01*
X83609523Y-66962142D01*
X83561904Y-66866904D01*
X83514285Y-66676428D01*
X83514285Y-66438333D01*
X83561904Y-66247857D01*
X83609523Y-66152619D01*
X83657142Y-66105000D01*
X83752380Y-66057380D01*
X85847619Y-67057380D02*
X85514285Y-66581190D01*
X85276190Y-67057380D02*
X85276190Y-66057380D01*
X85657142Y-66057380D01*
X85752380Y-66105000D01*
X85800000Y-66152619D01*
X85847619Y-66247857D01*
X85847619Y-66390714D01*
X85800000Y-66485952D01*
X85752380Y-66533571D01*
X85657142Y-66581190D01*
X85276190Y-66581190D01*
X86657142Y-67009761D02*
X86561904Y-67057380D01*
X86371428Y-67057380D01*
X86276190Y-67009761D01*
X86228571Y-66914523D01*
X86228571Y-66533571D01*
X86276190Y-66438333D01*
X86371428Y-66390714D01*
X86561904Y-66390714D01*
X86657142Y-66438333D01*
X86704761Y-66533571D01*
X86704761Y-66628809D01*
X86228571Y-66724047D01*
X87038095Y-66390714D02*
X87276190Y-67057380D01*
X87514285Y-66390714D01*
X87895238Y-66962142D02*
X87942857Y-67009761D01*
X87895238Y-67057380D01*
X87847619Y-67009761D01*
X87895238Y-66962142D01*
X87895238Y-67057380D01*
X88561904Y-66057380D02*
X88657142Y-66057380D01*
X88752380Y-66105000D01*
X88800000Y-66152619D01*
X88847619Y-66247857D01*
X88895238Y-66438333D01*
X88895238Y-66676428D01*
X88847619Y-66866904D01*
X88800000Y-66962142D01*
X88752380Y-67009761D01*
X88657142Y-67057380D01*
X88561904Y-67057380D01*
X88466666Y-67009761D01*
X88419047Y-66962142D01*
X88371428Y-66866904D01*
X88323809Y-66676428D01*
X88323809Y-66438333D01*
X88371428Y-66247857D01*
X88419047Y-66152619D01*
X88466666Y-66105000D01*
X88561904Y-66057380D01*
X89323809Y-66962142D02*
X89371428Y-67009761D01*
X89323809Y-67057380D01*
X89276190Y-67009761D01*
X89323809Y-66962142D01*
X89323809Y-67057380D01*
X89990476Y-66057380D02*
X90085714Y-66057380D01*
X90180952Y-66105000D01*
X90228571Y-66152619D01*
X90276190Y-66247857D01*
X90323809Y-66438333D01*
X90323809Y-66676428D01*
X90276190Y-66866904D01*
X90228571Y-66962142D01*
X90180952Y-67009761D01*
X90085714Y-67057380D01*
X89990476Y-67057380D01*
X89895238Y-67009761D01*
X89847619Y-66962142D01*
X89800000Y-66866904D01*
X89752380Y-66676428D01*
X89752380Y-66438333D01*
X89800000Y-66247857D01*
X89847619Y-66152619D01*
X89895238Y-66105000D01*
X89990476Y-66057380D01*
D11*
G04 #@! TO.C,REF_head*
X164000000Y-68926000D02*
X164000000Y-138726000D01*
X164000000Y-68926000D02*
X131000000Y-68926000D01*
X131000000Y-68926000D02*
X131000000Y-73526000D01*
X131000000Y-73526000D02*
X131000000Y-79726000D01*
X131000000Y-79726000D02*
X142600000Y-79726000D01*
X142600000Y-79726000D02*
X142600000Y-138726000D01*
X142600000Y-138726000D02*
X164000000Y-138726000D01*
G04 #@! TO.C,C1*
X123696000Y-70465733D02*
X123696000Y-70758267D01*
X124716000Y-70465733D02*
X124716000Y-70758267D01*
G04 #@! TO.C,C4*
X123696000Y-65385733D02*
X123696000Y-65678267D01*
X124716000Y-65385733D02*
X124716000Y-65678267D01*
G04 #@! TO.C,J1*
X117094000Y-65472000D02*
X118424000Y-65472000D01*
X118424000Y-65472000D02*
X118424000Y-66802000D01*
X118424000Y-68072000D02*
X118424000Y-121472000D01*
X115764000Y-121472000D02*
X118424000Y-121472000D01*
X115764000Y-68072000D02*
X115764000Y-121472000D01*
X115764000Y-68072000D02*
X118424000Y-68072000D01*
G04 #@! TO.C,J2*
X135022000Y-121491000D02*
X135022000Y-122316000D01*
X135022000Y-91361000D02*
X136822000Y-91361000D01*
X135022000Y-90536000D02*
X135022000Y-91361000D01*
X130512000Y-88381000D02*
X131052000Y-88381000D01*
X130512000Y-87356000D02*
X130512000Y-88381000D01*
X129402000Y-87356000D02*
X130512000Y-87356000D01*
X129402000Y-125496000D02*
X129402000Y-87356000D01*
X130512000Y-125496000D02*
X129402000Y-125496000D01*
X130512000Y-124471000D02*
X130512000Y-125496000D01*
X131052000Y-124471000D02*
X130512000Y-124471000D01*
G04 #@! TO.C,J3*
X73660000Y-65472000D02*
X74990000Y-65472000D01*
X74990000Y-65472000D02*
X74990000Y-66802000D01*
X74990000Y-68072000D02*
X74990000Y-121472000D01*
X72330000Y-121472000D02*
X74990000Y-121472000D01*
X72330000Y-68072000D02*
X72330000Y-121472000D01*
X72330000Y-68072000D02*
X74990000Y-68072000D01*
G04 #@! TO.C,J4*
X95444000Y-68072000D02*
X98104000Y-68072000D01*
X95444000Y-68072000D02*
X95444000Y-121472000D01*
X95444000Y-121472000D02*
X98104000Y-121472000D01*
X98104000Y-68072000D02*
X98104000Y-121472000D01*
X98104000Y-65472000D02*
X98104000Y-66802000D01*
X96774000Y-65472000D02*
X98104000Y-65472000D01*
G04 #@! TO.C,Q6*
X85258000Y-97550000D02*
X82828000Y-97550000D01*
X85278000Y-97560000D02*
X85278000Y-98560000D01*
X85278000Y-100610000D02*
X83428000Y-100610000D01*
X85278000Y-99560000D02*
X85278000Y-100610000D01*
G04 #@! TO.C,Q7*
X85258000Y-80532000D02*
X82828000Y-80532000D01*
X85278000Y-80542000D02*
X85278000Y-81542000D01*
X85278000Y-83592000D02*
X83428000Y-83592000D01*
X85278000Y-82542000D02*
X85278000Y-83592000D01*
G04 #@! TO.C,Q8*
X85278000Y-93718000D02*
X85278000Y-94768000D01*
X85278000Y-94768000D02*
X83428000Y-94768000D01*
X85278000Y-91718000D02*
X85278000Y-92718000D01*
X85258000Y-91708000D02*
X82828000Y-91708000D01*
G04 #@! TO.C,Q10*
X85278000Y-88384000D02*
X85278000Y-89434000D01*
X85278000Y-89434000D02*
X83428000Y-89434000D01*
X85278000Y-86384000D02*
X85278000Y-87384000D01*
X85258000Y-86374000D02*
X82828000Y-86374000D01*
G04 #@! TO.C,R7*
X79233500Y-99059276D02*
X79233500Y-99568724D01*
X80278500Y-99059276D02*
X80278500Y-99568724D01*
G04 #@! TO.C,R8*
X80278500Y-81787276D02*
X80278500Y-82296724D01*
X79233500Y-81787276D02*
X79233500Y-82296724D01*
G04 #@! TO.C,R9*
X79233500Y-92963276D02*
X79233500Y-93472724D01*
X80278500Y-92963276D02*
X80278500Y-93472724D01*
G04 #@! TO.C,R14*
X89407276Y-98029500D02*
X89916724Y-98029500D01*
X89407276Y-99074500D02*
X89916724Y-99074500D01*
G04 #@! TO.C,R15*
X89407276Y-81548500D02*
X89916724Y-81548500D01*
X89407276Y-80503500D02*
X89916724Y-80503500D01*
G04 #@! TO.C,R16*
X89407276Y-92565500D02*
X89916724Y-92565500D01*
X89407276Y-91520500D02*
X89916724Y-91520500D01*
G04 #@! TO.C,R18*
X80278500Y-87629276D02*
X80278500Y-88138724D01*
X79233500Y-87629276D02*
X79233500Y-88138724D01*
G04 #@! TO.C,R21*
X89407276Y-86345500D02*
X89916724Y-86345500D01*
X89407276Y-87390500D02*
X89916724Y-87390500D01*
G04 #@! TO.C,U1*
X124792000Y-81542000D02*
X124792000Y-80042000D01*
X124792000Y-80042000D02*
X125992000Y-80042000D01*
X126992000Y-83662000D02*
X125992000Y-83662000D01*
X125242000Y-80422000D02*
X127612000Y-80422000D01*
G04 #@! TO.C,Q1*
X85258000Y-74182000D02*
X82828000Y-74182000D01*
X85278000Y-74192000D02*
X85278000Y-75192000D01*
X85278000Y-77242000D02*
X83428000Y-77242000D01*
X85278000Y-76192000D02*
X85278000Y-77242000D01*
G04 #@! TO.C,R1*
X79233500Y-75437276D02*
X79233500Y-75946724D01*
X80278500Y-75437276D02*
X80278500Y-75946724D01*
G04 #@! TO.C,R2*
X89916724Y-75198500D02*
X89407276Y-75198500D01*
X89916724Y-74153500D02*
X89407276Y-74153500D01*
G04 #@! TD*
M02*
