G04 #@! TF.GenerationSoftware,KiCad,Pcbnew,5.1.10-88a1d61d58~88~ubuntu18.04.1*
G04 #@! TF.CreationDate,2021-10-23T19:35:26+09:00*
G04 #@! TF.ProjectId,CameraJigSTM32F446RE_Logic,43616d65-7261-44a6-9967-53544d333246,rev?*
G04 #@! TF.SameCoordinates,Original*
G04 #@! TF.FileFunction,Soldermask,Bot*
G04 #@! TF.FilePolarity,Negative*
%FSLAX46Y46*%
G04 Gerber Fmt 4.6, Leading zero omitted, Abs format (unit mm)*
G04 Created by KiCad (PCBNEW 5.1.10-88a1d61d58~88~ubuntu18.04.1) date 2021-10-23 19:35:26*
%MOMM*%
%LPD*%
G01*
G04 APERTURE LIST*
%ADD10R,1.600000X1.600000*%
%ADD11C,1.600000*%
%ADD12C,2.200000*%
%ADD13C,3.200000*%
%ADD14R,1.700000X1.700000*%
%ADD15O,1.700000X1.700000*%
%ADD16C,1.300000*%
%ADD17R,1.300000X1.300000*%
%ADD18C,1.500000*%
%ADD19R,6.400000X5.800000*%
%ADD20R,2.200000X1.200000*%
%ADD21R,1.200000X2.200000*%
%ADD22R,5.800000X6.400000*%
G04 APERTURE END LIST*
D10*
G04 #@! TO.C,C1*
X69250000Y-79000000D03*
D11*
X69250000Y-81500000D03*
G04 #@! TD*
D10*
G04 #@! TO.C,C5*
X74000000Y-73750000D03*
D11*
X74000000Y-76250000D03*
G04 #@! TD*
G04 #@! TO.C,C6*
X70750000Y-88750000D03*
D10*
X70750000Y-86250000D03*
G04 #@! TD*
D11*
G04 #@! TO.C,C4*
X76300000Y-84200000D03*
D10*
X76300000Y-81700000D03*
G04 #@! TD*
D12*
G04 #@! TO.C,REF_13*
X138938000Y-139325000D03*
G04 #@! TD*
G04 #@! TO.C,REF_12*
X115316000Y-139325000D03*
G04 #@! TD*
G04 #@! TO.C,REF_11*
X138684000Y-130300000D03*
G04 #@! TD*
G04 #@! TO.C,REF_10*
X115316000Y-130300000D03*
G04 #@! TD*
G04 #@! TO.C,REF_f*
X109728000Y-150366000D03*
G04 #@! TD*
G04 #@! TO.C,REF_d*
X109728000Y-130300000D03*
G04 #@! TD*
G04 #@! TO.C,REF_e*
X88646000Y-150366000D03*
G04 #@! TD*
G04 #@! TO.C,REF_c*
X88646000Y-130300000D03*
G04 #@! TD*
D13*
G04 #@! TO.C,REF_b*
X143764000Y-123444000D03*
G04 #@! TD*
G04 #@! TO.C,REF_9*
X143764000Y-65024000D03*
G04 #@! TD*
G04 #@! TO.C,REF_a*
X87000000Y-123444000D03*
G04 #@! TD*
G04 #@! TO.C,REF_7*
X79793000Y-123444000D03*
G04 #@! TD*
G04 #@! TO.C,REF_5*
X79793000Y-102108000D03*
G04 #@! TD*
G04 #@! TO.C,REF_6*
X50038000Y-123444000D03*
G04 #@! TD*
G04 #@! TO.C,REF_4*
X50075000Y-102108000D03*
G04 #@! TD*
G04 #@! TO.C,REF_8*
X87000000Y-65024000D03*
G04 #@! TD*
G04 #@! TO.C,REF_2*
X50075000Y-89550000D03*
G04 #@! TD*
G04 #@! TO.C,REF_3*
X78175000Y-89550000D03*
G04 #@! TD*
G04 #@! TO.C,REF_1*
X78175000Y-65075000D03*
G04 #@! TD*
G04 #@! TO.C,REF_0*
X50075000Y-65075000D03*
G04 #@! TD*
G04 #@! TO.C,C9*
G36*
G01*
X67712500Y-85875000D02*
X68187500Y-85875000D01*
G75*
G02*
X68425000Y-86112500I0J-237500D01*
G01*
X68425000Y-86712500D01*
G75*
G02*
X68187500Y-86950000I-237500J0D01*
G01*
X67712500Y-86950000D01*
G75*
G02*
X67475000Y-86712500I0J237500D01*
G01*
X67475000Y-86112500D01*
G75*
G02*
X67712500Y-85875000I237500J0D01*
G01*
G37*
G36*
G01*
X67712500Y-84150000D02*
X68187500Y-84150000D01*
G75*
G02*
X68425000Y-84387500I0J-237500D01*
G01*
X68425000Y-84987500D01*
G75*
G02*
X68187500Y-85225000I-237500J0D01*
G01*
X67712500Y-85225000D01*
G75*
G02*
X67475000Y-84987500I0J237500D01*
G01*
X67475000Y-84387500D01*
G75*
G02*
X67712500Y-84150000I237500J0D01*
G01*
G37*
G04 #@! TD*
G04 #@! TO.C,C11*
G36*
G01*
X69525000Y-75512500D02*
X69525000Y-75987500D01*
G75*
G02*
X69287500Y-76225000I-237500J0D01*
G01*
X68687500Y-76225000D01*
G75*
G02*
X68450000Y-75987500I0J237500D01*
G01*
X68450000Y-75512500D01*
G75*
G02*
X68687500Y-75275000I237500J0D01*
G01*
X69287500Y-75275000D01*
G75*
G02*
X69525000Y-75512500I0J-237500D01*
G01*
G37*
G36*
G01*
X71250000Y-75512500D02*
X71250000Y-75987500D01*
G75*
G02*
X71012500Y-76225000I-237500J0D01*
G01*
X70412500Y-76225000D01*
G75*
G02*
X70175000Y-75987500I0J237500D01*
G01*
X70175000Y-75512500D01*
G75*
G02*
X70412500Y-75275000I237500J0D01*
G01*
X71012500Y-75275000D01*
G75*
G02*
X71250000Y-75512500I0J-237500D01*
G01*
G37*
G04 #@! TD*
G04 #@! TO.C,C14*
G36*
G01*
X68137500Y-88775000D02*
X67662500Y-88775000D01*
G75*
G02*
X67425000Y-88537500I0J237500D01*
G01*
X67425000Y-87937500D01*
G75*
G02*
X67662500Y-87700000I237500J0D01*
G01*
X68137500Y-87700000D01*
G75*
G02*
X68375000Y-87937500I0J-237500D01*
G01*
X68375000Y-88537500D01*
G75*
G02*
X68137500Y-88775000I-237500J0D01*
G01*
G37*
G36*
G01*
X68137500Y-90500000D02*
X67662500Y-90500000D01*
G75*
G02*
X67425000Y-90262500I0J237500D01*
G01*
X67425000Y-89662500D01*
G75*
G02*
X67662500Y-89425000I237500J0D01*
G01*
X68137500Y-89425000D01*
G75*
G02*
X68375000Y-89662500I0J-237500D01*
G01*
X68375000Y-90262500D01*
G75*
G02*
X68137500Y-90500000I-237500J0D01*
G01*
G37*
G04 #@! TD*
G04 #@! TO.C,C15*
G36*
G01*
X64950000Y-75987500D02*
X64950000Y-75512500D01*
G75*
G02*
X65187500Y-75275000I237500J0D01*
G01*
X65787500Y-75275000D01*
G75*
G02*
X66025000Y-75512500I0J-237500D01*
G01*
X66025000Y-75987500D01*
G75*
G02*
X65787500Y-76225000I-237500J0D01*
G01*
X65187500Y-76225000D01*
G75*
G02*
X64950000Y-75987500I0J237500D01*
G01*
G37*
G36*
G01*
X66675000Y-75987500D02*
X66675000Y-75512500D01*
G75*
G02*
X66912500Y-75275000I237500J0D01*
G01*
X67512500Y-75275000D01*
G75*
G02*
X67750000Y-75512500I0J-237500D01*
G01*
X67750000Y-75987500D01*
G75*
G02*
X67512500Y-76225000I-237500J0D01*
G01*
X66912500Y-76225000D01*
G75*
G02*
X66675000Y-75987500I0J237500D01*
G01*
G37*
G04 #@! TD*
G04 #@! TO.C,C16*
G36*
G01*
X77787500Y-70112500D02*
X77787500Y-70587500D01*
G75*
G02*
X77550000Y-70825000I-237500J0D01*
G01*
X76950000Y-70825000D01*
G75*
G02*
X76712500Y-70587500I0J237500D01*
G01*
X76712500Y-70112500D01*
G75*
G02*
X76950000Y-69875000I237500J0D01*
G01*
X77550000Y-69875000D01*
G75*
G02*
X77787500Y-70112500I0J-237500D01*
G01*
G37*
G36*
G01*
X76062500Y-70112500D02*
X76062500Y-70587500D01*
G75*
G02*
X75825000Y-70825000I-237500J0D01*
G01*
X75225000Y-70825000D01*
G75*
G02*
X74987500Y-70587500I0J237500D01*
G01*
X74987500Y-70112500D01*
G75*
G02*
X75225000Y-69875000I237500J0D01*
G01*
X75825000Y-69875000D01*
G75*
G02*
X76062500Y-70112500I0J-237500D01*
G01*
G37*
G04 #@! TD*
D14*
G04 #@! TO.C,J2*
X119390000Y-98369100D03*
D15*
X119390000Y-100909100D03*
X119390000Y-103449100D03*
X119390000Y-105989100D03*
X119390000Y-108529100D03*
G04 #@! TD*
D14*
G04 #@! TO.C,J4*
X119591000Y-85453200D03*
D15*
X119591000Y-87993200D03*
X119591000Y-90533200D03*
X119591000Y-93073200D03*
G04 #@! TD*
D14*
G04 #@! TO.C,J5*
X127914000Y-75694500D03*
D15*
X130454000Y-75694500D03*
X132994000Y-75694500D03*
G04 #@! TD*
D14*
G04 #@! TO.C,J6*
X114808000Y-74676000D03*
D15*
X114808000Y-72136000D03*
X112268000Y-74676000D03*
X112268000Y-72136000D03*
X109728000Y-74676000D03*
X109728000Y-72136000D03*
X107188000Y-74676000D03*
X107188000Y-72136000D03*
X104648000Y-74676000D03*
X104648000Y-72136000D03*
X102108000Y-74676000D03*
X102108000Y-72136000D03*
X99568000Y-74676000D03*
X99568000Y-72136000D03*
X97028000Y-74676000D03*
X97028000Y-72136000D03*
X94488000Y-74676000D03*
X94488000Y-72136000D03*
G04 #@! TD*
G04 #@! TO.C,J8*
X85323500Y-77981000D03*
X85323500Y-75441000D03*
X85323500Y-72901000D03*
D14*
X85323500Y-70361000D03*
G04 #@! TD*
G04 #@! TO.C,J9*
X89562900Y-105839000D03*
D15*
X92102900Y-105839000D03*
X94642900Y-105839000D03*
X97182900Y-105839000D03*
G04 #@! TD*
D14*
G04 #@! TO.C,J10*
X119418000Y-131133000D03*
D15*
X121958000Y-131133000D03*
X124498000Y-131133000D03*
X127038000Y-131133000D03*
X129578000Y-131133000D03*
X132118000Y-131133000D03*
X134658000Y-131133000D03*
G04 #@! TD*
G04 #@! TO.C,J11*
X134404000Y-123683000D03*
X131864000Y-123683000D03*
X129324000Y-123683000D03*
X126784000Y-123683000D03*
X124244000Y-123683000D03*
X121704000Y-123683000D03*
D14*
X119164000Y-123683000D03*
G04 #@! TD*
G04 #@! TO.C,J13*
X54887500Y-113802000D03*
D15*
X54887500Y-116342000D03*
X57427500Y-113802000D03*
X57427500Y-116342000D03*
X59967500Y-113802000D03*
X59967500Y-116342000D03*
X62507500Y-113802000D03*
X62507500Y-116342000D03*
X65047500Y-113802000D03*
X65047500Y-116342000D03*
X67587500Y-113802000D03*
X67587500Y-116342000D03*
X70127500Y-113802000D03*
X70127500Y-116342000D03*
X72667500Y-113802000D03*
X72667500Y-116342000D03*
X75207500Y-113802000D03*
X75207500Y-116342000D03*
G04 #@! TD*
G04 #@! TO.C,J14*
X105473500Y-123683000D03*
X102933500Y-123683000D03*
X100393500Y-123683000D03*
X97853500Y-123683000D03*
X95313500Y-123683000D03*
D14*
X92773500Y-123683000D03*
G04 #@! TD*
G04 #@! TO.C,J15*
X92737900Y-131133000D03*
D15*
X95277900Y-131133000D03*
X97817900Y-131133000D03*
X100357900Y-131133000D03*
X102897900Y-131133000D03*
X105437900Y-131133000D03*
G04 #@! TD*
G04 #@! TO.C,J17*
X108458000Y-117602000D03*
X108458000Y-115062000D03*
X108458000Y-112522000D03*
D14*
X108458000Y-109982000D03*
G04 #@! TD*
G04 #@! TO.C,J21*
X79756000Y-70358000D03*
D15*
X79756000Y-72898000D03*
X79756000Y-75438000D03*
X79756000Y-77978000D03*
G04 #@! TD*
G04 #@! TO.C,R2*
G36*
G01*
X108733500Y-93574100D02*
X108258500Y-93574100D01*
G75*
G02*
X108021000Y-93336600I0J237500D01*
G01*
X108021000Y-92836600D01*
G75*
G02*
X108258500Y-92599100I237500J0D01*
G01*
X108733500Y-92599100D01*
G75*
G02*
X108971000Y-92836600I0J-237500D01*
G01*
X108971000Y-93336600D01*
G75*
G02*
X108733500Y-93574100I-237500J0D01*
G01*
G37*
G36*
G01*
X108733500Y-91749100D02*
X108258500Y-91749100D01*
G75*
G02*
X108021000Y-91511600I0J237500D01*
G01*
X108021000Y-91011600D01*
G75*
G02*
X108258500Y-90774100I237500J0D01*
G01*
X108733500Y-90774100D01*
G75*
G02*
X108971000Y-91011600I0J-237500D01*
G01*
X108971000Y-91511600D01*
G75*
G02*
X108733500Y-91749100I-237500J0D01*
G01*
G37*
G04 #@! TD*
G04 #@! TO.C,R3*
G36*
G01*
X102977500Y-91764300D02*
X102502500Y-91764300D01*
G75*
G02*
X102265000Y-91526800I0J237500D01*
G01*
X102265000Y-91026800D01*
G75*
G02*
X102502500Y-90789300I237500J0D01*
G01*
X102977500Y-90789300D01*
G75*
G02*
X103215000Y-91026800I0J-237500D01*
G01*
X103215000Y-91526800D01*
G75*
G02*
X102977500Y-91764300I-237500J0D01*
G01*
G37*
G36*
G01*
X102977500Y-93589300D02*
X102502500Y-93589300D01*
G75*
G02*
X102265000Y-93351800I0J237500D01*
G01*
X102265000Y-92851800D01*
G75*
G02*
X102502500Y-92614300I237500J0D01*
G01*
X102977500Y-92614300D01*
G75*
G02*
X103215000Y-92851800I0J-237500D01*
G01*
X103215000Y-93351800D01*
G75*
G02*
X102977500Y-93589300I-237500J0D01*
G01*
G37*
G04 #@! TD*
G04 #@! TO.C,R4*
G36*
G01*
X106330500Y-90736000D02*
X106805500Y-90736000D01*
G75*
G02*
X107043000Y-90973500I0J-237500D01*
G01*
X107043000Y-91473500D01*
G75*
G02*
X106805500Y-91711000I-237500J0D01*
G01*
X106330500Y-91711000D01*
G75*
G02*
X106093000Y-91473500I0J237500D01*
G01*
X106093000Y-90973500D01*
G75*
G02*
X106330500Y-90736000I237500J0D01*
G01*
G37*
G36*
G01*
X106330500Y-92561000D02*
X106805500Y-92561000D01*
G75*
G02*
X107043000Y-92798500I0J-237500D01*
G01*
X107043000Y-93298500D01*
G75*
G02*
X106805500Y-93536000I-237500J0D01*
G01*
X106330500Y-93536000D01*
G75*
G02*
X106093000Y-93298500I0J237500D01*
G01*
X106093000Y-92798500D01*
G75*
G02*
X106330500Y-92561000I237500J0D01*
G01*
G37*
G04 #@! TD*
G04 #@! TO.C,R6*
G36*
G01*
X104834500Y-93581700D02*
X104359500Y-93581700D01*
G75*
G02*
X104122000Y-93344200I0J237500D01*
G01*
X104122000Y-92844200D01*
G75*
G02*
X104359500Y-92606700I237500J0D01*
G01*
X104834500Y-92606700D01*
G75*
G02*
X105072000Y-92844200I0J-237500D01*
G01*
X105072000Y-93344200D01*
G75*
G02*
X104834500Y-93581700I-237500J0D01*
G01*
G37*
G36*
G01*
X104834500Y-91756700D02*
X104359500Y-91756700D01*
G75*
G02*
X104122000Y-91519200I0J237500D01*
G01*
X104122000Y-91019200D01*
G75*
G02*
X104359500Y-90781700I237500J0D01*
G01*
X104834500Y-90781700D01*
G75*
G02*
X105072000Y-91019200I0J-237500D01*
G01*
X105072000Y-91519200D01*
G75*
G02*
X104834500Y-91756700I-237500J0D01*
G01*
G37*
G04 #@! TD*
G04 #@! TO.C,R32*
G36*
G01*
X64950000Y-78512500D02*
X64950000Y-78987500D01*
G75*
G02*
X64712500Y-79225000I-237500J0D01*
G01*
X64212500Y-79225000D01*
G75*
G02*
X63975000Y-78987500I0J237500D01*
G01*
X63975000Y-78512500D01*
G75*
G02*
X64212500Y-78275000I237500J0D01*
G01*
X64712500Y-78275000D01*
G75*
G02*
X64950000Y-78512500I0J-237500D01*
G01*
G37*
G36*
G01*
X63125000Y-78512500D02*
X63125000Y-78987500D01*
G75*
G02*
X62887500Y-79225000I-237500J0D01*
G01*
X62387500Y-79225000D01*
G75*
G02*
X62150000Y-78987500I0J237500D01*
G01*
X62150000Y-78512500D01*
G75*
G02*
X62387500Y-78275000I237500J0D01*
G01*
X62887500Y-78275000D01*
G75*
G02*
X63125000Y-78512500I0J-237500D01*
G01*
G37*
G04 #@! TD*
D16*
G04 #@! TO.C,SW1*
X89425800Y-111251000D03*
X89425800Y-113751000D03*
X89425800Y-116251000D03*
G04 #@! TD*
G04 #@! TO.C,SW4*
X131775000Y-104264000D03*
X129275000Y-104264000D03*
X126775000Y-104264000D03*
G04 #@! TD*
G04 #@! TO.C,SW6*
X52324000Y-82256000D03*
X52324000Y-79756000D03*
X52324000Y-77256000D03*
G04 #@! TD*
G04 #@! TO.C,U3*
X55792000Y-69918500D03*
D17*
X55792000Y-73718500D03*
D16*
X55792000Y-71816000D03*
D18*
X49403000Y-69818500D03*
X49403000Y-73818500D03*
G04 #@! TD*
D19*
G04 #@! TO.C,U4*
X59150000Y-87000000D03*
D20*
X65450000Y-89280000D03*
X65450000Y-87000000D03*
X65450000Y-84720000D03*
G04 #@! TD*
D21*
G04 #@! TO.C,U6*
X70780000Y-72750000D03*
X68500000Y-72750000D03*
X66220000Y-72750000D03*
D22*
X68500000Y-66450000D03*
G04 #@! TD*
D18*
G04 #@! TO.C,Y1*
X102196000Y-99982800D03*
X107076000Y-99982800D03*
G04 #@! TD*
D14*
G04 #@! TO.C,J1*
X114300000Y-112776000D03*
D15*
X114300000Y-115316000D03*
X114300000Y-117856000D03*
G04 #@! TD*
D14*
G04 #@! TO.C,J3*
X138684000Y-66802000D03*
D15*
X138684000Y-69342000D03*
X138684000Y-71882000D03*
X138684000Y-74422000D03*
X138684000Y-76962000D03*
X138684000Y-79502000D03*
X138684000Y-82042000D03*
X138684000Y-84582000D03*
X138684000Y-87122000D03*
X138684000Y-89662000D03*
X138684000Y-92202000D03*
X138684000Y-94742000D03*
X138684000Y-97282000D03*
X138684000Y-99822000D03*
X138684000Y-102362000D03*
X138684000Y-104902000D03*
X138684000Y-107442000D03*
X138684000Y-109982000D03*
X138684000Y-112522000D03*
X138684000Y-115062000D03*
X138684000Y-117602000D03*
X138684000Y-120142000D03*
G04 #@! TD*
D14*
G04 #@! TO.C,J12*
X54864000Y-105664000D03*
D15*
X54864000Y-103124000D03*
X57404000Y-105664000D03*
X57404000Y-103124000D03*
X59944000Y-105664000D03*
X59944000Y-103124000D03*
X62484000Y-105664000D03*
X62484000Y-103124000D03*
X65024000Y-105664000D03*
X65024000Y-103124000D03*
X67564000Y-105664000D03*
X67564000Y-103124000D03*
X70104000Y-105664000D03*
X70104000Y-103124000D03*
X72644000Y-105664000D03*
X72644000Y-103124000D03*
X75184000Y-105664000D03*
X75184000Y-103124000D03*
G04 #@! TD*
M02*
