G04 #@! TF.GenerationSoftware,KiCad,Pcbnew,5.1.10-88a1d61d58~88~ubuntu18.04.1*
G04 #@! TF.CreationDate,2021-10-23T19:35:26+09:00*
G04 #@! TF.ProjectId,CameraJigSTM32F446RE_Logic,43616d65-7261-44a6-9967-53544d333246,rev?*
G04 #@! TF.SameCoordinates,Original*
G04 #@! TF.FileFunction,Legend,Top*
G04 #@! TF.FilePolarity,Positive*
%FSLAX46Y46*%
G04 Gerber Fmt 4.6, Leading zero omitted, Abs format (unit mm)*
G04 Created by KiCad (PCBNEW 5.1.10-88a1d61d58~88~ubuntu18.04.1) date 2021-10-23 19:35:26*
%MOMM*%
%LPD*%
G01*
G04 APERTURE LIST*
%ADD10C,0.150000*%
%ADD11C,0.120000*%
%ADD12C,0.100000*%
%ADD13C,0.110000*%
%ADD14C,0.300000*%
G04 APERTURE END LIST*
D10*
X87544761Y-134682380D02*
X86973333Y-134682380D01*
X87259047Y-134682380D02*
X87259047Y-133682380D01*
X87163809Y-133825238D01*
X87068571Y-133920476D01*
X86973333Y-133968095D01*
X88401904Y-134015714D02*
X88401904Y-134682380D01*
X87973333Y-134015714D02*
X87973333Y-134539523D01*
X88020952Y-134634761D01*
X88116190Y-134682380D01*
X88259047Y-134682380D01*
X88354285Y-134634761D01*
X88401904Y-134587142D01*
X89211428Y-134158571D02*
X88878095Y-134158571D01*
X88878095Y-134682380D02*
X88878095Y-133682380D01*
X89354285Y-133682380D01*
X118364761Y-135052380D02*
X117793333Y-135052380D01*
X118079047Y-135052380D02*
X118079047Y-134052380D01*
X117983809Y-134195238D01*
X117888571Y-134290476D01*
X117793333Y-134338095D01*
X119221904Y-134385714D02*
X119221904Y-135052380D01*
X118793333Y-134385714D02*
X118793333Y-134909523D01*
X118840952Y-135004761D01*
X118936190Y-135052380D01*
X119079047Y-135052380D01*
X119174285Y-135004761D01*
X119221904Y-134957142D01*
X120031428Y-134528571D02*
X119698095Y-134528571D01*
X119698095Y-135052380D02*
X119698095Y-134052380D01*
X120174285Y-134052380D01*
X136157619Y-133243333D02*
X136157619Y-132671904D01*
X136157619Y-132957619D02*
X137157619Y-132957619D01*
X137014761Y-132862380D01*
X136919523Y-132767142D01*
X136871904Y-132671904D01*
X137157619Y-133862380D02*
X137157619Y-133957619D01*
X137110000Y-134052857D01*
X137062380Y-134100476D01*
X136967142Y-134148095D01*
X136776666Y-134195714D01*
X136538571Y-134195714D01*
X136348095Y-134148095D01*
X136252857Y-134100476D01*
X136205238Y-134052857D01*
X136157619Y-133957619D01*
X136157619Y-133862380D01*
X136205238Y-133767142D01*
X136252857Y-133719523D01*
X136348095Y-133671904D01*
X136538571Y-133624285D01*
X136776666Y-133624285D01*
X136967142Y-133671904D01*
X137062380Y-133719523D01*
X137110000Y-133767142D01*
X137157619Y-133862380D01*
X137157619Y-134814761D02*
X137157619Y-134910000D01*
X137110000Y-135005238D01*
X137062380Y-135052857D01*
X136967142Y-135100476D01*
X136776666Y-135148095D01*
X136538571Y-135148095D01*
X136348095Y-135100476D01*
X136252857Y-135052857D01*
X136205238Y-135005238D01*
X136157619Y-134910000D01*
X136157619Y-134814761D01*
X136205238Y-134719523D01*
X136252857Y-134671904D01*
X136348095Y-134624285D01*
X136538571Y-134576666D01*
X136776666Y-134576666D01*
X136967142Y-134624285D01*
X137062380Y-134671904D01*
X137110000Y-134719523D01*
X137157619Y-134814761D01*
X136257619Y-136264761D02*
X136257619Y-135693333D01*
X136257619Y-135979047D02*
X137257619Y-135979047D01*
X137114761Y-135883809D01*
X137019523Y-135788571D01*
X136971904Y-135693333D01*
X137257619Y-136883809D02*
X137257619Y-136979047D01*
X137210000Y-137074285D01*
X137162380Y-137121904D01*
X137067142Y-137169523D01*
X136876666Y-137217142D01*
X136638571Y-137217142D01*
X136448095Y-137169523D01*
X136352857Y-137121904D01*
X136305238Y-137074285D01*
X136257619Y-136979047D01*
X136257619Y-136883809D01*
X136305238Y-136788571D01*
X136352857Y-136740952D01*
X136448095Y-136693333D01*
X136638571Y-136645714D01*
X136876666Y-136645714D01*
X137067142Y-136693333D01*
X137162380Y-136740952D01*
X137210000Y-136788571D01*
X137257619Y-136883809D01*
X136257619Y-137645714D02*
X137257619Y-137645714D01*
X136638571Y-137740952D02*
X136257619Y-138026666D01*
X136924285Y-138026666D02*
X136543333Y-137645714D01*
X55296190Y-89577380D02*
X55296190Y-88577380D01*
X55677142Y-88577380D01*
X55772380Y-88625000D01*
X55820000Y-88672619D01*
X55867619Y-88767857D01*
X55867619Y-88910714D01*
X55820000Y-89005952D01*
X55772380Y-89053571D01*
X55677142Y-89101190D01*
X55296190Y-89101190D01*
X56439047Y-89577380D02*
X56343809Y-89529761D01*
X56296190Y-89482142D01*
X56248571Y-89386904D01*
X56248571Y-89101190D01*
X56296190Y-89005952D01*
X56343809Y-88958333D01*
X56439047Y-88910714D01*
X56581904Y-88910714D01*
X56677142Y-88958333D01*
X56724761Y-89005952D01*
X56772380Y-89101190D01*
X56772380Y-89386904D01*
X56724761Y-89482142D01*
X56677142Y-89529761D01*
X56581904Y-89577380D01*
X56439047Y-89577380D01*
X57105714Y-88910714D02*
X57296190Y-89577380D01*
X57486666Y-89101190D01*
X57677142Y-89577380D01*
X57867619Y-88910714D01*
X58629523Y-89529761D02*
X58534285Y-89577380D01*
X58343809Y-89577380D01*
X58248571Y-89529761D01*
X58200952Y-89434523D01*
X58200952Y-89053571D01*
X58248571Y-88958333D01*
X58343809Y-88910714D01*
X58534285Y-88910714D01*
X58629523Y-88958333D01*
X58677142Y-89053571D01*
X58677142Y-89148809D01*
X58200952Y-89244047D01*
X59105714Y-89577380D02*
X59105714Y-88910714D01*
X59105714Y-89101190D02*
X59153333Y-89005952D01*
X59200952Y-88958333D01*
X59296190Y-88910714D01*
X59391428Y-88910714D01*
X60820000Y-89053571D02*
X60962857Y-89101190D01*
X61010476Y-89148809D01*
X61058095Y-89244047D01*
X61058095Y-89386904D01*
X61010476Y-89482142D01*
X60962857Y-89529761D01*
X60867619Y-89577380D01*
X60486666Y-89577380D01*
X60486666Y-88577380D01*
X60820000Y-88577380D01*
X60915238Y-88625000D01*
X60962857Y-88672619D01*
X61010476Y-88767857D01*
X61010476Y-88863095D01*
X60962857Y-88958333D01*
X60915238Y-89005952D01*
X60820000Y-89053571D01*
X60486666Y-89053571D01*
X61629523Y-89577380D02*
X61534285Y-89529761D01*
X61486666Y-89482142D01*
X61439047Y-89386904D01*
X61439047Y-89101190D01*
X61486666Y-89005952D01*
X61534285Y-88958333D01*
X61629523Y-88910714D01*
X61772380Y-88910714D01*
X61867619Y-88958333D01*
X61915238Y-89005952D01*
X61962857Y-89101190D01*
X61962857Y-89386904D01*
X61915238Y-89482142D01*
X61867619Y-89529761D01*
X61772380Y-89577380D01*
X61629523Y-89577380D01*
X62820000Y-89577380D02*
X62820000Y-89053571D01*
X62772380Y-88958333D01*
X62677142Y-88910714D01*
X62486666Y-88910714D01*
X62391428Y-88958333D01*
X62820000Y-89529761D02*
X62724761Y-89577380D01*
X62486666Y-89577380D01*
X62391428Y-89529761D01*
X62343809Y-89434523D01*
X62343809Y-89339285D01*
X62391428Y-89244047D01*
X62486666Y-89196428D01*
X62724761Y-89196428D01*
X62820000Y-89148809D01*
X63296190Y-89577380D02*
X63296190Y-88910714D01*
X63296190Y-89101190D02*
X63343809Y-89005952D01*
X63391428Y-88958333D01*
X63486666Y-88910714D01*
X63581904Y-88910714D01*
X64343809Y-89577380D02*
X64343809Y-88577380D01*
X64343809Y-89529761D02*
X64248571Y-89577380D01*
X64058095Y-89577380D01*
X63962857Y-89529761D01*
X63915238Y-89482142D01*
X63867619Y-89386904D01*
X63867619Y-89101190D01*
X63915238Y-89005952D01*
X63962857Y-88958333D01*
X64058095Y-88910714D01*
X64248571Y-88910714D01*
X64343809Y-88958333D01*
X54200952Y-90227380D02*
X54534285Y-91227380D01*
X54867619Y-90227380D01*
X55581904Y-91179761D02*
X55486666Y-91227380D01*
X55296190Y-91227380D01*
X55200952Y-91179761D01*
X55153333Y-91084523D01*
X55153333Y-90703571D01*
X55200952Y-90608333D01*
X55296190Y-90560714D01*
X55486666Y-90560714D01*
X55581904Y-90608333D01*
X55629523Y-90703571D01*
X55629523Y-90798809D01*
X55153333Y-90894047D01*
X56058095Y-91227380D02*
X56058095Y-90560714D01*
X56058095Y-90751190D02*
X56105714Y-90655952D01*
X56153333Y-90608333D01*
X56248571Y-90560714D01*
X56343809Y-90560714D01*
X56677142Y-91132142D02*
X56724761Y-91179761D01*
X56677142Y-91227380D01*
X56629523Y-91179761D01*
X56677142Y-91132142D01*
X56677142Y-91227380D01*
X57677142Y-91227380D02*
X57105714Y-91227380D01*
X57391428Y-91227380D02*
X57391428Y-90227380D01*
X57296190Y-90370238D01*
X57200952Y-90465476D01*
X57105714Y-90513095D01*
X58105714Y-91132142D02*
X58153333Y-91179761D01*
X58105714Y-91227380D01*
X58058095Y-91179761D01*
X58105714Y-91132142D01*
X58105714Y-91227380D01*
X58772380Y-90227380D02*
X58867619Y-90227380D01*
X58962857Y-90275000D01*
X59010476Y-90322619D01*
X59058095Y-90417857D01*
X59105714Y-90608333D01*
X59105714Y-90846428D01*
X59058095Y-91036904D01*
X59010476Y-91132142D01*
X58962857Y-91179761D01*
X58867619Y-91227380D01*
X58772380Y-91227380D01*
X58677142Y-91179761D01*
X58629523Y-91132142D01*
X58581904Y-91036904D01*
X58534285Y-90846428D01*
X58534285Y-90608333D01*
X58581904Y-90417857D01*
X58629523Y-90322619D01*
X58677142Y-90275000D01*
X58772380Y-90227380D01*
X60867619Y-91227380D02*
X60534285Y-90751190D01*
X60296190Y-91227380D02*
X60296190Y-90227380D01*
X60677142Y-90227380D01*
X60772380Y-90275000D01*
X60820000Y-90322619D01*
X60867619Y-90417857D01*
X60867619Y-90560714D01*
X60820000Y-90655952D01*
X60772380Y-90703571D01*
X60677142Y-90751190D01*
X60296190Y-90751190D01*
X61677142Y-91179761D02*
X61581904Y-91227380D01*
X61391428Y-91227380D01*
X61296190Y-91179761D01*
X61248571Y-91084523D01*
X61248571Y-90703571D01*
X61296190Y-90608333D01*
X61391428Y-90560714D01*
X61581904Y-90560714D01*
X61677142Y-90608333D01*
X61724761Y-90703571D01*
X61724761Y-90798809D01*
X61248571Y-90894047D01*
X62058095Y-90560714D02*
X62296190Y-91227380D01*
X62534285Y-90560714D01*
X62915238Y-91132142D02*
X62962857Y-91179761D01*
X62915238Y-91227380D01*
X62867619Y-91179761D01*
X62915238Y-91132142D01*
X62915238Y-91227380D01*
X63581904Y-90227380D02*
X63677142Y-90227380D01*
X63772380Y-90275000D01*
X63820000Y-90322619D01*
X63867619Y-90417857D01*
X63915238Y-90608333D01*
X63915238Y-90846428D01*
X63867619Y-91036904D01*
X63820000Y-91132142D01*
X63772380Y-91179761D01*
X63677142Y-91227380D01*
X63581904Y-91227380D01*
X63486666Y-91179761D01*
X63439047Y-91132142D01*
X63391428Y-91036904D01*
X63343809Y-90846428D01*
X63343809Y-90608333D01*
X63391428Y-90417857D01*
X63439047Y-90322619D01*
X63486666Y-90275000D01*
X63581904Y-90227380D01*
X64343809Y-91132142D02*
X64391428Y-91179761D01*
X64343809Y-91227380D01*
X64296190Y-91179761D01*
X64343809Y-91132142D01*
X64343809Y-91227380D01*
X65010476Y-90227380D02*
X65105714Y-90227380D01*
X65200952Y-90275000D01*
X65248571Y-90322619D01*
X65296190Y-90417857D01*
X65343809Y-90608333D01*
X65343809Y-90846428D01*
X65296190Y-91036904D01*
X65248571Y-91132142D01*
X65200952Y-91179761D01*
X65105714Y-91227380D01*
X65010476Y-91227380D01*
X64915238Y-91179761D01*
X64867619Y-91132142D01*
X64820000Y-91036904D01*
X64772380Y-90846428D01*
X64772380Y-90608333D01*
X64820000Y-90417857D01*
X64867619Y-90322619D01*
X64915238Y-90275000D01*
X65010476Y-90227380D01*
X126457142Y-101874761D02*
X126600000Y-101922380D01*
X126838095Y-101922380D01*
X126933333Y-101874761D01*
X126980952Y-101827142D01*
X127028571Y-101731904D01*
X127028571Y-101636666D01*
X126980952Y-101541428D01*
X126933333Y-101493809D01*
X126838095Y-101446190D01*
X126647619Y-101398571D01*
X126552380Y-101350952D01*
X126504761Y-101303333D01*
X126457142Y-101208095D01*
X126457142Y-101112857D01*
X126504761Y-101017619D01*
X126552380Y-100970000D01*
X126647619Y-100922380D01*
X126885714Y-100922380D01*
X127028571Y-100970000D01*
X127457142Y-100922380D02*
X127457142Y-101731904D01*
X127504761Y-101827142D01*
X127552380Y-101874761D01*
X127647619Y-101922380D01*
X127838095Y-101922380D01*
X127933333Y-101874761D01*
X127980952Y-101827142D01*
X128028571Y-101731904D01*
X128028571Y-100922380D01*
X128504761Y-101922380D02*
X128504761Y-100922380D01*
X128885714Y-100922380D01*
X128980952Y-100970000D01*
X129028571Y-101017619D01*
X129076190Y-101112857D01*
X129076190Y-101255714D01*
X129028571Y-101350952D01*
X128980952Y-101398571D01*
X128885714Y-101446190D01*
X128504761Y-101446190D01*
X129504761Y-101922380D02*
X129504761Y-100922380D01*
X129885714Y-100922380D01*
X129980952Y-100970000D01*
X130028571Y-101017619D01*
X130076190Y-101112857D01*
X130076190Y-101255714D01*
X130028571Y-101350952D01*
X129980952Y-101398571D01*
X129885714Y-101446190D01*
X129504761Y-101446190D01*
X130980952Y-101922380D02*
X130504761Y-101922380D01*
X130504761Y-100922380D01*
X131504761Y-101446190D02*
X131504761Y-101922380D01*
X131171428Y-100922380D02*
X131504761Y-101446190D01*
X131838095Y-100922380D01*
D11*
X138810000Y-66780000D02*
X137200000Y-64840000D01*
D10*
X133349523Y-95692380D02*
X132873333Y-95692380D01*
X132825714Y-96168571D01*
X132873333Y-96120952D01*
X132968571Y-96073333D01*
X133206666Y-96073333D01*
X133301904Y-96120952D01*
X133349523Y-96168571D01*
X133397142Y-96263809D01*
X133397142Y-96501904D01*
X133349523Y-96597142D01*
X133301904Y-96644761D01*
X133206666Y-96692380D01*
X132968571Y-96692380D01*
X132873333Y-96644761D01*
X132825714Y-96597142D01*
X133682857Y-95692380D02*
X134016190Y-96692380D01*
X134349523Y-95692380D01*
X124336190Y-95970952D02*
X124240952Y-95923333D01*
X124193333Y-95875714D01*
X124145714Y-95780476D01*
X124145714Y-95732857D01*
X124193333Y-95637619D01*
X124240952Y-95590000D01*
X124336190Y-95542380D01*
X124526666Y-95542380D01*
X124621904Y-95590000D01*
X124669523Y-95637619D01*
X124717142Y-95732857D01*
X124717142Y-95780476D01*
X124669523Y-95875714D01*
X124621904Y-95923333D01*
X124526666Y-95970952D01*
X124336190Y-95970952D01*
X124240952Y-96018571D01*
X124193333Y-96066190D01*
X124145714Y-96161428D01*
X124145714Y-96351904D01*
X124193333Y-96447142D01*
X124240952Y-96494761D01*
X124336190Y-96542380D01*
X124526666Y-96542380D01*
X124621904Y-96494761D01*
X124669523Y-96447142D01*
X124717142Y-96351904D01*
X124717142Y-96161428D01*
X124669523Y-96066190D01*
X124621904Y-96018571D01*
X124526666Y-95970952D01*
X125002857Y-95542380D02*
X125336190Y-96542380D01*
X125669523Y-95542380D01*
X125617619Y-95244761D02*
X125760476Y-95292380D01*
X125998571Y-95292380D01*
X126093809Y-95244761D01*
X126141428Y-95197142D01*
X126189047Y-95101904D01*
X126189047Y-95006666D01*
X126141428Y-94911428D01*
X126093809Y-94863809D01*
X125998571Y-94816190D01*
X125808095Y-94768571D01*
X125712857Y-94720952D01*
X125665238Y-94673333D01*
X125617619Y-94578095D01*
X125617619Y-94482857D01*
X125665238Y-94387619D01*
X125712857Y-94340000D01*
X125808095Y-94292380D01*
X126046190Y-94292380D01*
X126189047Y-94340000D01*
X126617619Y-94292380D02*
X126617619Y-95101904D01*
X126665238Y-95197142D01*
X126712857Y-95244761D01*
X126808095Y-95292380D01*
X126998571Y-95292380D01*
X127093809Y-95244761D01*
X127141428Y-95197142D01*
X127189047Y-95101904D01*
X127189047Y-94292380D01*
X127665238Y-95292380D02*
X127665238Y-94292380D01*
X128046190Y-94292380D01*
X128141428Y-94340000D01*
X128189047Y-94387619D01*
X128236666Y-94482857D01*
X128236666Y-94625714D01*
X128189047Y-94720952D01*
X128141428Y-94768571D01*
X128046190Y-94816190D01*
X127665238Y-94816190D01*
X128665238Y-95292380D02*
X128665238Y-94292380D01*
X129046190Y-94292380D01*
X129141428Y-94340000D01*
X129189047Y-94387619D01*
X129236666Y-94482857D01*
X129236666Y-94625714D01*
X129189047Y-94720952D01*
X129141428Y-94768571D01*
X129046190Y-94816190D01*
X128665238Y-94816190D01*
X130141428Y-95292380D02*
X129665238Y-95292380D01*
X129665238Y-94292380D01*
X130665238Y-94816190D02*
X130665238Y-95292380D01*
X130331904Y-94292380D02*
X130665238Y-94816190D01*
X130998571Y-94292380D01*
X131093809Y-95387619D02*
X131855714Y-95387619D01*
X131950952Y-94292380D02*
X132284285Y-95292380D01*
X132617619Y-94292380D01*
X124529523Y-90522380D02*
X124053333Y-90522380D01*
X124005714Y-90998571D01*
X124053333Y-90950952D01*
X124148571Y-90903333D01*
X124386666Y-90903333D01*
X124481904Y-90950952D01*
X124529523Y-90998571D01*
X124577142Y-91093809D01*
X124577142Y-91331904D01*
X124529523Y-91427142D01*
X124481904Y-91474761D01*
X124386666Y-91522380D01*
X124148571Y-91522380D01*
X124053333Y-91474761D01*
X124005714Y-91427142D01*
X124862857Y-90522380D02*
X125196190Y-91522380D01*
X125529523Y-90522380D01*
X132333809Y-90562380D02*
X132952857Y-90562380D01*
X132619523Y-90943333D01*
X132762380Y-90943333D01*
X132857619Y-90990952D01*
X132905238Y-91038571D01*
X132952857Y-91133809D01*
X132952857Y-91371904D01*
X132905238Y-91467142D01*
X132857619Y-91514761D01*
X132762380Y-91562380D01*
X132476666Y-91562380D01*
X132381428Y-91514761D01*
X132333809Y-91467142D01*
X133381428Y-91467142D02*
X133429047Y-91514761D01*
X133381428Y-91562380D01*
X133333809Y-91514761D01*
X133381428Y-91467142D01*
X133381428Y-91562380D01*
X133762380Y-90562380D02*
X134381428Y-90562380D01*
X134048095Y-90943333D01*
X134190952Y-90943333D01*
X134286190Y-90990952D01*
X134333809Y-91038571D01*
X134381428Y-91133809D01*
X134381428Y-91371904D01*
X134333809Y-91467142D01*
X134286190Y-91514761D01*
X134190952Y-91562380D01*
X133905238Y-91562380D01*
X133810000Y-91514761D01*
X133762380Y-91467142D01*
X134667142Y-90562380D02*
X135000476Y-91562380D01*
X135333809Y-90562380D01*
X128231904Y-88732380D02*
X128565238Y-89732380D01*
X128898571Y-88732380D01*
X129708095Y-89732380D02*
X129231904Y-89732380D01*
X129231904Y-88732380D01*
X136332380Y-82915238D02*
X136332380Y-83486666D01*
X136332380Y-83200952D02*
X135332380Y-83200952D01*
X135475238Y-83296190D01*
X135570476Y-83391428D01*
X135618095Y-83486666D01*
X135332380Y-82296190D02*
X135332380Y-82200952D01*
X135380000Y-82105714D01*
X135427619Y-82058095D01*
X135522857Y-82010476D01*
X135713333Y-81962857D01*
X135951428Y-81962857D01*
X136141904Y-82010476D01*
X136237142Y-82058095D01*
X136284761Y-82105714D01*
X136332380Y-82200952D01*
X136332380Y-82296190D01*
X136284761Y-82391428D01*
X136237142Y-82439047D01*
X136141904Y-82486666D01*
X135951428Y-82534285D01*
X135713333Y-82534285D01*
X135522857Y-82486666D01*
X135427619Y-82439047D01*
X135380000Y-82391428D01*
X135332380Y-82296190D01*
X136332380Y-81534285D02*
X135332380Y-81534285D01*
X135951428Y-81439047D02*
X136332380Y-81153333D01*
X135665714Y-81153333D02*
X136046666Y-81534285D01*
X128202380Y-86515238D02*
X128202380Y-87086666D01*
X128202380Y-86800952D02*
X127202380Y-86800952D01*
X127345238Y-86896190D01*
X127440476Y-86991428D01*
X127488095Y-87086666D01*
X127202380Y-85896190D02*
X127202380Y-85800952D01*
X127250000Y-85705714D01*
X127297619Y-85658095D01*
X127392857Y-85610476D01*
X127583333Y-85562857D01*
X127821428Y-85562857D01*
X128011904Y-85610476D01*
X128107142Y-85658095D01*
X128154761Y-85705714D01*
X128202380Y-85800952D01*
X128202380Y-85896190D01*
X128154761Y-85991428D01*
X128107142Y-86039047D01*
X128011904Y-86086666D01*
X127821428Y-86134285D01*
X127583333Y-86134285D01*
X127392857Y-86086666D01*
X127297619Y-86039047D01*
X127250000Y-85991428D01*
X127202380Y-85896190D01*
X128202380Y-85134285D02*
X127202380Y-85134285D01*
X127821428Y-85039047D02*
X128202380Y-84753333D01*
X127535714Y-84753333D02*
X127916666Y-85134285D01*
X122524761Y-78032380D02*
X121953333Y-78032380D01*
X122239047Y-78032380D02*
X122239047Y-77032380D01*
X122143809Y-77175238D01*
X122048571Y-77270476D01*
X121953333Y-77318095D01*
X123143809Y-77032380D02*
X123239047Y-77032380D01*
X123334285Y-77080000D01*
X123381904Y-77127619D01*
X123429523Y-77222857D01*
X123477142Y-77413333D01*
X123477142Y-77651428D01*
X123429523Y-77841904D01*
X123381904Y-77937142D01*
X123334285Y-77984761D01*
X123239047Y-78032380D01*
X123143809Y-78032380D01*
X123048571Y-77984761D01*
X123000952Y-77937142D01*
X122953333Y-77841904D01*
X122905714Y-77651428D01*
X122905714Y-77413333D01*
X122953333Y-77222857D01*
X123000952Y-77127619D01*
X123048571Y-77080000D01*
X123143809Y-77032380D01*
X123905714Y-78032380D02*
X123905714Y-77032380D01*
X124000952Y-77651428D02*
X124286666Y-78032380D01*
X124286666Y-77365714D02*
X123905714Y-77746666D01*
X118052738Y-63317380D02*
X118624166Y-63317380D01*
X118338452Y-64317380D02*
X118338452Y-63317380D01*
X118957500Y-64317380D02*
X118957500Y-63317380D01*
X119386071Y-64317380D02*
X119386071Y-63793571D01*
X119338452Y-63698333D01*
X119243214Y-63650714D01*
X119100357Y-63650714D01*
X119005119Y-63698333D01*
X118957500Y-63745952D01*
X120243214Y-64269761D02*
X120147976Y-64317380D01*
X119957500Y-64317380D01*
X119862261Y-64269761D01*
X119814642Y-64174523D01*
X119814642Y-63793571D01*
X119862261Y-63698333D01*
X119957500Y-63650714D01*
X120147976Y-63650714D01*
X120243214Y-63698333D01*
X120290833Y-63793571D01*
X120290833Y-63888809D01*
X119814642Y-63984047D01*
X120719404Y-64317380D02*
X120719404Y-63650714D01*
X120719404Y-63841190D02*
X120767023Y-63745952D01*
X120814642Y-63698333D01*
X120909880Y-63650714D01*
X121005119Y-63650714D01*
X121338452Y-64317380D02*
X121338452Y-63650714D01*
X121338452Y-63745952D02*
X121386071Y-63698333D01*
X121481309Y-63650714D01*
X121624166Y-63650714D01*
X121719404Y-63698333D01*
X121767023Y-63793571D01*
X121767023Y-64317380D01*
X121767023Y-63793571D02*
X121814642Y-63698333D01*
X121909880Y-63650714D01*
X122052738Y-63650714D01*
X122147976Y-63698333D01*
X122195595Y-63793571D01*
X122195595Y-64317380D01*
X123100357Y-64317380D02*
X123100357Y-63793571D01*
X123052738Y-63698333D01*
X122957500Y-63650714D01*
X122767023Y-63650714D01*
X122671785Y-63698333D01*
X123100357Y-64269761D02*
X123005119Y-64317380D01*
X122767023Y-64317380D01*
X122671785Y-64269761D01*
X122624166Y-64174523D01*
X122624166Y-64079285D01*
X122671785Y-63984047D01*
X122767023Y-63936428D01*
X123005119Y-63936428D01*
X123100357Y-63888809D01*
X123719404Y-64317380D02*
X123624166Y-64269761D01*
X123576547Y-64174523D01*
X123576547Y-63317380D01*
X125433690Y-64222142D02*
X125386071Y-64269761D01*
X125243214Y-64317380D01*
X125147976Y-64317380D01*
X125005119Y-64269761D01*
X124909880Y-64174523D01*
X124862261Y-64079285D01*
X124814642Y-63888809D01*
X124814642Y-63745952D01*
X124862261Y-63555476D01*
X124909880Y-63460238D01*
X125005119Y-63365000D01*
X125147976Y-63317380D01*
X125243214Y-63317380D01*
X125386071Y-63365000D01*
X125433690Y-63412619D01*
X126290833Y-64317380D02*
X126290833Y-63793571D01*
X126243214Y-63698333D01*
X126147976Y-63650714D01*
X125957500Y-63650714D01*
X125862261Y-63698333D01*
X126290833Y-64269761D02*
X126195595Y-64317380D01*
X125957500Y-64317380D01*
X125862261Y-64269761D01*
X125814642Y-64174523D01*
X125814642Y-64079285D01*
X125862261Y-63984047D01*
X125957500Y-63936428D01*
X126195595Y-63936428D01*
X126290833Y-63888809D01*
X126767023Y-64317380D02*
X126767023Y-63650714D01*
X126767023Y-63745952D02*
X126814642Y-63698333D01*
X126909880Y-63650714D01*
X127052738Y-63650714D01*
X127147976Y-63698333D01*
X127195595Y-63793571D01*
X127195595Y-64317380D01*
X127195595Y-63793571D02*
X127243214Y-63698333D01*
X127338452Y-63650714D01*
X127481309Y-63650714D01*
X127576547Y-63698333D01*
X127624166Y-63793571D01*
X127624166Y-64317380D01*
X128481309Y-64269761D02*
X128386071Y-64317380D01*
X128195595Y-64317380D01*
X128100357Y-64269761D01*
X128052738Y-64174523D01*
X128052738Y-63793571D01*
X128100357Y-63698333D01*
X128195595Y-63650714D01*
X128386071Y-63650714D01*
X128481309Y-63698333D01*
X128528928Y-63793571D01*
X128528928Y-63888809D01*
X128052738Y-63984047D01*
X128957500Y-64317380D02*
X128957500Y-63650714D01*
X128957500Y-63841190D02*
X129005119Y-63745952D01*
X129052738Y-63698333D01*
X129147976Y-63650714D01*
X129243214Y-63650714D01*
X130005119Y-64317380D02*
X130005119Y-63793571D01*
X129957500Y-63698333D01*
X129862261Y-63650714D01*
X129671785Y-63650714D01*
X129576547Y-63698333D01*
X130005119Y-64269761D02*
X129909880Y-64317380D01*
X129671785Y-64317380D01*
X129576547Y-64269761D01*
X129528928Y-64174523D01*
X129528928Y-64079285D01*
X129576547Y-63984047D01*
X129671785Y-63936428D01*
X129909880Y-63936428D01*
X130005119Y-63888809D01*
X131528928Y-63317380D02*
X131528928Y-64031666D01*
X131481309Y-64174523D01*
X131386071Y-64269761D01*
X131243214Y-64317380D01*
X131147976Y-64317380D01*
X132005119Y-64317380D02*
X132005119Y-63650714D01*
X132005119Y-63317380D02*
X131957500Y-63365000D01*
X132005119Y-63412619D01*
X132052738Y-63365000D01*
X132005119Y-63317380D01*
X132005119Y-63412619D01*
X132909880Y-63650714D02*
X132909880Y-64460238D01*
X132862261Y-64555476D01*
X132814642Y-64603095D01*
X132719404Y-64650714D01*
X132576547Y-64650714D01*
X132481309Y-64603095D01*
X132909880Y-64269761D02*
X132814642Y-64317380D01*
X132624166Y-64317380D01*
X132528928Y-64269761D01*
X132481309Y-64222142D01*
X132433690Y-64126904D01*
X132433690Y-63841190D01*
X132481309Y-63745952D01*
X132528928Y-63698333D01*
X132624166Y-63650714D01*
X132814642Y-63650714D01*
X132909880Y-63698333D01*
X118052738Y-64967380D02*
X118386071Y-65967380D01*
X118719404Y-64967380D01*
X119433690Y-65919761D02*
X119338452Y-65967380D01*
X119147976Y-65967380D01*
X119052738Y-65919761D01*
X119005119Y-65824523D01*
X119005119Y-65443571D01*
X119052738Y-65348333D01*
X119147976Y-65300714D01*
X119338452Y-65300714D01*
X119433690Y-65348333D01*
X119481309Y-65443571D01*
X119481309Y-65538809D01*
X119005119Y-65634047D01*
X119909880Y-65967380D02*
X119909880Y-65300714D01*
X119909880Y-65491190D02*
X119957500Y-65395952D01*
X120005119Y-65348333D01*
X120100357Y-65300714D01*
X120195595Y-65300714D01*
X120528928Y-65872142D02*
X120576547Y-65919761D01*
X120528928Y-65967380D01*
X120481309Y-65919761D01*
X120528928Y-65872142D01*
X120528928Y-65967380D01*
X121528928Y-65967380D02*
X120957500Y-65967380D01*
X121243214Y-65967380D02*
X121243214Y-64967380D01*
X121147976Y-65110238D01*
X121052738Y-65205476D01*
X120957500Y-65253095D01*
X121957500Y-65872142D02*
X122005119Y-65919761D01*
X121957500Y-65967380D01*
X121909880Y-65919761D01*
X121957500Y-65872142D01*
X121957500Y-65967380D01*
X122624166Y-64967380D02*
X122719404Y-64967380D01*
X122814642Y-65015000D01*
X122862261Y-65062619D01*
X122909880Y-65157857D01*
X122957500Y-65348333D01*
X122957500Y-65586428D01*
X122909880Y-65776904D01*
X122862261Y-65872142D01*
X122814642Y-65919761D01*
X122719404Y-65967380D01*
X122624166Y-65967380D01*
X122528928Y-65919761D01*
X122481309Y-65872142D01*
X122433690Y-65776904D01*
X122386071Y-65586428D01*
X122386071Y-65348333D01*
X122433690Y-65157857D01*
X122481309Y-65062619D01*
X122528928Y-65015000D01*
X122624166Y-64967380D01*
X124719404Y-65967380D02*
X124386071Y-65491190D01*
X124147976Y-65967380D02*
X124147976Y-64967380D01*
X124528928Y-64967380D01*
X124624166Y-65015000D01*
X124671785Y-65062619D01*
X124719404Y-65157857D01*
X124719404Y-65300714D01*
X124671785Y-65395952D01*
X124624166Y-65443571D01*
X124528928Y-65491190D01*
X124147976Y-65491190D01*
X125528928Y-65919761D02*
X125433690Y-65967380D01*
X125243214Y-65967380D01*
X125147976Y-65919761D01*
X125100357Y-65824523D01*
X125100357Y-65443571D01*
X125147976Y-65348333D01*
X125243214Y-65300714D01*
X125433690Y-65300714D01*
X125528928Y-65348333D01*
X125576547Y-65443571D01*
X125576547Y-65538809D01*
X125100357Y-65634047D01*
X125909880Y-65300714D02*
X126147976Y-65967380D01*
X126386071Y-65300714D01*
X126767023Y-65872142D02*
X126814642Y-65919761D01*
X126767023Y-65967380D01*
X126719404Y-65919761D01*
X126767023Y-65872142D01*
X126767023Y-65967380D01*
X127433690Y-64967380D02*
X127528928Y-64967380D01*
X127624166Y-65015000D01*
X127671785Y-65062619D01*
X127719404Y-65157857D01*
X127767023Y-65348333D01*
X127767023Y-65586428D01*
X127719404Y-65776904D01*
X127671785Y-65872142D01*
X127624166Y-65919761D01*
X127528928Y-65967380D01*
X127433690Y-65967380D01*
X127338452Y-65919761D01*
X127290833Y-65872142D01*
X127243214Y-65776904D01*
X127195595Y-65586428D01*
X127195595Y-65348333D01*
X127243214Y-65157857D01*
X127290833Y-65062619D01*
X127338452Y-65015000D01*
X127433690Y-64967380D01*
X128195595Y-65872142D02*
X128243214Y-65919761D01*
X128195595Y-65967380D01*
X128147976Y-65919761D01*
X128195595Y-65872142D01*
X128195595Y-65967380D01*
X128862261Y-64967380D02*
X128957500Y-64967380D01*
X129052738Y-65015000D01*
X129100357Y-65062619D01*
X129147976Y-65157857D01*
X129195595Y-65348333D01*
X129195595Y-65586428D01*
X129147976Y-65776904D01*
X129100357Y-65872142D01*
X129052738Y-65919761D01*
X128957500Y-65967380D01*
X128862261Y-65967380D01*
X128767023Y-65919761D01*
X128719404Y-65872142D01*
X128671785Y-65776904D01*
X128624166Y-65586428D01*
X128624166Y-65348333D01*
X128671785Y-65157857D01*
X128719404Y-65062619D01*
X128767023Y-65015000D01*
X128862261Y-64967380D01*
X118386071Y-66617380D02*
X118576547Y-66617380D01*
X118671785Y-66665000D01*
X118767023Y-66760238D01*
X118814642Y-66950714D01*
X118814642Y-67284047D01*
X118767023Y-67474523D01*
X118671785Y-67569761D01*
X118576547Y-67617380D01*
X118386071Y-67617380D01*
X118290833Y-67569761D01*
X118195595Y-67474523D01*
X118147976Y-67284047D01*
X118147976Y-66950714D01*
X118195595Y-66760238D01*
X118290833Y-66665000D01*
X118386071Y-66617380D01*
X119671785Y-67569761D02*
X119576547Y-67617380D01*
X119386071Y-67617380D01*
X119290833Y-67569761D01*
X119243214Y-67522142D01*
X119195595Y-67426904D01*
X119195595Y-67141190D01*
X119243214Y-67045952D01*
X119290833Y-66998333D01*
X119386071Y-66950714D01*
X119576547Y-66950714D01*
X119671785Y-66998333D01*
X119957500Y-66950714D02*
X120338452Y-66950714D01*
X120100357Y-66617380D02*
X120100357Y-67474523D01*
X120147976Y-67569761D01*
X120243214Y-67617380D01*
X120338452Y-67617380D01*
X120671785Y-67522142D02*
X120719404Y-67569761D01*
X120671785Y-67617380D01*
X120624166Y-67569761D01*
X120671785Y-67522142D01*
X120671785Y-67617380D01*
X121100357Y-66712619D02*
X121147976Y-66665000D01*
X121243214Y-66617380D01*
X121481309Y-66617380D01*
X121576547Y-66665000D01*
X121624166Y-66712619D01*
X121671785Y-66807857D01*
X121671785Y-66903095D01*
X121624166Y-67045952D01*
X121052738Y-67617380D01*
X121671785Y-67617380D01*
X122005119Y-66617380D02*
X122624166Y-66617380D01*
X122290833Y-66998333D01*
X122433690Y-66998333D01*
X122528928Y-67045952D01*
X122576547Y-67093571D01*
X122624166Y-67188809D01*
X122624166Y-67426904D01*
X122576547Y-67522142D01*
X122528928Y-67569761D01*
X122433690Y-67617380D01*
X122147976Y-67617380D01*
X122052738Y-67569761D01*
X122005119Y-67522142D01*
X123052738Y-67522142D02*
X123100357Y-67569761D01*
X123052738Y-67617380D01*
X123005119Y-67569761D01*
X123052738Y-67522142D01*
X123052738Y-67617380D01*
X123481309Y-66712619D02*
X123528928Y-66665000D01*
X123624166Y-66617380D01*
X123862261Y-66617380D01*
X123957500Y-66665000D01*
X124005119Y-66712619D01*
X124052738Y-66807857D01*
X124052738Y-66903095D01*
X124005119Y-67045952D01*
X123433690Y-67617380D01*
X124052738Y-67617380D01*
X124671785Y-66617380D02*
X124767023Y-66617380D01*
X124862261Y-66665000D01*
X124909880Y-66712619D01*
X124957500Y-66807857D01*
X125005119Y-66998333D01*
X125005119Y-67236428D01*
X124957500Y-67426904D01*
X124909880Y-67522142D01*
X124862261Y-67569761D01*
X124767023Y-67617380D01*
X124671785Y-67617380D01*
X124576547Y-67569761D01*
X124528928Y-67522142D01*
X124481309Y-67426904D01*
X124433690Y-67236428D01*
X124433690Y-66998333D01*
X124481309Y-66807857D01*
X124528928Y-66712619D01*
X124576547Y-66665000D01*
X124671785Y-66617380D01*
X125386071Y-66712619D02*
X125433690Y-66665000D01*
X125528928Y-66617380D01*
X125767023Y-66617380D01*
X125862261Y-66665000D01*
X125909880Y-66712619D01*
X125957500Y-66807857D01*
X125957500Y-66903095D01*
X125909880Y-67045952D01*
X125338452Y-67617380D01*
X125957500Y-67617380D01*
X126909880Y-67617380D02*
X126338452Y-67617380D01*
X126624166Y-67617380D02*
X126624166Y-66617380D01*
X126528928Y-66760238D01*
X126433690Y-66855476D01*
X126338452Y-66903095D01*
X118195595Y-69267380D02*
X118195595Y-68267380D01*
X118195595Y-68648333D02*
X118290833Y-68600714D01*
X118481309Y-68600714D01*
X118576547Y-68648333D01*
X118624166Y-68695952D01*
X118671785Y-68791190D01*
X118671785Y-69076904D01*
X118624166Y-69172142D01*
X118576547Y-69219761D01*
X118481309Y-69267380D01*
X118290833Y-69267380D01*
X118195595Y-69219761D01*
X119005119Y-68600714D02*
X119243214Y-69267380D01*
X119481309Y-68600714D02*
X119243214Y-69267380D01*
X119147976Y-69505476D01*
X119100357Y-69553095D01*
X119005119Y-69600714D01*
X120481309Y-68600714D02*
X120862261Y-68600714D01*
X120624166Y-68267380D02*
X120624166Y-69124523D01*
X120671785Y-69219761D01*
X120767023Y-69267380D01*
X120862261Y-69267380D01*
X121147976Y-69219761D02*
X121243214Y-69267380D01*
X121433690Y-69267380D01*
X121528928Y-69219761D01*
X121576547Y-69124523D01*
X121576547Y-69076904D01*
X121528928Y-68981666D01*
X121433690Y-68934047D01*
X121290833Y-68934047D01*
X121195595Y-68886428D01*
X121147976Y-68791190D01*
X121147976Y-68743571D01*
X121195595Y-68648333D01*
X121290833Y-68600714D01*
X121433690Y-68600714D01*
X121528928Y-68648333D01*
X122433690Y-68600714D02*
X122433690Y-69267380D01*
X122005119Y-68600714D02*
X122005119Y-69124523D01*
X122052738Y-69219761D01*
X122147976Y-69267380D01*
X122290833Y-69267380D01*
X122386071Y-69219761D01*
X122433690Y-69172142D01*
X122814642Y-68600714D02*
X123052738Y-69267380D01*
X123290833Y-68600714D02*
X123052738Y-69267380D01*
X122957500Y-69505476D01*
X122909880Y-69553095D01*
X122814642Y-69600714D01*
X124100357Y-69267380D02*
X124100357Y-68743571D01*
X124052738Y-68648333D01*
X123957500Y-68600714D01*
X123767023Y-68600714D01*
X123671785Y-68648333D01*
X124100357Y-69219761D02*
X124005119Y-69267380D01*
X123767023Y-69267380D01*
X123671785Y-69219761D01*
X123624166Y-69124523D01*
X123624166Y-69029285D01*
X123671785Y-68934047D01*
X123767023Y-68886428D01*
X124005119Y-68886428D01*
X124100357Y-68838809D01*
X101391428Y-77162380D02*
X101581904Y-77162380D01*
X101677142Y-77210000D01*
X101772380Y-77305238D01*
X101820000Y-77495714D01*
X101820000Y-77829047D01*
X101772380Y-78019523D01*
X101677142Y-78114761D01*
X101581904Y-78162380D01*
X101391428Y-78162380D01*
X101296190Y-78114761D01*
X101200952Y-78019523D01*
X101153333Y-77829047D01*
X101153333Y-77495714D01*
X101200952Y-77305238D01*
X101296190Y-77210000D01*
X101391428Y-77162380D01*
X102105714Y-77162380D02*
X102439047Y-78162380D01*
X102772380Y-77162380D01*
X103058095Y-77257619D02*
X103105714Y-77210000D01*
X103200952Y-77162380D01*
X103439047Y-77162380D01*
X103534285Y-77210000D01*
X103581904Y-77257619D01*
X103629523Y-77352857D01*
X103629523Y-77448095D01*
X103581904Y-77590952D01*
X103010476Y-78162380D01*
X103629523Y-78162380D01*
X104486666Y-77162380D02*
X104296190Y-77162380D01*
X104200952Y-77210000D01*
X104153333Y-77257619D01*
X104058095Y-77400476D01*
X104010476Y-77590952D01*
X104010476Y-77971904D01*
X104058095Y-78067142D01*
X104105714Y-78114761D01*
X104200952Y-78162380D01*
X104391428Y-78162380D01*
X104486666Y-78114761D01*
X104534285Y-78067142D01*
X104581904Y-77971904D01*
X104581904Y-77733809D01*
X104534285Y-77638571D01*
X104486666Y-77590952D01*
X104391428Y-77543333D01*
X104200952Y-77543333D01*
X104105714Y-77590952D01*
X104058095Y-77638571D01*
X104010476Y-77733809D01*
X105439047Y-77495714D02*
X105439047Y-78162380D01*
X105200952Y-77114761D02*
X104962857Y-77829047D01*
X105581904Y-77829047D01*
X106153333Y-77162380D02*
X106248571Y-77162380D01*
X106343809Y-77210000D01*
X106391428Y-77257619D01*
X106439047Y-77352857D01*
X106486666Y-77543333D01*
X106486666Y-77781428D01*
X106439047Y-77971904D01*
X106391428Y-78067142D01*
X106343809Y-78114761D01*
X106248571Y-78162380D01*
X106153333Y-78162380D01*
X106058095Y-78114761D01*
X106010476Y-78067142D01*
X105962857Y-77971904D01*
X105915238Y-77781428D01*
X105915238Y-77543333D01*
X105962857Y-77352857D01*
X106010476Y-77257619D01*
X106058095Y-77210000D01*
X106153333Y-77162380D01*
X51860952Y-68162380D02*
X52051428Y-68162380D01*
X52146666Y-68114761D01*
X52194285Y-68067142D01*
X52289523Y-67924285D01*
X52337142Y-67733809D01*
X52337142Y-67352857D01*
X52289523Y-67257619D01*
X52241904Y-67210000D01*
X52146666Y-67162380D01*
X51956190Y-67162380D01*
X51860952Y-67210000D01*
X51813333Y-67257619D01*
X51765714Y-67352857D01*
X51765714Y-67590952D01*
X51813333Y-67686190D01*
X51860952Y-67733809D01*
X51956190Y-67781428D01*
X52146666Y-67781428D01*
X52241904Y-67733809D01*
X52289523Y-67686190D01*
X52337142Y-67590952D01*
X52622857Y-67162380D02*
X52956190Y-68162380D01*
X53289523Y-67162380D01*
X48582380Y-82239523D02*
X47582380Y-82239523D01*
X47582380Y-81858571D01*
X47630000Y-81763333D01*
X47677619Y-81715714D01*
X47772857Y-81668095D01*
X47915714Y-81668095D01*
X48010952Y-81715714D01*
X48058571Y-81763333D01*
X48106190Y-81858571D01*
X48106190Y-82239523D01*
X47582380Y-81049047D02*
X47582380Y-80858571D01*
X47630000Y-80763333D01*
X47725238Y-80668095D01*
X47915714Y-80620476D01*
X48249047Y-80620476D01*
X48439523Y-80668095D01*
X48534761Y-80763333D01*
X48582380Y-80858571D01*
X48582380Y-81049047D01*
X48534761Y-81144285D01*
X48439523Y-81239523D01*
X48249047Y-81287142D01*
X47915714Y-81287142D01*
X47725238Y-81239523D01*
X47630000Y-81144285D01*
X47582380Y-81049047D01*
X47582380Y-80287142D02*
X48582380Y-80049047D01*
X47868095Y-79858571D01*
X48582380Y-79668095D01*
X47582380Y-79430000D01*
X48058571Y-79049047D02*
X48058571Y-78715714D01*
X48582380Y-78572857D02*
X48582380Y-79049047D01*
X47582380Y-79049047D01*
X47582380Y-78572857D01*
X48582380Y-77572857D02*
X48106190Y-77906190D01*
X48582380Y-78144285D02*
X47582380Y-78144285D01*
X47582380Y-77763333D01*
X47630000Y-77668095D01*
X47677619Y-77620476D01*
X47772857Y-77572857D01*
X47915714Y-77572857D01*
X48010952Y-77620476D01*
X48058571Y-77668095D01*
X48106190Y-77763333D01*
X48106190Y-78144285D01*
X91406666Y-108768571D02*
X91549523Y-108816190D01*
X91597142Y-108863809D01*
X91644761Y-108959047D01*
X91644761Y-109101904D01*
X91597142Y-109197142D01*
X91549523Y-109244761D01*
X91454285Y-109292380D01*
X91073333Y-109292380D01*
X91073333Y-108292380D01*
X91406666Y-108292380D01*
X91501904Y-108340000D01*
X91549523Y-108387619D01*
X91597142Y-108482857D01*
X91597142Y-108578095D01*
X91549523Y-108673333D01*
X91501904Y-108720952D01*
X91406666Y-108768571D01*
X91073333Y-108768571D01*
X92263809Y-108292380D02*
X92454285Y-108292380D01*
X92549523Y-108340000D01*
X92644761Y-108435238D01*
X92692380Y-108625714D01*
X92692380Y-108959047D01*
X92644761Y-109149523D01*
X92549523Y-109244761D01*
X92454285Y-109292380D01*
X92263809Y-109292380D01*
X92168571Y-109244761D01*
X92073333Y-109149523D01*
X92025714Y-108959047D01*
X92025714Y-108625714D01*
X92073333Y-108435238D01*
X92168571Y-108340000D01*
X92263809Y-108292380D01*
X93311428Y-108292380D02*
X93501904Y-108292380D01*
X93597142Y-108340000D01*
X93692380Y-108435238D01*
X93740000Y-108625714D01*
X93740000Y-108959047D01*
X93692380Y-109149523D01*
X93597142Y-109244761D01*
X93501904Y-109292380D01*
X93311428Y-109292380D01*
X93216190Y-109244761D01*
X93120952Y-109149523D01*
X93073333Y-108959047D01*
X93073333Y-108625714D01*
X93120952Y-108435238D01*
X93216190Y-108340000D01*
X93311428Y-108292380D01*
X94025714Y-108292380D02*
X94597142Y-108292380D01*
X94311428Y-109292380D02*
X94311428Y-108292380D01*
X95120952Y-108292380D02*
X95216190Y-108292380D01*
X95311428Y-108340000D01*
X95359047Y-108387619D01*
X95406666Y-108482857D01*
X95454285Y-108673333D01*
X95454285Y-108911428D01*
X95406666Y-109101904D01*
X95359047Y-109197142D01*
X95311428Y-109244761D01*
X95216190Y-109292380D01*
X95120952Y-109292380D01*
X95025714Y-109244761D01*
X94978095Y-109197142D01*
X94930476Y-109101904D01*
X94882857Y-108911428D01*
X94882857Y-108673333D01*
X94930476Y-108482857D01*
X94978095Y-108387619D01*
X95025714Y-108340000D01*
X95120952Y-108292380D01*
D12*
X76370000Y-72330000D02*
X76903333Y-72330000D01*
X76636666Y-72596666D02*
X76636666Y-72063333D01*
X77570000Y-71896666D02*
X77236666Y-71896666D01*
X77203333Y-72230000D01*
X77236666Y-72196666D01*
X77303333Y-72163333D01*
X77470000Y-72163333D01*
X77536666Y-72196666D01*
X77570000Y-72230000D01*
X77603333Y-72296666D01*
X77603333Y-72463333D01*
X77570000Y-72530000D01*
X77536666Y-72563333D01*
X77470000Y-72596666D01*
X77303333Y-72596666D01*
X77236666Y-72563333D01*
X77203333Y-72530000D01*
X77803333Y-71896666D02*
X78036666Y-72596666D01*
X78270000Y-71896666D01*
X76370000Y-77480000D02*
X76903333Y-77480000D01*
X76636666Y-77746666D02*
X76636666Y-77213333D01*
X77170000Y-77046666D02*
X77603333Y-77046666D01*
X77370000Y-77313333D01*
X77470000Y-77313333D01*
X77536666Y-77346666D01*
X77570000Y-77380000D01*
X77603333Y-77446666D01*
X77603333Y-77613333D01*
X77570000Y-77680000D01*
X77536666Y-77713333D01*
X77470000Y-77746666D01*
X77270000Y-77746666D01*
X77203333Y-77713333D01*
X77170000Y-77680000D01*
X77803333Y-77046666D02*
X78036666Y-77746666D01*
X78270000Y-77046666D01*
X76666666Y-78470000D02*
X76600000Y-78436666D01*
X76500000Y-78436666D01*
X76400000Y-78470000D01*
X76333333Y-78536666D01*
X76300000Y-78603333D01*
X76266666Y-78736666D01*
X76266666Y-78836666D01*
X76300000Y-78970000D01*
X76333333Y-79036666D01*
X76400000Y-79103333D01*
X76500000Y-79136666D01*
X76566666Y-79136666D01*
X76666666Y-79103333D01*
X76700000Y-79070000D01*
X76700000Y-78836666D01*
X76566666Y-78836666D01*
X77000000Y-79136666D02*
X77000000Y-78436666D01*
X77400000Y-79136666D01*
X77400000Y-78436666D01*
X77733333Y-79136666D02*
X77733333Y-78436666D01*
X77900000Y-78436666D01*
X78000000Y-78470000D01*
X78066666Y-78536666D01*
X78100000Y-78603333D01*
X78133333Y-78736666D01*
X78133333Y-78836666D01*
X78100000Y-78970000D01*
X78066666Y-79036666D01*
X78000000Y-79103333D01*
X77900000Y-79136666D01*
X77733333Y-79136666D01*
X76640000Y-70340000D02*
X77173333Y-70340000D01*
X76906666Y-70606666D02*
X76906666Y-70073333D01*
X77606666Y-70206666D02*
X77540000Y-70173333D01*
X77506666Y-70140000D01*
X77473333Y-70073333D01*
X77473333Y-70040000D01*
X77506666Y-69973333D01*
X77540000Y-69940000D01*
X77606666Y-69906666D01*
X77740000Y-69906666D01*
X77806666Y-69940000D01*
X77840000Y-69973333D01*
X77873333Y-70040000D01*
X77873333Y-70073333D01*
X77840000Y-70140000D01*
X77806666Y-70173333D01*
X77740000Y-70206666D01*
X77606666Y-70206666D01*
X77540000Y-70240000D01*
X77506666Y-70273333D01*
X77473333Y-70340000D01*
X77473333Y-70473333D01*
X77506666Y-70540000D01*
X77540000Y-70573333D01*
X77606666Y-70606666D01*
X77740000Y-70606666D01*
X77806666Y-70573333D01*
X77840000Y-70540000D01*
X77873333Y-70473333D01*
X77873333Y-70340000D01*
X77840000Y-70273333D01*
X77806666Y-70240000D01*
X77740000Y-70206666D01*
X78073333Y-69906666D02*
X78306666Y-70606666D01*
X78540000Y-69906666D01*
D10*
X87094285Y-72901428D02*
X87856190Y-72901428D01*
X87475238Y-73282380D02*
X87475238Y-72520476D01*
X88808571Y-72282380D02*
X88332380Y-72282380D01*
X88284761Y-72758571D01*
X88332380Y-72710952D01*
X88427619Y-72663333D01*
X88665714Y-72663333D01*
X88760952Y-72710952D01*
X88808571Y-72758571D01*
X88856190Y-72853809D01*
X88856190Y-73091904D01*
X88808571Y-73187142D01*
X88760952Y-73234761D01*
X88665714Y-73282380D01*
X88427619Y-73282380D01*
X88332380Y-73234761D01*
X88284761Y-73187142D01*
X89141904Y-72282380D02*
X89475238Y-73282380D01*
X89808571Y-72282380D01*
X87134285Y-75481428D02*
X87896190Y-75481428D01*
X87515238Y-75862380D02*
X87515238Y-75100476D01*
X88277142Y-74862380D02*
X88896190Y-74862380D01*
X88562857Y-75243333D01*
X88705714Y-75243333D01*
X88800952Y-75290952D01*
X88848571Y-75338571D01*
X88896190Y-75433809D01*
X88896190Y-75671904D01*
X88848571Y-75767142D01*
X88800952Y-75814761D01*
X88705714Y-75862380D01*
X88420000Y-75862380D01*
X88324761Y-75814761D01*
X88277142Y-75767142D01*
X89181904Y-74862380D02*
X89515238Y-75862380D01*
X89848571Y-74862380D01*
X87748095Y-77750000D02*
X87652857Y-77702380D01*
X87510000Y-77702380D01*
X87367142Y-77750000D01*
X87271904Y-77845238D01*
X87224285Y-77940476D01*
X87176666Y-78130952D01*
X87176666Y-78273809D01*
X87224285Y-78464285D01*
X87271904Y-78559523D01*
X87367142Y-78654761D01*
X87510000Y-78702380D01*
X87605238Y-78702380D01*
X87748095Y-78654761D01*
X87795714Y-78607142D01*
X87795714Y-78273809D01*
X87605238Y-78273809D01*
X88224285Y-78702380D02*
X88224285Y-77702380D01*
X88795714Y-78702380D01*
X88795714Y-77702380D01*
X89271904Y-78702380D02*
X89271904Y-77702380D01*
X89510000Y-77702380D01*
X89652857Y-77750000D01*
X89748095Y-77845238D01*
X89795714Y-77940476D01*
X89843333Y-78130952D01*
X89843333Y-78273809D01*
X89795714Y-78464285D01*
X89748095Y-78559523D01*
X89652857Y-78654761D01*
X89510000Y-78702380D01*
X89271904Y-78702380D01*
X87224285Y-70491428D02*
X87986190Y-70491428D01*
X87605238Y-70872380D02*
X87605238Y-70110476D01*
X88605238Y-70300952D02*
X88510000Y-70253333D01*
X88462380Y-70205714D01*
X88414761Y-70110476D01*
X88414761Y-70062857D01*
X88462380Y-69967619D01*
X88510000Y-69920000D01*
X88605238Y-69872380D01*
X88795714Y-69872380D01*
X88890952Y-69920000D01*
X88938571Y-69967619D01*
X88986190Y-70062857D01*
X88986190Y-70110476D01*
X88938571Y-70205714D01*
X88890952Y-70253333D01*
X88795714Y-70300952D01*
X88605238Y-70300952D01*
X88510000Y-70348571D01*
X88462380Y-70396190D01*
X88414761Y-70491428D01*
X88414761Y-70681904D01*
X88462380Y-70777142D01*
X88510000Y-70824761D01*
X88605238Y-70872380D01*
X88795714Y-70872380D01*
X88890952Y-70824761D01*
X88938571Y-70777142D01*
X88986190Y-70681904D01*
X88986190Y-70491428D01*
X88938571Y-70396190D01*
X88890952Y-70348571D01*
X88795714Y-70300952D01*
X89271904Y-69872380D02*
X89605238Y-70872380D01*
X89938571Y-69872380D01*
X96780000Y-103221904D02*
X96732380Y-103317142D01*
X96732380Y-103460000D01*
X96780000Y-103602857D01*
X96875238Y-103698095D01*
X96970476Y-103745714D01*
X97160952Y-103793333D01*
X97303809Y-103793333D01*
X97494285Y-103745714D01*
X97589523Y-103698095D01*
X97684761Y-103602857D01*
X97732380Y-103460000D01*
X97732380Y-103364761D01*
X97684761Y-103221904D01*
X97637142Y-103174285D01*
X97303809Y-103174285D01*
X97303809Y-103364761D01*
X97732380Y-102745714D02*
X96732380Y-102745714D01*
X97732380Y-102174285D01*
X96732380Y-102174285D01*
X97732380Y-101698095D02*
X96732380Y-101698095D01*
X96732380Y-101460000D01*
X96780000Y-101317142D01*
X96875238Y-101221904D01*
X96970476Y-101174285D01*
X97160952Y-101126666D01*
X97303809Y-101126666D01*
X97494285Y-101174285D01*
X97589523Y-101221904D01*
X97684761Y-101317142D01*
X97732380Y-101460000D01*
X97732380Y-101698095D01*
X94511428Y-103835714D02*
X94511428Y-103073809D01*
X94892380Y-103454761D02*
X94130476Y-103454761D01*
X93892380Y-102692857D02*
X93892380Y-102073809D01*
X94273333Y-102407142D01*
X94273333Y-102264285D01*
X94320952Y-102169047D01*
X94368571Y-102121428D01*
X94463809Y-102073809D01*
X94701904Y-102073809D01*
X94797142Y-102121428D01*
X94844761Y-102169047D01*
X94892380Y-102264285D01*
X94892380Y-102550000D01*
X94844761Y-102645238D01*
X94797142Y-102692857D01*
X93892380Y-101788095D02*
X94892380Y-101454761D01*
X93892380Y-101121428D01*
X91931428Y-103875714D02*
X91931428Y-103113809D01*
X92312380Y-103494761D02*
X91550476Y-103494761D01*
X91312380Y-102161428D02*
X91312380Y-102637619D01*
X91788571Y-102685238D01*
X91740952Y-102637619D01*
X91693333Y-102542380D01*
X91693333Y-102304285D01*
X91740952Y-102209047D01*
X91788571Y-102161428D01*
X91883809Y-102113809D01*
X92121904Y-102113809D01*
X92217142Y-102161428D01*
X92264761Y-102209047D01*
X92312380Y-102304285D01*
X92312380Y-102542380D01*
X92264761Y-102637619D01*
X92217142Y-102685238D01*
X91312380Y-101828095D02*
X92312380Y-101494761D01*
X91312380Y-101161428D01*
X89521428Y-103745714D02*
X89521428Y-102983809D01*
X89902380Y-103364761D02*
X89140476Y-103364761D01*
X89330952Y-102364761D02*
X89283333Y-102460000D01*
X89235714Y-102507619D01*
X89140476Y-102555238D01*
X89092857Y-102555238D01*
X88997619Y-102507619D01*
X88950000Y-102460000D01*
X88902380Y-102364761D01*
X88902380Y-102174285D01*
X88950000Y-102079047D01*
X88997619Y-102031428D01*
X89092857Y-101983809D01*
X89140476Y-101983809D01*
X89235714Y-102031428D01*
X89283333Y-102079047D01*
X89330952Y-102174285D01*
X89330952Y-102364761D01*
X89378571Y-102460000D01*
X89426190Y-102507619D01*
X89521428Y-102555238D01*
X89711904Y-102555238D01*
X89807142Y-102507619D01*
X89854761Y-102460000D01*
X89902380Y-102364761D01*
X89902380Y-102174285D01*
X89854761Y-102079047D01*
X89807142Y-102031428D01*
X89711904Y-101983809D01*
X89521428Y-101983809D01*
X89426190Y-102031428D01*
X89378571Y-102079047D01*
X89330952Y-102174285D01*
X88902380Y-101698095D02*
X89902380Y-101364761D01*
X88902380Y-101031428D01*
X67403333Y-67652380D02*
X66831904Y-67652380D01*
X67117619Y-67652380D02*
X67117619Y-66652380D01*
X67022380Y-66795238D01*
X66927142Y-66890476D01*
X66831904Y-66938095D01*
X68022380Y-66652380D02*
X68117619Y-66652380D01*
X68212857Y-66700000D01*
X68260476Y-66747619D01*
X68308095Y-66842857D01*
X68355714Y-67033333D01*
X68355714Y-67271428D01*
X68308095Y-67461904D01*
X68260476Y-67557142D01*
X68212857Y-67604761D01*
X68117619Y-67652380D01*
X68022380Y-67652380D01*
X67927142Y-67604761D01*
X67879523Y-67557142D01*
X67831904Y-67461904D01*
X67784285Y-67271428D01*
X67784285Y-67033333D01*
X67831904Y-66842857D01*
X67879523Y-66747619D01*
X67927142Y-66700000D01*
X68022380Y-66652380D01*
X69212857Y-66985714D02*
X69212857Y-67652380D01*
X68784285Y-66985714D02*
X68784285Y-67509523D01*
X68831904Y-67604761D01*
X68927142Y-67652380D01*
X69070000Y-67652380D01*
X69165238Y-67604761D01*
X69212857Y-67557142D01*
X69689047Y-67652380D02*
X69689047Y-66652380D01*
X69689047Y-67128571D02*
X70260476Y-67128571D01*
X70260476Y-67652380D02*
X70260476Y-66652380D01*
D11*
X61240000Y-82690000D02*
X60680000Y-81560000D01*
D10*
X61382380Y-86588571D02*
X61382380Y-85969523D01*
X61763333Y-86302857D01*
X61763333Y-86160000D01*
X61810952Y-86064761D01*
X61858571Y-86017142D01*
X61953809Y-85969523D01*
X62191904Y-85969523D01*
X62287142Y-86017142D01*
X62334761Y-86064761D01*
X62382380Y-86160000D01*
X62382380Y-86445714D01*
X62334761Y-86540952D01*
X62287142Y-86588571D01*
X62287142Y-85540952D02*
X62334761Y-85493333D01*
X62382380Y-85540952D01*
X62334761Y-85588571D01*
X62287142Y-85540952D01*
X62382380Y-85540952D01*
X62382380Y-85017142D02*
X62382380Y-84826666D01*
X62334761Y-84731428D01*
X62287142Y-84683809D01*
X62144285Y-84588571D01*
X61953809Y-84540952D01*
X61572857Y-84540952D01*
X61477619Y-84588571D01*
X61430000Y-84636190D01*
X61382380Y-84731428D01*
X61382380Y-84921904D01*
X61430000Y-85017142D01*
X61477619Y-85064761D01*
X61572857Y-85112380D01*
X61810952Y-85112380D01*
X61906190Y-85064761D01*
X61953809Y-85017142D01*
X62001428Y-84921904D01*
X62001428Y-84731428D01*
X61953809Y-84636190D01*
X61906190Y-84588571D01*
X61810952Y-84540952D01*
X61715714Y-84112380D02*
X62382380Y-84112380D01*
X61810952Y-84112380D02*
X61763333Y-84064761D01*
X61715714Y-83969523D01*
X61715714Y-83826666D01*
X61763333Y-83731428D01*
X61858571Y-83683809D01*
X62382380Y-83683809D01*
X61858571Y-82874285D02*
X61858571Y-83207619D01*
X62382380Y-83207619D02*
X61382380Y-83207619D01*
X61382380Y-82731428D01*
X57832380Y-87848571D02*
X57832380Y-88039047D01*
X57880000Y-88134285D01*
X57927619Y-88181904D01*
X58070476Y-88277142D01*
X58260952Y-88324761D01*
X58641904Y-88324761D01*
X58737142Y-88277142D01*
X58784761Y-88229523D01*
X58832380Y-88134285D01*
X58832380Y-87943809D01*
X58784761Y-87848571D01*
X58737142Y-87800952D01*
X58641904Y-87753333D01*
X58403809Y-87753333D01*
X58308571Y-87800952D01*
X58260952Y-87848571D01*
X58213333Y-87943809D01*
X58213333Y-88134285D01*
X58260952Y-88229523D01*
X58308571Y-88277142D01*
X58403809Y-88324761D01*
X58737142Y-87324761D02*
X58784761Y-87277142D01*
X58832380Y-87324761D01*
X58784761Y-87372380D01*
X58737142Y-87324761D01*
X58832380Y-87324761D01*
X58260952Y-86705714D02*
X58213333Y-86800952D01*
X58165714Y-86848571D01*
X58070476Y-86896190D01*
X58022857Y-86896190D01*
X57927619Y-86848571D01*
X57880000Y-86800952D01*
X57832380Y-86705714D01*
X57832380Y-86515238D01*
X57880000Y-86420000D01*
X57927619Y-86372380D01*
X58022857Y-86324761D01*
X58070476Y-86324761D01*
X58165714Y-86372380D01*
X58213333Y-86420000D01*
X58260952Y-86515238D01*
X58260952Y-86705714D01*
X58308571Y-86800952D01*
X58356190Y-86848571D01*
X58451428Y-86896190D01*
X58641904Y-86896190D01*
X58737142Y-86848571D01*
X58784761Y-86800952D01*
X58832380Y-86705714D01*
X58832380Y-86515238D01*
X58784761Y-86420000D01*
X58737142Y-86372380D01*
X58641904Y-86324761D01*
X58451428Y-86324761D01*
X58356190Y-86372380D01*
X58308571Y-86420000D01*
X58260952Y-86515238D01*
X58832380Y-85896190D02*
X57832380Y-85896190D01*
X58451428Y-85800952D02*
X58832380Y-85515238D01*
X58165714Y-85515238D02*
X58546666Y-85896190D01*
X58802380Y-84025238D02*
X58802380Y-84596666D01*
X58802380Y-84310952D02*
X57802380Y-84310952D01*
X57945238Y-84406190D01*
X58040476Y-84501428D01*
X58088095Y-84596666D01*
X57802380Y-83406190D02*
X57802380Y-83310952D01*
X57850000Y-83215714D01*
X57897619Y-83168095D01*
X57992857Y-83120476D01*
X58183333Y-83072857D01*
X58421428Y-83072857D01*
X58611904Y-83120476D01*
X58707142Y-83168095D01*
X58754761Y-83215714D01*
X58802380Y-83310952D01*
X58802380Y-83406190D01*
X58754761Y-83501428D01*
X58707142Y-83549047D01*
X58611904Y-83596666D01*
X58421428Y-83644285D01*
X58183333Y-83644285D01*
X57992857Y-83596666D01*
X57897619Y-83549047D01*
X57850000Y-83501428D01*
X57802380Y-83406190D01*
X58802380Y-82644285D02*
X57802380Y-82644285D01*
X58421428Y-82549047D02*
X58802380Y-82263333D01*
X58135714Y-82263333D02*
X58516666Y-82644285D01*
X63777142Y-76812380D02*
X63872380Y-76812380D01*
X63967619Y-76860000D01*
X64015238Y-76907619D01*
X64062857Y-77002857D01*
X64110476Y-77193333D01*
X64110476Y-77431428D01*
X64062857Y-77621904D01*
X64015238Y-77717142D01*
X63967619Y-77764761D01*
X63872380Y-77812380D01*
X63777142Y-77812380D01*
X63681904Y-77764761D01*
X63634285Y-77717142D01*
X63586666Y-77621904D01*
X63539047Y-77431428D01*
X63539047Y-77193333D01*
X63586666Y-77002857D01*
X63634285Y-76907619D01*
X63681904Y-76860000D01*
X63777142Y-76812380D01*
X64539047Y-77717142D02*
X64586666Y-77764761D01*
X64539047Y-77812380D01*
X64491428Y-77764761D01*
X64539047Y-77717142D01*
X64539047Y-77812380D01*
X65539047Y-77812380D02*
X64967619Y-77812380D01*
X65253333Y-77812380D02*
X65253333Y-76812380D01*
X65158095Y-76955238D01*
X65062857Y-77050476D01*
X64967619Y-77098095D01*
X66396190Y-77145714D02*
X66396190Y-77812380D01*
X65967619Y-77145714D02*
X65967619Y-77669523D01*
X66015238Y-77764761D01*
X66110476Y-77812380D01*
X66253333Y-77812380D01*
X66348571Y-77764761D01*
X66396190Y-77717142D01*
X67205714Y-77288571D02*
X66872380Y-77288571D01*
X66872380Y-77812380D02*
X66872380Y-76812380D01*
X67348571Y-76812380D01*
X92156666Y-111000952D02*
X92156666Y-111381904D01*
X92204285Y-111429523D02*
X92394761Y-111572380D01*
X92204285Y-110953333D02*
X92394761Y-110810476D01*
X92204285Y-110905714D02*
X92204285Y-111477142D01*
X92251904Y-111477142D02*
X92251904Y-110905714D01*
X92299523Y-110858095D02*
X92299523Y-111524761D01*
X92347142Y-111524761D02*
X92347142Y-110858095D01*
X92394761Y-110810476D02*
X92394761Y-111572380D01*
X92442380Y-111572380D02*
X92442380Y-110810476D01*
X92490000Y-110810476D02*
X92490000Y-111572380D01*
X92537619Y-111572380D02*
X92537619Y-110810476D01*
X92585238Y-111572380D02*
X92775714Y-111429523D01*
X92585238Y-110810476D02*
X92585238Y-111572380D01*
X92585238Y-110810476D02*
X92775714Y-110953333D01*
X92632857Y-111524761D02*
X92632857Y-110858095D01*
X92680476Y-110858095D02*
X92680476Y-111524761D01*
X92728095Y-111477142D02*
X92728095Y-110905714D01*
X92775714Y-110905714D02*
X92775714Y-111477142D01*
X92823333Y-111381904D02*
X92823333Y-111000952D01*
X92394761Y-110810476D02*
X92585238Y-110810476D01*
X92775714Y-110905714D01*
X92870952Y-111096190D01*
X92870952Y-111286666D01*
X92775714Y-111477142D01*
X92585238Y-111572380D01*
X92394761Y-111572380D01*
X92204285Y-111477142D01*
X92109047Y-111286666D01*
X92109047Y-111096190D01*
X92204285Y-110905714D01*
X92394761Y-110810476D01*
X131436666Y-107620952D02*
X131436666Y-108001904D01*
X131484285Y-108049523D02*
X131674761Y-108192380D01*
X131484285Y-107573333D02*
X131674761Y-107430476D01*
X131484285Y-107525714D02*
X131484285Y-108097142D01*
X131531904Y-108097142D02*
X131531904Y-107525714D01*
X131579523Y-107478095D02*
X131579523Y-108144761D01*
X131627142Y-108144761D02*
X131627142Y-107478095D01*
X131674761Y-107430476D02*
X131674761Y-108192380D01*
X131722380Y-108192380D02*
X131722380Y-107430476D01*
X131770000Y-107430476D02*
X131770000Y-108192380D01*
X131817619Y-108192380D02*
X131817619Y-107430476D01*
X131865238Y-108192380D02*
X132055714Y-108049523D01*
X131865238Y-107430476D02*
X131865238Y-108192380D01*
X131865238Y-107430476D02*
X132055714Y-107573333D01*
X131912857Y-108144761D02*
X131912857Y-107478095D01*
X131960476Y-107478095D02*
X131960476Y-108144761D01*
X132008095Y-108097142D02*
X132008095Y-107525714D01*
X132055714Y-107525714D02*
X132055714Y-108097142D01*
X132103333Y-108001904D02*
X132103333Y-107620952D01*
X131674761Y-107430476D02*
X131865238Y-107430476D01*
X132055714Y-107525714D01*
X132150952Y-107716190D01*
X132150952Y-107906666D01*
X132055714Y-108097142D01*
X131865238Y-108192380D01*
X131674761Y-108192380D01*
X131484285Y-108097142D01*
X131389047Y-107906666D01*
X131389047Y-107716190D01*
X131484285Y-107525714D01*
X131674761Y-107430476D01*
X55716666Y-76940952D02*
X55716666Y-77321904D01*
X55764285Y-77369523D02*
X55954761Y-77512380D01*
X55764285Y-76893333D02*
X55954761Y-76750476D01*
X55764285Y-76845714D02*
X55764285Y-77417142D01*
X55811904Y-77417142D02*
X55811904Y-76845714D01*
X55859523Y-76798095D02*
X55859523Y-77464761D01*
X55907142Y-77464761D02*
X55907142Y-76798095D01*
X55954761Y-76750476D02*
X55954761Y-77512380D01*
X56002380Y-77512380D02*
X56002380Y-76750476D01*
X56050000Y-76750476D02*
X56050000Y-77512380D01*
X56097619Y-77512380D02*
X56097619Y-76750476D01*
X56145238Y-77512380D02*
X56335714Y-77369523D01*
X56145238Y-76750476D02*
X56145238Y-77512380D01*
X56145238Y-76750476D02*
X56335714Y-76893333D01*
X56192857Y-77464761D02*
X56192857Y-76798095D01*
X56240476Y-76798095D02*
X56240476Y-77464761D01*
X56288095Y-77417142D02*
X56288095Y-76845714D01*
X56335714Y-76845714D02*
X56335714Y-77417142D01*
X56383333Y-77321904D02*
X56383333Y-76940952D01*
X55954761Y-76750476D02*
X56145238Y-76750476D01*
X56335714Y-76845714D01*
X56430952Y-77036190D01*
X56430952Y-77226666D01*
X56335714Y-77417142D01*
X56145238Y-77512380D01*
X55954761Y-77512380D01*
X55764285Y-77417142D01*
X55669047Y-77226666D01*
X55669047Y-77036190D01*
X55764285Y-76845714D01*
X55954761Y-76750476D01*
X102506666Y-93140952D02*
X102506666Y-93521904D01*
X102554285Y-93569523D02*
X102744761Y-93712380D01*
X102554285Y-93093333D02*
X102744761Y-92950476D01*
X102554285Y-93045714D02*
X102554285Y-93617142D01*
X102601904Y-93617142D02*
X102601904Y-93045714D01*
X102649523Y-92998095D02*
X102649523Y-93664761D01*
X102697142Y-93664761D02*
X102697142Y-92998095D01*
X102744761Y-92950476D02*
X102744761Y-93712380D01*
X102792380Y-93712380D02*
X102792380Y-92950476D01*
X102840000Y-92950476D02*
X102840000Y-93712380D01*
X102887619Y-93712380D02*
X102887619Y-92950476D01*
X102935238Y-93712380D02*
X103125714Y-93569523D01*
X102935238Y-92950476D02*
X102935238Y-93712380D01*
X102935238Y-92950476D02*
X103125714Y-93093333D01*
X102982857Y-93664761D02*
X102982857Y-92998095D01*
X103030476Y-92998095D02*
X103030476Y-93664761D01*
X103078095Y-93617142D02*
X103078095Y-93045714D01*
X103125714Y-93045714D02*
X103125714Y-93617142D01*
X103173333Y-93521904D02*
X103173333Y-93140952D01*
X102744761Y-92950476D02*
X102935238Y-92950476D01*
X103125714Y-93045714D01*
X103220952Y-93236190D01*
X103220952Y-93426666D01*
X103125714Y-93617142D01*
X102935238Y-93712380D01*
X102744761Y-93712380D01*
X102554285Y-93617142D01*
X102459047Y-93426666D01*
X102459047Y-93236190D01*
X102554285Y-93045714D01*
X102744761Y-92950476D01*
X102182380Y-86619761D02*
X102325238Y-86667380D01*
X102563333Y-86667380D01*
X102658571Y-86619761D01*
X102706190Y-86572142D01*
X102753809Y-86476904D01*
X102753809Y-86381666D01*
X102706190Y-86286428D01*
X102658571Y-86238809D01*
X102563333Y-86191190D01*
X102372857Y-86143571D01*
X102277619Y-86095952D01*
X102230000Y-86048333D01*
X102182380Y-85953095D01*
X102182380Y-85857857D01*
X102230000Y-85762619D01*
X102277619Y-85715000D01*
X102372857Y-85667380D01*
X102610952Y-85667380D01*
X102753809Y-85715000D01*
X103039523Y-85667380D02*
X103610952Y-85667380D01*
X103325238Y-86667380D02*
X103325238Y-85667380D01*
X103944285Y-86667380D02*
X103944285Y-85667380D01*
X104277619Y-86381666D01*
X104610952Y-85667380D01*
X104610952Y-86667380D01*
X104991904Y-85667380D02*
X105610952Y-85667380D01*
X105277619Y-86048333D01*
X105420476Y-86048333D01*
X105515714Y-86095952D01*
X105563333Y-86143571D01*
X105610952Y-86238809D01*
X105610952Y-86476904D01*
X105563333Y-86572142D01*
X105515714Y-86619761D01*
X105420476Y-86667380D01*
X105134761Y-86667380D01*
X105039523Y-86619761D01*
X104991904Y-86572142D01*
X105991904Y-85762619D02*
X106039523Y-85715000D01*
X106134761Y-85667380D01*
X106372857Y-85667380D01*
X106468095Y-85715000D01*
X106515714Y-85762619D01*
X106563333Y-85857857D01*
X106563333Y-85953095D01*
X106515714Y-86095952D01*
X105944285Y-86667380D01*
X106563333Y-86667380D01*
X107325238Y-86143571D02*
X106991904Y-86143571D01*
X106991904Y-86667380D02*
X106991904Y-85667380D01*
X107468095Y-85667380D01*
X108277619Y-86000714D02*
X108277619Y-86667380D01*
X108039523Y-85619761D02*
X107801428Y-86334047D01*
X108420476Y-86334047D01*
X109230000Y-86000714D02*
X109230000Y-86667380D01*
X108991904Y-85619761D02*
X108753809Y-86334047D01*
X109372857Y-86334047D01*
X110182380Y-85667380D02*
X109991904Y-85667380D01*
X109896666Y-85715000D01*
X109849047Y-85762619D01*
X109753809Y-85905476D01*
X109706190Y-86095952D01*
X109706190Y-86476904D01*
X109753809Y-86572142D01*
X109801428Y-86619761D01*
X109896666Y-86667380D01*
X110087142Y-86667380D01*
X110182380Y-86619761D01*
X110230000Y-86572142D01*
X110277619Y-86476904D01*
X110277619Y-86238809D01*
X110230000Y-86143571D01*
X110182380Y-86095952D01*
X110087142Y-86048333D01*
X109896666Y-86048333D01*
X109801428Y-86095952D01*
X109753809Y-86143571D01*
X109706190Y-86238809D01*
X104563333Y-88317380D02*
X104230000Y-87841190D01*
X103991904Y-88317380D02*
X103991904Y-87317380D01*
X104372857Y-87317380D01*
X104468095Y-87365000D01*
X104515714Y-87412619D01*
X104563333Y-87507857D01*
X104563333Y-87650714D01*
X104515714Y-87745952D01*
X104468095Y-87793571D01*
X104372857Y-87841190D01*
X103991904Y-87841190D01*
X105563333Y-88222142D02*
X105515714Y-88269761D01*
X105372857Y-88317380D01*
X105277619Y-88317380D01*
X105134761Y-88269761D01*
X105039523Y-88174523D01*
X104991904Y-88079285D01*
X104944285Y-87888809D01*
X104944285Y-87745952D01*
X104991904Y-87555476D01*
X105039523Y-87460238D01*
X105134761Y-87365000D01*
X105277619Y-87317380D01*
X105372857Y-87317380D01*
X105515714Y-87365000D01*
X105563333Y-87412619D01*
X106706190Y-87269761D02*
X105849047Y-88555476D01*
X107610952Y-88317380D02*
X107277619Y-87841190D01*
X107039523Y-88317380D02*
X107039523Y-87317380D01*
X107420476Y-87317380D01*
X107515714Y-87365000D01*
X107563333Y-87412619D01*
X107610952Y-87507857D01*
X107610952Y-87650714D01*
X107563333Y-87745952D01*
X107515714Y-87793571D01*
X107420476Y-87841190D01*
X107039523Y-87841190D01*
X108039523Y-87793571D02*
X108372857Y-87793571D01*
X108515714Y-88317380D02*
X108039523Y-88317380D01*
X108039523Y-87317380D01*
X108515714Y-87317380D01*
D12*
X93628095Y-87011904D02*
X93361428Y-86630952D01*
X93170952Y-87011904D02*
X93170952Y-86211904D01*
X93475714Y-86211904D01*
X93551904Y-86250000D01*
X93590000Y-86288095D01*
X93628095Y-86364285D01*
X93628095Y-86478571D01*
X93590000Y-86554761D01*
X93551904Y-86592857D01*
X93475714Y-86630952D01*
X93170952Y-86630952D01*
X93970952Y-86592857D02*
X94237619Y-86592857D01*
X94351904Y-87011904D02*
X93970952Y-87011904D01*
X93970952Y-86211904D01*
X94351904Y-86211904D01*
X94656666Y-86973809D02*
X94770952Y-87011904D01*
X94961428Y-87011904D01*
X95037619Y-86973809D01*
X95075714Y-86935714D01*
X95113809Y-86859523D01*
X95113809Y-86783333D01*
X95075714Y-86707142D01*
X95037619Y-86669047D01*
X94961428Y-86630952D01*
X94809047Y-86592857D01*
X94732857Y-86554761D01*
X94694761Y-86516666D01*
X94656666Y-86440476D01*
X94656666Y-86364285D01*
X94694761Y-86288095D01*
X94732857Y-86250000D01*
X94809047Y-86211904D01*
X94999523Y-86211904D01*
X95113809Y-86250000D01*
X95456666Y-86592857D02*
X95723333Y-86592857D01*
X95837619Y-87011904D02*
X95456666Y-87011904D01*
X95456666Y-86211904D01*
X95837619Y-86211904D01*
X96066190Y-86211904D02*
X96523333Y-86211904D01*
X96294761Y-87011904D02*
X96294761Y-86211904D01*
X92421904Y-93883809D02*
X92536190Y-93921904D01*
X92726666Y-93921904D01*
X92802857Y-93883809D01*
X92840952Y-93845714D01*
X92879047Y-93769523D01*
X92879047Y-93693333D01*
X92840952Y-93617142D01*
X92802857Y-93579047D01*
X92726666Y-93540952D01*
X92574285Y-93502857D01*
X92498095Y-93464761D01*
X92460000Y-93426666D01*
X92421904Y-93350476D01*
X92421904Y-93274285D01*
X92460000Y-93198095D01*
X92498095Y-93160000D01*
X92574285Y-93121904D01*
X92764761Y-93121904D01*
X92879047Y-93160000D01*
X93221904Y-93921904D02*
X93221904Y-93121904D01*
X93221904Y-93502857D02*
X93679047Y-93502857D01*
X93679047Y-93921904D02*
X93679047Y-93121904D01*
X94060000Y-93121904D02*
X94060000Y-93769523D01*
X94098095Y-93845714D01*
X94136190Y-93883809D01*
X94212380Y-93921904D01*
X94364761Y-93921904D01*
X94440952Y-93883809D01*
X94479047Y-93845714D01*
X94517142Y-93769523D01*
X94517142Y-93121904D01*
X94783809Y-93121904D02*
X95240952Y-93121904D01*
X95012380Y-93921904D02*
X95012380Y-93121904D01*
X95393333Y-93121904D02*
X95850476Y-93121904D01*
X95621904Y-93921904D02*
X95621904Y-93121904D01*
X96117142Y-93502857D02*
X96383809Y-93502857D01*
X96498095Y-93921904D02*
X96117142Y-93921904D01*
X96117142Y-93121904D01*
X96498095Y-93121904D01*
X97298095Y-93921904D02*
X97031428Y-93540952D01*
X96840952Y-93921904D02*
X96840952Y-93121904D01*
X97145714Y-93121904D01*
X97221904Y-93160000D01*
X97260000Y-93198095D01*
X97298095Y-93274285D01*
X97298095Y-93388571D01*
X97260000Y-93464761D01*
X97221904Y-93502857D01*
X97145714Y-93540952D01*
X96840952Y-93540952D01*
X93168095Y-97821904D02*
X93358571Y-98621904D01*
X93510952Y-98050476D01*
X93663333Y-98621904D01*
X93853809Y-97821904D01*
X94158571Y-98621904D02*
X94158571Y-97821904D01*
X94615714Y-98621904D02*
X94272857Y-98164761D01*
X94615714Y-97821904D02*
X94158571Y-98279047D01*
X94958571Y-97821904D02*
X94958571Y-98469523D01*
X94996666Y-98545714D01*
X95034761Y-98583809D01*
X95110952Y-98621904D01*
X95263333Y-98621904D01*
X95339523Y-98583809D01*
X95377619Y-98545714D01*
X95415714Y-98469523D01*
X95415714Y-97821904D01*
X95796666Y-98621904D02*
X95796666Y-97821904D01*
X96101428Y-97821904D01*
X96177619Y-97860000D01*
X96215714Y-97898095D01*
X96253809Y-97974285D01*
X96253809Y-98088571D01*
X96215714Y-98164761D01*
X96177619Y-98202857D01*
X96101428Y-98240952D01*
X95796666Y-98240952D01*
X108210476Y-102868095D02*
X108248571Y-102830000D01*
X108324761Y-102791904D01*
X108515238Y-102791904D01*
X108591428Y-102830000D01*
X108629523Y-102868095D01*
X108667619Y-102944285D01*
X108667619Y-103020476D01*
X108629523Y-103134761D01*
X108172380Y-103591904D01*
X108667619Y-103591904D01*
X109353333Y-103058571D02*
X109353333Y-103591904D01*
X109162857Y-102753809D02*
X108972380Y-103325238D01*
X109467619Y-103325238D01*
X109772380Y-103591904D02*
X109772380Y-102791904D01*
X110039047Y-103363333D01*
X110305714Y-102791904D01*
X110305714Y-103591904D01*
X110686666Y-103591904D02*
X110686666Y-102791904D01*
X110686666Y-103172857D02*
X111143809Y-103172857D01*
X111143809Y-103591904D02*
X111143809Y-102791904D01*
X111448571Y-103058571D02*
X111867619Y-103058571D01*
X111448571Y-103591904D01*
X111867619Y-103591904D01*
D13*
X101662857Y-106191904D02*
X101205714Y-106191904D01*
X101434285Y-106191904D02*
X101434285Y-105391904D01*
X101358095Y-105506190D01*
X101281904Y-105582380D01*
X101205714Y-105620476D01*
X101967619Y-105468095D02*
X102005714Y-105430000D01*
X102081904Y-105391904D01*
X102272380Y-105391904D01*
X102348571Y-105430000D01*
X102386666Y-105468095D01*
X102424761Y-105544285D01*
X102424761Y-105620476D01*
X102386666Y-105734761D01*
X101929523Y-106191904D01*
X102424761Y-106191904D01*
X102767619Y-105658571D02*
X102767619Y-106458571D01*
X102767619Y-105696666D02*
X102843809Y-105658571D01*
X102996190Y-105658571D01*
X103072380Y-105696666D01*
X103110476Y-105734761D01*
X103148571Y-105810952D01*
X103148571Y-106039523D01*
X103110476Y-106115714D01*
X103072380Y-106153809D01*
X102996190Y-106191904D01*
X102843809Y-106191904D01*
X102767619Y-106153809D01*
X103758095Y-105772857D02*
X103491428Y-105772857D01*
X103491428Y-106191904D02*
X103491428Y-105391904D01*
X103872380Y-105391904D01*
X105262857Y-106191904D02*
X104805714Y-106191904D01*
X105034285Y-106191904D02*
X105034285Y-105391904D01*
X104958095Y-105506190D01*
X104881904Y-105582380D01*
X104805714Y-105620476D01*
X105567619Y-105468095D02*
X105605714Y-105430000D01*
X105681904Y-105391904D01*
X105872380Y-105391904D01*
X105948571Y-105430000D01*
X105986666Y-105468095D01*
X106024761Y-105544285D01*
X106024761Y-105620476D01*
X105986666Y-105734761D01*
X105529523Y-106191904D01*
X106024761Y-106191904D01*
X106367619Y-105658571D02*
X106367619Y-106458571D01*
X106367619Y-105696666D02*
X106443809Y-105658571D01*
X106596190Y-105658571D01*
X106672380Y-105696666D01*
X106710476Y-105734761D01*
X106748571Y-105810952D01*
X106748571Y-106039523D01*
X106710476Y-106115714D01*
X106672380Y-106153809D01*
X106596190Y-106191904D01*
X106443809Y-106191904D01*
X106367619Y-106153809D01*
X107358095Y-105772857D02*
X107091428Y-105772857D01*
X107091428Y-106191904D02*
X107091428Y-105391904D01*
X107472380Y-105391904D01*
D12*
X96878571Y-115661904D02*
X96421428Y-115661904D01*
X96650000Y-115661904D02*
X96650000Y-114861904D01*
X96573809Y-114976190D01*
X96497619Y-115052380D01*
X96421428Y-115090476D01*
X97221428Y-115661904D02*
X97221428Y-114861904D01*
X97678571Y-115661904D02*
X97335714Y-115204761D01*
X97678571Y-114861904D02*
X97221428Y-115319047D01*
X96908571Y-112941904D02*
X96451428Y-112941904D01*
X96680000Y-112941904D02*
X96680000Y-112141904D01*
X96603809Y-112256190D01*
X96527619Y-112332380D01*
X96451428Y-112370476D01*
X97251428Y-112941904D02*
X97251428Y-112141904D01*
X97708571Y-112941904D02*
X97365714Y-112484761D01*
X97708571Y-112141904D02*
X97251428Y-112599047D01*
X99683809Y-114931904D02*
X100140952Y-114931904D01*
X99912380Y-115731904D02*
X99912380Y-114931904D01*
X100407619Y-115312857D02*
X100674285Y-115312857D01*
X100788571Y-115731904D02*
X100407619Y-115731904D01*
X100407619Y-114931904D01*
X100788571Y-114931904D01*
X101093333Y-115693809D02*
X101207619Y-115731904D01*
X101398095Y-115731904D01*
X101474285Y-115693809D01*
X101512380Y-115655714D01*
X101550476Y-115579523D01*
X101550476Y-115503333D01*
X101512380Y-115427142D01*
X101474285Y-115389047D01*
X101398095Y-115350952D01*
X101245714Y-115312857D01*
X101169523Y-115274761D01*
X101131428Y-115236666D01*
X101093333Y-115160476D01*
X101093333Y-115084285D01*
X101131428Y-115008095D01*
X101169523Y-114970000D01*
X101245714Y-114931904D01*
X101436190Y-114931904D01*
X101550476Y-114970000D01*
X101779047Y-114931904D02*
X102236190Y-114931904D01*
X102007619Y-115731904D02*
X102007619Y-114931904D01*
X99923333Y-112931904D02*
X99923333Y-112131904D01*
X100228095Y-112131904D01*
X100304285Y-112170000D01*
X100342380Y-112208095D01*
X100380476Y-112284285D01*
X100380476Y-112398571D01*
X100342380Y-112474761D01*
X100304285Y-112512857D01*
X100228095Y-112550952D01*
X99923333Y-112550952D01*
X100647142Y-112131904D02*
X100837619Y-112931904D01*
X100990000Y-112360476D01*
X101142380Y-112931904D01*
X101332857Y-112131904D01*
X102094761Y-112931904D02*
X101828095Y-112550952D01*
X101637619Y-112931904D02*
X101637619Y-112131904D01*
X101942380Y-112131904D01*
X102018571Y-112170000D01*
X102056666Y-112208095D01*
X102094761Y-112284285D01*
X102094761Y-112398571D01*
X102056666Y-112474761D01*
X102018571Y-112512857D01*
X101942380Y-112550952D01*
X101637619Y-112550952D01*
D11*
X105570000Y-108790000D02*
X107350000Y-112580000D01*
X105870000Y-107310000D02*
X107360000Y-109840000D01*
D10*
X103751904Y-117422380D02*
X103751904Y-116422380D01*
X104132857Y-116422380D01*
X104228095Y-116470000D01*
X104275714Y-116517619D01*
X104323333Y-116612857D01*
X104323333Y-116755714D01*
X104275714Y-116850952D01*
X104228095Y-116898571D01*
X104132857Y-116946190D01*
X103751904Y-116946190D01*
X105085238Y-116898571D02*
X105228095Y-116946190D01*
X105275714Y-116993809D01*
X105323333Y-117089047D01*
X105323333Y-117231904D01*
X105275714Y-117327142D01*
X105228095Y-117374761D01*
X105132857Y-117422380D01*
X104751904Y-117422380D01*
X104751904Y-116422380D01*
X105085238Y-116422380D01*
X105180476Y-116470000D01*
X105228095Y-116517619D01*
X105275714Y-116612857D01*
X105275714Y-116708095D01*
X105228095Y-116803333D01*
X105180476Y-116850952D01*
X105085238Y-116898571D01*
X104751904Y-116898571D01*
X105656666Y-116422380D02*
X106275714Y-116422380D01*
X105942380Y-116803333D01*
X106085238Y-116803333D01*
X106180476Y-116850952D01*
X106228095Y-116898571D01*
X106275714Y-116993809D01*
X106275714Y-117231904D01*
X106228095Y-117327142D01*
X106180476Y-117374761D01*
X106085238Y-117422380D01*
X105799523Y-117422380D01*
X105704285Y-117374761D01*
X105656666Y-117327142D01*
X103691904Y-114662380D02*
X103691904Y-113662380D01*
X104072857Y-113662380D01*
X104168095Y-113710000D01*
X104215714Y-113757619D01*
X104263333Y-113852857D01*
X104263333Y-113995714D01*
X104215714Y-114090952D01*
X104168095Y-114138571D01*
X104072857Y-114186190D01*
X103691904Y-114186190D01*
X104691904Y-114662380D02*
X104691904Y-113662380D01*
X104930000Y-113662380D01*
X105072857Y-113710000D01*
X105168095Y-113805238D01*
X105215714Y-113900476D01*
X105263333Y-114090952D01*
X105263333Y-114233809D01*
X105215714Y-114424285D01*
X105168095Y-114519523D01*
X105072857Y-114614761D01*
X104930000Y-114662380D01*
X104691904Y-114662380D01*
X105644285Y-113757619D02*
X105691904Y-113710000D01*
X105787142Y-113662380D01*
X106025238Y-113662380D01*
X106120476Y-113710000D01*
X106168095Y-113757619D01*
X106215714Y-113852857D01*
X106215714Y-113948095D01*
X106168095Y-114090952D01*
X105596666Y-114662380D01*
X106215714Y-114662380D01*
X98846666Y-108826666D02*
X99322857Y-108826666D01*
X98751428Y-109112380D02*
X99084761Y-108112380D01*
X99418095Y-109112380D01*
X99751428Y-109112380D02*
X99751428Y-108112380D01*
X99989523Y-108112380D01*
X100132380Y-108160000D01*
X100227619Y-108255238D01*
X100275238Y-108350476D01*
X100322857Y-108540952D01*
X100322857Y-108683809D01*
X100275238Y-108874285D01*
X100227619Y-108969523D01*
X100132380Y-109064761D01*
X99989523Y-109112380D01*
X99751428Y-109112380D01*
X101322857Y-109017142D02*
X101275238Y-109064761D01*
X101132380Y-109112380D01*
X101037142Y-109112380D01*
X100894285Y-109064761D01*
X100799047Y-108969523D01*
X100751428Y-108874285D01*
X100703809Y-108683809D01*
X100703809Y-108540952D01*
X100751428Y-108350476D01*
X100799047Y-108255238D01*
X100894285Y-108160000D01*
X101037142Y-108112380D01*
X101132380Y-108112380D01*
X101275238Y-108160000D01*
X101322857Y-108207619D01*
X101703809Y-108207619D02*
X101751428Y-108160000D01*
X101846666Y-108112380D01*
X102084761Y-108112380D01*
X102180000Y-108160000D01*
X102227619Y-108207619D01*
X102275238Y-108302857D01*
X102275238Y-108398095D01*
X102227619Y-108540952D01*
X101656190Y-109112380D01*
X102275238Y-109112380D01*
X102465714Y-109207619D02*
X103227619Y-109207619D01*
X103465714Y-109112380D02*
X103465714Y-108112380D01*
X103941904Y-109112380D02*
X103941904Y-108112380D01*
X104513333Y-109112380D01*
X104513333Y-108112380D01*
X104894285Y-108112380D02*
X105560952Y-108112380D01*
X105132380Y-109112380D01*
X98846666Y-107336666D02*
X99322857Y-107336666D01*
X98751428Y-107622380D02*
X99084761Y-106622380D01*
X99418095Y-107622380D01*
X99751428Y-107622380D02*
X99751428Y-106622380D01*
X99989523Y-106622380D01*
X100132380Y-106670000D01*
X100227619Y-106765238D01*
X100275238Y-106860476D01*
X100322857Y-107050952D01*
X100322857Y-107193809D01*
X100275238Y-107384285D01*
X100227619Y-107479523D01*
X100132380Y-107574761D01*
X99989523Y-107622380D01*
X99751428Y-107622380D01*
X101322857Y-107527142D02*
X101275238Y-107574761D01*
X101132380Y-107622380D01*
X101037142Y-107622380D01*
X100894285Y-107574761D01*
X100799047Y-107479523D01*
X100751428Y-107384285D01*
X100703809Y-107193809D01*
X100703809Y-107050952D01*
X100751428Y-106860476D01*
X100799047Y-106765238D01*
X100894285Y-106670000D01*
X101037142Y-106622380D01*
X101132380Y-106622380D01*
X101275238Y-106670000D01*
X101322857Y-106717619D01*
X102275238Y-107622380D02*
X101703809Y-107622380D01*
X101989523Y-107622380D02*
X101989523Y-106622380D01*
X101894285Y-106765238D01*
X101799047Y-106860476D01*
X101703809Y-106908095D01*
X102465714Y-107717619D02*
X103227619Y-107717619D01*
X103465714Y-107622380D02*
X103465714Y-106622380D01*
X103941904Y-107622380D02*
X103941904Y-106622380D01*
X104513333Y-107622380D01*
X104513333Y-106622380D01*
X105513333Y-107622380D02*
X104941904Y-107622380D01*
X105227619Y-107622380D02*
X105227619Y-106622380D01*
X105132380Y-106765238D01*
X105037142Y-106860476D01*
X104941904Y-106908095D01*
X114341904Y-119582380D02*
X114913333Y-119582380D01*
X114627619Y-120582380D02*
X114627619Y-119582380D01*
X115246666Y-120582380D02*
X115246666Y-119582380D01*
X115580000Y-120296666D01*
X115913333Y-119582380D01*
X115913333Y-120582380D01*
X116151428Y-120677619D02*
X116913333Y-120677619D01*
X116622857Y-114712380D02*
X117194285Y-114712380D01*
X116908571Y-115712380D02*
X116908571Y-114712380D01*
X117527619Y-115712380D02*
X117527619Y-114712380D01*
X117860952Y-115426666D01*
X118194285Y-114712380D01*
X118194285Y-115712380D01*
X116891904Y-113232380D02*
X116891904Y-112232380D01*
X117272857Y-112232380D01*
X117368095Y-112280000D01*
X117415714Y-112327619D01*
X117463333Y-112422857D01*
X117463333Y-112565714D01*
X117415714Y-112660952D01*
X117368095Y-112708571D01*
X117272857Y-112756190D01*
X116891904Y-112756190D01*
X117891904Y-113232380D02*
X117891904Y-112232380D01*
X117891904Y-112708571D02*
X118463333Y-112708571D01*
X118463333Y-113232380D02*
X118463333Y-112232380D01*
X118939523Y-112708571D02*
X119272857Y-112708571D01*
X119415714Y-113232380D02*
X118939523Y-113232380D01*
X118939523Y-112232380D01*
X119415714Y-112232380D01*
X122047619Y-109062380D02*
X121714285Y-108586190D01*
X121476190Y-109062380D02*
X121476190Y-108062380D01*
X121857142Y-108062380D01*
X121952380Y-108110000D01*
X122000000Y-108157619D01*
X122047619Y-108252857D01*
X122047619Y-108395714D01*
X122000000Y-108490952D01*
X121952380Y-108538571D01*
X121857142Y-108586190D01*
X121476190Y-108586190D01*
X122476190Y-108538571D02*
X122809523Y-108538571D01*
X122952380Y-109062380D02*
X122476190Y-109062380D01*
X122476190Y-108062380D01*
X122952380Y-108062380D01*
X123333333Y-109014761D02*
X123476190Y-109062380D01*
X123714285Y-109062380D01*
X123809523Y-109014761D01*
X123857142Y-108967142D01*
X123904761Y-108871904D01*
X123904761Y-108776666D01*
X123857142Y-108681428D01*
X123809523Y-108633809D01*
X123714285Y-108586190D01*
X123523809Y-108538571D01*
X123428571Y-108490952D01*
X123380952Y-108443333D01*
X123333333Y-108348095D01*
X123333333Y-108252857D01*
X123380952Y-108157619D01*
X123428571Y-108110000D01*
X123523809Y-108062380D01*
X123761904Y-108062380D01*
X123904761Y-108110000D01*
X124333333Y-108538571D02*
X124666666Y-108538571D01*
X124809523Y-109062380D02*
X124333333Y-109062380D01*
X124333333Y-108062380D01*
X124809523Y-108062380D01*
X125095238Y-108062380D02*
X125666666Y-108062380D01*
X125380952Y-109062380D02*
X125380952Y-108062380D01*
X121956666Y-104942380D02*
X122528095Y-104942380D01*
X122242380Y-105942380D02*
X122242380Y-104942380D01*
X122861428Y-105942380D02*
X122861428Y-104942380D01*
X123194761Y-105656666D01*
X123528095Y-104942380D01*
X123528095Y-105942380D01*
X123956666Y-105894761D02*
X124099523Y-105942380D01*
X124337619Y-105942380D01*
X124432857Y-105894761D01*
X124480476Y-105847142D01*
X124528095Y-105751904D01*
X124528095Y-105656666D01*
X124480476Y-105561428D01*
X124432857Y-105513809D01*
X124337619Y-105466190D01*
X124147142Y-105418571D01*
X124051904Y-105370952D01*
X124004285Y-105323333D01*
X123956666Y-105228095D01*
X123956666Y-105132857D01*
X124004285Y-105037619D01*
X124051904Y-104990000D01*
X124147142Y-104942380D01*
X124385238Y-104942380D01*
X124528095Y-104990000D01*
X122468095Y-102690000D02*
X122372857Y-102642380D01*
X122230000Y-102642380D01*
X122087142Y-102690000D01*
X121991904Y-102785238D01*
X121944285Y-102880476D01*
X121896666Y-103070952D01*
X121896666Y-103213809D01*
X121944285Y-103404285D01*
X121991904Y-103499523D01*
X122087142Y-103594761D01*
X122230000Y-103642380D01*
X122325238Y-103642380D01*
X122468095Y-103594761D01*
X122515714Y-103547142D01*
X122515714Y-103213809D01*
X122325238Y-103213809D01*
X122944285Y-103642380D02*
X122944285Y-102642380D01*
X123515714Y-103642380D01*
X123515714Y-102642380D01*
X123991904Y-103642380D02*
X123991904Y-102642380D01*
X124230000Y-102642380D01*
X124372857Y-102690000D01*
X124468095Y-102785238D01*
X124515714Y-102880476D01*
X124563333Y-103070952D01*
X124563333Y-103213809D01*
X124515714Y-103404285D01*
X124468095Y-103499523D01*
X124372857Y-103594761D01*
X124230000Y-103642380D01*
X123991904Y-103642380D01*
X122004285Y-100092380D02*
X122575714Y-100092380D01*
X122290000Y-101092380D02*
X122290000Y-100092380D01*
X123480476Y-100997142D02*
X123432857Y-101044761D01*
X123290000Y-101092380D01*
X123194761Y-101092380D01*
X123051904Y-101044761D01*
X122956666Y-100949523D01*
X122909047Y-100854285D01*
X122861428Y-100663809D01*
X122861428Y-100520952D01*
X122909047Y-100330476D01*
X122956666Y-100235238D01*
X123051904Y-100140000D01*
X123194761Y-100092380D01*
X123290000Y-100092380D01*
X123432857Y-100140000D01*
X123480476Y-100187619D01*
X123909047Y-101092380D02*
X123909047Y-100092380D01*
X124480476Y-101092380D02*
X124051904Y-100520952D01*
X124480476Y-100092380D02*
X123909047Y-100663809D01*
X121340000Y-98411428D02*
X122101904Y-98411428D01*
X121720952Y-98792380D02*
X121720952Y-98030476D01*
X122482857Y-97792380D02*
X123101904Y-97792380D01*
X122768571Y-98173333D01*
X122911428Y-98173333D01*
X123006666Y-98220952D01*
X123054285Y-98268571D01*
X123101904Y-98363809D01*
X123101904Y-98601904D01*
X123054285Y-98697142D01*
X123006666Y-98744761D01*
X122911428Y-98792380D01*
X122625714Y-98792380D01*
X122530476Y-98744761D01*
X122482857Y-98697142D01*
X123530476Y-98697142D02*
X123578095Y-98744761D01*
X123530476Y-98792380D01*
X123482857Y-98744761D01*
X123530476Y-98697142D01*
X123530476Y-98792380D01*
X123911428Y-97792380D02*
X124530476Y-97792380D01*
X124197142Y-98173333D01*
X124340000Y-98173333D01*
X124435238Y-98220952D01*
X124482857Y-98268571D01*
X124530476Y-98363809D01*
X124530476Y-98601904D01*
X124482857Y-98697142D01*
X124435238Y-98744761D01*
X124340000Y-98792380D01*
X124054285Y-98792380D01*
X123959047Y-98744761D01*
X123911428Y-98697142D01*
X124816190Y-97792380D02*
X125149523Y-98792380D01*
X125482857Y-97792380D01*
X121988095Y-92830000D02*
X121892857Y-92782380D01*
X121750000Y-92782380D01*
X121607142Y-92830000D01*
X121511904Y-92925238D01*
X121464285Y-93020476D01*
X121416666Y-93210952D01*
X121416666Y-93353809D01*
X121464285Y-93544285D01*
X121511904Y-93639523D01*
X121607142Y-93734761D01*
X121750000Y-93782380D01*
X121845238Y-93782380D01*
X121988095Y-93734761D01*
X122035714Y-93687142D01*
X122035714Y-93353809D01*
X121845238Y-93353809D01*
X122464285Y-93782380D02*
X122464285Y-92782380D01*
X123035714Y-93782380D01*
X123035714Y-92782380D01*
X123511904Y-93782380D02*
X123511904Y-92782380D01*
X123750000Y-92782380D01*
X123892857Y-92830000D01*
X123988095Y-92925238D01*
X124035714Y-93020476D01*
X124083333Y-93210952D01*
X124083333Y-93353809D01*
X124035714Y-93544285D01*
X123988095Y-93639523D01*
X123892857Y-93734761D01*
X123750000Y-93782380D01*
X123511904Y-93782380D01*
X121813333Y-91042380D02*
X121480000Y-90566190D01*
X121241904Y-91042380D02*
X121241904Y-90042380D01*
X121622857Y-90042380D01*
X121718095Y-90090000D01*
X121765714Y-90137619D01*
X121813333Y-90232857D01*
X121813333Y-90375714D01*
X121765714Y-90470952D01*
X121718095Y-90518571D01*
X121622857Y-90566190D01*
X121241904Y-90566190D01*
X122146666Y-90042380D02*
X122813333Y-91042380D01*
X122813333Y-90042380D02*
X122146666Y-91042380D01*
X121158095Y-87342380D02*
X121729523Y-87342380D01*
X121443809Y-88342380D02*
X121443809Y-87342380D01*
X121967619Y-87342380D02*
X122634285Y-88342380D01*
X122634285Y-87342380D02*
X121967619Y-88342380D01*
X121020000Y-85861428D02*
X121781904Y-85861428D01*
X121400952Y-86242380D02*
X121400952Y-85480476D01*
X122162857Y-85242380D02*
X122781904Y-85242380D01*
X122448571Y-85623333D01*
X122591428Y-85623333D01*
X122686666Y-85670952D01*
X122734285Y-85718571D01*
X122781904Y-85813809D01*
X122781904Y-86051904D01*
X122734285Y-86147142D01*
X122686666Y-86194761D01*
X122591428Y-86242380D01*
X122305714Y-86242380D01*
X122210476Y-86194761D01*
X122162857Y-86147142D01*
X123210476Y-86147142D02*
X123258095Y-86194761D01*
X123210476Y-86242380D01*
X123162857Y-86194761D01*
X123210476Y-86147142D01*
X123210476Y-86242380D01*
X123591428Y-85242380D02*
X124210476Y-85242380D01*
X123877142Y-85623333D01*
X124020000Y-85623333D01*
X124115238Y-85670952D01*
X124162857Y-85718571D01*
X124210476Y-85813809D01*
X124210476Y-86051904D01*
X124162857Y-86147142D01*
X124115238Y-86194761D01*
X124020000Y-86242380D01*
X123734285Y-86242380D01*
X123639047Y-86194761D01*
X123591428Y-86147142D01*
X124496190Y-85242380D02*
X124829523Y-86242380D01*
X125162857Y-85242380D01*
X105772380Y-121721428D02*
X104772380Y-121721428D01*
X105486666Y-121388095D01*
X104772380Y-121054761D01*
X105772380Y-121054761D01*
X105772380Y-120578571D02*
X104772380Y-120578571D01*
X105724761Y-120150000D02*
X105772380Y-120007142D01*
X105772380Y-119769047D01*
X105724761Y-119673809D01*
X105677142Y-119626190D01*
X105581904Y-119578571D01*
X105486666Y-119578571D01*
X105391428Y-119626190D01*
X105343809Y-119673809D01*
X105296190Y-119769047D01*
X105248571Y-119959523D01*
X105200952Y-120054761D01*
X105153333Y-120102380D01*
X105058095Y-120150000D01*
X104962857Y-120150000D01*
X104867619Y-120102380D01*
X104820000Y-120054761D01*
X104772380Y-119959523D01*
X104772380Y-119721428D01*
X104820000Y-119578571D01*
X104772380Y-118959523D02*
X104772380Y-118769047D01*
X104820000Y-118673809D01*
X104915238Y-118578571D01*
X105105714Y-118530952D01*
X105439047Y-118530952D01*
X105629523Y-118578571D01*
X105724761Y-118673809D01*
X105772380Y-118769047D01*
X105772380Y-118959523D01*
X105724761Y-119054761D01*
X105629523Y-119150000D01*
X105439047Y-119197619D01*
X105105714Y-119197619D01*
X104915238Y-119150000D01*
X104820000Y-119054761D01*
X104772380Y-118959523D01*
X103194761Y-121675714D02*
X103242380Y-121532857D01*
X103242380Y-121294761D01*
X103194761Y-121199523D01*
X103147142Y-121151904D01*
X103051904Y-121104285D01*
X102956666Y-121104285D01*
X102861428Y-121151904D01*
X102813809Y-121199523D01*
X102766190Y-121294761D01*
X102718571Y-121485238D01*
X102670952Y-121580476D01*
X102623333Y-121628095D01*
X102528095Y-121675714D01*
X102432857Y-121675714D01*
X102337619Y-121628095D01*
X102290000Y-121580476D01*
X102242380Y-121485238D01*
X102242380Y-121247142D01*
X102290000Y-121104285D01*
X103147142Y-120104285D02*
X103194761Y-120151904D01*
X103242380Y-120294761D01*
X103242380Y-120390000D01*
X103194761Y-120532857D01*
X103099523Y-120628095D01*
X103004285Y-120675714D01*
X102813809Y-120723333D01*
X102670952Y-120723333D01*
X102480476Y-120675714D01*
X102385238Y-120628095D01*
X102290000Y-120532857D01*
X102242380Y-120390000D01*
X102242380Y-120294761D01*
X102290000Y-120151904D01*
X102337619Y-120104285D01*
X103242380Y-119675714D02*
X102242380Y-119675714D01*
X103242380Y-119104285D02*
X102670952Y-119532857D01*
X102242380Y-119104285D02*
X102813809Y-119675714D01*
X100732380Y-121641428D02*
X99732380Y-121641428D01*
X100446666Y-121308095D01*
X99732380Y-120974761D01*
X100732380Y-120974761D01*
X99732380Y-120308095D02*
X99732380Y-120117619D01*
X99780000Y-120022380D01*
X99875238Y-119927142D01*
X100065714Y-119879523D01*
X100399047Y-119879523D01*
X100589523Y-119927142D01*
X100684761Y-120022380D01*
X100732380Y-120117619D01*
X100732380Y-120308095D01*
X100684761Y-120403333D01*
X100589523Y-120498571D01*
X100399047Y-120546190D01*
X100065714Y-120546190D01*
X99875238Y-120498571D01*
X99780000Y-120403333D01*
X99732380Y-120308095D01*
X100684761Y-119498571D02*
X100732380Y-119355714D01*
X100732380Y-119117619D01*
X100684761Y-119022380D01*
X100637142Y-118974761D01*
X100541904Y-118927142D01*
X100446666Y-118927142D01*
X100351428Y-118974761D01*
X100303809Y-119022380D01*
X100256190Y-119117619D01*
X100208571Y-119308095D01*
X100160952Y-119403333D01*
X100113333Y-119450952D01*
X100018095Y-119498571D01*
X99922857Y-119498571D01*
X99827619Y-119450952D01*
X99780000Y-119403333D01*
X99732380Y-119308095D01*
X99732380Y-119070000D01*
X99780000Y-118927142D01*
X100732380Y-118498571D02*
X99732380Y-118498571D01*
X98102380Y-121648095D02*
X97102380Y-121648095D01*
X98102380Y-121076666D01*
X97102380Y-121076666D01*
X98054761Y-120648095D02*
X98102380Y-120505238D01*
X98102380Y-120267142D01*
X98054761Y-120171904D01*
X98007142Y-120124285D01*
X97911904Y-120076666D01*
X97816666Y-120076666D01*
X97721428Y-120124285D01*
X97673809Y-120171904D01*
X97626190Y-120267142D01*
X97578571Y-120457619D01*
X97530952Y-120552857D01*
X97483333Y-120600476D01*
X97388095Y-120648095D01*
X97292857Y-120648095D01*
X97197619Y-120600476D01*
X97150000Y-120552857D01*
X97102380Y-120457619D01*
X97102380Y-120219523D01*
X97150000Y-120076666D01*
X98054761Y-119695714D02*
X98102380Y-119552857D01*
X98102380Y-119314761D01*
X98054761Y-119219523D01*
X98007142Y-119171904D01*
X97911904Y-119124285D01*
X97816666Y-119124285D01*
X97721428Y-119171904D01*
X97673809Y-119219523D01*
X97626190Y-119314761D01*
X97578571Y-119505238D01*
X97530952Y-119600476D01*
X97483333Y-119648095D01*
X97388095Y-119695714D01*
X97292857Y-119695714D01*
X97197619Y-119648095D01*
X97150000Y-119600476D01*
X97102380Y-119505238D01*
X97102380Y-119267142D01*
X97150000Y-119124285D01*
X94860000Y-120991904D02*
X94812380Y-121087142D01*
X94812380Y-121230000D01*
X94860000Y-121372857D01*
X94955238Y-121468095D01*
X95050476Y-121515714D01*
X95240952Y-121563333D01*
X95383809Y-121563333D01*
X95574285Y-121515714D01*
X95669523Y-121468095D01*
X95764761Y-121372857D01*
X95812380Y-121230000D01*
X95812380Y-121134761D01*
X95764761Y-120991904D01*
X95717142Y-120944285D01*
X95383809Y-120944285D01*
X95383809Y-121134761D01*
X95812380Y-120515714D02*
X94812380Y-120515714D01*
X95812380Y-119944285D01*
X94812380Y-119944285D01*
X95812380Y-119468095D02*
X94812380Y-119468095D01*
X94812380Y-119230000D01*
X94860000Y-119087142D01*
X94955238Y-118991904D01*
X95050476Y-118944285D01*
X95240952Y-118896666D01*
X95383809Y-118896666D01*
X95574285Y-118944285D01*
X95669523Y-118991904D01*
X95764761Y-119087142D01*
X95812380Y-119230000D01*
X95812380Y-119468095D01*
X92691428Y-121820000D02*
X92691428Y-121058095D01*
X93072380Y-121439047D02*
X92310476Y-121439047D01*
X92072380Y-120677142D02*
X92072380Y-120058095D01*
X92453333Y-120391428D01*
X92453333Y-120248571D01*
X92500952Y-120153333D01*
X92548571Y-120105714D01*
X92643809Y-120058095D01*
X92881904Y-120058095D01*
X92977142Y-120105714D01*
X93024761Y-120153333D01*
X93072380Y-120248571D01*
X93072380Y-120534285D01*
X93024761Y-120629523D01*
X92977142Y-120677142D01*
X92977142Y-119629523D02*
X93024761Y-119581904D01*
X93072380Y-119629523D01*
X93024761Y-119677142D01*
X92977142Y-119629523D01*
X93072380Y-119629523D01*
X92072380Y-119248571D02*
X92072380Y-118629523D01*
X92453333Y-118962857D01*
X92453333Y-118820000D01*
X92500952Y-118724761D01*
X92548571Y-118677142D01*
X92643809Y-118629523D01*
X92881904Y-118629523D01*
X92977142Y-118677142D01*
X93024761Y-118724761D01*
X93072380Y-118820000D01*
X93072380Y-119105714D01*
X93024761Y-119200952D01*
X92977142Y-119248571D01*
X92072380Y-118343809D02*
X93072380Y-118010476D01*
X92072380Y-117677142D01*
X97664285Y-117464761D02*
X97807142Y-117512380D01*
X98045238Y-117512380D01*
X98140476Y-117464761D01*
X98188095Y-117417142D01*
X98235714Y-117321904D01*
X98235714Y-117226666D01*
X98188095Y-117131428D01*
X98140476Y-117083809D01*
X98045238Y-117036190D01*
X97854761Y-116988571D01*
X97759523Y-116940952D01*
X97711904Y-116893333D01*
X97664285Y-116798095D01*
X97664285Y-116702857D01*
X97711904Y-116607619D01*
X97759523Y-116560000D01*
X97854761Y-116512380D01*
X98092857Y-116512380D01*
X98235714Y-116560000D01*
X98664285Y-117512380D02*
X98664285Y-116512380D01*
X98902380Y-116512380D01*
X99045238Y-116560000D01*
X99140476Y-116655238D01*
X99188095Y-116750476D01*
X99235714Y-116940952D01*
X99235714Y-117083809D01*
X99188095Y-117274285D01*
X99140476Y-117369523D01*
X99045238Y-117464761D01*
X98902380Y-117512380D01*
X98664285Y-117512380D01*
X118961428Y-121680000D02*
X118961428Y-120918095D01*
X119342380Y-121299047D02*
X118580476Y-121299047D01*
X118342380Y-120537142D02*
X118342380Y-119918095D01*
X118723333Y-120251428D01*
X118723333Y-120108571D01*
X118770952Y-120013333D01*
X118818571Y-119965714D01*
X118913809Y-119918095D01*
X119151904Y-119918095D01*
X119247142Y-119965714D01*
X119294761Y-120013333D01*
X119342380Y-120108571D01*
X119342380Y-120394285D01*
X119294761Y-120489523D01*
X119247142Y-120537142D01*
X119247142Y-119489523D02*
X119294761Y-119441904D01*
X119342380Y-119489523D01*
X119294761Y-119537142D01*
X119247142Y-119489523D01*
X119342380Y-119489523D01*
X118342380Y-119108571D02*
X118342380Y-118489523D01*
X118723333Y-118822857D01*
X118723333Y-118680000D01*
X118770952Y-118584761D01*
X118818571Y-118537142D01*
X118913809Y-118489523D01*
X119151904Y-118489523D01*
X119247142Y-118537142D01*
X119294761Y-118584761D01*
X119342380Y-118680000D01*
X119342380Y-118965714D01*
X119294761Y-119060952D01*
X119247142Y-119108571D01*
X118342380Y-118203809D02*
X119342380Y-117870476D01*
X118342380Y-117537142D01*
X121210000Y-121411904D02*
X121162380Y-121507142D01*
X121162380Y-121650000D01*
X121210000Y-121792857D01*
X121305238Y-121888095D01*
X121400476Y-121935714D01*
X121590952Y-121983333D01*
X121733809Y-121983333D01*
X121924285Y-121935714D01*
X122019523Y-121888095D01*
X122114761Y-121792857D01*
X122162380Y-121650000D01*
X122162380Y-121554761D01*
X122114761Y-121411904D01*
X122067142Y-121364285D01*
X121733809Y-121364285D01*
X121733809Y-121554761D01*
X122162380Y-120935714D02*
X121162380Y-120935714D01*
X122162380Y-120364285D01*
X121162380Y-120364285D01*
X122162380Y-119888095D02*
X121162380Y-119888095D01*
X121162380Y-119650000D01*
X121210000Y-119507142D01*
X121305238Y-119411904D01*
X121400476Y-119364285D01*
X121590952Y-119316666D01*
X121733809Y-119316666D01*
X121924285Y-119364285D01*
X122019523Y-119411904D01*
X122114761Y-119507142D01*
X122162380Y-119650000D01*
X122162380Y-119888095D01*
X124784761Y-121915714D02*
X124832380Y-121772857D01*
X124832380Y-121534761D01*
X124784761Y-121439523D01*
X124737142Y-121391904D01*
X124641904Y-121344285D01*
X124546666Y-121344285D01*
X124451428Y-121391904D01*
X124403809Y-121439523D01*
X124356190Y-121534761D01*
X124308571Y-121725238D01*
X124260952Y-121820476D01*
X124213333Y-121868095D01*
X124118095Y-121915714D01*
X124022857Y-121915714D01*
X123927619Y-121868095D01*
X123880000Y-121820476D01*
X123832380Y-121725238D01*
X123832380Y-121487142D01*
X123880000Y-121344285D01*
X124737142Y-120344285D02*
X124784761Y-120391904D01*
X124832380Y-120534761D01*
X124832380Y-120630000D01*
X124784761Y-120772857D01*
X124689523Y-120868095D01*
X124594285Y-120915714D01*
X124403809Y-120963333D01*
X124260952Y-120963333D01*
X124070476Y-120915714D01*
X123975238Y-120868095D01*
X123880000Y-120772857D01*
X123832380Y-120630000D01*
X123832380Y-120534761D01*
X123880000Y-120391904D01*
X123927619Y-120344285D01*
X124832380Y-119915714D02*
X123832380Y-119915714D01*
X124832380Y-119344285D02*
X124260952Y-119772857D01*
X123832380Y-119344285D02*
X124403809Y-119915714D01*
X127292380Y-121941428D02*
X126292380Y-121941428D01*
X127006666Y-121608095D01*
X126292380Y-121274761D01*
X127292380Y-121274761D01*
X126292380Y-120608095D02*
X126292380Y-120417619D01*
X126340000Y-120322380D01*
X126435238Y-120227142D01*
X126625714Y-120179523D01*
X126959047Y-120179523D01*
X127149523Y-120227142D01*
X127244761Y-120322380D01*
X127292380Y-120417619D01*
X127292380Y-120608095D01*
X127244761Y-120703333D01*
X127149523Y-120798571D01*
X126959047Y-120846190D01*
X126625714Y-120846190D01*
X126435238Y-120798571D01*
X126340000Y-120703333D01*
X126292380Y-120608095D01*
X127244761Y-119798571D02*
X127292380Y-119655714D01*
X127292380Y-119417619D01*
X127244761Y-119322380D01*
X127197142Y-119274761D01*
X127101904Y-119227142D01*
X127006666Y-119227142D01*
X126911428Y-119274761D01*
X126863809Y-119322380D01*
X126816190Y-119417619D01*
X126768571Y-119608095D01*
X126720952Y-119703333D01*
X126673333Y-119750952D01*
X126578095Y-119798571D01*
X126482857Y-119798571D01*
X126387619Y-119750952D01*
X126340000Y-119703333D01*
X126292380Y-119608095D01*
X126292380Y-119370000D01*
X126340000Y-119227142D01*
X127292380Y-118798571D02*
X126292380Y-118798571D01*
X129456666Y-121554285D02*
X129456666Y-121078095D01*
X129742380Y-121649523D02*
X128742380Y-121316190D01*
X129742380Y-120982857D01*
X128742380Y-120459047D02*
X128742380Y-120363809D01*
X128790000Y-120268571D01*
X128837619Y-120220952D01*
X128932857Y-120173333D01*
X129123333Y-120125714D01*
X129361428Y-120125714D01*
X129551904Y-120173333D01*
X129647142Y-120220952D01*
X129694761Y-120268571D01*
X129742380Y-120363809D01*
X129742380Y-120459047D01*
X129694761Y-120554285D01*
X129647142Y-120601904D01*
X129551904Y-120649523D01*
X129361428Y-120697142D01*
X129123333Y-120697142D01*
X128932857Y-120649523D01*
X128837619Y-120601904D01*
X128790000Y-120554285D01*
X128742380Y-120459047D01*
X132267619Y-121982857D02*
X132267619Y-121220952D01*
X132172380Y-120411428D02*
X131696190Y-120744761D01*
X132172380Y-120982857D02*
X131172380Y-120982857D01*
X131172380Y-120601904D01*
X131220000Y-120506666D01*
X131267619Y-120459047D01*
X131362857Y-120411428D01*
X131505714Y-120411428D01*
X131600952Y-120459047D01*
X131648571Y-120506666D01*
X131696190Y-120601904D01*
X131696190Y-120982857D01*
X131648571Y-119982857D02*
X131648571Y-119649523D01*
X132172380Y-119506666D02*
X132172380Y-119982857D01*
X131172380Y-119982857D01*
X131172380Y-119506666D01*
X132124761Y-119125714D02*
X132172380Y-118982857D01*
X132172380Y-118744761D01*
X132124761Y-118649523D01*
X132077142Y-118601904D01*
X131981904Y-118554285D01*
X131886666Y-118554285D01*
X131791428Y-118601904D01*
X131743809Y-118649523D01*
X131696190Y-118744761D01*
X131648571Y-118935238D01*
X131600952Y-119030476D01*
X131553333Y-119078095D01*
X131458095Y-119125714D01*
X131362857Y-119125714D01*
X131267619Y-119078095D01*
X131220000Y-119030476D01*
X131172380Y-118935238D01*
X131172380Y-118697142D01*
X131220000Y-118554285D01*
X131648571Y-118125714D02*
X131648571Y-117792380D01*
X132172380Y-117649523D02*
X132172380Y-118125714D01*
X131172380Y-118125714D01*
X131172380Y-117649523D01*
X131172380Y-117363809D02*
X131172380Y-116792380D01*
X132172380Y-117078095D02*
X131172380Y-117078095D01*
X134662380Y-121868095D02*
X133662380Y-121868095D01*
X134662380Y-121296666D01*
X133662380Y-121296666D01*
X134614761Y-120868095D02*
X134662380Y-120725238D01*
X134662380Y-120487142D01*
X134614761Y-120391904D01*
X134567142Y-120344285D01*
X134471904Y-120296666D01*
X134376666Y-120296666D01*
X134281428Y-120344285D01*
X134233809Y-120391904D01*
X134186190Y-120487142D01*
X134138571Y-120677619D01*
X134090952Y-120772857D01*
X134043333Y-120820476D01*
X133948095Y-120868095D01*
X133852857Y-120868095D01*
X133757619Y-120820476D01*
X133710000Y-120772857D01*
X133662380Y-120677619D01*
X133662380Y-120439523D01*
X133710000Y-120296666D01*
X134614761Y-119915714D02*
X134662380Y-119772857D01*
X134662380Y-119534761D01*
X134614761Y-119439523D01*
X134567142Y-119391904D01*
X134471904Y-119344285D01*
X134376666Y-119344285D01*
X134281428Y-119391904D01*
X134233809Y-119439523D01*
X134186190Y-119534761D01*
X134138571Y-119725238D01*
X134090952Y-119820476D01*
X134043333Y-119868095D01*
X133948095Y-119915714D01*
X133852857Y-119915714D01*
X133757619Y-119868095D01*
X133710000Y-119820476D01*
X133662380Y-119725238D01*
X133662380Y-119487142D01*
X133710000Y-119344285D01*
X127579523Y-116022380D02*
X127103333Y-116022380D01*
X127103333Y-115022380D01*
X128484285Y-115927142D02*
X128436666Y-115974761D01*
X128293809Y-116022380D01*
X128198571Y-116022380D01*
X128055714Y-115974761D01*
X127960476Y-115879523D01*
X127912857Y-115784285D01*
X127865238Y-115593809D01*
X127865238Y-115450952D01*
X127912857Y-115260476D01*
X127960476Y-115165238D01*
X128055714Y-115070000D01*
X128198571Y-115022380D01*
X128293809Y-115022380D01*
X128436666Y-115070000D01*
X128484285Y-115117619D01*
X128912857Y-116022380D02*
X128912857Y-115022380D01*
X129150952Y-115022380D01*
X129293809Y-115070000D01*
X129389047Y-115165238D01*
X129436666Y-115260476D01*
X129484285Y-115450952D01*
X129484285Y-115593809D01*
X129436666Y-115784285D01*
X129389047Y-115879523D01*
X129293809Y-115974761D01*
X129150952Y-116022380D01*
X128912857Y-116022380D01*
X141121905Y-120202380D02*
X141121905Y-119202380D01*
X141455238Y-119916666D01*
X141788572Y-119202380D01*
X141788572Y-120202380D01*
X142121905Y-119202380D02*
X142693334Y-119202380D01*
X142407619Y-120202380D02*
X142407619Y-119202380D01*
X143360000Y-119678571D02*
X143502857Y-119726190D01*
X143550476Y-119773809D01*
X143598095Y-119869047D01*
X143598095Y-120011904D01*
X143550476Y-120107142D01*
X143502857Y-120154761D01*
X143407619Y-120202380D01*
X143026667Y-120202380D01*
X143026667Y-119202380D01*
X143360000Y-119202380D01*
X143455238Y-119250000D01*
X143502857Y-119297619D01*
X143550476Y-119392857D01*
X143550476Y-119488095D01*
X143502857Y-119583333D01*
X143455238Y-119630952D01*
X143360000Y-119678571D01*
X143026667Y-119678571D01*
X143788572Y-120297619D02*
X144550476Y-120297619D01*
X144788572Y-119678571D02*
X145121905Y-119678571D01*
X145264762Y-120202380D02*
X144788572Y-120202380D01*
X144788572Y-119202380D01*
X145264762Y-119202380D01*
X145693334Y-120202380D02*
X145693334Y-119202380D01*
X146264762Y-120202380D01*
X146264762Y-119202380D01*
X141121905Y-118012380D02*
X141121905Y-117012380D01*
X141455238Y-117726666D01*
X141788572Y-117012380D01*
X141788572Y-118012380D01*
X142121905Y-117012380D02*
X142693333Y-117012380D01*
X142407619Y-118012380D02*
X142407619Y-117012380D01*
X143360000Y-117488571D02*
X143502857Y-117536190D01*
X143550476Y-117583809D01*
X143598095Y-117679047D01*
X143598095Y-117821904D01*
X143550476Y-117917142D01*
X143502857Y-117964761D01*
X143407619Y-118012380D01*
X143026667Y-118012380D01*
X143026667Y-117012380D01*
X143360000Y-117012380D01*
X143455238Y-117060000D01*
X143502857Y-117107619D01*
X143550476Y-117202857D01*
X143550476Y-117298095D01*
X143502857Y-117393333D01*
X143455238Y-117440952D01*
X143360000Y-117488571D01*
X143026667Y-117488571D01*
X143788572Y-118107619D02*
X144550476Y-118107619D01*
X144788572Y-118012380D02*
X144788572Y-117012380D01*
X145169524Y-117012380D01*
X145264762Y-117060000D01*
X145312381Y-117107619D01*
X145360000Y-117202857D01*
X145360000Y-117345714D01*
X145312381Y-117440952D01*
X145264762Y-117488571D01*
X145169524Y-117536190D01*
X144788572Y-117536190D01*
X145788572Y-118012380D02*
X145788572Y-117012380D01*
X145788572Y-117488571D02*
X146360000Y-117488571D01*
X146360000Y-118012380D02*
X146360000Y-117012380D01*
X141121905Y-115282380D02*
X141121905Y-114282380D01*
X141455238Y-114996666D01*
X141788571Y-114282380D01*
X141788571Y-115282380D01*
X142121905Y-114282380D02*
X142693333Y-114282380D01*
X142407619Y-115282380D02*
X142407619Y-114282380D01*
X142979047Y-114996666D02*
X143455238Y-114996666D01*
X142883809Y-115282380D02*
X143217143Y-114282380D01*
X143550476Y-115282380D01*
X143645714Y-115377619D02*
X144407619Y-115377619D01*
X144645714Y-114758571D02*
X144979047Y-114758571D01*
X145121905Y-115282380D02*
X144645714Y-115282380D01*
X144645714Y-114282380D01*
X145121905Y-114282380D01*
X145550476Y-115282380D02*
X145550476Y-114282380D01*
X146121905Y-115282380D01*
X146121905Y-114282380D01*
X141121904Y-112572380D02*
X141121904Y-111572380D01*
X141455238Y-112286666D01*
X141788571Y-111572380D01*
X141788571Y-112572380D01*
X142121904Y-111572380D02*
X142693333Y-111572380D01*
X142407619Y-112572380D02*
X142407619Y-111572380D01*
X142979047Y-112286666D02*
X143455238Y-112286666D01*
X142883809Y-112572380D02*
X143217143Y-111572380D01*
X143550476Y-112572380D01*
X143645714Y-112667619D02*
X144407619Y-112667619D01*
X144645714Y-112572380D02*
X144645714Y-111572380D01*
X145026666Y-111572380D01*
X145121904Y-111620000D01*
X145169524Y-111667619D01*
X145217143Y-111762857D01*
X145217143Y-111905714D01*
X145169524Y-112000952D01*
X145121904Y-112048571D01*
X145026666Y-112096190D01*
X144645714Y-112096190D01*
X145645714Y-112572380D02*
X145645714Y-111572380D01*
X145645714Y-112048571D02*
X146217143Y-112048571D01*
X146217143Y-112572380D02*
X146217143Y-111572380D01*
X141121904Y-110392380D02*
X141121904Y-109392380D01*
X141359999Y-109392380D01*
X141502857Y-109440000D01*
X141598095Y-109535238D01*
X141645714Y-109630476D01*
X141693333Y-109820952D01*
X141693333Y-109963809D01*
X141645714Y-110154285D01*
X141598095Y-110249523D01*
X141502857Y-110344761D01*
X141359999Y-110392380D01*
X141121904Y-110392380D01*
X142312380Y-109392380D02*
X142502857Y-109392380D01*
X142598095Y-109440000D01*
X142693333Y-109535238D01*
X142740952Y-109725714D01*
X142740952Y-110059047D01*
X142693333Y-110249523D01*
X142598095Y-110344761D01*
X142502857Y-110392380D01*
X142312380Y-110392380D01*
X142217142Y-110344761D01*
X142121904Y-110249523D01*
X142074285Y-110059047D01*
X142074285Y-109725714D01*
X142121904Y-109535238D01*
X142217142Y-109440000D01*
X142312380Y-109392380D01*
X141598095Y-107832380D02*
X141121904Y-107832380D01*
X141121904Y-106832380D01*
X141883809Y-107546666D02*
X142359999Y-107546666D01*
X141788571Y-107832380D02*
X142121904Y-106832380D01*
X142455237Y-107832380D01*
X142645714Y-106832380D02*
X143217142Y-106832380D01*
X142931428Y-107832380D02*
X142931428Y-106832380D01*
X140979047Y-104362380D02*
X141550476Y-104362380D01*
X141264762Y-105362380D02*
X141264762Y-104362380D01*
X141883809Y-105362380D02*
X141883809Y-104362380D01*
X142217143Y-105076666D01*
X142550476Y-104362380D01*
X142550476Y-105362380D01*
X142788571Y-105457619D02*
X143550476Y-105457619D01*
X140979048Y-101742380D02*
X141550476Y-101742380D01*
X141264762Y-102742380D02*
X141264762Y-101742380D01*
X141883810Y-102742380D02*
X141883810Y-101742380D01*
X142217143Y-102456666D01*
X142550476Y-101742380D01*
X142550476Y-102742380D01*
X141074285Y-100164761D02*
X141217143Y-100212380D01*
X141455238Y-100212380D01*
X141550476Y-100164761D01*
X141598095Y-100117142D01*
X141645714Y-100021904D01*
X141645714Y-99926666D01*
X141598095Y-99831428D01*
X141550476Y-99783809D01*
X141455238Y-99736190D01*
X141264762Y-99688571D01*
X141169523Y-99640952D01*
X141121904Y-99593333D01*
X141074285Y-99498095D01*
X141074285Y-99402857D01*
X141121904Y-99307619D01*
X141169523Y-99260000D01*
X141264762Y-99212380D01*
X141502857Y-99212380D01*
X141645714Y-99260000D01*
X141931428Y-99212380D02*
X142502857Y-99212380D01*
X142217143Y-100212380D02*
X142217143Y-99212380D01*
X143169523Y-99688571D02*
X143312381Y-99736190D01*
X143360000Y-99783809D01*
X143407619Y-99879047D01*
X143407619Y-100021904D01*
X143360000Y-100117142D01*
X143312381Y-100164761D01*
X143217143Y-100212380D01*
X142836190Y-100212380D01*
X142836190Y-99212380D01*
X143169523Y-99212380D01*
X143264762Y-99260000D01*
X143312381Y-99307619D01*
X143360000Y-99402857D01*
X143360000Y-99498095D01*
X143312381Y-99593333D01*
X143264762Y-99640952D01*
X143169523Y-99688571D01*
X142836190Y-99688571D01*
X144264762Y-99212380D02*
X144074285Y-99212380D01*
X143979047Y-99260000D01*
X143931428Y-99307619D01*
X143836190Y-99450476D01*
X143788571Y-99640952D01*
X143788571Y-100021904D01*
X143836190Y-100117142D01*
X143883809Y-100164761D01*
X143979047Y-100212380D01*
X144169523Y-100212380D01*
X144264762Y-100164761D01*
X144312381Y-100117142D01*
X144360000Y-100021904D01*
X144360000Y-99783809D01*
X144312381Y-99688571D01*
X144264762Y-99640952D01*
X144169523Y-99593333D01*
X143979047Y-99593333D01*
X143883809Y-99640952D01*
X143836190Y-99688571D01*
X143788571Y-99783809D01*
X141074285Y-97784761D02*
X141217143Y-97832380D01*
X141455238Y-97832380D01*
X141550476Y-97784761D01*
X141598095Y-97737142D01*
X141645714Y-97641904D01*
X141645714Y-97546666D01*
X141598095Y-97451428D01*
X141550476Y-97403809D01*
X141455238Y-97356190D01*
X141264762Y-97308571D01*
X141169523Y-97260952D01*
X141121904Y-97213333D01*
X141074285Y-97118095D01*
X141074285Y-97022857D01*
X141121904Y-96927619D01*
X141169523Y-96880000D01*
X141264762Y-96832380D01*
X141502857Y-96832380D01*
X141645714Y-96880000D01*
X141931428Y-96832380D02*
X142502857Y-96832380D01*
X142217143Y-97832380D02*
X142217143Y-96832380D01*
X143169523Y-97308571D02*
X143312381Y-97356190D01*
X143360000Y-97403809D01*
X143407619Y-97499047D01*
X143407619Y-97641904D01*
X143360000Y-97737142D01*
X143312381Y-97784761D01*
X143217143Y-97832380D01*
X142836190Y-97832380D01*
X142836190Y-96832380D01*
X143169523Y-96832380D01*
X143264762Y-96880000D01*
X143312381Y-96927619D01*
X143360000Y-97022857D01*
X143360000Y-97118095D01*
X143312381Y-97213333D01*
X143264762Y-97260952D01*
X143169523Y-97308571D01*
X142836190Y-97308571D01*
X144312381Y-96832380D02*
X143836190Y-96832380D01*
X143788571Y-97308571D01*
X143836190Y-97260952D01*
X143931428Y-97213333D01*
X144169523Y-97213333D01*
X144264762Y-97260952D01*
X144312381Y-97308571D01*
X144360000Y-97403809D01*
X144360000Y-97641904D01*
X144312381Y-97737142D01*
X144264762Y-97784761D01*
X144169523Y-97832380D01*
X143931428Y-97832380D01*
X143836190Y-97784761D01*
X143788571Y-97737142D01*
X141074285Y-95214761D02*
X141217143Y-95262380D01*
X141455238Y-95262380D01*
X141550476Y-95214761D01*
X141598095Y-95167142D01*
X141645714Y-95071904D01*
X141645714Y-94976666D01*
X141598095Y-94881428D01*
X141550476Y-94833809D01*
X141455238Y-94786190D01*
X141264762Y-94738571D01*
X141169523Y-94690952D01*
X141121904Y-94643333D01*
X141074285Y-94548095D01*
X141074285Y-94452857D01*
X141121904Y-94357619D01*
X141169523Y-94310000D01*
X141264762Y-94262380D01*
X141502857Y-94262380D01*
X141645714Y-94310000D01*
X141931428Y-94262380D02*
X142502857Y-94262380D01*
X142217143Y-95262380D02*
X142217143Y-94262380D01*
X143169523Y-94738571D02*
X143312381Y-94786190D01*
X143360000Y-94833809D01*
X143407619Y-94929047D01*
X143407619Y-95071904D01*
X143360000Y-95167142D01*
X143312381Y-95214761D01*
X143217143Y-95262380D01*
X142836190Y-95262380D01*
X142836190Y-94262380D01*
X143169523Y-94262380D01*
X143264762Y-94310000D01*
X143312381Y-94357619D01*
X143360000Y-94452857D01*
X143360000Y-94548095D01*
X143312381Y-94643333D01*
X143264762Y-94690952D01*
X143169523Y-94738571D01*
X142836190Y-94738571D01*
X144264762Y-94595714D02*
X144264762Y-95262380D01*
X144026666Y-94214761D02*
X143788571Y-94929047D01*
X144407619Y-94929047D01*
X141074285Y-92574761D02*
X141217143Y-92622380D01*
X141455238Y-92622380D01*
X141550476Y-92574761D01*
X141598095Y-92527142D01*
X141645714Y-92431904D01*
X141645714Y-92336666D01*
X141598095Y-92241428D01*
X141550476Y-92193809D01*
X141455238Y-92146190D01*
X141264762Y-92098571D01*
X141169523Y-92050952D01*
X141121904Y-92003333D01*
X141074285Y-91908095D01*
X141074285Y-91812857D01*
X141121904Y-91717619D01*
X141169523Y-91670000D01*
X141264762Y-91622380D01*
X141502857Y-91622380D01*
X141645714Y-91670000D01*
X141931428Y-91622380D02*
X142502857Y-91622380D01*
X142217143Y-92622380D02*
X142217143Y-91622380D01*
X143169523Y-92098571D02*
X143312381Y-92146190D01*
X143360000Y-92193809D01*
X143407619Y-92289047D01*
X143407619Y-92431904D01*
X143360000Y-92527142D01*
X143312381Y-92574761D01*
X143217143Y-92622380D01*
X142836190Y-92622380D01*
X142836190Y-91622380D01*
X143169523Y-91622380D01*
X143264762Y-91670000D01*
X143312381Y-91717619D01*
X143360000Y-91812857D01*
X143360000Y-91908095D01*
X143312381Y-92003333D01*
X143264762Y-92050952D01*
X143169523Y-92098571D01*
X142836190Y-92098571D01*
X143740952Y-91622380D02*
X144360000Y-91622380D01*
X144026666Y-92003333D01*
X144169523Y-92003333D01*
X144264762Y-92050952D01*
X144312381Y-92098571D01*
X144360000Y-92193809D01*
X144360000Y-92431904D01*
X144312381Y-92527142D01*
X144264762Y-92574761D01*
X144169523Y-92622380D01*
X143883809Y-92622380D01*
X143788571Y-92574761D01*
X143740952Y-92527142D01*
X141074285Y-89984761D02*
X141217143Y-90032380D01*
X141455238Y-90032380D01*
X141550476Y-89984761D01*
X141598095Y-89937142D01*
X141645714Y-89841904D01*
X141645714Y-89746666D01*
X141598095Y-89651428D01*
X141550476Y-89603809D01*
X141455238Y-89556190D01*
X141264762Y-89508571D01*
X141169523Y-89460952D01*
X141121904Y-89413333D01*
X141074285Y-89318095D01*
X141074285Y-89222857D01*
X141121904Y-89127619D01*
X141169523Y-89080000D01*
X141264762Y-89032380D01*
X141502857Y-89032380D01*
X141645714Y-89080000D01*
X141931428Y-89032380D02*
X142502857Y-89032380D01*
X142217143Y-90032380D02*
X142217143Y-89032380D01*
X143169523Y-89508571D02*
X143312381Y-89556190D01*
X143360000Y-89603809D01*
X143407619Y-89699047D01*
X143407619Y-89841904D01*
X143360000Y-89937142D01*
X143312381Y-89984761D01*
X143217143Y-90032380D01*
X142836190Y-90032380D01*
X142836190Y-89032380D01*
X143169523Y-89032380D01*
X143264762Y-89080000D01*
X143312381Y-89127619D01*
X143360000Y-89222857D01*
X143360000Y-89318095D01*
X143312381Y-89413333D01*
X143264762Y-89460952D01*
X143169523Y-89508571D01*
X142836190Y-89508571D01*
X143788571Y-89127619D02*
X143836190Y-89080000D01*
X143931428Y-89032380D01*
X144169523Y-89032380D01*
X144264762Y-89080000D01*
X144312381Y-89127619D01*
X144360000Y-89222857D01*
X144360000Y-89318095D01*
X144312381Y-89460952D01*
X143740952Y-90032380D01*
X144360000Y-90032380D01*
X141074285Y-87494761D02*
X141217143Y-87542380D01*
X141455238Y-87542380D01*
X141550476Y-87494761D01*
X141598095Y-87447142D01*
X141645714Y-87351904D01*
X141645714Y-87256666D01*
X141598095Y-87161428D01*
X141550476Y-87113809D01*
X141455238Y-87066190D01*
X141264762Y-87018571D01*
X141169523Y-86970952D01*
X141121904Y-86923333D01*
X141074285Y-86828095D01*
X141074285Y-86732857D01*
X141121904Y-86637619D01*
X141169523Y-86590000D01*
X141264762Y-86542380D01*
X141502857Y-86542380D01*
X141645714Y-86590000D01*
X141931428Y-86542380D02*
X142502857Y-86542380D01*
X142217143Y-87542380D02*
X142217143Y-86542380D01*
X143169523Y-87018571D02*
X143312381Y-87066190D01*
X143360000Y-87113809D01*
X143407619Y-87209047D01*
X143407619Y-87351904D01*
X143360000Y-87447142D01*
X143312381Y-87494761D01*
X143217143Y-87542380D01*
X142836190Y-87542380D01*
X142836190Y-86542380D01*
X143169523Y-86542380D01*
X143264762Y-86590000D01*
X143312381Y-86637619D01*
X143360000Y-86732857D01*
X143360000Y-86828095D01*
X143312381Y-86923333D01*
X143264762Y-86970952D01*
X143169523Y-87018571D01*
X142836190Y-87018571D01*
X144360000Y-87542380D02*
X143788571Y-87542380D01*
X144074285Y-87542380D02*
X144074285Y-86542380D01*
X143979047Y-86685238D01*
X143883809Y-86780476D01*
X143788571Y-86828095D01*
X141693333Y-84847142D02*
X141645714Y-84894761D01*
X141502857Y-84942380D01*
X141407619Y-84942380D01*
X141264762Y-84894761D01*
X141169524Y-84799523D01*
X141121905Y-84704285D01*
X141074286Y-84513809D01*
X141074286Y-84370952D01*
X141121905Y-84180476D01*
X141169524Y-84085238D01*
X141264762Y-83990000D01*
X141407619Y-83942380D01*
X141502857Y-83942380D01*
X141645714Y-83990000D01*
X141693333Y-84037619D01*
X142598095Y-84942380D02*
X142121905Y-84942380D01*
X142121905Y-83942380D01*
X142931429Y-84942380D02*
X142931429Y-83942380D01*
X143502857Y-84942380D02*
X143074286Y-84370952D01*
X143502857Y-83942380D02*
X142931429Y-84513809D01*
X141121905Y-82422380D02*
X141121905Y-81422380D01*
X141360000Y-81422380D01*
X141502857Y-81470000D01*
X141598095Y-81565238D01*
X141645714Y-81660476D01*
X141693333Y-81850952D01*
X141693333Y-81993809D01*
X141645714Y-82184285D01*
X141598095Y-82279523D01*
X141502857Y-82374761D01*
X141360000Y-82422380D01*
X141121905Y-82422380D01*
X142121905Y-82422380D02*
X142121905Y-81422380D01*
X141121904Y-79842380D02*
X141121904Y-78842380D01*
X141502857Y-78842380D01*
X141598095Y-78890000D01*
X141645714Y-78937619D01*
X141693333Y-79032857D01*
X141693333Y-79175714D01*
X141645714Y-79270952D01*
X141598095Y-79318571D01*
X141502857Y-79366190D01*
X141121904Y-79366190D01*
X142121904Y-79842380D02*
X142121904Y-78842380D01*
X142121904Y-79318571D02*
X142693333Y-79318571D01*
X142693333Y-79842380D02*
X142693333Y-78842380D01*
X143169523Y-79318571D02*
X143502857Y-79318571D01*
X143645714Y-79842380D02*
X143169523Y-79842380D01*
X143169523Y-78842380D01*
X143645714Y-78842380D01*
X141645714Y-76380000D02*
X141550476Y-76332380D01*
X141407619Y-76332380D01*
X141264761Y-76380000D01*
X141169523Y-76475238D01*
X141121904Y-76570476D01*
X141074285Y-76760952D01*
X141074285Y-76903809D01*
X141121904Y-77094285D01*
X141169523Y-77189523D01*
X141264761Y-77284761D01*
X141407619Y-77332380D01*
X141502857Y-77332380D01*
X141645714Y-77284761D01*
X141693333Y-77237142D01*
X141693333Y-76903809D01*
X141502857Y-76903809D01*
X142121904Y-77332380D02*
X142121904Y-76332380D01*
X142693333Y-77332380D01*
X142693333Y-76332380D01*
X143169523Y-77332380D02*
X143169523Y-76332380D01*
X143407619Y-76332380D01*
X143550476Y-76380000D01*
X143645714Y-76475238D01*
X143693333Y-76570476D01*
X143740952Y-76760952D01*
X143740952Y-76903809D01*
X143693333Y-77094285D01*
X143645714Y-77189523D01*
X143550476Y-77284761D01*
X143407619Y-77332380D01*
X143169523Y-77332380D01*
X140979048Y-73927380D02*
X141312381Y-74927380D01*
X141645714Y-73927380D01*
X142455238Y-74927380D02*
X141979048Y-74927380D01*
X141979048Y-73927380D01*
X142931429Y-74927380D02*
X142836191Y-74879761D01*
X142788572Y-74832142D01*
X142740952Y-74736904D01*
X142740952Y-74451190D01*
X142788572Y-74355952D01*
X142836191Y-74308333D01*
X142931429Y-74260714D01*
X143074286Y-74260714D01*
X143169524Y-74308333D01*
X143217143Y-74355952D01*
X143264762Y-74451190D01*
X143264762Y-74736904D01*
X143217143Y-74832142D01*
X143169524Y-74879761D01*
X143074286Y-74927380D01*
X142931429Y-74927380D01*
X144121905Y-74260714D02*
X144121905Y-75070238D01*
X144074286Y-75165476D01*
X144026667Y-75213095D01*
X143931429Y-75260714D01*
X143788572Y-75260714D01*
X143693333Y-75213095D01*
X144121905Y-74879761D02*
X144026667Y-74927380D01*
X143836191Y-74927380D01*
X143740952Y-74879761D01*
X143693333Y-74832142D01*
X143645714Y-74736904D01*
X143645714Y-74451190D01*
X143693333Y-74355952D01*
X143740952Y-74308333D01*
X143836191Y-74260714D01*
X144026667Y-74260714D01*
X144121905Y-74308333D01*
X144598095Y-74927380D02*
X144598095Y-74260714D01*
X144598095Y-73927380D02*
X144550476Y-73975000D01*
X144598095Y-74022619D01*
X144645714Y-73975000D01*
X144598095Y-73927380D01*
X144598095Y-74022619D01*
X145502857Y-74879761D02*
X145407619Y-74927380D01*
X145217143Y-74927380D01*
X145121905Y-74879761D01*
X145074286Y-74832142D01*
X145026667Y-74736904D01*
X145026667Y-74451190D01*
X145074286Y-74355952D01*
X145121905Y-74308333D01*
X145217143Y-74260714D01*
X145407619Y-74260714D01*
X145502857Y-74308333D01*
X140979048Y-71272380D02*
X141312381Y-72272380D01*
X141645714Y-71272380D01*
X141979048Y-72272380D02*
X141979048Y-71272380D01*
X141979048Y-71748571D02*
X142550476Y-71748571D01*
X142550476Y-72272380D02*
X142550476Y-71272380D01*
X141121904Y-69361428D02*
X141883809Y-69361428D01*
X141502857Y-69742380D02*
X141502857Y-68980476D01*
X142836190Y-68742380D02*
X142359999Y-68742380D01*
X142312380Y-69218571D01*
X142359999Y-69170952D01*
X142455238Y-69123333D01*
X142693333Y-69123333D01*
X142788571Y-69170952D01*
X142836190Y-69218571D01*
X142883809Y-69313809D01*
X142883809Y-69551904D01*
X142836190Y-69647142D01*
X142788571Y-69694761D01*
X142693333Y-69742380D01*
X142455238Y-69742380D01*
X142359999Y-69694761D01*
X142312380Y-69647142D01*
X143169523Y-68742380D02*
X143502857Y-69742380D01*
X143836190Y-68742380D01*
X134540000Y-63751428D02*
X135301904Y-63751428D01*
X134920952Y-64132380D02*
X134920952Y-63370476D01*
X135682857Y-63132380D02*
X136301904Y-63132380D01*
X135968571Y-63513333D01*
X136111428Y-63513333D01*
X136206666Y-63560952D01*
X136254285Y-63608571D01*
X136301904Y-63703809D01*
X136301904Y-63941904D01*
X136254285Y-64037142D01*
X136206666Y-64084761D01*
X136111428Y-64132380D01*
X135825714Y-64132380D01*
X135730476Y-64084761D01*
X135682857Y-64037142D01*
X136730476Y-64037142D02*
X136778095Y-64084761D01*
X136730476Y-64132380D01*
X136682857Y-64084761D01*
X136730476Y-64037142D01*
X136730476Y-64132380D01*
X137111428Y-63132380D02*
X137730476Y-63132380D01*
X137397142Y-63513333D01*
X137540000Y-63513333D01*
X137635238Y-63560952D01*
X137682857Y-63608571D01*
X137730476Y-63703809D01*
X137730476Y-63941904D01*
X137682857Y-64037142D01*
X137635238Y-64084761D01*
X137540000Y-64132380D01*
X137254285Y-64132380D01*
X137159047Y-64084761D01*
X137111428Y-64037142D01*
X138016190Y-63132380D02*
X138349523Y-64132380D01*
X138682857Y-63132380D01*
X110470238Y-136441666D02*
X110422619Y-136584523D01*
X110422619Y-136822619D01*
X110470238Y-136917857D01*
X110517857Y-136965476D01*
X110613095Y-137013095D01*
X110708333Y-137013095D01*
X110803571Y-136965476D01*
X110851190Y-136917857D01*
X110898809Y-136822619D01*
X110946428Y-136632142D01*
X110994047Y-136536904D01*
X111041666Y-136489285D01*
X111136904Y-136441666D01*
X111232142Y-136441666D01*
X111327380Y-136489285D01*
X111375000Y-136536904D01*
X111422619Y-136632142D01*
X111422619Y-136870238D01*
X111375000Y-137013095D01*
X110422619Y-137441666D02*
X111422619Y-137441666D01*
X111422619Y-137679761D01*
X111375000Y-137822619D01*
X111279761Y-137917857D01*
X111184523Y-137965476D01*
X110994047Y-138013095D01*
X110851190Y-138013095D01*
X110660714Y-137965476D01*
X110565476Y-137917857D01*
X110470238Y-137822619D01*
X110422619Y-137679761D01*
X110422619Y-137441666D01*
X110946428Y-139536904D02*
X110898809Y-139679761D01*
X110851190Y-139727380D01*
X110755952Y-139775000D01*
X110613095Y-139775000D01*
X110517857Y-139727380D01*
X110470238Y-139679761D01*
X110422619Y-139584523D01*
X110422619Y-139203571D01*
X111422619Y-139203571D01*
X111422619Y-139536904D01*
X111375000Y-139632142D01*
X111327380Y-139679761D01*
X111232142Y-139727380D01*
X111136904Y-139727380D01*
X111041666Y-139679761D01*
X110994047Y-139632142D01*
X110946428Y-139536904D01*
X110946428Y-139203571D01*
X110422619Y-140346428D02*
X110470238Y-140251190D01*
X110517857Y-140203571D01*
X110613095Y-140155952D01*
X110898809Y-140155952D01*
X110994047Y-140203571D01*
X111041666Y-140251190D01*
X111089285Y-140346428D01*
X111089285Y-140489285D01*
X111041666Y-140584523D01*
X110994047Y-140632142D01*
X110898809Y-140679761D01*
X110613095Y-140679761D01*
X110517857Y-140632142D01*
X110470238Y-140584523D01*
X110422619Y-140489285D01*
X110422619Y-140346428D01*
X110422619Y-141536904D02*
X110946428Y-141536904D01*
X111041666Y-141489285D01*
X111089285Y-141394047D01*
X111089285Y-141203571D01*
X111041666Y-141108333D01*
X110470238Y-141536904D02*
X110422619Y-141441666D01*
X110422619Y-141203571D01*
X110470238Y-141108333D01*
X110565476Y-141060714D01*
X110660714Y-141060714D01*
X110755952Y-141108333D01*
X110803571Y-141203571D01*
X110803571Y-141441666D01*
X110851190Y-141536904D01*
X110422619Y-142013095D02*
X111089285Y-142013095D01*
X110898809Y-142013095D02*
X110994047Y-142060714D01*
X111041666Y-142108333D01*
X111089285Y-142203571D01*
X111089285Y-142298809D01*
X110422619Y-143060714D02*
X111422619Y-143060714D01*
X110470238Y-143060714D02*
X110422619Y-142965476D01*
X110422619Y-142775000D01*
X110470238Y-142679761D01*
X110517857Y-142632142D01*
X110613095Y-142584523D01*
X110898809Y-142584523D01*
X110994047Y-142632142D01*
X111041666Y-142679761D01*
X111089285Y-142775000D01*
X111089285Y-142965476D01*
X111041666Y-143060714D01*
X109772619Y-134155952D02*
X108772619Y-134489285D01*
X109772619Y-134822619D01*
X108820238Y-135536904D02*
X108772619Y-135441666D01*
X108772619Y-135251190D01*
X108820238Y-135155952D01*
X108915476Y-135108333D01*
X109296428Y-135108333D01*
X109391666Y-135155952D01*
X109439285Y-135251190D01*
X109439285Y-135441666D01*
X109391666Y-135536904D01*
X109296428Y-135584523D01*
X109201190Y-135584523D01*
X109105952Y-135108333D01*
X108772619Y-136013095D02*
X109439285Y-136013095D01*
X109248809Y-136013095D02*
X109344047Y-136060714D01*
X109391666Y-136108333D01*
X109439285Y-136203571D01*
X109439285Y-136298809D01*
X108867857Y-136632142D02*
X108820238Y-136679761D01*
X108772619Y-136632142D01*
X108820238Y-136584523D01*
X108867857Y-136632142D01*
X108772619Y-136632142D01*
X108772619Y-137632142D02*
X108772619Y-137060714D01*
X108772619Y-137346428D02*
X109772619Y-137346428D01*
X109629761Y-137251190D01*
X109534523Y-137155952D01*
X109486904Y-137060714D01*
X108867857Y-138060714D02*
X108820238Y-138108333D01*
X108772619Y-138060714D01*
X108820238Y-138013095D01*
X108867857Y-138060714D01*
X108772619Y-138060714D01*
X109772619Y-138727380D02*
X109772619Y-138822619D01*
X109725000Y-138917857D01*
X109677380Y-138965476D01*
X109582142Y-139013095D01*
X109391666Y-139060714D01*
X109153571Y-139060714D01*
X108963095Y-139013095D01*
X108867857Y-138965476D01*
X108820238Y-138917857D01*
X108772619Y-138822619D01*
X108772619Y-138727380D01*
X108820238Y-138632142D01*
X108867857Y-138584523D01*
X108963095Y-138536904D01*
X109153571Y-138489285D01*
X109391666Y-138489285D01*
X109582142Y-138536904D01*
X109677380Y-138584523D01*
X109725000Y-138632142D01*
X109772619Y-138727380D01*
X108772619Y-140822619D02*
X109248809Y-140489285D01*
X108772619Y-140251190D02*
X109772619Y-140251190D01*
X109772619Y-140632142D01*
X109725000Y-140727380D01*
X109677380Y-140775000D01*
X109582142Y-140822619D01*
X109439285Y-140822619D01*
X109344047Y-140775000D01*
X109296428Y-140727380D01*
X109248809Y-140632142D01*
X109248809Y-140251190D01*
X108820238Y-141632142D02*
X108772619Y-141536904D01*
X108772619Y-141346428D01*
X108820238Y-141251190D01*
X108915476Y-141203571D01*
X109296428Y-141203571D01*
X109391666Y-141251190D01*
X109439285Y-141346428D01*
X109439285Y-141536904D01*
X109391666Y-141632142D01*
X109296428Y-141679761D01*
X109201190Y-141679761D01*
X109105952Y-141203571D01*
X109439285Y-142013095D02*
X108772619Y-142251190D01*
X109439285Y-142489285D01*
X108867857Y-142870238D02*
X108820238Y-142917857D01*
X108772619Y-142870238D01*
X108820238Y-142822619D01*
X108867857Y-142870238D01*
X108772619Y-142870238D01*
X109772619Y-143536904D02*
X109772619Y-143632142D01*
X109725000Y-143727380D01*
X109677380Y-143775000D01*
X109582142Y-143822619D01*
X109391666Y-143870238D01*
X109153571Y-143870238D01*
X108963095Y-143822619D01*
X108867857Y-143775000D01*
X108820238Y-143727380D01*
X108772619Y-143632142D01*
X108772619Y-143536904D01*
X108820238Y-143441666D01*
X108867857Y-143394047D01*
X108963095Y-143346428D01*
X109153571Y-143298809D01*
X109391666Y-143298809D01*
X109582142Y-143346428D01*
X109677380Y-143394047D01*
X109725000Y-143441666D01*
X109772619Y-143536904D01*
X108867857Y-144298809D02*
X108820238Y-144346428D01*
X108772619Y-144298809D01*
X108820238Y-144251190D01*
X108867857Y-144298809D01*
X108772619Y-144298809D01*
X109772619Y-144965476D02*
X109772619Y-145060714D01*
X109725000Y-145155952D01*
X109677380Y-145203571D01*
X109582142Y-145251190D01*
X109391666Y-145298809D01*
X109153571Y-145298809D01*
X108963095Y-145251190D01*
X108867857Y-145203571D01*
X108820238Y-145155952D01*
X108772619Y-145060714D01*
X108772619Y-144965476D01*
X108820238Y-144870238D01*
X108867857Y-144822619D01*
X108963095Y-144775000D01*
X109153571Y-144727380D01*
X109391666Y-144727380D01*
X109582142Y-144775000D01*
X109677380Y-144822619D01*
X109725000Y-144870238D01*
X109772619Y-144965476D01*
X49307142Y-118072619D02*
X49354761Y-118120238D01*
X49402380Y-118263095D01*
X49402380Y-118358333D01*
X49354761Y-118501190D01*
X49259523Y-118596428D01*
X49164285Y-118644047D01*
X48973809Y-118691666D01*
X48830952Y-118691666D01*
X48640476Y-118644047D01*
X48545238Y-118596428D01*
X48450000Y-118501190D01*
X48402380Y-118358333D01*
X48402380Y-118263095D01*
X48450000Y-118120238D01*
X48497619Y-118072619D01*
X49402380Y-117215476D02*
X48878571Y-117215476D01*
X48783333Y-117263095D01*
X48735714Y-117358333D01*
X48735714Y-117548809D01*
X48783333Y-117644047D01*
X49354761Y-117215476D02*
X49402380Y-117310714D01*
X49402380Y-117548809D01*
X49354761Y-117644047D01*
X49259523Y-117691666D01*
X49164285Y-117691666D01*
X49069047Y-117644047D01*
X49021428Y-117548809D01*
X49021428Y-117310714D01*
X48973809Y-117215476D01*
X49402380Y-116739285D02*
X48735714Y-116739285D01*
X48830952Y-116739285D02*
X48783333Y-116691666D01*
X48735714Y-116596428D01*
X48735714Y-116453571D01*
X48783333Y-116358333D01*
X48878571Y-116310714D01*
X49402380Y-116310714D01*
X48878571Y-116310714D02*
X48783333Y-116263095D01*
X48735714Y-116167857D01*
X48735714Y-116025000D01*
X48783333Y-115929761D01*
X48878571Y-115882142D01*
X49402380Y-115882142D01*
X49354761Y-115025000D02*
X49402380Y-115120238D01*
X49402380Y-115310714D01*
X49354761Y-115405952D01*
X49259523Y-115453571D01*
X48878571Y-115453571D01*
X48783333Y-115405952D01*
X48735714Y-115310714D01*
X48735714Y-115120238D01*
X48783333Y-115025000D01*
X48878571Y-114977380D01*
X48973809Y-114977380D01*
X49069047Y-115453571D01*
X49402380Y-114548809D02*
X48735714Y-114548809D01*
X48926190Y-114548809D02*
X48830952Y-114501190D01*
X48783333Y-114453571D01*
X48735714Y-114358333D01*
X48735714Y-114263095D01*
X49402380Y-113501190D02*
X48878571Y-113501190D01*
X48783333Y-113548809D01*
X48735714Y-113644047D01*
X48735714Y-113834523D01*
X48783333Y-113929761D01*
X49354761Y-113501190D02*
X49402380Y-113596428D01*
X49402380Y-113834523D01*
X49354761Y-113929761D01*
X49259523Y-113977380D01*
X49164285Y-113977380D01*
X49069047Y-113929761D01*
X49021428Y-113834523D01*
X49021428Y-113596428D01*
X48973809Y-113501190D01*
X49307142Y-112453571D02*
X49354761Y-112501190D01*
X49402380Y-112644047D01*
X49402380Y-112739285D01*
X49354761Y-112882142D01*
X49259523Y-112977380D01*
X49164285Y-113025000D01*
X48973809Y-113072619D01*
X48830952Y-113072619D01*
X48640476Y-113025000D01*
X48545238Y-112977380D01*
X48450000Y-112882142D01*
X48402380Y-112739285D01*
X48402380Y-112644047D01*
X48450000Y-112501190D01*
X48497619Y-112453571D01*
X49402380Y-111882142D02*
X49354761Y-111977380D01*
X49307142Y-112025000D01*
X49211904Y-112072619D01*
X48926190Y-112072619D01*
X48830952Y-112025000D01*
X48783333Y-111977380D01*
X48735714Y-111882142D01*
X48735714Y-111739285D01*
X48783333Y-111644047D01*
X48830952Y-111596428D01*
X48926190Y-111548809D01*
X49211904Y-111548809D01*
X49307142Y-111596428D01*
X49354761Y-111644047D01*
X49402380Y-111739285D01*
X49402380Y-111882142D01*
X48735714Y-111120238D02*
X49402380Y-111120238D01*
X48830952Y-111120238D02*
X48783333Y-111072619D01*
X48735714Y-110977380D01*
X48735714Y-110834523D01*
X48783333Y-110739285D01*
X48878571Y-110691666D01*
X49402380Y-110691666D01*
X48735714Y-110310714D02*
X49402380Y-110072619D01*
X48735714Y-109834523D01*
X49354761Y-109072619D02*
X49402380Y-109167857D01*
X49402380Y-109358333D01*
X49354761Y-109453571D01*
X49259523Y-109501190D01*
X48878571Y-109501190D01*
X48783333Y-109453571D01*
X48735714Y-109358333D01*
X48735714Y-109167857D01*
X48783333Y-109072619D01*
X48878571Y-109025000D01*
X48973809Y-109025000D01*
X49069047Y-109501190D01*
X49402380Y-108596428D02*
X48735714Y-108596428D01*
X48926190Y-108596428D02*
X48830952Y-108548809D01*
X48783333Y-108501190D01*
X48735714Y-108405952D01*
X48735714Y-108310714D01*
X48735714Y-108120238D02*
X48735714Y-107739285D01*
X48402380Y-107977380D02*
X49259523Y-107977380D01*
X49354761Y-107929761D01*
X49402380Y-107834523D01*
X49402380Y-107739285D01*
X49354761Y-107025000D02*
X49402380Y-107120238D01*
X49402380Y-107310714D01*
X49354761Y-107405952D01*
X49259523Y-107453571D01*
X48878571Y-107453571D01*
X48783333Y-107405952D01*
X48735714Y-107310714D01*
X48735714Y-107120238D01*
X48783333Y-107025000D01*
X48878571Y-106977380D01*
X48973809Y-106977380D01*
X49069047Y-107453571D01*
X49402380Y-106548809D02*
X48735714Y-106548809D01*
X48926190Y-106548809D02*
X48830952Y-106501190D01*
X48783333Y-106453571D01*
X48735714Y-106358333D01*
X48735714Y-106263095D01*
X50052380Y-118144047D02*
X51052380Y-117810714D01*
X50052380Y-117477380D01*
X51004761Y-116763095D02*
X51052380Y-116858333D01*
X51052380Y-117048809D01*
X51004761Y-117144047D01*
X50909523Y-117191666D01*
X50528571Y-117191666D01*
X50433333Y-117144047D01*
X50385714Y-117048809D01*
X50385714Y-116858333D01*
X50433333Y-116763095D01*
X50528571Y-116715476D01*
X50623809Y-116715476D01*
X50719047Y-117191666D01*
X51052380Y-116286904D02*
X50385714Y-116286904D01*
X50576190Y-116286904D02*
X50480952Y-116239285D01*
X50433333Y-116191666D01*
X50385714Y-116096428D01*
X50385714Y-116001190D01*
X50957142Y-115667857D02*
X51004761Y-115620238D01*
X51052380Y-115667857D01*
X51004761Y-115715476D01*
X50957142Y-115667857D01*
X51052380Y-115667857D01*
X51052380Y-114667857D02*
X51052380Y-115239285D01*
X51052380Y-114953571D02*
X50052380Y-114953571D01*
X50195238Y-115048809D01*
X50290476Y-115144047D01*
X50338095Y-115239285D01*
X50957142Y-114239285D02*
X51004761Y-114191666D01*
X51052380Y-114239285D01*
X51004761Y-114286904D01*
X50957142Y-114239285D01*
X51052380Y-114239285D01*
X50052380Y-113572619D02*
X50052380Y-113477380D01*
X50100000Y-113382142D01*
X50147619Y-113334523D01*
X50242857Y-113286904D01*
X50433333Y-113239285D01*
X50671428Y-113239285D01*
X50861904Y-113286904D01*
X50957142Y-113334523D01*
X51004761Y-113382142D01*
X51052380Y-113477380D01*
X51052380Y-113572619D01*
X51004761Y-113667857D01*
X50957142Y-113715476D01*
X50861904Y-113763095D01*
X50671428Y-113810714D01*
X50433333Y-113810714D01*
X50242857Y-113763095D01*
X50147619Y-113715476D01*
X50100000Y-113667857D01*
X50052380Y-113572619D01*
X51052380Y-111477380D02*
X50576190Y-111810714D01*
X51052380Y-112048809D02*
X50052380Y-112048809D01*
X50052380Y-111667857D01*
X50100000Y-111572619D01*
X50147619Y-111525000D01*
X50242857Y-111477380D01*
X50385714Y-111477380D01*
X50480952Y-111525000D01*
X50528571Y-111572619D01*
X50576190Y-111667857D01*
X50576190Y-112048809D01*
X51004761Y-110667857D02*
X51052380Y-110763095D01*
X51052380Y-110953571D01*
X51004761Y-111048809D01*
X50909523Y-111096428D01*
X50528571Y-111096428D01*
X50433333Y-111048809D01*
X50385714Y-110953571D01*
X50385714Y-110763095D01*
X50433333Y-110667857D01*
X50528571Y-110620238D01*
X50623809Y-110620238D01*
X50719047Y-111096428D01*
X50385714Y-110286904D02*
X51052380Y-110048809D01*
X50385714Y-109810714D01*
X50957142Y-109429761D02*
X51004761Y-109382142D01*
X51052380Y-109429761D01*
X51004761Y-109477380D01*
X50957142Y-109429761D01*
X51052380Y-109429761D01*
X50052380Y-108763095D02*
X50052380Y-108667857D01*
X50100000Y-108572619D01*
X50147619Y-108525000D01*
X50242857Y-108477380D01*
X50433333Y-108429761D01*
X50671428Y-108429761D01*
X50861904Y-108477380D01*
X50957142Y-108525000D01*
X51004761Y-108572619D01*
X51052380Y-108667857D01*
X51052380Y-108763095D01*
X51004761Y-108858333D01*
X50957142Y-108905952D01*
X50861904Y-108953571D01*
X50671428Y-109001190D01*
X50433333Y-109001190D01*
X50242857Y-108953571D01*
X50147619Y-108905952D01*
X50100000Y-108858333D01*
X50052380Y-108763095D01*
X50957142Y-108001190D02*
X51004761Y-107953571D01*
X51052380Y-108001190D01*
X51004761Y-108048809D01*
X50957142Y-108001190D01*
X51052380Y-108001190D01*
X50052380Y-107334523D02*
X50052380Y-107239285D01*
X50100000Y-107144047D01*
X50147619Y-107096428D01*
X50242857Y-107048809D01*
X50433333Y-107001190D01*
X50671428Y-107001190D01*
X50861904Y-107048809D01*
X50957142Y-107096428D01*
X51004761Y-107144047D01*
X51052380Y-107239285D01*
X51052380Y-107334523D01*
X51004761Y-107429761D01*
X50957142Y-107477380D01*
X50861904Y-107525000D01*
X50671428Y-107572619D01*
X50433333Y-107572619D01*
X50242857Y-107525000D01*
X50147619Y-107477380D01*
X50100000Y-107429761D01*
X50052380Y-107334523D01*
X59234800Y-69254428D02*
X59234800Y-69825857D01*
X59234800Y-69540142D02*
X58234800Y-69540142D01*
X58377658Y-69635380D01*
X58472896Y-69730619D01*
X58520515Y-69825857D01*
X58234800Y-68635380D02*
X58234800Y-68540142D01*
X58282420Y-68444904D01*
X58330039Y-68397285D01*
X58425277Y-68349666D01*
X58615753Y-68302047D01*
X58853848Y-68302047D01*
X59044324Y-68349666D01*
X59139562Y-68397285D01*
X59187181Y-68444904D01*
X59234800Y-68540142D01*
X59234800Y-68635380D01*
X59187181Y-68730619D01*
X59139562Y-68778238D01*
X59044324Y-68825857D01*
X58853848Y-68873476D01*
X58615753Y-68873476D01*
X58425277Y-68825857D01*
X58330039Y-68778238D01*
X58282420Y-68730619D01*
X58234800Y-68635380D01*
X58568134Y-67873476D02*
X59234800Y-67873476D01*
X58663372Y-67873476D02*
X58615753Y-67825857D01*
X58568134Y-67730619D01*
X58568134Y-67587761D01*
X58615753Y-67492523D01*
X58710991Y-67444904D01*
X59234800Y-67444904D01*
X58710991Y-66635380D02*
X58710991Y-66968714D01*
X59234800Y-66968714D02*
X58234800Y-66968714D01*
X58234800Y-66492523D01*
X55248120Y-85788548D02*
X55248120Y-86359977D01*
X55248120Y-86074262D02*
X54248120Y-86074262D01*
X54390978Y-86169500D01*
X54486216Y-86264739D01*
X54533835Y-86359977D01*
X54248120Y-85169500D02*
X54248120Y-85074262D01*
X54295740Y-84979024D01*
X54343359Y-84931405D01*
X54438597Y-84883786D01*
X54629073Y-84836167D01*
X54867168Y-84836167D01*
X55057644Y-84883786D01*
X55152882Y-84931405D01*
X55200501Y-84979024D01*
X55248120Y-85074262D01*
X55248120Y-85169500D01*
X55200501Y-85264739D01*
X55152882Y-85312358D01*
X55057644Y-85359977D01*
X54867168Y-85407596D01*
X54629073Y-85407596D01*
X54438597Y-85359977D01*
X54343359Y-85312358D01*
X54295740Y-85264739D01*
X54248120Y-85169500D01*
X54581454Y-83979024D02*
X55248120Y-83979024D01*
X54581454Y-84407596D02*
X55105263Y-84407596D01*
X55200501Y-84359977D01*
X55248120Y-84264739D01*
X55248120Y-84121881D01*
X55200501Y-84026643D01*
X55152882Y-83979024D01*
X54724311Y-83169500D02*
X54724311Y-83502834D01*
X55248120Y-83502834D02*
X54248120Y-83502834D01*
X54248120Y-83026643D01*
X55311620Y-81897268D02*
X55311620Y-82468697D01*
X55311620Y-82182982D02*
X54311620Y-82182982D01*
X54454478Y-82278220D01*
X54549716Y-82373459D01*
X54597335Y-82468697D01*
X54311620Y-81278220D02*
X54311620Y-81182982D01*
X54359240Y-81087744D01*
X54406859Y-81040125D01*
X54502097Y-80992506D01*
X54692573Y-80944887D01*
X54930668Y-80944887D01*
X55121144Y-80992506D01*
X55216382Y-81040125D01*
X55264001Y-81087744D01*
X55311620Y-81182982D01*
X55311620Y-81278220D01*
X55264001Y-81373459D01*
X55216382Y-81421078D01*
X55121144Y-81468697D01*
X54930668Y-81516316D01*
X54692573Y-81516316D01*
X54502097Y-81468697D01*
X54406859Y-81421078D01*
X54359240Y-81373459D01*
X54311620Y-81278220D01*
X54644954Y-80087744D02*
X55311620Y-80087744D01*
X54644954Y-80516316D02*
X55168763Y-80516316D01*
X55264001Y-80468697D01*
X55311620Y-80373459D01*
X55311620Y-80230601D01*
X55264001Y-80135363D01*
X55216382Y-80087744D01*
X54787811Y-79278220D02*
X54787811Y-79611554D01*
X55311620Y-79611554D02*
X54311620Y-79611554D01*
X54311620Y-79135363D01*
X62747619Y-87202380D02*
X63366666Y-87202380D01*
X63033333Y-87583333D01*
X63176190Y-87583333D01*
X63271428Y-87630952D01*
X63319047Y-87678571D01*
X63366666Y-87773809D01*
X63366666Y-88011904D01*
X63319047Y-88107142D01*
X63271428Y-88154761D01*
X63176190Y-88202380D01*
X62890476Y-88202380D01*
X62795238Y-88154761D01*
X62747619Y-88107142D01*
X63795238Y-88107142D02*
X63842857Y-88154761D01*
X63795238Y-88202380D01*
X63747619Y-88154761D01*
X63795238Y-88107142D01*
X63795238Y-88202380D01*
X64319047Y-88202380D02*
X64509523Y-88202380D01*
X64604761Y-88154761D01*
X64652380Y-88107142D01*
X64747619Y-87964285D01*
X64795238Y-87773809D01*
X64795238Y-87392857D01*
X64747619Y-87297619D01*
X64700000Y-87250000D01*
X64604761Y-87202380D01*
X64414285Y-87202380D01*
X64319047Y-87250000D01*
X64271428Y-87297619D01*
X64223809Y-87392857D01*
X64223809Y-87630952D01*
X64271428Y-87726190D01*
X64319047Y-87773809D01*
X64414285Y-87821428D01*
X64604761Y-87821428D01*
X64700000Y-87773809D01*
X64747619Y-87726190D01*
X64795238Y-87630952D01*
X65223809Y-88202380D02*
X65223809Y-87202380D01*
X65319047Y-87821428D02*
X65604761Y-88202380D01*
X65604761Y-87535714D02*
X65223809Y-87916666D01*
X63704761Y-85302380D02*
X63133333Y-85302380D01*
X63419047Y-85302380D02*
X63419047Y-84302380D01*
X63323809Y-84445238D01*
X63228571Y-84540476D01*
X63133333Y-84588095D01*
X64323809Y-84302380D02*
X64419047Y-84302380D01*
X64514285Y-84350000D01*
X64561904Y-84397619D01*
X64609523Y-84492857D01*
X64657142Y-84683333D01*
X64657142Y-84921428D01*
X64609523Y-85111904D01*
X64561904Y-85207142D01*
X64514285Y-85254761D01*
X64419047Y-85302380D01*
X64323809Y-85302380D01*
X64228571Y-85254761D01*
X64180952Y-85207142D01*
X64133333Y-85111904D01*
X64085714Y-84921428D01*
X64085714Y-84683333D01*
X64133333Y-84492857D01*
X64180952Y-84397619D01*
X64228571Y-84350000D01*
X64323809Y-84302380D01*
X65085714Y-85302380D02*
X65085714Y-84302380D01*
X65180952Y-84921428D02*
X65466666Y-85302380D01*
X65466666Y-84635714D02*
X65085714Y-85016666D01*
X61959523Y-81402380D02*
X61769047Y-81402380D01*
X61673809Y-81450000D01*
X61626190Y-81497619D01*
X61530952Y-81640476D01*
X61483333Y-81830952D01*
X61483333Y-82211904D01*
X61530952Y-82307142D01*
X61578571Y-82354761D01*
X61673809Y-82402380D01*
X61864285Y-82402380D01*
X61959523Y-82354761D01*
X62007142Y-82307142D01*
X62054761Y-82211904D01*
X62054761Y-81973809D01*
X62007142Y-81878571D01*
X61959523Y-81830952D01*
X61864285Y-81783333D01*
X61673809Y-81783333D01*
X61578571Y-81830952D01*
X61530952Y-81878571D01*
X61483333Y-81973809D01*
X62626190Y-81830952D02*
X62530952Y-81783333D01*
X62483333Y-81735714D01*
X62435714Y-81640476D01*
X62435714Y-81592857D01*
X62483333Y-81497619D01*
X62530952Y-81450000D01*
X62626190Y-81402380D01*
X62816666Y-81402380D01*
X62911904Y-81450000D01*
X62959523Y-81497619D01*
X63007142Y-81592857D01*
X63007142Y-81640476D01*
X62959523Y-81735714D01*
X62911904Y-81783333D01*
X62816666Y-81830952D01*
X62626190Y-81830952D01*
X62530952Y-81878571D01*
X62483333Y-81926190D01*
X62435714Y-82021428D01*
X62435714Y-82211904D01*
X62483333Y-82307142D01*
X62530952Y-82354761D01*
X62626190Y-82402380D01*
X62816666Y-82402380D01*
X62911904Y-82354761D01*
X62959523Y-82307142D01*
X63007142Y-82211904D01*
X63007142Y-82021428D01*
X62959523Y-81926190D01*
X62911904Y-81878571D01*
X62816666Y-81830952D01*
X63435714Y-82402380D02*
X63435714Y-81402380D01*
X63530952Y-82021428D02*
X63816666Y-82402380D01*
X63816666Y-81735714D02*
X63435714Y-82116666D01*
D14*
X60619142Y-110938571D02*
X60904857Y-110938571D01*
X61047714Y-111010000D01*
X61190571Y-111152857D01*
X61262000Y-111438571D01*
X61262000Y-111938571D01*
X61190571Y-112224285D01*
X61047714Y-112367142D01*
X60904857Y-112438571D01*
X60619142Y-112438571D01*
X60476285Y-112367142D01*
X60333428Y-112224285D01*
X60262000Y-111938571D01*
X60262000Y-111438571D01*
X60333428Y-111152857D01*
X60476285Y-111010000D01*
X60619142Y-110938571D01*
X61690571Y-110938571D02*
X62190571Y-112438571D01*
X62690571Y-110938571D01*
X63047714Y-110938571D02*
X64047714Y-110938571D01*
X63404857Y-112438571D01*
X65262000Y-110938571D02*
X64976285Y-110938571D01*
X64833428Y-111010000D01*
X64762000Y-111081428D01*
X64619142Y-111295714D01*
X64547714Y-111581428D01*
X64547714Y-112152857D01*
X64619142Y-112295714D01*
X64690571Y-112367142D01*
X64833428Y-112438571D01*
X65119142Y-112438571D01*
X65262000Y-112367142D01*
X65333428Y-112295714D01*
X65404857Y-112152857D01*
X65404857Y-111795714D01*
X65333428Y-111652857D01*
X65262000Y-111581428D01*
X65119142Y-111510000D01*
X64833428Y-111510000D01*
X64690571Y-111581428D01*
X64619142Y-111652857D01*
X64547714Y-111795714D01*
X65904857Y-110938571D02*
X66904857Y-110938571D01*
X66262000Y-112438571D01*
X67762000Y-110938571D02*
X67904857Y-110938571D01*
X68047714Y-111010000D01*
X68119142Y-111081428D01*
X68190571Y-111224285D01*
X68262000Y-111510000D01*
X68262000Y-111867142D01*
X68190571Y-112152857D01*
X68119142Y-112295714D01*
X68047714Y-112367142D01*
X67904857Y-112438571D01*
X67762000Y-112438571D01*
X67619142Y-112367142D01*
X67547714Y-112295714D01*
X67476285Y-112152857D01*
X67404857Y-111867142D01*
X67404857Y-111510000D01*
X67476285Y-111224285D01*
X67547714Y-111081428D01*
X67619142Y-111010000D01*
X67762000Y-110938571D01*
X60619142Y-107382571D02*
X60904857Y-107382571D01*
X61047714Y-107454000D01*
X61190571Y-107596857D01*
X61262000Y-107882571D01*
X61262000Y-108382571D01*
X61190571Y-108668285D01*
X61047714Y-108811142D01*
X60904857Y-108882571D01*
X60619142Y-108882571D01*
X60476285Y-108811142D01*
X60333428Y-108668285D01*
X60262000Y-108382571D01*
X60262000Y-107882571D01*
X60333428Y-107596857D01*
X60476285Y-107454000D01*
X60619142Y-107382571D01*
X61690571Y-107382571D02*
X62190571Y-108882571D01*
X62690571Y-107382571D01*
X63119142Y-107525428D02*
X63190571Y-107454000D01*
X63333428Y-107382571D01*
X63690571Y-107382571D01*
X63833428Y-107454000D01*
X63904857Y-107525428D01*
X63976285Y-107668285D01*
X63976285Y-107811142D01*
X63904857Y-108025428D01*
X63047714Y-108882571D01*
X63976285Y-108882571D01*
X65262000Y-107382571D02*
X64976285Y-107382571D01*
X64833428Y-107454000D01*
X64762000Y-107525428D01*
X64619142Y-107739714D01*
X64547714Y-108025428D01*
X64547714Y-108596857D01*
X64619142Y-108739714D01*
X64690571Y-108811142D01*
X64833428Y-108882571D01*
X65119142Y-108882571D01*
X65262000Y-108811142D01*
X65333428Y-108739714D01*
X65404857Y-108596857D01*
X65404857Y-108239714D01*
X65333428Y-108096857D01*
X65262000Y-108025428D01*
X65119142Y-107954000D01*
X64833428Y-107954000D01*
X64690571Y-108025428D01*
X64619142Y-108096857D01*
X64547714Y-108239714D01*
X66690571Y-107882571D02*
X66690571Y-108882571D01*
X66333428Y-107311142D02*
X65976285Y-108382571D01*
X66904857Y-108382571D01*
X67762000Y-107382571D02*
X67904857Y-107382571D01*
X68047714Y-107454000D01*
X68119142Y-107525428D01*
X68190571Y-107668285D01*
X68262000Y-107954000D01*
X68262000Y-108311142D01*
X68190571Y-108596857D01*
X68119142Y-108739714D01*
X68047714Y-108811142D01*
X67904857Y-108882571D01*
X67762000Y-108882571D01*
X67619142Y-108811142D01*
X67547714Y-108739714D01*
X67476285Y-108596857D01*
X67404857Y-108311142D01*
X67404857Y-107954000D01*
X67476285Y-107668285D01*
X67547714Y-107525428D01*
X67619142Y-107454000D01*
X67762000Y-107382571D01*
D10*
X126724761Y-78032380D02*
X127296190Y-78032380D01*
X127010476Y-79032380D02*
X127010476Y-78032380D01*
X127629523Y-79032380D02*
X127629523Y-78365714D01*
X127629523Y-78556190D02*
X127677142Y-78460952D01*
X127724761Y-78413333D01*
X127820000Y-78365714D01*
X127915238Y-78365714D01*
X128677142Y-79032380D02*
X128677142Y-78508571D01*
X128629523Y-78413333D01*
X128534285Y-78365714D01*
X128343809Y-78365714D01*
X128248571Y-78413333D01*
X128677142Y-78984761D02*
X128581904Y-79032380D01*
X128343809Y-79032380D01*
X128248571Y-78984761D01*
X128200952Y-78889523D01*
X128200952Y-78794285D01*
X128248571Y-78699047D01*
X128343809Y-78651428D01*
X128581904Y-78651428D01*
X128677142Y-78603809D01*
X129153333Y-78365714D02*
X129153333Y-79032380D01*
X129153333Y-78460952D02*
X129200952Y-78413333D01*
X129296190Y-78365714D01*
X129439047Y-78365714D01*
X129534285Y-78413333D01*
X129581904Y-78508571D01*
X129581904Y-79032380D01*
X130010476Y-78984761D02*
X130105714Y-79032380D01*
X130296190Y-79032380D01*
X130391428Y-78984761D01*
X130439047Y-78889523D01*
X130439047Y-78841904D01*
X130391428Y-78746666D01*
X130296190Y-78699047D01*
X130153333Y-78699047D01*
X130058095Y-78651428D01*
X130010476Y-78556190D01*
X130010476Y-78508571D01*
X130058095Y-78413333D01*
X130153333Y-78365714D01*
X130296190Y-78365714D01*
X130391428Y-78413333D01*
X130867619Y-79032380D02*
X130867619Y-78365714D01*
X130867619Y-78032380D02*
X130820000Y-78080000D01*
X130867619Y-78127619D01*
X130915238Y-78080000D01*
X130867619Y-78032380D01*
X130867619Y-78127619D01*
X131296190Y-78984761D02*
X131391428Y-79032380D01*
X131581904Y-79032380D01*
X131677142Y-78984761D01*
X131724761Y-78889523D01*
X131724761Y-78841904D01*
X131677142Y-78746666D01*
X131581904Y-78699047D01*
X131439047Y-78699047D01*
X131343809Y-78651428D01*
X131296190Y-78556190D01*
X131296190Y-78508571D01*
X131343809Y-78413333D01*
X131439047Y-78365714D01*
X131581904Y-78365714D01*
X131677142Y-78413333D01*
X132010476Y-78365714D02*
X132391428Y-78365714D01*
X132153333Y-78032380D02*
X132153333Y-78889523D01*
X132200952Y-78984761D01*
X132296190Y-79032380D01*
X132391428Y-79032380D01*
X132867619Y-79032380D02*
X132772380Y-78984761D01*
X132724761Y-78937142D01*
X132677142Y-78841904D01*
X132677142Y-78556190D01*
X132724761Y-78460952D01*
X132772380Y-78413333D01*
X132867619Y-78365714D01*
X133010476Y-78365714D01*
X133105714Y-78413333D01*
X133153333Y-78460952D01*
X133200952Y-78556190D01*
X133200952Y-78841904D01*
X133153333Y-78937142D01*
X133105714Y-78984761D01*
X133010476Y-79032380D01*
X132867619Y-79032380D01*
X133629523Y-79032380D02*
X133629523Y-78365714D01*
X133629523Y-78556190D02*
X133677142Y-78460952D01*
X133724761Y-78413333D01*
X133820000Y-78365714D01*
X133915238Y-78365714D01*
D11*
G04 #@! TO.C,C1*
X72520000Y-80250000D02*
G75*
G03*
X72520000Y-80250000I-3270000J0D01*
G01*
X72480000Y-80250000D02*
X66020000Y-80250000D01*
X72480000Y-80290000D02*
X66020000Y-80290000D01*
X72480000Y-80330000D02*
X66020000Y-80330000D01*
X72478000Y-80370000D02*
X66022000Y-80370000D01*
X72477000Y-80410000D02*
X66023000Y-80410000D01*
X72474000Y-80450000D02*
X66026000Y-80450000D01*
X72472000Y-80490000D02*
X70290000Y-80490000D01*
X68210000Y-80490000D02*
X66028000Y-80490000D01*
X72468000Y-80530000D02*
X70290000Y-80530000D01*
X68210000Y-80530000D02*
X66032000Y-80530000D01*
X72465000Y-80570000D02*
X70290000Y-80570000D01*
X68210000Y-80570000D02*
X66035000Y-80570000D01*
X72461000Y-80610000D02*
X70290000Y-80610000D01*
X68210000Y-80610000D02*
X66039000Y-80610000D01*
X72456000Y-80650000D02*
X70290000Y-80650000D01*
X68210000Y-80650000D02*
X66044000Y-80650000D01*
X72451000Y-80690000D02*
X70290000Y-80690000D01*
X68210000Y-80690000D02*
X66049000Y-80690000D01*
X72445000Y-80730000D02*
X70290000Y-80730000D01*
X68210000Y-80730000D02*
X66055000Y-80730000D01*
X72439000Y-80770000D02*
X70290000Y-80770000D01*
X68210000Y-80770000D02*
X66061000Y-80770000D01*
X72432000Y-80810000D02*
X70290000Y-80810000D01*
X68210000Y-80810000D02*
X66068000Y-80810000D01*
X72425000Y-80850000D02*
X70290000Y-80850000D01*
X68210000Y-80850000D02*
X66075000Y-80850000D01*
X72417000Y-80890000D02*
X70290000Y-80890000D01*
X68210000Y-80890000D02*
X66083000Y-80890000D01*
X72409000Y-80930000D02*
X70290000Y-80930000D01*
X68210000Y-80930000D02*
X66091000Y-80930000D01*
X72400000Y-80971000D02*
X70290000Y-80971000D01*
X68210000Y-80971000D02*
X66100000Y-80971000D01*
X72391000Y-81011000D02*
X70290000Y-81011000D01*
X68210000Y-81011000D02*
X66109000Y-81011000D01*
X72381000Y-81051000D02*
X70290000Y-81051000D01*
X68210000Y-81051000D02*
X66119000Y-81051000D01*
X72371000Y-81091000D02*
X70290000Y-81091000D01*
X68210000Y-81091000D02*
X66129000Y-81091000D01*
X72360000Y-81131000D02*
X70290000Y-81131000D01*
X68210000Y-81131000D02*
X66140000Y-81131000D01*
X72348000Y-81171000D02*
X70290000Y-81171000D01*
X68210000Y-81171000D02*
X66152000Y-81171000D01*
X72336000Y-81211000D02*
X70290000Y-81211000D01*
X68210000Y-81211000D02*
X66164000Y-81211000D01*
X72324000Y-81251000D02*
X70290000Y-81251000D01*
X68210000Y-81251000D02*
X66176000Y-81251000D01*
X72311000Y-81291000D02*
X70290000Y-81291000D01*
X68210000Y-81291000D02*
X66189000Y-81291000D01*
X72297000Y-81331000D02*
X70290000Y-81331000D01*
X68210000Y-81331000D02*
X66203000Y-81331000D01*
X72283000Y-81371000D02*
X70290000Y-81371000D01*
X68210000Y-81371000D02*
X66217000Y-81371000D01*
X72268000Y-81411000D02*
X70290000Y-81411000D01*
X68210000Y-81411000D02*
X66232000Y-81411000D01*
X72252000Y-81451000D02*
X70290000Y-81451000D01*
X68210000Y-81451000D02*
X66248000Y-81451000D01*
X72236000Y-81491000D02*
X70290000Y-81491000D01*
X68210000Y-81491000D02*
X66264000Y-81491000D01*
X72220000Y-81531000D02*
X70290000Y-81531000D01*
X68210000Y-81531000D02*
X66280000Y-81531000D01*
X72202000Y-81571000D02*
X70290000Y-81571000D01*
X68210000Y-81571000D02*
X66298000Y-81571000D01*
X72184000Y-81611000D02*
X70290000Y-81611000D01*
X68210000Y-81611000D02*
X66316000Y-81611000D01*
X72166000Y-81651000D02*
X70290000Y-81651000D01*
X68210000Y-81651000D02*
X66334000Y-81651000D01*
X72146000Y-81691000D02*
X70290000Y-81691000D01*
X68210000Y-81691000D02*
X66354000Y-81691000D01*
X72126000Y-81731000D02*
X70290000Y-81731000D01*
X68210000Y-81731000D02*
X66374000Y-81731000D01*
X72106000Y-81771000D02*
X70290000Y-81771000D01*
X68210000Y-81771000D02*
X66394000Y-81771000D01*
X72084000Y-81811000D02*
X70290000Y-81811000D01*
X68210000Y-81811000D02*
X66416000Y-81811000D01*
X72062000Y-81851000D02*
X70290000Y-81851000D01*
X68210000Y-81851000D02*
X66438000Y-81851000D01*
X72040000Y-81891000D02*
X70290000Y-81891000D01*
X68210000Y-81891000D02*
X66460000Y-81891000D01*
X72016000Y-81931000D02*
X70290000Y-81931000D01*
X68210000Y-81931000D02*
X66484000Y-81931000D01*
X71992000Y-81971000D02*
X70290000Y-81971000D01*
X68210000Y-81971000D02*
X66508000Y-81971000D01*
X71966000Y-82011000D02*
X70290000Y-82011000D01*
X68210000Y-82011000D02*
X66534000Y-82011000D01*
X71940000Y-82051000D02*
X70290000Y-82051000D01*
X68210000Y-82051000D02*
X66560000Y-82051000D01*
X71914000Y-82091000D02*
X70290000Y-82091000D01*
X68210000Y-82091000D02*
X66586000Y-82091000D01*
X71886000Y-82131000D02*
X70290000Y-82131000D01*
X68210000Y-82131000D02*
X66614000Y-82131000D01*
X71857000Y-82171000D02*
X70290000Y-82171000D01*
X68210000Y-82171000D02*
X66643000Y-82171000D01*
X71828000Y-82211000D02*
X70290000Y-82211000D01*
X68210000Y-82211000D02*
X66672000Y-82211000D01*
X71798000Y-82251000D02*
X70290000Y-82251000D01*
X68210000Y-82251000D02*
X66702000Y-82251000D01*
X71766000Y-82291000D02*
X70290000Y-82291000D01*
X68210000Y-82291000D02*
X66734000Y-82291000D01*
X71734000Y-82331000D02*
X70290000Y-82331000D01*
X68210000Y-82331000D02*
X66766000Y-82331000D01*
X71700000Y-82371000D02*
X70290000Y-82371000D01*
X68210000Y-82371000D02*
X66800000Y-82371000D01*
X71666000Y-82411000D02*
X70290000Y-82411000D01*
X68210000Y-82411000D02*
X66834000Y-82411000D01*
X71630000Y-82451000D02*
X70290000Y-82451000D01*
X68210000Y-82451000D02*
X66870000Y-82451000D01*
X71593000Y-82491000D02*
X70290000Y-82491000D01*
X68210000Y-82491000D02*
X66907000Y-82491000D01*
X71555000Y-82531000D02*
X70290000Y-82531000D01*
X68210000Y-82531000D02*
X66945000Y-82531000D01*
X71515000Y-82571000D02*
X66985000Y-82571000D01*
X71474000Y-82611000D02*
X67026000Y-82611000D01*
X71432000Y-82651000D02*
X67068000Y-82651000D01*
X71387000Y-82691000D02*
X67113000Y-82691000D01*
X71342000Y-82731000D02*
X67158000Y-82731000D01*
X71294000Y-82771000D02*
X67206000Y-82771000D01*
X71245000Y-82811000D02*
X67255000Y-82811000D01*
X71194000Y-82851000D02*
X67306000Y-82851000D01*
X71140000Y-82891000D02*
X67360000Y-82891000D01*
X71084000Y-82931000D02*
X67416000Y-82931000D01*
X71026000Y-82971000D02*
X67474000Y-82971000D01*
X70964000Y-83011000D02*
X67536000Y-83011000D01*
X70900000Y-83051000D02*
X67600000Y-83051000D01*
X70831000Y-83091000D02*
X67669000Y-83091000D01*
X70759000Y-83131000D02*
X67741000Y-83131000D01*
X70682000Y-83171000D02*
X67818000Y-83171000D01*
X70600000Y-83211000D02*
X67900000Y-83211000D01*
X70512000Y-83251000D02*
X67988000Y-83251000D01*
X70415000Y-83291000D02*
X68085000Y-83291000D01*
X70309000Y-83331000D02*
X68191000Y-83331000D01*
X70190000Y-83371000D02*
X68310000Y-83371000D01*
X70052000Y-83411000D02*
X68448000Y-83411000D01*
X69883000Y-83451000D02*
X68617000Y-83451000D01*
X69652000Y-83491000D02*
X68848000Y-83491000D01*
X71089000Y-76749759D02*
X71089000Y-77379759D01*
X71404000Y-77064759D02*
X70774000Y-77064759D01*
G04 #@! TO.C,C5*
X77270000Y-75000000D02*
G75*
G03*
X77270000Y-75000000I-3270000J0D01*
G01*
X77230000Y-75000000D02*
X70770000Y-75000000D01*
X77230000Y-75040000D02*
X70770000Y-75040000D01*
X77230000Y-75080000D02*
X70770000Y-75080000D01*
X77228000Y-75120000D02*
X70772000Y-75120000D01*
X77227000Y-75160000D02*
X70773000Y-75160000D01*
X77224000Y-75200000D02*
X70776000Y-75200000D01*
X77222000Y-75240000D02*
X75040000Y-75240000D01*
X72960000Y-75240000D02*
X70778000Y-75240000D01*
X77218000Y-75280000D02*
X75040000Y-75280000D01*
X72960000Y-75280000D02*
X70782000Y-75280000D01*
X77215000Y-75320000D02*
X75040000Y-75320000D01*
X72960000Y-75320000D02*
X70785000Y-75320000D01*
X77211000Y-75360000D02*
X75040000Y-75360000D01*
X72960000Y-75360000D02*
X70789000Y-75360000D01*
X77206000Y-75400000D02*
X75040000Y-75400000D01*
X72960000Y-75400000D02*
X70794000Y-75400000D01*
X77201000Y-75440000D02*
X75040000Y-75440000D01*
X72960000Y-75440000D02*
X70799000Y-75440000D01*
X77195000Y-75480000D02*
X75040000Y-75480000D01*
X72960000Y-75480000D02*
X70805000Y-75480000D01*
X77189000Y-75520000D02*
X75040000Y-75520000D01*
X72960000Y-75520000D02*
X70811000Y-75520000D01*
X77182000Y-75560000D02*
X75040000Y-75560000D01*
X72960000Y-75560000D02*
X70818000Y-75560000D01*
X77175000Y-75600000D02*
X75040000Y-75600000D01*
X72960000Y-75600000D02*
X70825000Y-75600000D01*
X77167000Y-75640000D02*
X75040000Y-75640000D01*
X72960000Y-75640000D02*
X70833000Y-75640000D01*
X77159000Y-75680000D02*
X75040000Y-75680000D01*
X72960000Y-75680000D02*
X70841000Y-75680000D01*
X77150000Y-75721000D02*
X75040000Y-75721000D01*
X72960000Y-75721000D02*
X70850000Y-75721000D01*
X77141000Y-75761000D02*
X75040000Y-75761000D01*
X72960000Y-75761000D02*
X70859000Y-75761000D01*
X77131000Y-75801000D02*
X75040000Y-75801000D01*
X72960000Y-75801000D02*
X70869000Y-75801000D01*
X77121000Y-75841000D02*
X75040000Y-75841000D01*
X72960000Y-75841000D02*
X70879000Y-75841000D01*
X77110000Y-75881000D02*
X75040000Y-75881000D01*
X72960000Y-75881000D02*
X70890000Y-75881000D01*
X77098000Y-75921000D02*
X75040000Y-75921000D01*
X72960000Y-75921000D02*
X70902000Y-75921000D01*
X77086000Y-75961000D02*
X75040000Y-75961000D01*
X72960000Y-75961000D02*
X70914000Y-75961000D01*
X77074000Y-76001000D02*
X75040000Y-76001000D01*
X72960000Y-76001000D02*
X70926000Y-76001000D01*
X77061000Y-76041000D02*
X75040000Y-76041000D01*
X72960000Y-76041000D02*
X70939000Y-76041000D01*
X77047000Y-76081000D02*
X75040000Y-76081000D01*
X72960000Y-76081000D02*
X70953000Y-76081000D01*
X77033000Y-76121000D02*
X75040000Y-76121000D01*
X72960000Y-76121000D02*
X70967000Y-76121000D01*
X77018000Y-76161000D02*
X75040000Y-76161000D01*
X72960000Y-76161000D02*
X70982000Y-76161000D01*
X77002000Y-76201000D02*
X75040000Y-76201000D01*
X72960000Y-76201000D02*
X70998000Y-76201000D01*
X76986000Y-76241000D02*
X75040000Y-76241000D01*
X72960000Y-76241000D02*
X71014000Y-76241000D01*
X76970000Y-76281000D02*
X75040000Y-76281000D01*
X72960000Y-76281000D02*
X71030000Y-76281000D01*
X76952000Y-76321000D02*
X75040000Y-76321000D01*
X72960000Y-76321000D02*
X71048000Y-76321000D01*
X76934000Y-76361000D02*
X75040000Y-76361000D01*
X72960000Y-76361000D02*
X71066000Y-76361000D01*
X76916000Y-76401000D02*
X75040000Y-76401000D01*
X72960000Y-76401000D02*
X71084000Y-76401000D01*
X76896000Y-76441000D02*
X75040000Y-76441000D01*
X72960000Y-76441000D02*
X71104000Y-76441000D01*
X76876000Y-76481000D02*
X75040000Y-76481000D01*
X72960000Y-76481000D02*
X71124000Y-76481000D01*
X76856000Y-76521000D02*
X75040000Y-76521000D01*
X72960000Y-76521000D02*
X71144000Y-76521000D01*
X76834000Y-76561000D02*
X75040000Y-76561000D01*
X72960000Y-76561000D02*
X71166000Y-76561000D01*
X76812000Y-76601000D02*
X75040000Y-76601000D01*
X72960000Y-76601000D02*
X71188000Y-76601000D01*
X76790000Y-76641000D02*
X75040000Y-76641000D01*
X72960000Y-76641000D02*
X71210000Y-76641000D01*
X76766000Y-76681000D02*
X75040000Y-76681000D01*
X72960000Y-76681000D02*
X71234000Y-76681000D01*
X76742000Y-76721000D02*
X75040000Y-76721000D01*
X72960000Y-76721000D02*
X71258000Y-76721000D01*
X76716000Y-76761000D02*
X75040000Y-76761000D01*
X72960000Y-76761000D02*
X71284000Y-76761000D01*
X76690000Y-76801000D02*
X75040000Y-76801000D01*
X72960000Y-76801000D02*
X71310000Y-76801000D01*
X76664000Y-76841000D02*
X75040000Y-76841000D01*
X72960000Y-76841000D02*
X71336000Y-76841000D01*
X76636000Y-76881000D02*
X75040000Y-76881000D01*
X72960000Y-76881000D02*
X71364000Y-76881000D01*
X76607000Y-76921000D02*
X75040000Y-76921000D01*
X72960000Y-76921000D02*
X71393000Y-76921000D01*
X76578000Y-76961000D02*
X75040000Y-76961000D01*
X72960000Y-76961000D02*
X71422000Y-76961000D01*
X76548000Y-77001000D02*
X75040000Y-77001000D01*
X72960000Y-77001000D02*
X71452000Y-77001000D01*
X76516000Y-77041000D02*
X75040000Y-77041000D01*
X72960000Y-77041000D02*
X71484000Y-77041000D01*
X76484000Y-77081000D02*
X75040000Y-77081000D01*
X72960000Y-77081000D02*
X71516000Y-77081000D01*
X76450000Y-77121000D02*
X75040000Y-77121000D01*
X72960000Y-77121000D02*
X71550000Y-77121000D01*
X76416000Y-77161000D02*
X75040000Y-77161000D01*
X72960000Y-77161000D02*
X71584000Y-77161000D01*
X76380000Y-77201000D02*
X75040000Y-77201000D01*
X72960000Y-77201000D02*
X71620000Y-77201000D01*
X76343000Y-77241000D02*
X75040000Y-77241000D01*
X72960000Y-77241000D02*
X71657000Y-77241000D01*
X76305000Y-77281000D02*
X75040000Y-77281000D01*
X72960000Y-77281000D02*
X71695000Y-77281000D01*
X76265000Y-77321000D02*
X71735000Y-77321000D01*
X76224000Y-77361000D02*
X71776000Y-77361000D01*
X76182000Y-77401000D02*
X71818000Y-77401000D01*
X76137000Y-77441000D02*
X71863000Y-77441000D01*
X76092000Y-77481000D02*
X71908000Y-77481000D01*
X76044000Y-77521000D02*
X71956000Y-77521000D01*
X75995000Y-77561000D02*
X72005000Y-77561000D01*
X75944000Y-77601000D02*
X72056000Y-77601000D01*
X75890000Y-77641000D02*
X72110000Y-77641000D01*
X75834000Y-77681000D02*
X72166000Y-77681000D01*
X75776000Y-77721000D02*
X72224000Y-77721000D01*
X75714000Y-77761000D02*
X72286000Y-77761000D01*
X75650000Y-77801000D02*
X72350000Y-77801000D01*
X75581000Y-77841000D02*
X72419000Y-77841000D01*
X75509000Y-77881000D02*
X72491000Y-77881000D01*
X75432000Y-77921000D02*
X72568000Y-77921000D01*
X75350000Y-77961000D02*
X72650000Y-77961000D01*
X75262000Y-78001000D02*
X72738000Y-78001000D01*
X75165000Y-78041000D02*
X72835000Y-78041000D01*
X75059000Y-78081000D02*
X72941000Y-78081000D01*
X74940000Y-78121000D02*
X73060000Y-78121000D01*
X74802000Y-78161000D02*
X73198000Y-78161000D01*
X74633000Y-78201000D02*
X73367000Y-78201000D01*
X74402000Y-78241000D02*
X73598000Y-78241000D01*
X75839000Y-71499759D02*
X75839000Y-72129759D01*
X76154000Y-71814759D02*
X75524000Y-71814759D01*
G04 #@! TO.C,C6*
X72904000Y-84314759D02*
X72274000Y-84314759D01*
X72589000Y-83999759D02*
X72589000Y-84629759D01*
X71152000Y-90741000D02*
X70348000Y-90741000D01*
X71383000Y-90701000D02*
X70117000Y-90701000D01*
X71552000Y-90661000D02*
X69948000Y-90661000D01*
X71690000Y-90621000D02*
X69810000Y-90621000D01*
X71809000Y-90581000D02*
X69691000Y-90581000D01*
X71915000Y-90541000D02*
X69585000Y-90541000D01*
X72012000Y-90501000D02*
X69488000Y-90501000D01*
X72100000Y-90461000D02*
X69400000Y-90461000D01*
X72182000Y-90421000D02*
X69318000Y-90421000D01*
X72259000Y-90381000D02*
X69241000Y-90381000D01*
X72331000Y-90341000D02*
X69169000Y-90341000D01*
X72400000Y-90301000D02*
X69100000Y-90301000D01*
X72464000Y-90261000D02*
X69036000Y-90261000D01*
X72526000Y-90221000D02*
X68974000Y-90221000D01*
X72584000Y-90181000D02*
X68916000Y-90181000D01*
X72640000Y-90141000D02*
X68860000Y-90141000D01*
X72694000Y-90101000D02*
X68806000Y-90101000D01*
X72745000Y-90061000D02*
X68755000Y-90061000D01*
X72794000Y-90021000D02*
X68706000Y-90021000D01*
X72842000Y-89981000D02*
X68658000Y-89981000D01*
X72887000Y-89941000D02*
X68613000Y-89941000D01*
X72932000Y-89901000D02*
X68568000Y-89901000D01*
X72974000Y-89861000D02*
X68526000Y-89861000D01*
X73015000Y-89821000D02*
X68485000Y-89821000D01*
X69710000Y-89781000D02*
X68445000Y-89781000D01*
X73055000Y-89781000D02*
X71790000Y-89781000D01*
X69710000Y-89741000D02*
X68407000Y-89741000D01*
X73093000Y-89741000D02*
X71790000Y-89741000D01*
X69710000Y-89701000D02*
X68370000Y-89701000D01*
X73130000Y-89701000D02*
X71790000Y-89701000D01*
X69710000Y-89661000D02*
X68334000Y-89661000D01*
X73166000Y-89661000D02*
X71790000Y-89661000D01*
X69710000Y-89621000D02*
X68300000Y-89621000D01*
X73200000Y-89621000D02*
X71790000Y-89621000D01*
X69710000Y-89581000D02*
X68266000Y-89581000D01*
X73234000Y-89581000D02*
X71790000Y-89581000D01*
X69710000Y-89541000D02*
X68234000Y-89541000D01*
X73266000Y-89541000D02*
X71790000Y-89541000D01*
X69710000Y-89501000D02*
X68202000Y-89501000D01*
X73298000Y-89501000D02*
X71790000Y-89501000D01*
X69710000Y-89461000D02*
X68172000Y-89461000D01*
X73328000Y-89461000D02*
X71790000Y-89461000D01*
X69710000Y-89421000D02*
X68143000Y-89421000D01*
X73357000Y-89421000D02*
X71790000Y-89421000D01*
X69710000Y-89381000D02*
X68114000Y-89381000D01*
X73386000Y-89381000D02*
X71790000Y-89381000D01*
X69710000Y-89341000D02*
X68086000Y-89341000D01*
X73414000Y-89341000D02*
X71790000Y-89341000D01*
X69710000Y-89301000D02*
X68060000Y-89301000D01*
X73440000Y-89301000D02*
X71790000Y-89301000D01*
X69710000Y-89261000D02*
X68034000Y-89261000D01*
X73466000Y-89261000D02*
X71790000Y-89261000D01*
X69710000Y-89221000D02*
X68008000Y-89221000D01*
X73492000Y-89221000D02*
X71790000Y-89221000D01*
X69710000Y-89181000D02*
X67984000Y-89181000D01*
X73516000Y-89181000D02*
X71790000Y-89181000D01*
X69710000Y-89141000D02*
X67960000Y-89141000D01*
X73540000Y-89141000D02*
X71790000Y-89141000D01*
X69710000Y-89101000D02*
X67938000Y-89101000D01*
X73562000Y-89101000D02*
X71790000Y-89101000D01*
X69710000Y-89061000D02*
X67916000Y-89061000D01*
X73584000Y-89061000D02*
X71790000Y-89061000D01*
X69710000Y-89021000D02*
X67894000Y-89021000D01*
X73606000Y-89021000D02*
X71790000Y-89021000D01*
X69710000Y-88981000D02*
X67874000Y-88981000D01*
X73626000Y-88981000D02*
X71790000Y-88981000D01*
X69710000Y-88941000D02*
X67854000Y-88941000D01*
X73646000Y-88941000D02*
X71790000Y-88941000D01*
X69710000Y-88901000D02*
X67834000Y-88901000D01*
X73666000Y-88901000D02*
X71790000Y-88901000D01*
X69710000Y-88861000D02*
X67816000Y-88861000D01*
X73684000Y-88861000D02*
X71790000Y-88861000D01*
X69710000Y-88821000D02*
X67798000Y-88821000D01*
X73702000Y-88821000D02*
X71790000Y-88821000D01*
X69710000Y-88781000D02*
X67780000Y-88781000D01*
X73720000Y-88781000D02*
X71790000Y-88781000D01*
X69710000Y-88741000D02*
X67764000Y-88741000D01*
X73736000Y-88741000D02*
X71790000Y-88741000D01*
X69710000Y-88701000D02*
X67748000Y-88701000D01*
X73752000Y-88701000D02*
X71790000Y-88701000D01*
X69710000Y-88661000D02*
X67732000Y-88661000D01*
X73768000Y-88661000D02*
X71790000Y-88661000D01*
X69710000Y-88621000D02*
X67717000Y-88621000D01*
X73783000Y-88621000D02*
X71790000Y-88621000D01*
X69710000Y-88581000D02*
X67703000Y-88581000D01*
X73797000Y-88581000D02*
X71790000Y-88581000D01*
X69710000Y-88541000D02*
X67689000Y-88541000D01*
X73811000Y-88541000D02*
X71790000Y-88541000D01*
X69710000Y-88501000D02*
X67676000Y-88501000D01*
X73824000Y-88501000D02*
X71790000Y-88501000D01*
X69710000Y-88461000D02*
X67664000Y-88461000D01*
X73836000Y-88461000D02*
X71790000Y-88461000D01*
X69710000Y-88421000D02*
X67652000Y-88421000D01*
X73848000Y-88421000D02*
X71790000Y-88421000D01*
X69710000Y-88381000D02*
X67640000Y-88381000D01*
X73860000Y-88381000D02*
X71790000Y-88381000D01*
X69710000Y-88341000D02*
X67629000Y-88341000D01*
X73871000Y-88341000D02*
X71790000Y-88341000D01*
X69710000Y-88301000D02*
X67619000Y-88301000D01*
X73881000Y-88301000D02*
X71790000Y-88301000D01*
X69710000Y-88261000D02*
X67609000Y-88261000D01*
X73891000Y-88261000D02*
X71790000Y-88261000D01*
X69710000Y-88221000D02*
X67600000Y-88221000D01*
X73900000Y-88221000D02*
X71790000Y-88221000D01*
X69710000Y-88180000D02*
X67591000Y-88180000D01*
X73909000Y-88180000D02*
X71790000Y-88180000D01*
X69710000Y-88140000D02*
X67583000Y-88140000D01*
X73917000Y-88140000D02*
X71790000Y-88140000D01*
X69710000Y-88100000D02*
X67575000Y-88100000D01*
X73925000Y-88100000D02*
X71790000Y-88100000D01*
X69710000Y-88060000D02*
X67568000Y-88060000D01*
X73932000Y-88060000D02*
X71790000Y-88060000D01*
X69710000Y-88020000D02*
X67561000Y-88020000D01*
X73939000Y-88020000D02*
X71790000Y-88020000D01*
X69710000Y-87980000D02*
X67555000Y-87980000D01*
X73945000Y-87980000D02*
X71790000Y-87980000D01*
X69710000Y-87940000D02*
X67549000Y-87940000D01*
X73951000Y-87940000D02*
X71790000Y-87940000D01*
X69710000Y-87900000D02*
X67544000Y-87900000D01*
X73956000Y-87900000D02*
X71790000Y-87900000D01*
X69710000Y-87860000D02*
X67539000Y-87860000D01*
X73961000Y-87860000D02*
X71790000Y-87860000D01*
X69710000Y-87820000D02*
X67535000Y-87820000D01*
X73965000Y-87820000D02*
X71790000Y-87820000D01*
X69710000Y-87780000D02*
X67532000Y-87780000D01*
X73968000Y-87780000D02*
X71790000Y-87780000D01*
X69710000Y-87740000D02*
X67528000Y-87740000D01*
X73972000Y-87740000D02*
X71790000Y-87740000D01*
X73974000Y-87700000D02*
X67526000Y-87700000D01*
X73977000Y-87660000D02*
X67523000Y-87660000D01*
X73978000Y-87620000D02*
X67522000Y-87620000D01*
X73980000Y-87580000D02*
X67520000Y-87580000D01*
X73980000Y-87540000D02*
X67520000Y-87540000D01*
X73980000Y-87500000D02*
X67520000Y-87500000D01*
X74020000Y-87500000D02*
G75*
G03*
X74020000Y-87500000I-3270000J0D01*
G01*
G04 #@! TO.C,C4*
X78454000Y-79764759D02*
X77824000Y-79764759D01*
X78139000Y-79449759D02*
X78139000Y-80079759D01*
X76702000Y-86191000D02*
X75898000Y-86191000D01*
X76933000Y-86151000D02*
X75667000Y-86151000D01*
X77102000Y-86111000D02*
X75498000Y-86111000D01*
X77240000Y-86071000D02*
X75360000Y-86071000D01*
X77359000Y-86031000D02*
X75241000Y-86031000D01*
X77465000Y-85991000D02*
X75135000Y-85991000D01*
X77562000Y-85951000D02*
X75038000Y-85951000D01*
X77650000Y-85911000D02*
X74950000Y-85911000D01*
X77732000Y-85871000D02*
X74868000Y-85871000D01*
X77809000Y-85831000D02*
X74791000Y-85831000D01*
X77881000Y-85791000D02*
X74719000Y-85791000D01*
X77950000Y-85751000D02*
X74650000Y-85751000D01*
X78014000Y-85711000D02*
X74586000Y-85711000D01*
X78076000Y-85671000D02*
X74524000Y-85671000D01*
X78134000Y-85631000D02*
X74466000Y-85631000D01*
X78190000Y-85591000D02*
X74410000Y-85591000D01*
X78244000Y-85551000D02*
X74356000Y-85551000D01*
X78295000Y-85511000D02*
X74305000Y-85511000D01*
X78344000Y-85471000D02*
X74256000Y-85471000D01*
X78392000Y-85431000D02*
X74208000Y-85431000D01*
X78437000Y-85391000D02*
X74163000Y-85391000D01*
X78482000Y-85351000D02*
X74118000Y-85351000D01*
X78524000Y-85311000D02*
X74076000Y-85311000D01*
X78565000Y-85271000D02*
X74035000Y-85271000D01*
X75260000Y-85231000D02*
X73995000Y-85231000D01*
X78605000Y-85231000D02*
X77340000Y-85231000D01*
X75260000Y-85191000D02*
X73957000Y-85191000D01*
X78643000Y-85191000D02*
X77340000Y-85191000D01*
X75260000Y-85151000D02*
X73920000Y-85151000D01*
X78680000Y-85151000D02*
X77340000Y-85151000D01*
X75260000Y-85111000D02*
X73884000Y-85111000D01*
X78716000Y-85111000D02*
X77340000Y-85111000D01*
X75260000Y-85071000D02*
X73850000Y-85071000D01*
X78750000Y-85071000D02*
X77340000Y-85071000D01*
X75260000Y-85031000D02*
X73816000Y-85031000D01*
X78784000Y-85031000D02*
X77340000Y-85031000D01*
X75260000Y-84991000D02*
X73784000Y-84991000D01*
X78816000Y-84991000D02*
X77340000Y-84991000D01*
X75260000Y-84951000D02*
X73752000Y-84951000D01*
X78848000Y-84951000D02*
X77340000Y-84951000D01*
X75260000Y-84911000D02*
X73722000Y-84911000D01*
X78878000Y-84911000D02*
X77340000Y-84911000D01*
X75260000Y-84871000D02*
X73693000Y-84871000D01*
X78907000Y-84871000D02*
X77340000Y-84871000D01*
X75260000Y-84831000D02*
X73664000Y-84831000D01*
X78936000Y-84831000D02*
X77340000Y-84831000D01*
X75260000Y-84791000D02*
X73636000Y-84791000D01*
X78964000Y-84791000D02*
X77340000Y-84791000D01*
X75260000Y-84751000D02*
X73610000Y-84751000D01*
X78990000Y-84751000D02*
X77340000Y-84751000D01*
X75260000Y-84711000D02*
X73584000Y-84711000D01*
X79016000Y-84711000D02*
X77340000Y-84711000D01*
X75260000Y-84671000D02*
X73558000Y-84671000D01*
X79042000Y-84671000D02*
X77340000Y-84671000D01*
X75260000Y-84631000D02*
X73534000Y-84631000D01*
X79066000Y-84631000D02*
X77340000Y-84631000D01*
X75260000Y-84591000D02*
X73510000Y-84591000D01*
X79090000Y-84591000D02*
X77340000Y-84591000D01*
X75260000Y-84551000D02*
X73488000Y-84551000D01*
X79112000Y-84551000D02*
X77340000Y-84551000D01*
X75260000Y-84511000D02*
X73466000Y-84511000D01*
X79134000Y-84511000D02*
X77340000Y-84511000D01*
X75260000Y-84471000D02*
X73444000Y-84471000D01*
X79156000Y-84471000D02*
X77340000Y-84471000D01*
X75260000Y-84431000D02*
X73424000Y-84431000D01*
X79176000Y-84431000D02*
X77340000Y-84431000D01*
X75260000Y-84391000D02*
X73404000Y-84391000D01*
X79196000Y-84391000D02*
X77340000Y-84391000D01*
X75260000Y-84351000D02*
X73384000Y-84351000D01*
X79216000Y-84351000D02*
X77340000Y-84351000D01*
X75260000Y-84311000D02*
X73366000Y-84311000D01*
X79234000Y-84311000D02*
X77340000Y-84311000D01*
X75260000Y-84271000D02*
X73348000Y-84271000D01*
X79252000Y-84271000D02*
X77340000Y-84271000D01*
X75260000Y-84231000D02*
X73330000Y-84231000D01*
X79270000Y-84231000D02*
X77340000Y-84231000D01*
X75260000Y-84191000D02*
X73314000Y-84191000D01*
X79286000Y-84191000D02*
X77340000Y-84191000D01*
X75260000Y-84151000D02*
X73298000Y-84151000D01*
X79302000Y-84151000D02*
X77340000Y-84151000D01*
X75260000Y-84111000D02*
X73282000Y-84111000D01*
X79318000Y-84111000D02*
X77340000Y-84111000D01*
X75260000Y-84071000D02*
X73267000Y-84071000D01*
X79333000Y-84071000D02*
X77340000Y-84071000D01*
X75260000Y-84031000D02*
X73253000Y-84031000D01*
X79347000Y-84031000D02*
X77340000Y-84031000D01*
X75260000Y-83991000D02*
X73239000Y-83991000D01*
X79361000Y-83991000D02*
X77340000Y-83991000D01*
X75260000Y-83951000D02*
X73226000Y-83951000D01*
X79374000Y-83951000D02*
X77340000Y-83951000D01*
X75260000Y-83911000D02*
X73214000Y-83911000D01*
X79386000Y-83911000D02*
X77340000Y-83911000D01*
X75260000Y-83871000D02*
X73202000Y-83871000D01*
X79398000Y-83871000D02*
X77340000Y-83871000D01*
X75260000Y-83831000D02*
X73190000Y-83831000D01*
X79410000Y-83831000D02*
X77340000Y-83831000D01*
X75260000Y-83791000D02*
X73179000Y-83791000D01*
X79421000Y-83791000D02*
X77340000Y-83791000D01*
X75260000Y-83751000D02*
X73169000Y-83751000D01*
X79431000Y-83751000D02*
X77340000Y-83751000D01*
X75260000Y-83711000D02*
X73159000Y-83711000D01*
X79441000Y-83711000D02*
X77340000Y-83711000D01*
X75260000Y-83671000D02*
X73150000Y-83671000D01*
X79450000Y-83671000D02*
X77340000Y-83671000D01*
X75260000Y-83630000D02*
X73141000Y-83630000D01*
X79459000Y-83630000D02*
X77340000Y-83630000D01*
X75260000Y-83590000D02*
X73133000Y-83590000D01*
X79467000Y-83590000D02*
X77340000Y-83590000D01*
X75260000Y-83550000D02*
X73125000Y-83550000D01*
X79475000Y-83550000D02*
X77340000Y-83550000D01*
X75260000Y-83510000D02*
X73118000Y-83510000D01*
X79482000Y-83510000D02*
X77340000Y-83510000D01*
X75260000Y-83470000D02*
X73111000Y-83470000D01*
X79489000Y-83470000D02*
X77340000Y-83470000D01*
X75260000Y-83430000D02*
X73105000Y-83430000D01*
X79495000Y-83430000D02*
X77340000Y-83430000D01*
X75260000Y-83390000D02*
X73099000Y-83390000D01*
X79501000Y-83390000D02*
X77340000Y-83390000D01*
X75260000Y-83350000D02*
X73094000Y-83350000D01*
X79506000Y-83350000D02*
X77340000Y-83350000D01*
X75260000Y-83310000D02*
X73089000Y-83310000D01*
X79511000Y-83310000D02*
X77340000Y-83310000D01*
X75260000Y-83270000D02*
X73085000Y-83270000D01*
X79515000Y-83270000D02*
X77340000Y-83270000D01*
X75260000Y-83230000D02*
X73082000Y-83230000D01*
X79518000Y-83230000D02*
X77340000Y-83230000D01*
X75260000Y-83190000D02*
X73078000Y-83190000D01*
X79522000Y-83190000D02*
X77340000Y-83190000D01*
X79524000Y-83150000D02*
X73076000Y-83150000D01*
X79527000Y-83110000D02*
X73073000Y-83110000D01*
X79528000Y-83070000D02*
X73072000Y-83070000D01*
X79530000Y-83030000D02*
X73070000Y-83030000D01*
X79530000Y-82990000D02*
X73070000Y-82990000D01*
X79530000Y-82950000D02*
X73070000Y-82950000D01*
X79570000Y-82950000D02*
G75*
G03*
X79570000Y-82950000I-3270000J0D01*
G01*
G04 #@! TO.C,C2*
X102492733Y-105013000D02*
X102785267Y-105013000D01*
X102492733Y-103993000D02*
X102785267Y-103993000D01*
G04 #@! TO.C,C3*
X106229267Y-104957000D02*
X105936733Y-104957000D01*
X106229267Y-103937000D02*
X105936733Y-103937000D01*
G04 #@! TO.C,C7*
X55958100Y-81076933D02*
X55958100Y-81369467D01*
X56978100Y-81076933D02*
X56978100Y-81369467D01*
G04 #@! TO.C,C8*
X56952700Y-84881833D02*
X56952700Y-85174367D01*
X55932700Y-84881833D02*
X55932700Y-85174367D01*
G04 #@! TO.C,C10*
X59590000Y-80003733D02*
X59590000Y-80296267D01*
X60610000Y-80003733D02*
X60610000Y-80296267D01*
G04 #@! TO.C,C12*
X63403733Y-78246500D02*
X63696267Y-78246500D01*
X63403733Y-79266500D02*
X63696267Y-79266500D01*
G04 #@! TO.C,C13*
X59738000Y-67909733D02*
X59738000Y-68202267D01*
X60758000Y-67909733D02*
X60758000Y-68202267D01*
G04 #@! TO.C,C17*
X118725733Y-135634000D02*
X119018267Y-135634000D01*
X118725733Y-136654000D02*
X119018267Y-136654000D01*
G04 #@! TO.C,C18*
X91039733Y-133602000D02*
X91332267Y-133602000D01*
X91039733Y-134622000D02*
X91332267Y-134622000D01*
G04 #@! TO.C,D1*
X102694000Y-113204000D02*
X100234000Y-113204000D01*
X102694000Y-114674000D02*
X102694000Y-113204000D01*
X100234000Y-114674000D02*
X102694000Y-114674000D01*
G04 #@! TO.C,D2*
X100213000Y-111987000D02*
X102673000Y-111987000D01*
X102673000Y-111987000D02*
X102673000Y-110517000D01*
X102673000Y-110517000D02*
X100213000Y-110517000D01*
G04 #@! TO.C,J2*
X118060000Y-99639100D02*
X120720000Y-99639100D01*
X118060000Y-99639100D02*
X118060000Y-109859100D01*
X118060000Y-109859100D02*
X120720000Y-109859100D01*
X120720000Y-99639100D02*
X120720000Y-109859100D01*
X120720000Y-97039100D02*
X120720000Y-98369100D01*
X119390000Y-97039100D02*
X120720000Y-97039100D01*
G04 #@! TO.C,J4*
X118261000Y-86723200D02*
X120921000Y-86723200D01*
X118261000Y-86723200D02*
X118261000Y-94403200D01*
X118261000Y-94403200D02*
X120921000Y-94403200D01*
X120921000Y-86723200D02*
X120921000Y-94403200D01*
X120921000Y-84123200D02*
X120921000Y-85453200D01*
X119591000Y-84123200D02*
X120921000Y-84123200D01*
G04 #@! TO.C,J5*
X134324000Y-77024500D02*
X134324000Y-74364500D01*
X129184000Y-77024500D02*
X134324000Y-77024500D01*
X129184000Y-74364500D02*
X134324000Y-74364500D01*
X129184000Y-77024500D02*
X129184000Y-74364500D01*
X127914000Y-77024500D02*
X126584000Y-77024500D01*
X126584000Y-77024500D02*
X126584000Y-75694500D01*
G04 #@! TO.C,J6*
X116018000Y-62046000D02*
X116018000Y-70676000D01*
X115899905Y-62046000D02*
X115899905Y-70676000D01*
X115781810Y-62046000D02*
X115781810Y-70676000D01*
X115663715Y-62046000D02*
X115663715Y-70676000D01*
X115545620Y-62046000D02*
X115545620Y-70676000D01*
X115427525Y-62046000D02*
X115427525Y-70676000D01*
X115309430Y-62046000D02*
X115309430Y-70676000D01*
X115191335Y-62046000D02*
X115191335Y-70676000D01*
X115073240Y-62046000D02*
X115073240Y-70676000D01*
X114955145Y-62046000D02*
X114955145Y-70676000D01*
X114837050Y-62046000D02*
X114837050Y-70676000D01*
X114718955Y-62046000D02*
X114718955Y-70676000D01*
X114600860Y-62046000D02*
X114600860Y-70676000D01*
X114482765Y-62046000D02*
X114482765Y-70676000D01*
X114364670Y-62046000D02*
X114364670Y-70676000D01*
X114246575Y-62046000D02*
X114246575Y-70676000D01*
X114128480Y-62046000D02*
X114128480Y-70676000D01*
X114010385Y-62046000D02*
X114010385Y-70676000D01*
X113892290Y-62046000D02*
X113892290Y-70676000D01*
X113774195Y-62046000D02*
X113774195Y-70676000D01*
X113656100Y-62046000D02*
X113656100Y-70676000D01*
X115168000Y-70676000D02*
X115168000Y-71086000D01*
X115168000Y-73186000D02*
X115168000Y-73566000D01*
X114448000Y-70676000D02*
X114448000Y-71086000D01*
X114448000Y-73186000D02*
X114448000Y-73566000D01*
X112628000Y-70676000D02*
X112628000Y-71086000D01*
X112628000Y-73186000D02*
X112628000Y-73626000D01*
X111908000Y-70676000D02*
X111908000Y-71086000D01*
X111908000Y-73186000D02*
X111908000Y-73626000D01*
X110088000Y-70676000D02*
X110088000Y-71086000D01*
X110088000Y-73186000D02*
X110088000Y-73626000D01*
X109368000Y-70676000D02*
X109368000Y-71086000D01*
X109368000Y-73186000D02*
X109368000Y-73626000D01*
X107548000Y-70676000D02*
X107548000Y-71086000D01*
X107548000Y-73186000D02*
X107548000Y-73626000D01*
X106828000Y-70676000D02*
X106828000Y-71086000D01*
X106828000Y-73186000D02*
X106828000Y-73626000D01*
X105008000Y-70676000D02*
X105008000Y-71086000D01*
X105008000Y-73186000D02*
X105008000Y-73626000D01*
X104288000Y-70676000D02*
X104288000Y-71086000D01*
X104288000Y-73186000D02*
X104288000Y-73626000D01*
X102468000Y-70676000D02*
X102468000Y-71086000D01*
X102468000Y-73186000D02*
X102468000Y-73626000D01*
X101748000Y-70676000D02*
X101748000Y-71086000D01*
X101748000Y-73186000D02*
X101748000Y-73626000D01*
X99928000Y-70676000D02*
X99928000Y-71086000D01*
X99928000Y-73186000D02*
X99928000Y-73626000D01*
X99208000Y-70676000D02*
X99208000Y-71086000D01*
X99208000Y-73186000D02*
X99208000Y-73626000D01*
X97388000Y-70676000D02*
X97388000Y-71086000D01*
X97388000Y-73186000D02*
X97388000Y-73626000D01*
X96668000Y-70676000D02*
X96668000Y-71086000D01*
X96668000Y-73186000D02*
X96668000Y-73626000D01*
X94848000Y-70676000D02*
X94848000Y-71086000D01*
X94848000Y-73186000D02*
X94848000Y-73626000D01*
X94128000Y-70676000D02*
X94128000Y-71086000D01*
X94128000Y-73186000D02*
X94128000Y-73626000D01*
X113538000Y-62046000D02*
X113538000Y-70676000D01*
X110998000Y-62046000D02*
X110998000Y-70676000D01*
X108458000Y-62046000D02*
X108458000Y-70676000D01*
X105918000Y-62046000D02*
X105918000Y-70676000D01*
X103378000Y-62046000D02*
X103378000Y-70676000D01*
X100838000Y-62046000D02*
X100838000Y-70676000D01*
X98298000Y-62046000D02*
X98298000Y-70676000D01*
X95758000Y-62046000D02*
X95758000Y-70676000D01*
X116138000Y-62046000D02*
X116138000Y-70676000D01*
X116138000Y-70676000D02*
X93158000Y-70676000D01*
X93158000Y-62046000D02*
X93158000Y-70676000D01*
X116138000Y-62046000D02*
X93158000Y-62046000D01*
X116138000Y-75786000D02*
X114808000Y-75786000D01*
X116138000Y-74676000D02*
X116138000Y-75786000D01*
G04 #@! TO.C,J8*
X85323500Y-69031000D02*
X86653500Y-69031000D01*
X86653500Y-69031000D02*
X86653500Y-70361000D01*
X86653500Y-71631000D02*
X86653500Y-79311000D01*
X83993500Y-79311000D02*
X86653500Y-79311000D01*
X83993500Y-71631000D02*
X83993500Y-79311000D01*
X83993500Y-71631000D02*
X86653500Y-71631000D01*
G04 #@! TO.C,J9*
X90832900Y-107169000D02*
X90832900Y-104509000D01*
X90832900Y-107169000D02*
X98512900Y-107169000D01*
X98512900Y-107169000D02*
X98512900Y-104509000D01*
X90832900Y-104509000D02*
X98512900Y-104509000D01*
X88232900Y-104509000D02*
X89562900Y-104509000D01*
X88232900Y-105839000D02*
X88232900Y-104509000D01*
G04 #@! TO.C,J10*
X120688000Y-132463000D02*
X120688000Y-129803000D01*
X120688000Y-132463000D02*
X135988000Y-132463000D01*
X135988000Y-132463000D02*
X135988000Y-129803000D01*
X120688000Y-129803000D02*
X135988000Y-129803000D01*
X118088000Y-129803000D02*
X119418000Y-129803000D01*
X118088000Y-131133000D02*
X118088000Y-129803000D01*
G04 #@! TO.C,J11*
X117834000Y-123683000D02*
X117834000Y-122353000D01*
X117834000Y-122353000D02*
X119164000Y-122353000D01*
X120434000Y-122353000D02*
X135734000Y-122353000D01*
X135734000Y-125013000D02*
X135734000Y-122353000D01*
X120434000Y-125013000D02*
X135734000Y-125013000D01*
X120434000Y-125013000D02*
X120434000Y-122353000D01*
G04 #@! TO.C,J13*
X53677500Y-126432000D02*
X53677500Y-117802000D01*
X53795595Y-126432000D02*
X53795595Y-117802000D01*
X53913690Y-126432000D02*
X53913690Y-117802000D01*
X54031785Y-126432000D02*
X54031785Y-117802000D01*
X54149880Y-126432000D02*
X54149880Y-117802000D01*
X54267975Y-126432000D02*
X54267975Y-117802000D01*
X54386070Y-126432000D02*
X54386070Y-117802000D01*
X54504165Y-126432000D02*
X54504165Y-117802000D01*
X54622260Y-126432000D02*
X54622260Y-117802000D01*
X54740355Y-126432000D02*
X54740355Y-117802000D01*
X54858450Y-126432000D02*
X54858450Y-117802000D01*
X54976545Y-126432000D02*
X54976545Y-117802000D01*
X55094640Y-126432000D02*
X55094640Y-117802000D01*
X55212735Y-126432000D02*
X55212735Y-117802000D01*
X55330830Y-126432000D02*
X55330830Y-117802000D01*
X55448925Y-126432000D02*
X55448925Y-117802000D01*
X55567020Y-126432000D02*
X55567020Y-117802000D01*
X55685115Y-126432000D02*
X55685115Y-117802000D01*
X55803210Y-126432000D02*
X55803210Y-117802000D01*
X55921305Y-126432000D02*
X55921305Y-117802000D01*
X56039400Y-126432000D02*
X56039400Y-117802000D01*
X54527500Y-117802000D02*
X54527500Y-117392000D01*
X54527500Y-115292000D02*
X54527500Y-114912000D01*
X55247500Y-117802000D02*
X55247500Y-117392000D01*
X55247500Y-115292000D02*
X55247500Y-114912000D01*
X57067500Y-117802000D02*
X57067500Y-117392000D01*
X57067500Y-115292000D02*
X57067500Y-114852000D01*
X57787500Y-117802000D02*
X57787500Y-117392000D01*
X57787500Y-115292000D02*
X57787500Y-114852000D01*
X59607500Y-117802000D02*
X59607500Y-117392000D01*
X59607500Y-115292000D02*
X59607500Y-114852000D01*
X60327500Y-117802000D02*
X60327500Y-117392000D01*
X60327500Y-115292000D02*
X60327500Y-114852000D01*
X62147500Y-117802000D02*
X62147500Y-117392000D01*
X62147500Y-115292000D02*
X62147500Y-114852000D01*
X62867500Y-117802000D02*
X62867500Y-117392000D01*
X62867500Y-115292000D02*
X62867500Y-114852000D01*
X64687500Y-117802000D02*
X64687500Y-117392000D01*
X64687500Y-115292000D02*
X64687500Y-114852000D01*
X65407500Y-117802000D02*
X65407500Y-117392000D01*
X65407500Y-115292000D02*
X65407500Y-114852000D01*
X67227500Y-117802000D02*
X67227500Y-117392000D01*
X67227500Y-115292000D02*
X67227500Y-114852000D01*
X67947500Y-117802000D02*
X67947500Y-117392000D01*
X67947500Y-115292000D02*
X67947500Y-114852000D01*
X69767500Y-117802000D02*
X69767500Y-117392000D01*
X69767500Y-115292000D02*
X69767500Y-114852000D01*
X70487500Y-117802000D02*
X70487500Y-117392000D01*
X70487500Y-115292000D02*
X70487500Y-114852000D01*
X72307500Y-117802000D02*
X72307500Y-117392000D01*
X72307500Y-115292000D02*
X72307500Y-114852000D01*
X73027500Y-117802000D02*
X73027500Y-117392000D01*
X73027500Y-115292000D02*
X73027500Y-114852000D01*
X74847500Y-117802000D02*
X74847500Y-117392000D01*
X74847500Y-115292000D02*
X74847500Y-114852000D01*
X75567500Y-117802000D02*
X75567500Y-117392000D01*
X75567500Y-115292000D02*
X75567500Y-114852000D01*
X56157500Y-126432000D02*
X56157500Y-117802000D01*
X58697500Y-126432000D02*
X58697500Y-117802000D01*
X61237500Y-126432000D02*
X61237500Y-117802000D01*
X63777500Y-126432000D02*
X63777500Y-117802000D01*
X66317500Y-126432000D02*
X66317500Y-117802000D01*
X68857500Y-126432000D02*
X68857500Y-117802000D01*
X71397500Y-126432000D02*
X71397500Y-117802000D01*
X73937500Y-126432000D02*
X73937500Y-117802000D01*
X53557500Y-126432000D02*
X53557500Y-117802000D01*
X53557500Y-117802000D02*
X76537500Y-117802000D01*
X76537500Y-126432000D02*
X76537500Y-117802000D01*
X53557500Y-126432000D02*
X76537500Y-126432000D01*
X53557500Y-112692000D02*
X54887500Y-112692000D01*
X53557500Y-113802000D02*
X53557500Y-112692000D01*
G04 #@! TO.C,J14*
X91443500Y-123683000D02*
X91443500Y-122353000D01*
X91443500Y-122353000D02*
X92773500Y-122353000D01*
X94043500Y-122353000D02*
X106803500Y-122353000D01*
X106803500Y-125013000D02*
X106803500Y-122353000D01*
X94043500Y-125013000D02*
X106803500Y-125013000D01*
X94043500Y-125013000D02*
X94043500Y-122353000D01*
G04 #@! TO.C,J15*
X94007900Y-132463000D02*
X94007900Y-129803000D01*
X94007900Y-132463000D02*
X106767900Y-132463000D01*
X106767900Y-132463000D02*
X106767900Y-129803000D01*
X94007900Y-129803000D02*
X106767900Y-129803000D01*
X91407900Y-129803000D02*
X92737900Y-129803000D01*
X91407900Y-131133000D02*
X91407900Y-129803000D01*
G04 #@! TO.C,J16*
X102573000Y-152403000D02*
X102063000Y-152053000D01*
X105083000Y-152203000D02*
X105343000Y-152203000D01*
X104883000Y-152403000D02*
X105083000Y-152203000D01*
X95483000Y-152403000D02*
X95693000Y-152203000D01*
X95693000Y-152053000D02*
X95693000Y-152203000D01*
X95693000Y-152053000D02*
X102063000Y-152053000D01*
X92593000Y-147443000D02*
X92593000Y-149243000D01*
X92593000Y-141443000D02*
X92593000Y-146143000D01*
X93623000Y-152403000D02*
X93423000Y-152203000D01*
X93623000Y-152403000D02*
X95483000Y-152403000D01*
X104883000Y-152403000D02*
X102573000Y-152403000D01*
X92593000Y-136133000D02*
X92593000Y-139743000D01*
X93043000Y-136133000D02*
X92593000Y-136133000D01*
X106563000Y-136133000D02*
X106563000Y-150143000D01*
X104643000Y-136133000D02*
X106563000Y-136133000D01*
G04 #@! TO.C,J17*
X108458000Y-108652000D02*
X109788000Y-108652000D01*
X109788000Y-108652000D02*
X109788000Y-109982000D01*
X109788000Y-111252000D02*
X109788000Y-118932000D01*
X107128000Y-118932000D02*
X109788000Y-118932000D01*
X107128000Y-111252000D02*
X107128000Y-118932000D01*
X107128000Y-111252000D02*
X109788000Y-111252000D01*
G04 #@! TO.C,J21*
X78426000Y-71628000D02*
X81086000Y-71628000D01*
X78426000Y-71628000D02*
X78426000Y-79308000D01*
X78426000Y-79308000D02*
X81086000Y-79308000D01*
X81086000Y-71628000D02*
X81086000Y-79308000D01*
X81086000Y-69028000D02*
X81086000Y-70358000D01*
X79756000Y-69028000D02*
X81086000Y-69028000D01*
G04 #@! TO.C,L1*
X73500000Y-67250000D02*
G75*
G03*
X73500000Y-67250000I-5000000J0D01*
G01*
G04 #@! TO.C,Q1*
X132535000Y-84347100D02*
X130105000Y-84347100D01*
X132555000Y-84357100D02*
X132555000Y-85357100D01*
X132555000Y-87407100D02*
X130705000Y-87407100D01*
X132555000Y-86357100D02*
X132555000Y-87407100D01*
G04 #@! TO.C,R1*
X97280224Y-114431500D02*
X96770776Y-114431500D01*
X97280224Y-113386500D02*
X96770776Y-113386500D01*
G04 #@! TO.C,R5*
X96816476Y-111794500D02*
X97325924Y-111794500D01*
X96816476Y-110749500D02*
X97325924Y-110749500D01*
G04 #@! TO.C,R7*
X123210724Y-75324400D02*
X122701276Y-75324400D01*
X123210724Y-76369400D02*
X122701276Y-76369400D01*
G04 #@! TO.C,R14*
X126829500Y-85592176D02*
X126829500Y-86101624D01*
X125784500Y-85592176D02*
X125784500Y-86101624D01*
G04 #@! TO.C,R15*
X133843500Y-82041276D02*
X133843500Y-82550724D01*
X134888500Y-82041276D02*
X134888500Y-82550724D01*
G04 #@! TO.C,R33*
X59577500Y-84645276D02*
X59577500Y-85154724D01*
X60622500Y-84645276D02*
X60622500Y-85154724D01*
G04 #@! TO.C,R34*
X58872500Y-79945276D02*
X58872500Y-80454724D01*
X57827500Y-79945276D02*
X57827500Y-80454724D01*
G04 #@! TO.C,R35*
X62878624Y-81047200D02*
X62369176Y-81047200D01*
X62878624Y-80002200D02*
X62369176Y-80002200D01*
G04 #@! TO.C,R36*
X64636524Y-82965800D02*
X64127076Y-82965800D01*
X64636524Y-84010800D02*
X64127076Y-84010800D01*
G04 #@! TO.C,R37*
X64462124Y-85652800D02*
X63952676Y-85652800D01*
X64462124Y-86697800D02*
X63952676Y-86697800D01*
G04 #@! TO.C,R38*
X134859500Y-139318276D02*
X134859500Y-139827724D01*
X135904500Y-139318276D02*
X135904500Y-139827724D01*
G04 #@! TO.C,R39*
X134605500Y-134873276D02*
X134605500Y-135382724D01*
X135650500Y-134873276D02*
X135650500Y-135382724D01*
G04 #@! TO.C,SW2*
X96859800Y-82961000D02*
X96859800Y-85761000D01*
X96859800Y-82961000D02*
X92659800Y-82961000D01*
X92659800Y-85761000D02*
X92659800Y-82961000D01*
X96859800Y-85761000D02*
X92659800Y-85761000D01*
G04 #@! TO.C,SW3*
X92662300Y-97277400D02*
X92662300Y-94477400D01*
X92662300Y-97277400D02*
X96862300Y-97277400D01*
X96862300Y-94477400D02*
X96862300Y-97277400D01*
X92662300Y-94477400D02*
X96862300Y-94477400D01*
G04 #@! TO.C,SW5*
X96974100Y-92786700D02*
X92774100Y-92786700D01*
X92774100Y-92786700D02*
X92774100Y-89986700D01*
X96974100Y-89986700D02*
X92774100Y-89986700D01*
X96974100Y-89986700D02*
X96974100Y-92786700D01*
G04 #@! TO.C,U2*
X111564000Y-85342000D02*
X111564000Y-84392000D01*
X111564000Y-84392000D02*
X110614000Y-84392000D01*
X111564000Y-93662000D02*
X111564000Y-94612000D01*
X111564000Y-94612000D02*
X110614000Y-94612000D01*
X101344000Y-85342000D02*
X101344000Y-84392000D01*
X101344000Y-84392000D02*
X102294000Y-84392000D01*
X101344000Y-93662000D02*
X101344000Y-94612000D01*
X101344000Y-94612000D02*
X102294000Y-94612000D01*
X102294000Y-94612000D02*
X102294000Y-95952000D01*
G04 #@! TO.C,U3*
X56642000Y-68818500D02*
X47102000Y-68818500D01*
X47102000Y-68818500D02*
X47102000Y-74818500D01*
X47102000Y-74818500D02*
X56642000Y-74818500D01*
X56642000Y-68818500D02*
X56642000Y-74818500D01*
G04 #@! TO.C,U5*
X58190000Y-74200000D02*
X58190000Y-76150000D01*
X58190000Y-74200000D02*
X58190000Y-72250000D01*
X63310000Y-74200000D02*
X63310000Y-76150000D01*
X63310000Y-74200000D02*
X63310000Y-70750000D01*
G04 #@! TO.C,U7*
X123542000Y-135835000D02*
X122052000Y-135835000D01*
X122052000Y-135835000D02*
X122052000Y-137175000D01*
X131362000Y-135835000D02*
X132852000Y-135835000D01*
X132852000Y-135835000D02*
X132852000Y-137175000D01*
X122052000Y-139895000D02*
X122052000Y-141635000D01*
X122052000Y-141635000D02*
X132852000Y-141635000D01*
X132852000Y-141635000D02*
X132852000Y-139895000D01*
X123542000Y-135835000D02*
X123542000Y-134635000D01*
G04 #@! TO.C,Y1*
X101436000Y-97457800D02*
X107836000Y-97457800D01*
X101436000Y-102507800D02*
X107836000Y-102507800D01*
X101436000Y-102507800D02*
G75*
G02*
X101436000Y-97457800I0J2525000D01*
G01*
X107836000Y-102507800D02*
G75*
G03*
X107836000Y-97457800I0J2525000D01*
G01*
G04 #@! TO.C,J22*
X126107000Y-89965000D02*
X131607000Y-89965000D01*
X131607000Y-89965000D02*
X131607000Y-91915000D01*
X131607000Y-91915000D02*
X126107000Y-91915000D01*
X126107000Y-91915000D02*
X126107000Y-89965000D01*
X127457000Y-92165000D02*
X127157000Y-92465000D01*
X127157000Y-92465000D02*
X127757000Y-92465000D01*
X127757000Y-92465000D02*
X127457000Y-92165000D01*
G04 #@! TO.C,J23*
X128067000Y-98601700D02*
X127767000Y-98301700D01*
X127467000Y-98601700D02*
X128067000Y-98601700D01*
X127767000Y-98301700D02*
X127467000Y-98601700D01*
X126417000Y-98051700D02*
X126417000Y-96101700D01*
X131917000Y-98051700D02*
X126417000Y-98051700D01*
X131917000Y-96101700D02*
X131917000Y-98051700D01*
X126417000Y-96101700D02*
X131917000Y-96101700D01*
G04 #@! TO.C,J1*
X114300000Y-111446000D02*
X115630000Y-111446000D01*
X115630000Y-111446000D02*
X115630000Y-112776000D01*
X115630000Y-114046000D02*
X115630000Y-119186000D01*
X112970000Y-119186000D02*
X115630000Y-119186000D01*
X112970000Y-114046000D02*
X112970000Y-119186000D01*
X112970000Y-114046000D02*
X115630000Y-114046000D01*
G04 #@! TO.C,J3*
X138684000Y-65472000D02*
X140014000Y-65472000D01*
X140014000Y-65472000D02*
X140014000Y-66802000D01*
X140014000Y-68072000D02*
X140014000Y-121472000D01*
X137354000Y-121472000D02*
X140014000Y-121472000D01*
X137354000Y-68072000D02*
X137354000Y-121472000D01*
X137354000Y-68072000D02*
X140014000Y-68072000D01*
G04 #@! TO.C,J12*
X53534000Y-101684000D02*
X76514000Y-101684000D01*
X76514000Y-101684000D02*
X76514000Y-99024000D01*
X76514000Y-99024000D02*
X53534000Y-99024000D01*
X53534000Y-99024000D02*
X53534000Y-101684000D01*
X54484000Y-99024000D02*
X54484000Y-93024000D01*
X54484000Y-93024000D02*
X55244000Y-93024000D01*
X55244000Y-93024000D02*
X55244000Y-99024000D01*
X54544000Y-99024000D02*
X54544000Y-93024000D01*
X54664000Y-99024000D02*
X54664000Y-93024000D01*
X54784000Y-99024000D02*
X54784000Y-93024000D01*
X54904000Y-99024000D02*
X54904000Y-93024000D01*
X55024000Y-99024000D02*
X55024000Y-93024000D01*
X55144000Y-99024000D02*
X55144000Y-93024000D01*
X54484000Y-102081071D02*
X54484000Y-101684000D01*
X55244000Y-102081071D02*
X55244000Y-101684000D01*
X54484000Y-104554000D02*
X54484000Y-104166929D01*
X55244000Y-104554000D02*
X55244000Y-104166929D01*
X56134000Y-101684000D02*
X56134000Y-99024000D01*
X57024000Y-99024000D02*
X57024000Y-93024000D01*
X57024000Y-93024000D02*
X57784000Y-93024000D01*
X57784000Y-93024000D02*
X57784000Y-99024000D01*
X57024000Y-102081071D02*
X57024000Y-101684000D01*
X57784000Y-102081071D02*
X57784000Y-101684000D01*
X57024000Y-104621071D02*
X57024000Y-104166929D01*
X57784000Y-104621071D02*
X57784000Y-104166929D01*
X58674000Y-101684000D02*
X58674000Y-99024000D01*
X59564000Y-99024000D02*
X59564000Y-93024000D01*
X59564000Y-93024000D02*
X60324000Y-93024000D01*
X60324000Y-93024000D02*
X60324000Y-99024000D01*
X59564000Y-102081071D02*
X59564000Y-101684000D01*
X60324000Y-102081071D02*
X60324000Y-101684000D01*
X59564000Y-104621071D02*
X59564000Y-104166929D01*
X60324000Y-104621071D02*
X60324000Y-104166929D01*
X61214000Y-101684000D02*
X61214000Y-99024000D01*
X62104000Y-99024000D02*
X62104000Y-93024000D01*
X62104000Y-93024000D02*
X62864000Y-93024000D01*
X62864000Y-93024000D02*
X62864000Y-99024000D01*
X62104000Y-102081071D02*
X62104000Y-101684000D01*
X62864000Y-102081071D02*
X62864000Y-101684000D01*
X62104000Y-104621071D02*
X62104000Y-104166929D01*
X62864000Y-104621071D02*
X62864000Y-104166929D01*
X63754000Y-101684000D02*
X63754000Y-99024000D01*
X64644000Y-99024000D02*
X64644000Y-93024000D01*
X64644000Y-93024000D02*
X65404000Y-93024000D01*
X65404000Y-93024000D02*
X65404000Y-99024000D01*
X64644000Y-102081071D02*
X64644000Y-101684000D01*
X65404000Y-102081071D02*
X65404000Y-101684000D01*
X64644000Y-104621071D02*
X64644000Y-104166929D01*
X65404000Y-104621071D02*
X65404000Y-104166929D01*
X66294000Y-101684000D02*
X66294000Y-99024000D01*
X67184000Y-99024000D02*
X67184000Y-93024000D01*
X67184000Y-93024000D02*
X67944000Y-93024000D01*
X67944000Y-93024000D02*
X67944000Y-99024000D01*
X67184000Y-102081071D02*
X67184000Y-101684000D01*
X67944000Y-102081071D02*
X67944000Y-101684000D01*
X67184000Y-104621071D02*
X67184000Y-104166929D01*
X67944000Y-104621071D02*
X67944000Y-104166929D01*
X68834000Y-101684000D02*
X68834000Y-99024000D01*
X69724000Y-99024000D02*
X69724000Y-93024000D01*
X69724000Y-93024000D02*
X70484000Y-93024000D01*
X70484000Y-93024000D02*
X70484000Y-99024000D01*
X69724000Y-102081071D02*
X69724000Y-101684000D01*
X70484000Y-102081071D02*
X70484000Y-101684000D01*
X69724000Y-104621071D02*
X69724000Y-104166929D01*
X70484000Y-104621071D02*
X70484000Y-104166929D01*
X71374000Y-101684000D02*
X71374000Y-99024000D01*
X72264000Y-99024000D02*
X72264000Y-93024000D01*
X72264000Y-93024000D02*
X73024000Y-93024000D01*
X73024000Y-93024000D02*
X73024000Y-99024000D01*
X72264000Y-102081071D02*
X72264000Y-101684000D01*
X73024000Y-102081071D02*
X73024000Y-101684000D01*
X72264000Y-104621071D02*
X72264000Y-104166929D01*
X73024000Y-104621071D02*
X73024000Y-104166929D01*
X73914000Y-101684000D02*
X73914000Y-99024000D01*
X74804000Y-99024000D02*
X74804000Y-93024000D01*
X74804000Y-93024000D02*
X75564000Y-93024000D01*
X75564000Y-93024000D02*
X75564000Y-99024000D01*
X74804000Y-102081071D02*
X74804000Y-101684000D01*
X75564000Y-102081071D02*
X75564000Y-101684000D01*
X74804000Y-104621071D02*
X74804000Y-104166929D01*
X75564000Y-104621071D02*
X75564000Y-104166929D01*
X54864000Y-106934000D02*
X53594000Y-106934000D01*
X53594000Y-106934000D02*
X53594000Y-105664000D01*
G04 #@! TO.C,Q1*
D10*
X131509761Y-83954719D02*
X131414523Y-83907100D01*
X131319285Y-83811861D01*
X131176428Y-83669004D01*
X131081190Y-83621385D01*
X130985952Y-83621385D01*
X131033571Y-83859480D02*
X130938333Y-83811861D01*
X130843095Y-83716623D01*
X130795476Y-83526147D01*
X130795476Y-83192814D01*
X130843095Y-83002338D01*
X130938333Y-82907100D01*
X131033571Y-82859480D01*
X131224047Y-82859480D01*
X131319285Y-82907100D01*
X131414523Y-83002338D01*
X131462142Y-83192814D01*
X131462142Y-83526147D01*
X131414523Y-83716623D01*
X131319285Y-83811861D01*
X131224047Y-83859480D01*
X131033571Y-83859480D01*
X132414523Y-83859480D02*
X131843095Y-83859480D01*
X132128809Y-83859480D02*
X132128809Y-82859480D01*
X132033571Y-83002338D01*
X131938333Y-83097576D01*
X131843095Y-83145195D01*
G04 #@! TO.C,SW2*
X93426466Y-84265761D02*
X93569323Y-84313380D01*
X93807419Y-84313380D01*
X93902657Y-84265761D01*
X93950276Y-84218142D01*
X93997895Y-84122904D01*
X93997895Y-84027666D01*
X93950276Y-83932428D01*
X93902657Y-83884809D01*
X93807419Y-83837190D01*
X93616942Y-83789571D01*
X93521704Y-83741952D01*
X93474085Y-83694333D01*
X93426466Y-83599095D01*
X93426466Y-83503857D01*
X93474085Y-83408619D01*
X93521704Y-83361000D01*
X93616942Y-83313380D01*
X93855038Y-83313380D01*
X93997895Y-83361000D01*
X94331228Y-83313380D02*
X94569323Y-84313380D01*
X94759800Y-83599095D01*
X94950276Y-84313380D01*
X95188371Y-83313380D01*
X95521704Y-83408619D02*
X95569323Y-83361000D01*
X95664561Y-83313380D01*
X95902657Y-83313380D01*
X95997895Y-83361000D01*
X96045514Y-83408619D01*
X96093133Y-83503857D01*
X96093133Y-83599095D01*
X96045514Y-83741952D01*
X95474085Y-84313380D01*
X96093133Y-84313380D01*
G04 #@! TO.C,SW3*
X93428966Y-96782161D02*
X93571823Y-96829780D01*
X93809919Y-96829780D01*
X93905157Y-96782161D01*
X93952776Y-96734542D01*
X94000395Y-96639304D01*
X94000395Y-96544066D01*
X93952776Y-96448828D01*
X93905157Y-96401209D01*
X93809919Y-96353590D01*
X93619442Y-96305971D01*
X93524204Y-96258352D01*
X93476585Y-96210733D01*
X93428966Y-96115495D01*
X93428966Y-96020257D01*
X93476585Y-95925019D01*
X93524204Y-95877400D01*
X93619442Y-95829780D01*
X93857538Y-95829780D01*
X94000395Y-95877400D01*
X94333728Y-95829780D02*
X94571823Y-96829780D01*
X94762300Y-96115495D01*
X94952776Y-96829780D01*
X95190871Y-95829780D01*
X95476585Y-95829780D02*
X96095633Y-95829780D01*
X95762300Y-96210733D01*
X95905157Y-96210733D01*
X96000395Y-96258352D01*
X96048014Y-96305971D01*
X96095633Y-96401209D01*
X96095633Y-96639304D01*
X96048014Y-96734542D01*
X96000395Y-96782161D01*
X95905157Y-96829780D01*
X95619442Y-96829780D01*
X95524204Y-96782161D01*
X95476585Y-96734542D01*
G04 #@! TO.C,SW5*
X93540766Y-91291461D02*
X93683623Y-91339080D01*
X93921719Y-91339080D01*
X94016957Y-91291461D01*
X94064576Y-91243842D01*
X94112195Y-91148604D01*
X94112195Y-91053366D01*
X94064576Y-90958128D01*
X94016957Y-90910509D01*
X93921719Y-90862890D01*
X93731242Y-90815271D01*
X93636004Y-90767652D01*
X93588385Y-90720033D01*
X93540766Y-90624795D01*
X93540766Y-90529557D01*
X93588385Y-90434319D01*
X93636004Y-90386700D01*
X93731242Y-90339080D01*
X93969338Y-90339080D01*
X94112195Y-90386700D01*
X94445528Y-90339080D02*
X94683623Y-91339080D01*
X94874100Y-90624795D01*
X95064576Y-91339080D01*
X95302671Y-90339080D01*
X96159814Y-90339080D02*
X95683623Y-90339080D01*
X95636004Y-90815271D01*
X95683623Y-90767652D01*
X95778861Y-90720033D01*
X96016957Y-90720033D01*
X96112195Y-90767652D01*
X96159814Y-90815271D01*
X96207433Y-90910509D01*
X96207433Y-91148604D01*
X96159814Y-91243842D01*
X96112195Y-91291461D01*
X96016957Y-91339080D01*
X95778861Y-91339080D01*
X95683623Y-91291461D01*
X95636004Y-91243842D01*
G04 #@! TO.C,Y1*
X104245148Y-98739049D02*
X104245148Y-99215239D01*
X103911815Y-98215239D02*
X104245148Y-98739049D01*
X104578481Y-98215239D01*
X105435624Y-99215239D02*
X104864196Y-99215239D01*
X105149910Y-99215239D02*
X105149910Y-98215239D01*
X105054672Y-98358097D01*
X104959434Y-98453335D01*
X104864196Y-98500954D01*
G04 #@! TD*
M02*
