M48
; DRILL file {KiCad 5.1.10-88a1d61d58~88~ubuntu18.04.1} date Sat Oct 23 19:35:30 2021
; FORMAT={-:-/ absolute / metric / decimal}
; #@! TF.CreationDate,2021-10-23T19:35:30+09:00
; #@! TF.GenerationSoftware,Kicad,Pcbnew,5.1.10-88a1d61d58~88~ubuntu18.04.1
FMAT,2
METRIC
T1C0.200
T2C0.400
T3C0.800
T4C1.000
T5C1.200
T6C2.200
T7C3.200
%
G90
G05
T1
X59.45Y-73.245
X59.45Y-75.155
X60.75Y-73.245
X60.75Y-75.155
X62.05Y-73.245
X62.05Y-75.155
T2
X60.847Y-78.173
X69.03Y-84.119
X94.365Y-101.525
X94.61Y-138.98
X94.957Y-86.781
X95.589Y-92.32
X96.398Y-77.859
X96.398Y-89.142
X97.56Y-88.943
X98.28Y-134.42
X98.737Y-90.845
X99.031Y-85.436
X99.221Y-133.052
X99.292Y-91.719
X99.434Y-134.071
X99.449Y-135.082
X99.764Y-78.309
X100.434Y-112.802
X100.614Y-98.248
X100.654Y-79.765
X100.814Y-83.388
X101.266Y-84.988
X101.839Y-97.093
X101.88Y-93.927
X102.527Y-76.133
X102.563Y-86.584
X102.828Y-90.182
X103.601Y-92.285
X103.658Y-70.793
X103.746Y-81.85
X103.811Y-87.752
X104.188Y-85.252
X104.718Y-88.695
X105.19Y-85.246
X105.197Y-82.366
X105.779Y-88.249
X106.028Y-85.792
X106.704Y-97.025
X107.156Y-113.939
X108.973Y-85.485
X108.977Y-81.428
X109.434Y-79.945
X109.482Y-88.104
X109.514Y-98.109
X109.676Y-99.66
X110.733Y-89.752
X111.35Y-118.625
X113.509Y-89.62
X113.509Y-90.669
X113.738Y-91.669
X114.031Y-87.252
X114.35Y-120.797
X115.382Y-88.752
X115.863Y-89.917
X117.566Y-85.655
X119.162Y-96.016
X119.66Y-82.999
X119.68Y-73.804
X121.065Y-82.21
X121.681Y-84.525
X125.38Y-113.458
X126.477Y-95.254
X126.925Y-99.651
X128.628Y-88.18
X128.755Y-133.578
X128.76Y-108.936
X129.466Y-95.727
X129.972Y-108.871
X130.875Y-88.067
X130.965Y-102.902
X132.042Y-134.216
T3
X52.324Y-77.256
X52.324Y-79.756
X52.324Y-82.256
X69.25Y-79.0
X69.25Y-81.5
X70.75Y-86.25
X70.75Y-88.75
X74.0Y-73.75
X74.0Y-76.25
X76.3Y-81.7
X76.3Y-84.2
X89.426Y-111.251
X89.426Y-113.751
X89.426Y-116.251
X102.196Y-99.983
X107.076Y-99.983
X126.775Y-104.264
X129.275Y-104.264
X131.775Y-104.264
T4
X54.864Y-103.124
X54.864Y-105.664
X54.887Y-113.802
X54.887Y-116.342
X55.792Y-69.918
X55.792Y-71.816
X55.792Y-73.718
X57.404Y-103.124
X57.404Y-105.664
X57.427Y-113.802
X57.427Y-116.342
X59.944Y-103.124
X59.944Y-105.664
X59.967Y-113.802
X59.967Y-116.342
X62.484Y-103.124
X62.484Y-105.664
X62.508Y-113.802
X62.508Y-116.342
X65.024Y-103.124
X65.024Y-105.664
X65.047Y-113.802
X65.047Y-116.342
X67.564Y-103.124
X67.564Y-105.664
X67.587Y-113.802
X67.587Y-116.342
X70.104Y-103.124
X70.104Y-105.664
X70.127Y-113.802
X70.127Y-116.342
X72.644Y-103.124
X72.644Y-105.664
X72.667Y-113.802
X72.667Y-116.342
X75.184Y-103.124
X75.184Y-105.664
X75.207Y-113.802
X75.207Y-116.342
X79.756Y-70.358
X79.756Y-72.898
X79.756Y-75.438
X79.756Y-77.978
X85.323Y-70.361
X85.323Y-72.901
X85.323Y-75.441
X85.323Y-77.981
X89.563Y-105.839
X92.103Y-105.839
X92.738Y-131.133
X92.773Y-123.683
X94.488Y-72.136
X94.488Y-74.676
X94.643Y-105.839
X95.278Y-131.133
X95.313Y-123.683
X97.028Y-72.136
X97.028Y-74.676
X97.183Y-105.839
X97.818Y-131.133
X97.853Y-123.683
X99.568Y-72.136
X99.568Y-74.676
X100.358Y-131.133
X100.393Y-123.683
X102.108Y-72.136
X102.108Y-74.676
X102.898Y-131.133
X102.933Y-123.683
X104.648Y-72.136
X104.648Y-74.676
X105.438Y-131.133
X105.474Y-123.683
X107.188Y-72.136
X107.188Y-74.676
X108.458Y-109.982
X108.458Y-112.522
X108.458Y-115.062
X108.458Y-117.602
X109.728Y-72.136
X109.728Y-74.676
X112.268Y-72.136
X112.268Y-74.676
X114.3Y-112.776
X114.3Y-115.316
X114.3Y-117.856
X114.808Y-72.136
X114.808Y-74.676
X119.164Y-123.683
X119.39Y-98.369
X119.39Y-100.909
X119.39Y-103.449
X119.39Y-105.989
X119.39Y-108.529
X119.418Y-131.133
X119.591Y-85.453
X119.591Y-87.993
X119.591Y-90.533
X119.591Y-93.073
X121.704Y-123.683
X121.958Y-131.133
X124.244Y-123.683
X124.498Y-131.133
X126.784Y-123.683
X127.038Y-131.133
X127.914Y-75.694
X129.324Y-123.683
X129.578Y-131.133
X130.454Y-75.694
X131.864Y-123.683
X132.118Y-131.133
X132.994Y-75.694
X134.404Y-123.683
X134.658Y-131.133
X138.684Y-66.802
X138.684Y-69.342
X138.684Y-71.882
X138.684Y-74.422
X138.684Y-76.962
X138.684Y-79.502
X138.684Y-82.042
X138.684Y-84.582
X138.684Y-87.122
X138.684Y-89.662
X138.684Y-92.202
X138.684Y-94.742
X138.684Y-97.282
X138.684Y-99.822
X138.684Y-102.362
X138.684Y-104.902
X138.684Y-107.442
X138.684Y-109.982
X138.684Y-112.522
X138.684Y-115.062
X138.684Y-117.602
X138.684Y-120.142
T5
X49.403Y-69.819
X49.403Y-73.819
T6
X88.646Y-130.3
X88.646Y-150.366
X109.728Y-130.3
X109.728Y-150.366
X115.316Y-130.3
X115.316Y-139.325
X138.684Y-130.3
X138.938Y-139.325
T7
X50.038Y-123.444
X50.075Y-65.075
X50.075Y-89.55
X50.075Y-102.108
X78.175Y-65.075
X78.175Y-89.55
X79.793Y-102.108
X79.793Y-123.444
X87.0Y-65.024
X87.0Y-123.444
X143.764Y-65.024
X143.764Y-123.444
T0
M30
